<svg width="300" height="250" viewBox="0 0 300 250" fill="none" xmlns="http://www.w3.org/2000/svg">
<g opacity="0.5" clip-path="url(#clip0_9035_252)">
<path d="M68.8205 91.696H11.3403V136.735H68.8205V91.696Z" fill="#8FE89A"/>
<path d="M54.4211 136.419C54.3711 136.419 54.3267 126.381 54.3267 114.001C54.3267 101.62 54.3711 91.5823 54.4211 91.5823C54.4711 91.5823 54.5155 101.615 54.5155 114.001C54.5155 126.387 54.4766 136.419 54.4211 136.419Z" fill="#495D4C"/>
<path d="M63.119 126.485H58.7106V131.546H63.119V126.485Z" fill="#F5F5F5"/>
<path d="M35.4015 91.8193H28.8745V101.431H35.4015V91.8193Z" fill="#495D4C"/>
<path d="M35.4015 126.989H28.8745V136.601H35.4015V126.989Z" fill="#495D4C"/>
<path d="M67.4942 91.722C67.4449 91.7305 67.3946 91.7305 67.3453 91.722H66.9149H65.2597H59.1519L39.008 91.7498L18.8585 91.722H12.7562H11.101H10.6707C10.6214 91.7305 10.571 91.7305 10.5217 91.722H10.6707H11.101H12.7562L18.8585 91.6887H39.008H59.1519L65.2597 91.722H66.9149H67.3453H67.4942Z" fill="#263238"/>
<path d="M116.672 91.6443H59.192V136.683H116.672V91.6443Z" fill="#E0E0E0"/>
<path d="M102.262 136.368C102.212 136.368 102.167 126.324 102.167 113.949C102.167 101.574 102.212 91.5308 102.262 91.5308C102.312 91.5308 102.356 101.569 102.356 113.949C102.356 126.33 102.323 136.368 102.262 136.368Z" fill="#495D4C"/>
<path d="M111.8 126.426H107.392V131.487H111.8V126.426Z" fill="#F5F5F5"/>
<path opacity="0.5" d="M83.254 91.7603H76.7269V101.372H83.254V91.7603Z" fill="white"/>
<path opacity="0.5" d="M83.254 126.938H76.7269V136.549H83.254V126.938Z" fill="white"/>
<path d="M117.69 91.6443H117.574H117.138H115.483L109.375 91.6776H89.2311H69.0816H62.9518H61.2966H60.8607H60.7172C60.7649 91.6729 60.813 91.6729 60.8607 91.6776H61.2966H62.9518L69.054 91.6498H89.2035H109.347L115.455 91.6776H117.11H117.546C117.593 91.6617 117.641 91.6505 117.69 91.6443V91.6443Z" fill="#0A0D0E"/>
<path d="M119.9 46.6079H62.4201V91.6464H119.9V46.6079Z" fill="#E0E0E0"/>
<path d="M105.501 91.3321C105.451 91.3321 105.406 81.2943 105.406 68.9137C105.406 56.5332 105.451 46.4954 105.501 46.4954C105.551 46.4954 105.595 56.5332 105.595 68.9137C105.595 81.2943 105.573 91.3321 105.501 91.3321Z" fill="#495D4C"/>
<path d="M115.029 81.3884H110.62V86.4494H115.029V81.3884Z" fill="#F5F5F5"/>
<path d="M86.4816 46.7285H79.9545V56.3404H86.4816V46.7285Z" fill="#F5F5F5"/>
<path d="M86.4816 81.9009H79.9545V91.5127H86.4816V81.9009Z" fill="#F5F5F5"/>
<path d="M118.972 46.612H118.829H118.387H116.732L110.63 46.6453L90.4858 46.673L70.3363 46.6453L64.2285 46.612H62.5733H62.1374H61.994H62.1374H62.5733H64.2285H70.3363L90.4858 46.5842L110.63 46.612H116.732H118.387H118.823H118.972Z" fill="#263238"/>
<path d="M108.924 186.877V181.603H2.71953C2.53025 181.603 2.34286 181.641 2.16834 181.716C1.99381 181.79 1.83564 181.899 1.70309 182.036C1.57054 182.174 1.46627 182.336 1.39638 182.515C1.32648 182.694 1.29238 182.885 1.29604 183.077V185.465C1.2975 185.847 1.44812 186.213 1.71492 186.483C1.98171 186.753 2.34295 186.905 2.71953 186.905H5.67685V189.309C5.67539 189.686 5.5271 190.047 5.26444 190.312C5.00178 190.578 4.64616 190.727 4.27544 190.727H2.69746C2.32578 190.727 1.96933 190.877 1.70651 191.144C1.44369 191.411 1.29604 191.773 1.29604 192.151V194.583C1.30611 194.954 1.45818 195.306 1.71992 195.565C1.98165 195.823 2.33238 195.968 2.69746 195.968H108.924V190.699H84.1893V186.877H108.924ZM31.1286 186.877H37.4901V190.699H31.1341L31.1286 186.877ZM26.8857 190.699H20.5242V186.877H26.8912L26.8857 190.699ZM41.733 186.877H48.1056V190.699H41.7385L41.733 186.877ZM52.3429 186.877H58.7045V190.699H52.3485L52.3429 186.877ZM62.9474 186.877H69.3144V190.699H62.9529L62.9474 186.877ZM9.91421 186.877H16.2758V190.699H9.91972L9.91421 186.877ZM79.9189 190.699H73.5573V186.877H79.9244L79.9189 190.699Z" fill="#89948F"/>
<path d="M198.397 102.037C198.571 101.874 198.709 101.681 198.801 101.469C198.893 101.257 198.938 101.03 198.933 100.802C198.927 100.574 198.872 100.35 198.771 100.141C198.669 99.9327 198.523 99.7448 198.341 99.5884L180.346 84.0963C179.986 83.7888 179.512 83.6177 179.019 83.6177C178.526 83.6177 178.051 83.7888 177.691 84.0963V84.0963C177.507 84.2556 177.358 84.4466 177.254 84.6582C177.151 84.8699 177.094 85.0982 177.087 85.3299C177.081 85.5616 177.124 85.7922 177.215 86.0086C177.307 86.225 177.444 86.4228 177.619 86.5908L184.796 93.4733L181.061 96.7455L179.116 95.3518L165.538 109.526L158.283 103.169L149.538 126.604L151.272 158.416H171.39L169.988 120.615L183.461 103.088L183.566 98.9168L187.445 95.3013L195.808 102.103C196.17 102.398 196.643 102.554 197.129 102.539C197.614 102.524 198.074 102.339 198.413 102.022L198.397 102.037Z" fill="#B8B8B8"/>
<path d="M190.152 156.189L202.968 126.03L198.156 124.377V118.528L233.199 118.065C234.024 118.051 234.815 117.783 235.425 117.312C236.034 116.84 236.421 116.197 236.514 115.503L241.657 76.7343C241.771 75.8663 242.259 75.0644 243.026 74.4819C243.794 73.8993 244.788 73.5768 245.819 73.5762C246.384 73.5764 246.943 73.6734 247.463 73.8613C247.983 74.0492 248.452 74.3241 248.844 74.6696C249.235 75.015 249.54 75.4239 249.74 75.8717C249.941 76.3194 250.032 76.7969 250.01 77.2754L248.071 117.224L266.367 117.308L266.989 124.598L212.877 126.389L198.766 155.756L190.152 156.189Z" fill="#E9E9E9"/>
<path d="M198.678 155.542L153.928 155.852V158.416L172.466 158.21L201.991 158.018L273.575 149.307L265.461 122.692H216.993C216.155 122.682 215.327 122.847 214.58 123.174C213.833 123.501 213.189 123.98 212.705 124.569L198.678 155.542Z" fill="#B8B8B8"/>
<path d="M176.253 28.2931L144.776 130.257L144.997 158.617H155.011V130.437L180.799 28.5621L250.672 28.1642L264.035 134.276H271.919L255.659 28.9096C255.406 27.5317 254.687 26.287 253.626 25.3906C252.565 24.4942 251.229 24.0023 249.85 24H181.925C180.651 24.0002 179.41 24.418 178.388 25.1915C177.367 25.965 176.618 27.0527 176.253 28.2931V28.2931Z" fill="#E9E9E9"/>
<path d="M139.127 191.38V164.136L145.019 158.615L200.193 157.898L210.124 149.693C211.976 148.165 214.254 147.269 216.635 147.131L227.228 146.526C227.228 146.526 231.995 143.163 236.608 139.879C242.45 135.676 249.433 133.418 256.592 133.417H287.175C288.285 133.417 289.35 133.865 290.136 134.663C290.921 135.461 291.362 136.543 291.362 137.671V191.38H139.127Z" fill="#5CCD6A"/>
<path d="M291.357 182.598H138.586V191.554H291.357V182.598Z" fill="#495D4C"/>
<path d="M146.492 191.282C146.438 195.077 147.493 198.803 149.524 201.989C151.554 205.175 154.469 207.678 157.9 209.181C161.331 210.684 165.124 211.12 168.799 210.434C172.474 209.747 175.866 207.969 178.546 205.324C181.226 202.68 183.073 199.287 183.855 195.575C184.637 191.864 184.318 188 182.938 184.473C181.558 180.946 179.179 177.914 176.103 175.76C173.026 173.606 169.39 172.427 165.654 172.372C163.173 172.335 160.71 172.795 158.404 173.725C156.099 174.655 153.996 176.038 152.216 177.794C150.437 179.55 149.015 181.645 148.033 183.96C147.051 186.274 146.527 188.762 146.492 191.282V191.282Z" fill="#495D4C"/>
<path d="M146.498 191.228C146.498 191.228 146.498 191.262 146.498 191.278C146.469 196.338 148.409 201.205 151.896 204.819C155.382 208.433 160.132 210.503 165.113 210.576C170.094 210.65 174.902 208.723 178.491 205.214C182.079 201.705 184.158 196.898 184.275 191.839C184.275 191.839 184.275 191.805 184.275 191.788L146.498 191.228Z" fill="#495D4C"/>
<path d="M152.12 191.36C152.086 194.018 152.829 196.627 154.255 198.857C155.68 201.087 157.724 202.838 160.128 203.888C162.532 204.939 165.189 205.242 167.762 204.76C170.336 204.278 172.712 203.032 174.589 201.179C176.466 199.326 177.76 196.95 178.308 194.35C178.857 191.751 178.635 189.045 177.67 186.573C176.705 184.102 175.041 181.976 172.887 180.465C170.734 178.954 168.188 178.125 165.571 178.083C163.829 178.055 162.099 178.376 160.479 179.028C158.859 179.681 157.382 180.652 156.133 181.885C154.883 183.119 153.885 184.591 153.197 186.216C152.508 187.842 152.142 189.59 152.12 191.36V191.36Z" fill="#FAFAFA"/>
<path d="M165.571 178.083C163.829 178.055 162.099 178.376 160.479 179.028C158.859 179.681 157.382 180.652 156.133 181.885C154.883 183.119 153.885 184.591 153.197 186.216C152.508 187.842 152.142 189.59 152.12 191.36L178.642 191.747C178.67 189.977 178.353 188.219 177.711 186.574C177.069 184.929 176.113 183.428 174.899 182.159C173.684 180.889 172.236 179.876 170.635 179.177C169.034 178.477 167.314 178.105 165.571 178.083Z" fill="#E0E0E0"/>
<path d="M157.301 191.437C157.277 193.061 157.728 194.655 158.596 196.019C159.465 197.383 160.712 198.454 162.18 199.098C163.647 199.741 165.27 199.928 166.843 199.635C168.415 199.342 169.867 198.581 171.014 197.45C172.161 196.318 172.952 194.867 173.287 193.279C173.621 191.691 173.485 190.037 172.895 188.528C172.305 187.019 171.287 185.721 169.971 184.799C168.654 183.878 167.098 183.373 165.5 183.35C164.438 183.333 163.384 183.53 162.398 183.927C161.411 184.325 160.512 184.916 159.75 185.667C158.989 186.418 158.381 187.315 157.96 188.305C157.54 189.295 157.316 190.359 157.301 191.437V191.437Z" fill="#495D4C"/>
<path d="M238.93 191.282C238.876 195.077 239.931 198.803 241.962 201.989C243.992 205.175 246.907 207.678 250.338 209.181C253.769 210.684 257.562 211.12 261.237 210.434C264.912 209.747 268.304 207.969 270.984 205.324C273.664 202.679 275.511 199.287 276.293 195.575C277.075 191.864 276.756 188 275.376 184.473C273.996 180.946 271.617 177.913 268.541 175.759C265.464 173.605 261.828 172.427 258.092 172.372C253.083 172.299 248.25 174.25 244.656 177.796C241.063 181.342 239.003 186.193 238.93 191.282V191.282Z" fill="#495D4C"/>
<path d="M238.936 191.228C238.936 191.228 238.936 191.262 238.936 191.278C238.908 196.338 240.848 201.205 244.334 204.819C247.82 208.433 252.571 210.503 257.551 210.576C262.532 210.65 267.34 208.723 270.929 205.214C274.518 201.705 276.597 196.898 276.714 191.839C276.711 191.822 276.711 191.805 276.714 191.788L238.936 191.228Z" fill="#495D4C"/>
<path d="M244.558 191.36C244.525 194.018 245.267 196.627 246.693 198.857C248.118 201.087 250.162 202.838 252.566 203.888C254.97 204.939 257.627 205.242 260.2 204.76C262.774 204.278 265.15 203.032 267.027 201.179C268.904 199.326 270.198 196.95 270.746 194.35C271.295 191.751 271.073 189.045 270.108 186.573C269.143 184.102 267.479 181.976 265.325 180.465C263.172 178.954 260.626 178.125 258.009 178.083C256.267 178.055 254.537 178.376 252.917 179.028C251.297 179.681 249.82 180.652 248.571 181.885C247.321 183.119 246.323 184.591 245.635 186.216C244.946 187.842 244.58 189.59 244.558 191.36V191.36Z" fill="#FAFAFA"/>
<path d="M258.009 178.083C256.267 178.055 254.537 178.376 252.917 179.028C251.297 179.681 249.82 180.652 248.571 181.885C247.321 183.119 246.323 184.591 245.635 186.216C244.946 187.842 244.58 189.59 244.558 191.36L271.08 191.747C271.108 189.977 270.792 188.219 270.149 186.574C269.507 184.929 268.551 183.428 267.337 182.159C266.123 180.889 264.674 179.876 263.073 179.177C261.472 178.477 259.752 178.105 258.009 178.083V178.083Z" fill="#E0E0E0"/>
<path d="M249.745 191.437C249.722 193.06 250.173 194.653 251.042 196.015C251.91 197.376 253.157 198.446 254.624 199.089C256.091 199.731 257.712 199.917 259.284 199.623C260.855 199.33 262.305 198.569 263.45 197.438C264.596 196.307 265.386 194.857 265.72 193.27C266.054 191.683 265.918 190.031 265.328 188.523C264.738 187.015 263.721 185.719 262.405 184.798C261.09 183.877 259.535 183.373 257.938 183.35C256.877 183.333 255.823 183.53 254.837 183.927C253.851 184.325 252.952 184.916 252.191 185.668C251.43 186.419 250.822 187.315 250.402 188.305C249.983 189.295 249.759 190.359 249.745 191.437V191.437Z" fill="#495D4C"/>
<path d="M282.402 177.894C282.402 177.894 282.369 177.855 282.308 177.765L282.066 177.362L281.679 176.7C281.515 176.393 281.33 176.097 281.128 175.815C279.916 173.963 278.485 172.269 276.868 170.771C276.383 170.272 275.765 169.835 275.213 169.341C274.661 168.848 273.972 168.417 273.309 167.94C272.647 167.464 271.919 167.021 271.141 166.634C270.755 166.433 270.369 166.214 269.971 166.018L268.73 165.457C266.97 164.701 265.135 164.137 263.257 163.776C257.292 162.622 251.118 163.613 245.794 166.578L244.614 167.257C244.233 167.486 243.874 167.744 243.51 167.98C242.765 168.445 242.125 169 241.469 169.487C240.812 169.975 240.244 170.535 239.703 171.068C239.162 171.6 238.633 172.105 238.191 172.654C236.722 174.301 235.457 176.125 234.423 178.085C234.252 178.388 234.097 178.7 233.959 179.021C233.833 179.29 233.722 179.519 233.634 179.716C233.546 179.912 233.485 180.029 233.43 180.136C233.407 180.186 233.381 180.235 233.353 180.282C233.361 180.227 233.378 180.174 233.402 180.125L233.579 179.687L233.882 178.981C234.01 178.657 234.158 178.341 234.324 178.034C235.327 176.041 236.577 174.186 238.042 172.514C238.478 171.953 239.024 171.46 239.549 170.905C240.073 170.35 240.702 169.846 241.32 169.302C241.938 168.759 242.622 168.237 243.367 167.767C243.731 167.526 244.095 167.268 244.47 167.027L245.656 166.343C249.18 164.369 253.093 163.22 257.11 162.98C261.131 162.826 265.134 163.593 268.824 165.222L270.071 165.783C270.474 165.984 270.86 166.203 271.246 166.41C272.035 166.803 272.725 167.307 273.453 167.739C274.181 168.17 274.772 168.675 275.362 169.162C275.952 169.65 276.532 170.109 277.017 170.619C278.633 172.14 280.05 173.865 281.232 175.753C281.433 176.043 281.617 176.345 281.784 176.655C281.924 176.917 282.045 177.141 282.148 177.328L282.364 177.748C282.383 177.795 282.396 177.844 282.402 177.894Z" fill="#495D4C"/>
<path d="M190.047 181.433C190.015 181.385 189.991 181.332 189.975 181.277L189.787 180.823L189.489 180.072L189.042 179.074C188.082 176.955 186.884 174.956 185.473 173.116C183.415 170.356 180.791 168.084 177.781 166.458C175.979 165.566 174.068 164.92 172.098 164.536C169.988 164.097 167.836 163.898 165.682 163.942C163.528 163.975 161.385 164.255 159.293 164.777C157.345 165.281 155.469 166.034 153.709 167.018C150.7 168.642 148.009 170.811 145.769 173.419C144.271 175.183 142.967 177.107 141.88 179.158C141.493 179.887 141.207 180.453 141.019 180.839L140.798 181.277C140.776 181.33 140.749 181.381 140.716 181.428C140.728 181.372 140.747 181.317 140.771 181.265L140.969 180.811C141.135 180.408 141.411 179.831 141.78 179.091C142.835 177.004 144.122 175.046 145.615 173.256C147.852 170.607 150.553 168.403 153.582 166.755C155.36 165.766 157.255 165.013 159.221 164.513C161.334 163.981 163.5 163.695 165.676 163.661C167.853 163.616 170.027 163.819 172.159 164.267C174.15 164.66 176.082 165.32 177.903 166.228C180.935 167.882 183.572 170.194 185.627 172.999C187.035 174.857 188.221 176.88 189.158 179.023C189.313 179.405 189.456 179.741 189.578 180.038C189.699 180.335 189.776 180.598 189.853 180.8C189.931 181.002 189.969 181.148 190.013 181.265C190.032 181.32 190.043 181.376 190.047 181.433V181.433Z" fill="#495D4C"/>
<path d="M139.088 181.603H55.345V191.551H139.088V181.603Z" fill="#495D4C"/>
<path d="M136.82 185.827C136.82 186.317 136.677 186.796 136.409 187.203C136.141 187.61 135.76 187.928 135.315 188.115C134.869 188.303 134.379 188.352 133.906 188.256C133.433 188.161 132.998 187.925 132.657 187.579C132.316 187.232 132.084 186.791 131.99 186.31C131.896 185.83 131.944 185.331 132.129 184.879C132.313 184.426 132.626 184.039 133.027 183.767C133.428 183.495 133.899 183.35 134.382 183.35C134.702 183.35 135.019 183.414 135.315 183.538C135.611 183.663 135.88 183.845 136.106 184.075C136.332 184.305 136.512 184.578 136.635 184.879C136.757 185.179 136.82 185.502 136.82 185.827V185.827Z" fill="#89948F"/>
<path d="M237.402 172.311C237.402 172.395 225.617 172.462 211.084 172.462C196.552 172.462 184.766 172.395 184.766 172.311C184.766 172.227 196.546 172.165 211.084 172.165C225.623 172.165 237.402 172.233 237.402 172.311Z" fill="#495D4C"/>
<path d="M226.683 170.195C226.597 170.195 226.533 164.988 226.533 158.571C226.533 152.154 226.597 146.941 226.683 146.941C226.77 146.941 226.834 152.148 226.834 158.571C226.834 164.994 226.764 170.195 226.683 170.195Z" fill="#495D4C"/>
<path d="M139.088 163.12H129.901V181.738H139.088V163.12Z" fill="#495D4C"/>
<path d="M118.587 136.695H61.107V181.734H118.587V136.695Z" fill="#8FE89A"/>
<path d="M104.187 181.398C104.137 181.398 104.093 171.36 104.093 158.979C104.093 146.599 104.137 136.561 104.187 136.561C104.237 136.561 104.282 146.593 104.282 158.979C104.282 171.366 104.237 181.398 104.187 181.398Z" fill="#495D4C"/>
<path d="M113.715 171.481H109.307V176.542H113.715V171.481Z" fill="#F5F5F5"/>
<path d="M105.195 136.819H98.6674V146.431H105.195V136.819Z" fill="#495D4C"/>
<path d="M85.1684 171.994H78.6414V181.606H85.1684V171.994Z" fill="#495D4C"/>
<path d="M122.744 136.698C122.697 136.707 122.648 136.707 122.601 136.698H122.17H120.515L114.407 136.726H94.2632H74.1137L68.0115 136.698H66.3562H65.9259C65.8766 136.707 65.8262 136.707 65.7769 136.698H65.9259H66.3562H68.0115L74.1137 136.671H94.2632H114.407L120.515 136.698H122.17H122.601H122.744Z" fill="#263238"/>
<path d="M60.2431 136.695H2.76291V181.734H60.2431V136.695Z" fill="#E0E0E0"/>
<path d="M43.8991 181.398C43.8436 181.398 43.8047 171.36 43.8047 158.979C43.8047 146.599 43.8436 136.561 43.8991 136.561C43.9546 136.561 43.988 146.593 43.988 158.979C43.988 171.366 43.9491 181.398 43.8991 181.398Z" fill="#263238"/>
<path d="M53.4273 171.481H49.0189V176.542H53.4273V171.481Z" fill="#F5F5F5"/>
<path opacity="0.5" d="M24.8801 136.819H18.353V146.431H24.8801V136.819Z" fill="white"/>
<path opacity="0.5" d="M24.8801 171.994H18.353V181.606H24.8801V171.994Z" fill="white"/>
<path d="M56.967 136.698C56.9178 136.707 56.8674 136.707 56.8181 136.698H56.3877H54.7325L48.6303 136.726H28.4863H8.33677L2.22902 136.698H0.573805H0.143449C0.0959867 136.707 0.0474624 136.707 0 136.698H0.143449H0.573805H2.22902L8.33677 136.671H28.4863H48.6303L54.7325 136.698H56.3877H56.8181H56.967Z" fill="#263238"/>
<path d="M293.768 148.948C296.731 149.671 299.219 152.731 299.169 155.824C299.107 157.377 298.545 158.866 297.569 160.063C296.594 161.26 295.258 162.098 293.768 162.449" fill="#E8505B"/>
<g opacity="0.6">
<path d="M293.768 148.948C296.731 149.671 299.219 152.731 299.169 155.824C299.107 157.377 298.545 158.866 297.569 160.063C296.594 161.26 295.258 162.098 293.768 162.449" fill="white"/>
</g>
<path d="M293.889 147.201H291.357V164.245H293.889V147.201Z" fill="#498D51"/>
<path d="M317.94 249.809C317.94 249.912 237.843 250 139.064 250C40.285 250 -39.834 249.912 -39.834 249.809C-39.834 249.706 40.2462 249.618 139.064 249.618C237.882 249.618 317.94 249.699 317.94 249.809Z" fill="#495D4C"/>
</g>
<defs>
<clipPath id="clip0_9035_252">
<rect width="300" height="250" fill="white"/>
</clipPath>
</defs>
</svg>
