<svg width="301" height="251" viewBox="0 0 301 251" fill="none" xmlns="http://www.w3.org/2000/svg">
<g opacity="0.5" clip-path="url(#clip0_9035_116)">
<path d="M13.2866 42.7015C14.3033 42.0932 15.4029 41.618 16.5551 41.2888L17.1678 38.2069L22.6814 38.0188L23.5386 41.06C24.7116 41.3133 25.8443 41.7112 26.9074 42.2433L29.6605 40.4722L33.6981 44.0181L32.0278 46.7344C32.6667 47.6964 33.1679 48.7339 33.5186 49.8198L36.7838 50.4049L36.9842 55.6092L33.7623 56.4115C33.4982 57.5218 33.0767 58.5933 32.5093 59.5972L34.3863 62.19L30.6499 66.0251L27.7457 64.4109C26.729 65.0192 25.6294 65.4945 24.4772 65.8236L23.858 68.9055L18.3509 69.0936L17.4937 66.0524C16.32 65.8012 15.1871 65.4032 14.1249 64.8691L11.411 66.6527L7.37336 63.1068L9.04365 60.3904C8.40279 59.4287 7.89933 58.3912 7.54635 57.305L4.24191 56.7322L4.05464 51.5156L7.27645 50.7133C7.54059 49.6031 7.96205 48.5315 8.52945 47.5276L6.64592 44.9348L10.4019 41.1183L13.2866 42.7015ZM16.3649 49.5816C15.5691 50.39 15.0452 51.403 14.8594 52.4925C14.6736 53.5821 14.8342 54.6992 15.3211 55.7027C15.8079 56.7062 16.599 57.551 17.5944 58.1302C18.5897 58.7094 19.7446 58.997 20.9131 58.9567C22.0815 58.9164 23.211 58.55 24.1586 57.9038C25.1063 57.2575 25.8296 56.3606 26.2372 55.3262C26.6447 54.2919 26.7181 53.1667 26.4481 52.0928C26.1781 51.019 25.5768 50.0448 24.7203 49.2934C23.5709 48.2872 22.0456 47.7525 20.4791 47.8065C18.9127 47.8606 17.4331 48.4989 16.3649 49.5816V49.5816Z" fill="#B4FFCD"/>
<path d="M265.808 153.214C266.827 152.61 267.926 152.137 269.077 151.807L269.689 148.725L275.203 148.537L276.06 151.579C277.234 151.829 278.367 152.227 279.429 152.762L282.182 150.985L286.22 154.53L284.543 157.253C285.187 158.213 285.691 159.251 286.04 160.338L289.305 160.923L289.506 166.122L286.284 166.93C286.017 168.038 285.595 169.107 285.031 170.11L286.908 172.709L283.152 176.519L280.293 174.96C279.274 175.565 278.175 176.04 277.025 176.373L276.406 179.455L270.892 179.643L270.041 176.602C268.867 176.353 267.733 175.955 266.672 175.419L263.919 177.196L259.875 173.65L261.552 170.927C260.907 169.968 260.404 168.93 260.055 167.842L256.79 167.257L256.583 162.059L259.804 161.25C260.072 160.143 260.493 159.074 261.057 158.071L259.18 155.472L262.936 151.661L265.815 153.239L265.808 153.214ZM268.886 160.094C268.089 160.902 267.563 161.916 267.376 163.007C267.188 164.098 267.348 165.216 267.834 166.222C268.321 167.227 269.112 168.073 270.108 168.654C271.104 169.235 272.26 169.524 273.43 169.484C274.6 169.445 275.731 169.079 276.681 168.432C277.63 167.786 278.355 166.888 278.764 165.853C279.172 164.818 279.247 163.691 278.977 162.616C278.707 161.54 278.106 160.565 277.248 159.812C276.099 158.803 274.573 158.266 273.005 158.319C271.437 158.372 269.956 159.01 268.886 160.094V160.094Z" fill="#B4FFCD"/>
<path d="M20.6427 14.8873C21.1196 14.5983 21.6366 14.373 22.1789 14.2178L22.4622 12.7754L25.0231 12.6934L25.4257 14.106C25.9693 14.2213 26.494 14.4046 26.9861 14.6512L28.2939 13.8272L30.1725 15.4766L29.3669 16.7578C29.6661 17.2055 29.9003 17.6891 30.0635 18.1956L31.5851 18.4632L31.679 20.8804L30.1825 21.2602C30.0571 21.7751 29.8608 22.2723 29.5986 22.739L30.4719 23.9737L28.7248 25.7157L27.4196 24.9798C26.9319 25.2673 26.4038 25.4885 25.8507 25.6369L25.5609 27.073L23.0196 27.1675L22.6235 25.7548C22.0776 25.6374 21.5507 25.452 21.0566 25.2034L19.7488 26.0275L17.8767 24.3842L18.6693 23.1092C18.3716 22.6629 18.1374 22.1816 17.9727 21.6776L16.4511 21.4038L16.3572 18.9866L17.8602 18.613C17.9822 18.098 18.1763 17.6007 18.4375 17.1341L17.5707 15.9304L19.3375 14.1575L20.6427 14.8873ZM22.0745 18.0898C21.709 18.4674 21.4699 18.9385 21.3872 19.444C21.3045 19.9496 21.3819 20.4669 21.6096 20.9311C21.8374 21.3953 22.2053 21.7857 22.6673 22.0532C23.1292 22.3207 23.6646 22.4535 24.2062 22.4348C24.7477 22.4161 25.2713 22.2468 25.7113 21.9481C26.1512 21.6495 26.4878 21.2348 26.6788 20.7562C26.8698 20.2775 26.9067 19.7562 26.7849 19.2578C26.6631 18.7593 26.388 18.3059 25.9942 17.9545C25.7291 17.7196 25.4173 17.5367 25.0769 17.4162C24.7364 17.2958 24.3741 17.2403 24.0108 17.2529C23.6475 17.2655 23.2905 17.3459 22.9604 17.4896C22.6303 17.6332 22.3336 17.8372 22.0876 18.0898L22.0745 18.0898Z" fill="#B4FFCD"/>
<path d="M37.0489 232.1L30.2313 234.716C30.2313 234.716 32.5609 240.121 26.6516 242.503C25.5258 242.986 24.2689 243.125 23.0553 242.902C21.8416 242.679 20.7317 242.105 19.8796 241.259C19.1545 240.555 18.6163 239.698 18.3091 238.76C18.0018 237.822 17.9342 236.828 18.1118 235.861C18.4944 233.617 20.3213 231.006 25.2484 230.003L19.0015 215.472L12.2623 218.063L15.9128 226.559C15.9128 226.559 7.44998 232.501 11.6992 242.337C15.7597 251.746 25.6388 250.493 29.4692 249.025C32.3911 247.92 42.0731 243.398 37.0489 232.1Z" fill="#EBEBEB"/>
<path d="M10.8899 215.094L17.7323 212.465L15.1303 206.435L8.28792 209.064L10.8899 215.094Z" fill="#EBEBEB"/>
<path d="M275.424 70.8666L281.723 73.3435C281.723 73.3435 283.953 68.3528 289.489 70.4461C290.563 70.8328 291.484 71.5254 292.123 72.4281C292.761 73.3307 293.087 74.3985 293.054 75.4834C293.036 76.3971 292.789 77.2938 292.334 78.1001C291.878 78.9064 291.227 79.5992 290.433 80.1219C288.621 81.3521 285.602 81.9636 281.674 79.5462L275.687 92.9531L281.922 95.4298L285.423 87.5742C285.423 87.5742 295.115 88.9222 299.154 79.8282C303.036 71.1347 295.676 65.8321 292.138 64.4019C289.474 63.3739 279.981 60.3245 275.424 70.8666Z" fill="#EBEBEB"/>
<path d="M280.776 98.2625L274.454 95.7483L271.967 101.322L278.288 103.836L280.776 98.2625Z" fill="#EBEBEB"/>
<path d="M262.071 8.6742L254.355 29.1258C254.049 29.9336 254.068 30.8192 254.407 31.615C254.747 32.4109 255.383 33.0619 256.196 33.4449V33.4449C257.05 33.8504 258.036 33.9301 258.95 33.6675C259.864 33.405 260.635 32.8204 261.104 32.035L272.542 12.9769C272.745 12.6368 272.87 12.2597 272.908 11.8706C272.945 11.4814 272.895 11.0892 272.76 10.7199C272.624 10.3506 272.407 10.0126 272.123 9.72843C271.839 9.44425 271.494 9.22034 271.111 9.07156L265.934 7.05286C265.569 6.91053 265.177 6.83975 264.781 6.8448C264.386 6.84984 263.996 6.93062 263.635 7.08222C263.273 7.23382 262.948 7.4531 262.68 7.72675C262.411 8.0004 262.204 8.32273 262.071 8.6742V8.6742Z" fill="#E0E0E0"/>
<path d="M256.696 46.912C255.96 47.6945 254.995 48.2534 253.923 48.518C252.85 48.7827 251.719 48.7412 250.671 48.3987C249.623 48.0563 248.707 47.4284 248.037 46.5943C247.368 45.7603 246.975 44.7576 246.909 43.7131C246.843 42.6685 247.107 41.6291 247.667 40.7262C248.227 39.8233 249.058 39.0974 250.056 38.6405C251.053 38.1836 252.171 38.0161 253.269 38.1591C254.368 38.3022 255.396 38.7495 256.225 39.4443C256.776 39.9052 257.226 40.464 257.548 41.089C257.87 41.7139 258.058 42.3926 258.102 43.0862C258.145 43.7799 258.044 44.4748 257.803 45.1313C257.561 45.7878 257.186 46.3929 256.696 46.912V46.912Z" fill="#E0E0E0"/>
<path d="M263.11 106.917C267.928 99.2215 269.685 90.1573 268.065 81.3492C268.007 80.9976 267.929 80.6522 267.838 80.3068C267.19 77.2783 266.652 74.8172 265.101 72.2496C264.945 71.9226 264.789 71.6325 264.62 71.2869C264.45 70.9414 264.281 70.6698 264.105 70.3427C260.83 64.7378 256.097 60.0124 250.351 56.6123C244.606 53.2121 238.038 51.2492 231.266 50.9087C229.001 30.3541 213.819 11.5353 193.457 3.98515C173.095 -3.56499 148.389 0.574234 131.963 14.2288C114.621 1.97303 90.6788 -1.47046 70.3059 5.38896C49.9329 12.2484 33.6847 29.2082 28.491 49.0535C26.9066 55.1243 26.2426 61.5541 22.9543 66.9746C20.4652 71.0707 16.6645 74.2768 13.4184 77.8599C8.21118 83.5994 4.39667 90.3444 2.24215 97.6223C0.0876278 104.9 -0.354793 112.535 0.945883 119.992C2.24656 127.449 5.25887 134.548 9.77178 140.791C14.2847 147.034 20.189 152.27 27.0712 156.133C16.0796 170.333 19.8898 192.728 35.041 202.97C43.7388 208.848 55.3496 211.118 61.9733 219.046C64.7897 222.424 66.4159 226.533 68.8595 230.156C77.1677 242.502 95.6656 247.546 109.668 241.323L184.023 223.634C209.305 225.472 234.355 217.988 253.909 202.756C261.045 197.126 267.458 190.354 270.556 182.054C273.653 173.754 272.938 163.881 267.024 157.12C281.072 143.516 279.082 118.418 263.11 106.917Z" fill="#E9E9E9"/>
<path d="M44.5576 182.723C44.4408 181.543 44.4913 180.354 44.7079 179.187L41.9612 177.177L44.3625 172.243L47.7577 172.924C48.5601 172.009 49.4873 171.2 50.5149 170.515L50.0648 167.267L55.4654 165.386L57.3547 168.135C58.6038 168.025 59.8625 168.073 61.098 168.276L63.2262 165.677L68.4401 167.944L67.6822 171.153C68.6474 171.909 69.5011 172.785 70.2205 173.756L73.6613 173.33L75.6451 178.437L72.7317 180.223C72.8606 181.392 72.8268 182.573 72.6313 183.734L75.378 185.745L72.9708 190.675L69.5757 189.994C68.7772 190.91 67.8506 191.718 66.8214 192.397L67.2685 195.652L61.868 197.532L59.9757 194.775C58.728 194.889 57.4701 194.844 56.2353 194.642L54.1071 197.242L48.8962 194.969L49.6133 191.754C48.6475 190.998 47.7937 190.123 47.075 189.151L43.64 189.58L41.6562 184.473L44.5667 182.678L44.5576 182.723ZM52.7808 183.256C53.2024 184.337 53.9535 185.275 54.9391 185.952C55.9247 186.628 57.1006 187.013 58.318 187.057C59.5355 187.102 60.7398 186.804 61.7787 186.201C62.8176 185.598 63.6444 184.717 64.1546 183.67C64.6648 182.623 64.8354 181.457 64.6449 180.319C64.4544 179.181 63.9113 178.122 63.0843 177.277C62.2574 176.431 61.1836 175.837 59.9989 175.568C58.8142 175.3 57.5718 175.371 56.4287 175.77C55.6692 176.035 54.9723 176.439 54.3777 176.958C53.7832 177.478 53.3028 178.104 52.964 178.799C52.6251 179.494 52.4345 180.246 52.4031 181.01C52.3717 181.775 52.5 182.538 52.7808 183.256V183.256Z" fill="white"/>
<path d="M190.422 52.6836C190.997 52.3438 191.617 52.0774 192.265 51.8913L192.608 50.1469L195.718 50.0411L196.198 51.756C196.858 51.8948 197.495 52.1178 198.091 52.4189L199.641 51.4226L201.918 53.418L200.975 54.9456C201.337 55.4879 201.621 56.073 201.821 56.6857L203.662 57.0156L203.775 59.9446L201.965 60.3978C201.812 61.022 201.574 61.6247 201.256 62.1909L202.312 63.654L200.199 65.8023L198.58 64.9117C198.005 65.2515 197.386 65.5179 196.737 65.7041L196.388 67.4484L193.285 67.5542L192.804 65.8393C192.142 65.6996 191.503 65.4766 190.904 65.1764L189.354 66.1727L187.078 64.1773L188.021 62.6436C187.647 62.1052 187.352 61.522 187.142 60.9095L185.294 60.5796L185.188 57.6507L187.005 57.1913C187.152 56.5675 187.39 55.9661 187.713 55.4044L186.664 53.9536L188.777 51.8053L190.422 52.6836ZM192.153 56.5586C191.705 57.0145 191.41 57.5855 191.306 58.1995C191.202 58.8135 191.293 59.4429 191.568 60.0081C191.843 60.5733 192.289 61.049 192.85 61.3751C193.411 61.7011 194.062 61.8628 194.72 61.8398C195.378 61.8167 196.015 61.61 196.548 61.2457C197.082 60.8813 197.49 60.3758 197.719 59.7929C197.948 59.21 197.989 58.576 197.837 57.971C197.685 57.366 197.346 56.8171 196.863 56.3938C196.542 56.1098 196.165 55.8886 195.752 55.743C195.34 55.5974 194.902 55.5303 194.462 55.5456C194.022 55.5609 193.59 55.6584 193.19 55.8322C192.791 56.0061 192.431 56.253 192.134 56.5586L192.153 56.5586Z" fill="#78C081"/>
<path d="M84.1279 214.907C84.0355 214.078 84.062 213.24 84.2067 212.418L82.2844 211.024L83.9633 207.572L86.3474 208.024C86.9085 207.386 87.5562 206.822 88.2736 206.345L87.9598 204.069L91.7249 202.753L93.0423 204.673C93.9155 204.595 94.7958 204.629 95.6594 204.773L97.1372 202.948L100.783 204.539L100.303 206.794C100.978 207.321 101.576 207.932 102.079 208.609L104.48 208.307L105.874 211.87L103.84 213.124C103.912 213.956 103.868 214.794 103.708 215.615L105.628 217.014L103.952 220.461L101.568 220.009C101.008 220.647 100.363 221.213 99.6471 221.691L99.967 223.942L96.196 225.255L94.8786 223.335C94.0186 223.409 93.152 223.373 92.3025 223.227L90.8247 225.052L87.1791 223.462L87.6589 221.206C86.9835 220.679 86.3861 220.069 85.8826 219.391L83.4962 219.693L82.1028 216.13L84.1427 214.88L84.1279 214.907ZM89.8687 215.281C90.164 216.036 90.6895 216.691 91.3788 217.164C92.0681 217.637 92.8902 217.905 93.7413 217.936C94.5923 217.966 95.4341 217.758 96.1601 217.336C96.8862 216.914 97.4639 216.298 97.8203 215.566C98.1766 214.834 98.2956 214.019 98.1622 213.224C98.0289 212.428 97.6491 211.688 97.0709 211.097C96.4927 210.506 95.742 210.09 94.9139 209.903C94.0857 209.716 93.2172 209.765 92.4181 210.044C91.347 210.421 90.4771 211.183 89.9992 212.165C89.5213 213.146 89.4743 214.267 89.8687 215.281V215.281Z" fill="#78C081"/>
<path d="M196.085 188.714C196.828 188.273 197.63 187.928 198.471 187.688L198.919 185.432L202.936 185.297L203.586 187.512C204.441 187.694 205.267 187.984 206.041 188.373L208.048 187.082L210.99 189.664L209.772 191.647C210.221 192.35 210.571 193.105 210.813 193.893L213.197 194.323L213.347 198.109L211.001 198.721C210.807 199.528 210.5 200.307 210.089 201.038L211.458 202.934L208.723 205.71L206.621 204.559C205.883 204.982 205.09 205.31 204.261 205.536L203.813 207.792L199.796 207.927L199.146 205.712C198.291 205.53 197.465 205.241 196.691 204.851L194.69 206.143L191.742 203.56L192.967 201.577C192.497 200.878 192.13 200.122 191.873 199.331L189.489 198.908L189.339 195.115L191.692 194.503C191.883 193.695 192.19 192.916 192.604 192.186L191.235 190.291L193.97 187.514L196.065 188.665L196.085 188.714ZM198.33 193.725C197.749 194.314 197.367 195.052 197.231 195.847C197.095 196.641 197.211 197.456 197.566 198.188C197.92 198.92 198.497 199.536 199.222 199.959C199.948 200.382 200.79 200.592 201.642 200.563C202.494 200.535 203.318 200.268 204.009 199.797C204.701 199.327 205.229 198.673 205.527 197.919C205.825 197.165 205.879 196.345 205.683 195.561C205.487 194.778 205.049 194.067 204.425 193.519C204.011 193.154 203.524 192.871 202.993 192.684C202.463 192.497 201.898 192.411 201.332 192.43C200.766 192.449 200.21 192.573 199.694 192.795C199.179 193.017 198.716 193.333 198.33 193.725V193.725Z" fill="white"/>
<path d="M57.8481 110.767C57.3846 109.657 56.6635 108.66 55.7379 107.849C54.8122 107.037 53.7055 106.432 52.4993 106.078C50.423 105.513 47.973 105.731 46.3552 104.378C45.5854 103.76 45.1297 102.822 44.4515 102.094C43.1497 100.845 41.418 100.077 39.5689 99.9274C33.469 99.1404 27.8641 103.071 25.6354 107.679C23.1375 109.235 20.5937 110.822 18.7087 113.014C16.8237 115.205 15.6561 118.132 16.3439 120.877C16.8566 122.894 18.2974 124.617 18.8232 126.628C19.297 128.478 18.9737 130.402 19.1273 132.289C19.2809 134.176 20.1267 136.249 21.9938 136.942C24.2918 137.791 27.1491 136.199 29.2767 137.392C30.719 138.203 31.1798 139.973 32.3603 141.097C34.4017 143.055 37.8516 142.561 40.6098 141.666C43.799 140.633 46.854 139.263 49.7162 137.581C51.6308 136.539 53.3268 135.175 54.7202 133.557C55.4098 132.744 55.9207 131.81 56.223 130.809C56.5253 129.808 56.6129 128.76 56.4806 127.727C56.2606 126.493 55.6224 125.296 55.5461 124.026C55.3996 121.793 56.9641 119.829 57.8038 117.74C58.7378 115.502 58.7536 113.015 57.8481 110.767V110.767Z" fill="white"/>
<path d="M53.2481 134.966L47.2775 138.834L47.271 138.841L53.3688 140.892L53.2481 134.966Z" fill="#F5F5F5"/>
<path d="M33.831 120.962C33.8303 121.42 33.6855 121.868 33.4149 122.249C33.1444 122.63 32.7603 122.927 32.3112 123.101C31.8621 123.276 31.3682 123.321 30.8919 123.231C30.4156 123.141 29.9783 122.919 29.6353 122.594C29.2924 122.269 29.0591 121.856 28.9651 121.406C28.8711 120.956 28.9205 120.49 29.1071 120.067C29.2937 119.644 29.6092 119.282 30.0135 119.028C30.4178 118.774 30.8929 118.639 31.3787 118.639C32.0301 118.641 32.6545 118.886 33.1144 119.321C33.5743 119.757 33.8321 120.347 33.831 120.962V120.962Z" fill="#495E4C"/>
<path d="M41.4674 120.975C41.4679 121.435 41.3238 121.884 41.0534 122.267C40.7829 122.65 40.3982 122.948 39.9481 123.124C39.4979 123.3 39.0024 123.346 38.5244 123.257C38.0464 123.167 37.6074 122.945 37.2628 122.62C36.9183 122.294 36.6838 121.88 36.589 121.428C36.4942 120.977 36.5434 120.51 36.7303 120.085C36.9172 119.66 37.2334 119.297 37.639 119.042C38.0446 118.787 38.5212 118.651 39.0085 118.652C39.6606 118.653 40.2856 118.898 40.7465 119.334C41.2074 119.769 41.4667 120.359 41.4674 120.975V120.975Z" fill="#495E4C"/>
<path d="M49.0972 120.987C49.0964 121.446 48.9516 121.894 48.6811 122.275C48.4106 122.655 48.0265 122.952 47.5774 123.127C47.1283 123.301 46.6344 123.346 46.1581 123.256C45.6818 123.166 45.2445 122.944 44.9015 122.62C44.5586 122.295 44.3253 121.881 44.2313 121.431C44.1373 120.982 44.1867 120.516 44.3733 120.092C44.5599 119.669 44.8753 119.307 45.2797 119.053C45.684 118.799 46.1591 118.664 46.6449 118.665C47.2963 118.666 47.9206 118.911 48.3805 119.347C48.8404 119.782 49.0982 120.372 49.0972 120.987V120.987Z" fill="#495E4C"/>
<path d="M244.903 71.9317C244.349 71.0861 243.167 70.8807 242.116 70.7926C238.315 70.461 234.485 70.581 230.716 71.1497C229.409 71.3448 227.489 71.2306 227.36 69.9602C227.38 69.5849 227.524 69.2249 227.774 68.9319C228.023 68.6388 228.364 68.4277 228.748 68.3286C230.055 67.8622 231.472 68.0865 232.851 68.058C234.229 68.0294 235.791 67.6004 236.348 66.4114C237.194 64.6062 235.009 62.7096 232.938 62.441C230.868 62.1725 228.692 62.6868 226.701 62.0977L222.343 62.1767C219.122 62.2226 215.921 62.6565 212.817 63.468C211.948 63.6947 210.921 64.1307 210.855 64.9754C210.788 65.82 211.695 66.3764 212.112 67.1108C212.952 68.592 211.577 70.4457 209.91 71.0225C208.244 71.5993 206.395 71.3681 204.625 71.4884C202.854 71.6088 200.88 72.3146 200.29 73.8982C199.824 75.1306 200.377 76.5682 199.97 77.8315C199.451 79.4399 197.568 80.2938 195.817 80.5745C194.066 80.8552 192.211 80.8151 190.59 81.5153C189.404 82.0242 188.436 82.8974 187.843 83.9925C187.251 85.0876 187.069 86.3399 187.328 87.5451C187.587 88.7503 188.271 89.8372 189.268 90.6286C190.265 91.4199 191.517 91.8689 192.819 91.9023C194.074 91.9044 195.309 91.5797 196.557 91.5201C197.475 91.4563 198.391 91.6741 199.169 92.1411C199.235 93.4032 199.708 94.6163 200.523 95.6189C201.338 96.6214 202.457 97.366 203.732 97.7534C205.462 98.1941 207.318 97.9197 209.068 98.2741C210.818 98.6285 212.625 100.037 212.289 101.695C212.046 102.885 210.796 103.752 210.697 104.954C210.57 106.428 212.26 107.504 213.821 107.642C215.382 107.78 216.938 107.326 218.499 107.415C220.06 107.504 221.802 108.444 221.839 109.918C221.875 111.564 219.822 112.72 219.787 114.36C219.752 115.735 221.142 116.755 222.5 117.25C223.858 117.746 225.386 118.007 226.455 118.94C227.525 119.873 227.698 121.865 226.365 122.418C228.521 122.353 229.786 119.402 228.332 117.938C227.406 117.03 225.852 116.781 225.141 115.713C224.346 114.528 225.041 112.889 226.193 112.016C227.344 111.142 228.808 110.744 230.18 110.172C231.553 109.601 232.894 108.691 233.249 107.329C233.775 105.289 231.707 103.349 229.533 102.889C227.358 102.43 225.104 102.944 222.883 103.063C220.661 103.183 218.134 102.753 216.883 101.012L224.152 97.7628C224.501 97.6567 224.824 97.4855 225.102 97.2593C225.379 97.0331 225.606 96.7565 225.768 96.446C226.175 95.2691 224.752 94.3048 223.558 93.791L218.832 91.7546C218.814 91.4816 218.751 91.213 218.644 90.9589C221.52 89.8538 224.766 90.2847 227.842 90.6844C230.918 91.0842 234.203 91.398 236.988 90.0831C239.773 88.7683 241.569 85.2074 239.777 82.8059C238.818 81.5156 236.958 80.6247 236.915 79.04C236.917 77.7328 238.225 76.7485 239.533 76.3314C240.84 75.9143 242.29 75.8304 243.506 75.2035C244.722 74.5766 245.633 73.0181 244.903 71.9317Z" fill="white"/>
<path d="M210.389 81.5731C211.688 81.5752 212.742 80.5832 212.745 79.3573C212.747 78.1314 211.695 77.1359 210.397 77.1337C209.098 77.1315 208.043 78.1236 208.041 79.3495C208.039 80.5754 209.09 81.5709 210.389 81.5731Z" fill="#495E4C"/>
<path d="M220.041 79.3695C220.04 79.8085 219.902 80.2375 219.643 80.602C219.384 80.9666 219.016 81.2505 218.586 81.4178C218.156 81.5851 217.683 81.6283 217.227 81.5419C216.771 81.4555 216.352 81.2434 216.024 80.9324C215.696 80.6214 215.472 80.2255 215.382 79.7948C215.292 79.3641 215.34 78.9178 215.518 78.5125C215.697 78.1072 215.999 77.7611 216.386 77.5178C216.773 77.2745 217.228 77.1451 217.693 77.1459C218.317 77.1469 218.915 77.3818 219.355 77.7988C219.795 78.2158 220.042 78.7808 220.041 79.3695V79.3695Z" fill="#495E4C"/>
<path d="M224.989 81.5974C226.288 81.5995 227.342 80.6075 227.344 79.3816C227.346 78.1557 226.295 77.1601 224.996 77.158C223.698 77.1558 222.643 78.1478 222.641 79.3738C222.639 80.5997 223.69 81.5952 224.989 81.5974Z" fill="#495E4C"/>
<path d="M60.4686 27.9699C57.838 27.9545 55.261 28.6703 53.0588 30.0282C50.8567 31.386 49.1269 33.3258 48.0852 35.6056C47.0435 37.8854 46.7359 40.4044 47.2008 42.8484C47.6657 45.2924 48.8826 47.5533 50.6996 49.3491C44.2696 50.6332 40.1685 57.7356 41.8504 63.7192C43.5323 69.7029 50.3257 73.8022 56.8587 73.3877C63.3918 72.9731 69.2785 68.4757 71.6986 62.69C72.5882 65.0973 74.2288 67.1942 76.4047 68.705C78.5806 70.2157 81.1899 71.0695 83.8893 71.1541C86.5888 71.2387 89.252 70.5501 91.5287 69.1788C93.8053 67.8075 95.5888 65.8179 96.6445 63.4715C99.5299 68.5632 107.772 69.4216 112.501 65.767C117.23 62.1124 118.32 55.2948 116.068 49.9452C113.817 44.5957 108.787 40.6042 103.258 38.1656C106.797 35.1626 107.251 29.6511 104.736 25.8364C102.221 22.0217 97.2659 19.9664 92.4903 20.1927C87.7147 20.419 83.2558 22.6868 79.8929 25.8566C79.144 23.922 77.7324 22.2786 75.8819 21.1868C74.0314 20.0951 71.8479 19.6175 69.6776 19.8299C67.5072 20.0422 65.4742 20.9322 63.9007 22.3589C62.3273 23.7856 61.3035 25.6673 60.9916 27.7056" fill="white"/>
<path d="M67.7076 38.9942L73.8311 49.2089C74.0721 49.6129 74.4619 49.9193 74.9264 50.0701C75.391 50.2209 75.8979 50.2056 76.3512 50.027C76.8281 49.8411 77.211 49.4893 77.4209 49.0444C77.6307 48.5995 77.6514 48.0955 77.4788 47.6365L73.2774 36.5001C73.2017 36.3011 73.0823 36.1195 72.9269 35.9672C72.7716 35.8148 72.5838 35.6953 72.376 35.6163C72.1682 35.5373 71.9451 35.5008 71.7213 35.509C71.4974 35.5172 71.278 35.5701 71.0774 35.6641L68.3774 36.9482C68.1882 37.0381 68.0201 37.1632 67.8834 37.3158C67.7466 37.4685 67.6438 37.6456 67.5813 37.8366C67.5188 38.0277 67.4977 38.2286 67.5194 38.4275C67.5412 38.6264 67.6052 38.8192 67.7076 38.9942V38.9942Z" fill="#495E4C"/>
<path d="M82.3534 54.6059C82.4299 55.1669 82.3285 55.7366 82.0621 56.2432C81.7957 56.7498 81.3762 57.1704 80.8565 57.452C80.3369 57.7336 79.7404 57.8634 79.1426 57.8251C78.5447 57.7868 77.9723 57.5822 77.4975 57.2369C77.0228 56.8917 76.6671 56.4214 76.4754 55.8855C76.2837 55.3496 76.2646 54.7721 76.4205 54.226C76.5763 53.6799 76.9002 53.1897 77.3512 52.8173C77.8021 52.4449 78.3599 52.2071 78.9541 52.1339C79.3493 52.0852 79.7508 52.1105 80.1356 52.2084C80.5204 52.3063 80.881 52.4749 81.1967 52.7045C81.5125 52.9342 81.7772 53.2203 81.9756 53.5465C82.1741 53.8728 82.3024 54.2328 82.3534 54.6059Z" fill="#495E4C"/>
<path d="M87.5697 32.9539L87.7553 43.0847C87.762 43.4843 87.9236 43.8678 88.2096 44.1625C88.4956 44.4573 88.8862 44.6429 89.3073 44.6843V44.6843C89.7497 44.7296 90.1935 44.6123 90.5467 44.3569C90.8999 44.1014 91.1353 43.7274 91.204 43.3124L92.8931 33.2156C92.9231 33.0353 92.9122 32.8509 92.861 32.6748C92.8099 32.4988 92.7197 32.3349 92.5964 32.1942C92.4731 32.0535 92.3195 31.9391 92.1459 31.8587C91.9722 31.7782 91.7825 31.7335 91.5891 31.7275L88.9763 31.6491C88.7921 31.6438 88.6086 31.6737 88.437 31.7371C88.2654 31.8005 88.1092 31.8961 87.9778 32.018C87.8463 32.1399 87.7424 32.2857 87.6723 32.4465C87.6021 32.6074 87.5672 32.78 87.5697 32.9539V32.9539Z" fill="#E0E0E0"/>
<path d="M91.8649 50.4906C91.6791 50.9456 91.3547 51.3383 90.9325 51.6192C90.5104 51.9001 90.0095 52.0566 89.4931 52.0689C88.9767 52.0812 88.468 51.9488 88.0312 51.6883C87.5945 51.4278 87.2493 51.051 87.0393 50.6055C86.8293 50.16 86.764 49.6658 86.8514 49.1852C86.9389 48.7047 87.1753 48.2595 87.5308 47.9058C87.8863 47.5521 88.3449 47.3058 88.8487 47.198C89.3525 47.0903 89.8788 47.1259 90.3612 47.3004C90.6821 47.4164 90.9755 47.591 91.2248 47.8143C91.4741 48.0375 91.6743 48.3049 91.814 48.6012C91.9536 48.8976 92.03 49.217 92.0388 49.5412C92.0475 49.8654 91.9884 50.188 91.8649 50.4906Z" fill="#E0E0E0"/>
<path d="M216.378 142.759L210.795 157.547C210.576 158.134 210.59 158.775 210.836 159.352C211.081 159.929 211.541 160.401 212.129 160.682V160.682C212.747 160.974 213.461 161.031 214.123 160.84C214.785 160.65 215.343 160.227 215.684 159.658L223.964 145.86C224.112 145.614 224.203 145.341 224.23 145.059C224.258 144.777 224.221 144.492 224.123 144.225C224.026 143.957 223.869 143.712 223.663 143.505C223.457 143.299 223.207 143.137 222.93 143.029L219.183 141.567C218.916 141.465 218.631 141.414 218.343 141.419C218.056 141.424 217.772 141.484 217.51 141.595C217.248 141.707 217.012 141.867 216.818 142.067C216.623 142.267 216.474 142.503 216.378 142.759V142.759Z" fill="white"/>
<path d="M212.491 170.437C211.958 171.004 211.26 171.408 210.483 171.6C209.707 171.791 208.888 171.761 208.129 171.513C207.371 171.265 206.707 170.81 206.223 170.206C205.738 169.602 205.455 168.876 205.407 168.119C205.36 167.363 205.552 166.611 205.958 165.957C206.364 165.304 206.966 164.779 207.688 164.449C208.41 164.119 209.22 163.998 210.015 164.102C210.81 164.207 211.554 164.531 212.154 165.035C212.552 165.369 212.877 165.773 213.11 166.225C213.342 166.678 213.478 167.169 213.509 167.67C213.541 168.172 213.467 168.675 213.292 169.149C213.117 169.624 212.845 170.062 212.491 170.437V170.437Z" fill="white"/>
<path d="M126.677 33.9561L131.969 33.9649C131.969 33.9649 131.976 29.359 136.595 29.2866C137.516 29.2798 138.415 29.5515 139.161 30.0621C139.906 30.5726 140.459 31.2951 140.738 32.1236C141.017 32.8457 141.128 33.6162 141.063 34.3823C140.997 35.1485 140.757 35.8921 140.358 36.5624C139.454 38.0962 137.486 39.4864 133.92 38.833L133.9 51.1955L139.125 51.2042L139.138 43.9594C139.138 43.9594 146.483 42.0109 146.497 33.6254C146.511 25.6098 139.57 23.7485 136.597 23.7435C134.337 23.7212 126.596 24.2571 126.677 33.9561Z" fill="white"/>
<path d="M139.2 53.7508L133.882 53.7419L133.874 58.8842L139.191 58.8931L139.2 53.7508Z" fill="white"/>
<path d="M260.371 122.943C260.371 122.943 260.443 122.875 260.594 122.758C260.832 122.586 261.103 122.459 261.391 122.384C261.867 122.265 262.367 122.266 262.842 122.386C263.511 122.529 264.106 122.887 264.525 123.4C265.051 124.053 265.347 124.845 265.371 125.664C265.392 126.649 265.14 127.622 264.641 128.487C263.337 130.6 261.57 132.426 259.458 133.843C258.227 134.706 256.948 135.507 255.626 136.241C254.247 137.022 252.782 137.821 251.2 138.57C249.554 139.361 247.837 140.013 246.069 140.516C245.13 140.788 244.171 140.993 243.2 141.128C242.191 141.271 241.169 141.321 240.149 141.277C239.076 141.313 238.014 141.055 237.093 140.532C236.624 140.231 236.295 139.771 236.174 139.248C236.071 138.719 236.143 138.172 236.379 137.682C236.882 136.72 237.586 135.864 238.448 135.164C239.291 134.416 240.189 133.725 241.136 133.097C243.052 131.817 245.099 130.637 247.204 129.407C249.357 128.125 251.666 127.094 254.082 126.336C255.342 125.957 256.644 125.717 257.963 125.621C259.319 125.499 260.686 125.623 261.993 125.985C263.365 126.331 264.55 127.149 265.314 128.278C265.658 128.88 265.845 129.551 265.857 130.234C265.87 130.918 265.708 131.594 265.386 132.206C264.745 133.453 263.715 134.484 262.435 135.161C261.16 135.859 259.796 136.402 258.376 136.776C255.458 137.511 252.43 137.781 249.418 137.575C246.317 137.362 243.236 136.944 240.197 136.326C238.628 136.051 237.078 135.69 235.554 135.246C234.783 135.013 234.029 134.736 233.295 134.416C232.52 134.124 231.822 133.674 231.253 133.099C230.963 132.789 230.773 132.408 230.706 132C230.642 131.578 230.718 131.147 230.923 130.768C231.339 130.06 231.964 129.483 232.723 129.106C234.209 128.349 235.853 127.907 237.539 127.813C240.926 127.541 244.331 127.547 247.716 127.83C249.441 127.981 251.155 128.227 252.85 128.566C253.705 128.734 254.554 128.939 255.396 129.187C256.273 129.373 257.104 129.715 257.844 130.196C258.231 130.452 258.537 130.803 258.73 131.21C258.923 131.618 258.994 132.067 258.938 132.51C258.81 132.933 258.588 133.326 258.288 133.664C257.988 134.001 257.616 134.275 257.197 134.468C255.613 135.303 253.873 135.842 252.073 136.056C251.169 136.162 250.257 136.187 249.349 136.132C248.428 136.095 247.518 135.933 246.645 135.652C245.734 135.377 244.952 134.811 244.433 134.052C244.203 133.648 244.082 133.197 244.083 132.738C244.084 132.279 244.206 131.828 244.438 131.425C244.897 130.629 245.595 129.978 246.443 129.553C247.292 129.128 248.254 128.947 249.21 129.035C250.188 129.108 251.098 129.536 251.75 130.229C252.382 130.945 252.69 131.867 252.608 132.795C252.563 133.263 252.399 133.714 252.128 134.108C251.848 134.495 251.468 134.809 251.023 135.019C250.132 135.421 249.119 135.516 248.161 135.285C247.668 135.203 247.201 135.014 246.797 134.735C246.394 134.455 246.063 134.091 245.832 133.672C245.728 133.442 245.688 133.19 245.715 132.941C245.741 132.692 245.834 132.454 245.985 132.248C246.292 131.85 246.743 131.572 247.253 131.467C248.23 131.348 249.222 131.462 250.14 131.798C251.079 132.042 251.972 132.424 252.784 132.931C253.612 133.459 254.252 134.21 254.622 135.086C254.811 135.531 254.895 136.009 254.867 136.487C254.839 136.966 254.701 137.432 254.461 137.854C253.958 138.669 253.221 139.333 252.335 139.768C251.467 140.231 250.508 140.521 249.518 140.621C247.521 140.832 245.51 140.361 243.85 139.292C242.206 138.203 240.937 136.683 240.199 134.92C239.385 133.17 239.25 131.205 239.816 129.37C240.13 128.443 240.747 127.632 241.577 127.055C242.405 126.51 243.341 126.128 244.329 125.931C246.259 125.533 248.238 125.389 250.209 125.503C252.17 125.533 254.124 125.743 256.042 126.13C257.996 126.522 259.734 127.567 260.936 129.073C261.504 129.848 261.839 130.754 261.905 131.695C261.956 132.626 261.798 133.556 261.443 134.425C260.696 136.127 259.435 137.583 257.817 138.612C257.042 139.14 256.229 139.616 255.385 140.039C254.554 140.474 253.696 140.862 252.816 141.2C251.054 141.92 249.11 142.146 247.216 141.85C243.541 141.036 240.278 139.046 237.982 136.218C236.909 134.78 236.262 133.097 236.109 131.343C235.958 129.616 236.208 127.878 236.843 126.252C237.458 124.642 238.427 123.173 239.685 121.94C240.924 120.72 242.389 119.724 244.008 119C245.612 118.297 247.331 117.855 249.092 117.695C250.856 117.546 252.633 117.715 254.33 118.191C256.02 118.63 257.517 119.565 258.605 120.862C259.573 122.205 260.121 123.779 260.184 125.403C260.373 128.547 259.782 131.69 258.458 134.581C257.825 135.997 257.008 137.333 256.027 138.56C255.059 139.78 253.837 140.799 252.436 141.557C251.041 142.288 249.456 142.634 247.862 142.554C246.287 142.433 244.796 141.834 243.612 140.845C242.475 139.891 241.429 138.843 240.488 137.714C239.466 136.668 238.618 135.481 237.973 134.195C237.686 133.542 237.519 132.847 237.48 132.141C237.456 131.439 237.563 130.737 237.797 130.07C238.285 128.78 239.027 127.589 239.984 126.559C241.758 124.484 244.178 122.989 246.903 122.285C248.205 121.956 249.564 121.876 250.9 122.05C252.236 122.224 253.521 122.648 254.681 123.297C256.835 124.64 258.462 126.614 259.31 128.916C260.177 131.052 260.476 133.356 260.18 135.626C259.928 137.798 258.877 139.819 257.212 141.337C255.572 142.669 253.579 143.557 251.446 143.904C249.486 144.298 247.469 144.376 245.481 144.135C243.625 143.898 241.892 143.124 240.52 141.919C239.282 140.811 238.359 139.427 237.836 137.894C237.355 136.503 237.208 135.029 237.405 133.578C237.74 131.144 238.83 128.859 240.539 127.01C241.785 125.662 243.273 124.531 244.934 123.669C245.946 123.136 247.007 122.69 248.105 122.337C248.85 122.097 249.242 122.006 249.242 122.006L248.954 122.098L248.118 122.368C247.028 122.735 245.974 123.189 244.967 123.725C243.322 124.594 241.85 125.727 240.617 127.072C238.93 128.912 237.858 131.182 237.536 133.596C237.347 135.026 237.497 136.477 237.973 137.845C238.496 139.356 239.413 140.718 240.638 141.808C241.988 142.986 243.692 143.741 245.514 143.968C247.475 144.2 249.462 144.117 251.394 143.725C253.487 143.379 255.443 142.507 257.055 141.201C258.68 139.706 259.702 137.724 259.945 135.595C260.24 133.35 259.946 131.071 259.088 128.959C258.249 126.703 256.645 124.771 254.524 123.463C253.399 122.835 252.151 122.426 250.856 122.26C249.56 122.093 248.243 122.173 246.981 122.495C244.31 123.186 241.939 124.656 240.206 126.695C239.27 127.7 238.545 128.864 238.071 130.126C237.849 130.764 237.746 131.433 237.767 132.105C237.809 132.781 237.972 133.446 238.247 134.072C238.862 135.338 239.677 136.507 240.665 137.542C241.598 138.654 242.632 139.688 243.756 140.63C244.896 141.583 246.332 142.163 247.849 142.283C249.393 142.356 250.928 142.019 252.28 141.31C253.644 140.566 254.834 139.57 255.779 138.381C256.745 137.173 257.549 135.858 258.17 134.463C259.472 131.614 260.052 128.518 259.864 125.421C259.804 123.851 259.277 122.329 258.343 121.028C257.295 119.781 255.852 118.884 254.225 118.469C252.588 118.004 250.873 117.838 249.17 117.979C247.445 118.132 245.761 118.563 244.19 119.253C240.959 120.654 238.445 123.203 237.195 126.345C236.581 127.92 236.337 129.603 236.482 131.276C236.62 132.991 237.247 134.639 238.296 136.045C240.539 138.811 243.729 140.755 247.321 141.548C249.151 141.846 251.033 141.635 252.738 140.941C253.604 140.607 254.449 140.226 255.268 139.798C256.098 139.382 256.897 138.914 257.661 138.396C259.227 137.402 260.449 135.995 261.175 134.351C261.511 133.524 261.659 132.64 261.611 131.756C261.553 130.87 261.238 130.016 260.7 129.288C259.546 127.845 257.877 126.846 256.002 126.475C254.108 126.089 252.179 125.879 250.241 125.849C248.296 125.734 246.344 125.873 244.44 126.264C243.502 126.456 242.613 126.821 241.825 127.339C241.051 127.877 240.476 128.631 240.182 129.494C239.641 131.265 239.775 133.159 240.558 134.847C241.272 136.551 242.498 138.022 244.085 139.076C245.683 140.091 247.613 140.531 249.525 140.319C250.469 140.225 251.384 139.95 252.211 139.509C253.033 139.09 253.713 138.461 254.174 137.694C254.39 137.312 254.516 136.89 254.542 136.458C254.567 136.025 254.492 135.593 254.322 135.191C253.975 134.375 253.378 133.676 252.607 133.184C251.821 132.697 250.96 132.33 250.054 132.094C249.192 131.78 248.262 131.668 247.344 131.769C246.915 131.857 246.534 132.089 246.272 132.421C246.153 132.585 246.081 132.774 246.061 132.971C246.041 133.169 246.075 133.367 246.159 133.549C246.37 133.92 246.668 134.24 247.03 134.487C247.391 134.733 247.807 134.898 248.247 134.971C249.121 135.178 250.044 135.095 250.86 134.735C251.257 134.549 251.596 134.27 251.842 133.923C252.089 133.576 252.236 133.174 252.268 132.758C252.312 132.34 252.265 131.918 252.132 131.517C251.998 131.117 251.78 130.746 251.491 130.427C251.201 130.108 250.847 129.847 250.448 129.661C250.049 129.475 249.615 129.367 249.171 129.343C248.282 129.261 247.387 129.428 246.597 129.821C245.807 130.214 245.156 130.817 244.725 131.555C244.52 131.914 244.412 132.315 244.411 132.723C244.41 133.131 244.517 133.533 244.721 133.892C245.198 134.589 245.918 135.107 246.757 135.357C247.6 135.626 248.479 135.783 249.369 135.824C250.258 135.873 251.15 135.846 252.034 135.742C253.79 135.536 255.488 135.014 257.034 134.202C257.414 134.031 257.751 133.786 258.024 133.484C258.297 133.182 258.499 132.829 258.618 132.448C258.665 132.06 258.6 131.667 258.429 131.312C258.258 130.957 257.988 130.652 257.648 130.43C256.94 129.973 256.147 129.648 255.311 129.47C254.469 129.247 253.633 129.042 252.784 128.849C251.103 128.51 249.402 128.265 247.69 128.113C244.325 127.818 240.939 127.8 237.571 128.06C235.931 128.141 234.33 128.559 232.879 129.285C232.171 129.634 231.587 130.171 231.198 130.83C231.023 131.15 230.956 131.514 231.007 131.871C231.058 132.228 231.224 132.562 231.482 132.828C232.031 133.37 232.699 133.792 233.439 134.064C234.162 134.382 234.906 134.655 235.666 134.882C237.179 135.324 238.718 135.683 240.276 135.956C243.293 136.604 246.355 137.052 249.438 137.297C252.42 137.508 255.417 137.242 258.304 136.51C259.7 136.15 261.041 135.62 262.292 134.933C263.527 134.284 264.523 133.294 265.144 132.095C265.449 131.519 265.603 130.883 265.594 130.239C265.585 129.595 265.413 128.963 265.092 128.395C264.364 127.315 263.232 126.534 261.921 126.207C260.651 125.852 259.32 125.73 258.002 125.849C256.699 125.943 255.412 126.177 254.166 126.546C251.771 127.298 249.48 128.316 247.341 129.58C245.242 130.81 243.189 131.984 241.28 133.27C240.341 133.892 239.449 134.574 238.611 135.312C237.768 135.996 237.08 136.834 236.588 137.775C236.365 138.227 236.296 138.733 236.39 139.224C236.504 139.702 236.804 140.123 237.231 140.403C238.118 140.905 239.141 141.153 240.176 141.117C241.184 141.163 242.195 141.115 243.194 140.974C244.156 140.839 245.107 140.634 246.036 140.362C247.797 139.864 249.508 139.218 251.148 138.435C252.723 137.697 254.188 136.904 255.574 136.13C256.893 135.398 258.17 134.602 259.4 133.744C261.503 132.347 263.266 130.542 264.569 128.45C265.068 127.6 265.322 126.642 265.305 125.67C265.287 124.866 265.003 124.087 264.492 123.443C264.083 122.939 263.502 122.583 262.848 122.435C262.379 122.319 261.887 122.318 261.417 122.433C261.031 122.522 260.672 122.697 260.371 122.943V122.943Z" fill="#F5F5F5"/>
<path d="M191.499 17.799C191.613 17.692 191.733 17.5914 191.859 17.4975C192.236 17.2182 192.667 17.0097 193.127 16.883C193.89 16.6951 194.691 16.6965 195.453 16.8869C196.519 17.1192 197.467 17.694 198.135 18.513C198.975 19.5549 199.446 20.8198 199.481 22.1284C199.509 23.7011 199.103 25.2535 198.304 26.6337C196.627 29.6398 193.722 32.5514 190.013 35.1904C188.041 36.5746 185.992 37.8576 183.873 39.0338C181.657 40.2633 179.296 41.5603 176.779 42.7585C174.144 44.0343 171.394 45.0882 168.563 45.9078C167.066 46.3338 165.537 46.6507 163.989 46.8559C162.376 47.0838 160.744 47.1657 159.115 47.1006C157.399 47.148 155.705 46.7255 154.237 45.8839C153.502 45.4022 152.986 44.6772 152.79 43.8529C152.625 43.0185 152.741 42.1563 153.121 41.3872C153.912 39.8529 155.026 38.4869 156.394 37.3725C157.743 36.1775 159.179 35.0735 160.691 34.0686C162.222 33.0353 163.817 32.0637 165.445 31.0923C167.074 30.1208 168.715 29.1308 170.415 28.1656C173.86 26.1161 177.554 24.4661 181.417 23.2513C183.435 22.6559 185.517 22.2747 187.625 22.1148C189.789 21.922 191.972 22.1202 194.058 22.699C195.118 23.0037 196.123 23.4564 197.041 24.0419C197.982 24.6302 198.766 25.4167 199.33 26.3394C199.874 27.294 200.167 28.3576 200.186 29.4411C200.205 30.5247 199.948 31.5966 199.438 32.5671C198.412 34.5478 196.774 36.1878 194.739 37.27C192.705 38.3821 190.528 39.2445 188.262 39.8365C183.596 41.0193 178.752 41.4511 173.934 41.1136C168.969 40.7572 164.037 40.0732 159.174 39.0666C156.667 38.6223 154.188 38.0459 151.75 37.3401C150.523 36.9659 149.322 36.5212 148.152 36.0084C146.917 35.5403 145.804 34.8254 144.89 33.9128C144.454 33.4266 144.172 32.8341 144.076 32.2035C143.984 31.5577 144.106 30.9009 144.425 30.3235C145.084 29.2074 146.07 28.2948 147.265 27.6954C149.635 26.4905 152.256 25.7918 154.944 25.6488C160.366 25.2284 165.817 25.252 171.236 25.7191C173.994 25.9623 176.735 26.358 179.445 26.9043C180.81 27.1718 182.168 27.5255 183.519 27.8545C184.922 28.1476 186.251 28.6919 187.436 29.458C188.016 29.877 188.486 30.4156 188.812 31.0326C189.157 31.6602 189.275 32.3772 189.148 33.0741C188.997 33.7603 188.64 34.391 188.12 34.8913C187.616 35.3877 187.039 35.8125 186.406 36.1524C183.882 37.4805 181.11 38.3383 178.243 38.6791C176.8 38.8482 175.343 38.8912 173.892 38.8075C172.41 38.7518 170.945 38.4918 169.543 38.0357C168.103 37.6065 166.867 36.7142 166.052 35.5142C165.675 34.8849 165.486 34.1705 165.507 33.4477C165.538 32.7307 165.733 32.0285 166.079 31.3893C166.806 30.1323 167.909 29.1051 169.251 28.4354C170.592 27.7656 172.113 27.4828 173.623 27.6222C174.391 27.6658 175.142 27.8551 175.831 28.1788C176.52 28.5025 177.132 28.954 177.632 29.5063C178.132 30.0585 178.508 30.7002 178.739 31.3929C178.97 32.0857 179.051 32.8152 178.976 33.538C178.921 34.2738 178.663 34.9832 178.228 35.5958C177.793 36.2083 177.195 36.7027 176.495 37.0299C175.085 37.6622 173.486 37.8079 171.974 37.4416C171.201 37.3118 170.471 37.0172 169.837 36.5801C169.204 36.1431 168.685 35.5752 168.32 34.9199C168.158 34.5656 168.094 34.1781 168.134 33.7941C168.175 33.41 168.319 33.0422 168.552 32.7252C169.025 32.103 169.723 31.6656 170.514 31.4953C171.283 31.3425 172.077 31.3438 172.846 31.4992C173.61 31.63 174.348 31.8224 175.086 32.0209C176.582 32.407 178.004 33.0173 179.296 33.8283C180.61 34.6609 181.626 35.8491 182.21 37.2368C182.493 37.9368 182.623 38.6837 182.592 39.4324C182.543 40.1882 182.319 40.9245 181.935 41.5894C181.153 42.8962 179.991 43.9641 178.586 44.6667C177.903 45.0372 177.18 45.3358 176.428 45.5572C175.676 45.7836 174.901 45.9372 174.115 46.0157C170.941 46.352 167.744 45.6029 165.104 43.9043C162.486 42.171 160.465 39.7488 159.295 36.9396C158.685 35.5446 158.304 34.0697 158.166 32.5661C158.007 31.0524 158.183 29.5242 158.683 28.0782C159.178 26.6021 160.151 25.3097 161.465 24.3833C162.787 23.523 164.275 22.9159 165.845 22.5964C168.937 21.9604 172.108 21.7333 175.266 21.9215C178.395 22.0747 181.536 22.1971 184.592 22.9236C187.648 23.6501 190.559 25.141 192.371 27.598C193.279 28.8299 193.814 30.2717 193.919 31.7687C194.004 33.2394 193.757 34.7102 193.193 36.0836C192.098 38.8564 189.88 41.0662 187.414 42.7515C186.175 43.5932 184.877 44.3552 183.53 45.0326C182.202 45.7234 180.831 46.3388 179.425 46.8755C178.014 47.4121 176.543 47.7925 175.039 48.0089C173.535 48.207 172.006 48.1733 170.513 47.9088C167.574 47.3345 164.779 46.233 162.281 44.6642C159.742 43.1831 157.527 41.2558 155.758 38.9869C154.05 36.6964 153.021 34.0167 152.779 31.2253C152.439 27.0794 153.517 22.9402 155.856 19.4167C156.216 18.8315 156.674 18.302 157.08 17.7416C157.486 17.1812 157.99 16.6887 158.494 16.2086C160.474 14.2646 162.811 12.6765 165.393 11.5218C167.952 10.3928 170.698 9.68821 173.51 9.43894C176.293 9.21497 179.096 9.48951 181.772 10.2481C184.463 10.9419 186.848 12.4303 188.578 14.4954C190.115 16.6389 190.984 19.146 191.088 21.7321C191.384 26.7563 190.439 31.7765 188.326 36.3961C187.316 38.6571 186.011 40.7904 184.442 42.7466C182.9 44.6924 180.952 46.3196 178.718 47.5279C176.489 48.6954 173.958 49.2488 171.412 49.125C170.157 49.0416 168.926 48.7538 167.775 48.2742C166.648 47.7945 165.596 47.1703 164.649 46.4192C162.83 44.893 161.156 43.2191 159.647 41.4165C158.05 39.7328 156.731 37.8305 155.737 35.7744C155.285 34.7332 155.02 33.6284 154.952 32.5052C154.916 31.3904 155.088 30.2783 155.461 29.2197C156.235 27.1615 157.418 25.2613 158.945 23.6207C161.776 20.3073 165.64 17.9192 169.99 16.7951C172.067 16.2659 174.236 16.1359 176.367 16.4127C178.499 16.6895 180.55 17.3676 182.399 18.4066C184.155 19.4502 185.69 20.793 186.925 22.3664C188.12 23.8993 189.083 25.5818 189.785 27.3655C191.177 30.793 191.649 34.4923 191.158 38.1334C190.92 39.8734 190.398 41.5678 189.608 43.156C188.829 44.6991 187.75 46.0903 186.427 47.2571C183.81 49.5403 180.45 50.7247 177.229 51.3544C174.094 51.983 170.869 52.1068 167.691 51.7208C166.189 51.5119 164.728 51.0939 163.355 50.4804C162.039 49.8934 160.828 49.1154 159.766 48.1745C157.783 46.402 156.302 44.1885 155.459 41.7363C154.691 39.5168 154.454 37.1642 154.765 34.8479C155.032 32.7809 155.657 30.7696 156.617 28.8948C157.452 27.2446 158.51 25.7042 159.767 24.3127C161.762 22.1588 164.139 20.3496 166.792 18.9663C168.412 18.1058 170.112 17.3863 171.871 16.8167C173.054 16.4302 173.681 16.2833 173.681 16.2833L173.23 16.4244C172.923 16.5102 172.472 16.6512 171.884 16.8476C170.133 17.4303 168.44 18.1579 166.824 19.0218C164.187 20.4108 161.825 22.222 159.845 24.3745C158.595 25.7555 157.543 27.2857 156.715 28.9258C155.767 30.79 155.15 32.7887 154.889 34.842C154.586 37.1384 154.825 39.4698 155.59 41.6687C156.429 44.0971 157.901 46.2876 159.871 48.039C162.04 49.9334 164.776 51.1483 167.704 51.5173C170.862 51.8966 174.065 51.7664 177.177 51.1323C180.379 50.5211 183.712 49.2935 186.277 47.0719C187.575 45.9195 188.636 44.5498 189.406 43.0323C190.183 41.4588 190.697 39.7812 190.93 38.059C191.409 34.4528 190.939 30.7906 189.563 27.396C188.859 25.6355 187.904 23.9742 186.723 22.4586C185.504 20.9101 183.991 19.5883 182.261 18.5605C178.757 16.4706 174.217 15.9944 170.042 16.9863C165.745 18.1043 161.931 20.471 159.141 23.7506C157.634 25.3756 156.469 27.257 155.709 29.2941C155.344 30.3243 155.179 31.4079 155.22 32.4933C155.282 33.5875 155.541 34.6638 155.985 35.6762C156.985 37.7034 158.303 39.5764 159.896 41.232C161.391 43.0147 163.052 44.6682 164.858 46.1729C166.698 47.7114 169.016 48.6456 171.465 48.8353C173.954 48.9562 176.43 48.4133 178.607 47.2687C180.807 46.0786 182.726 44.4767 184.246 42.5613C185.793 40.6189 187.082 38.5047 188.085 36.2662C190.173 31.6881 191.107 26.7149 190.813 21.7378C190.712 19.2048 189.861 16.7491 188.356 14.6492C186.665 12.6377 184.337 11.1886 181.713 10.5132C179.055 9.76831 176.271 9.50631 173.509 9.74107C170.736 9.98668 168.028 10.6809 165.504 11.7933C162.96 12.9355 160.656 14.5025 158.702 16.4186C158.205 16.8926 157.773 17.4221 157.308 17.9269C156.844 18.4318 156.457 18.9984 156.104 19.5774C153.817 23.0443 152.764 27.1106 153.099 31.1826C153.336 33.9206 154.345 36.5492 156.019 38.7962C157.762 41.0303 159.941 42.93 162.438 44.3931C164.895 45.9582 167.647 47.0637 170.546 47.6499C172.005 47.906 173.498 47.9376 174.968 47.7436C176.463 47.5355 177.926 47.1613 179.327 46.6287C180.723 46.0923 182.083 45.4769 183.4 44.7857C184.733 44.1122 186.017 43.3564 187.245 42.5231C189.677 40.8624 191.824 38.6956 192.899 36.0029C193.447 34.6666 193.69 33.2362 193.612 31.8052C193.514 30.3726 193.004 28.9923 192.136 27.8134C191.251 26.635 190.116 25.6439 188.803 24.9037C187.482 24.1569 186.049 23.6036 184.553 23.2627C181.508 22.6535 178.409 22.3221 175.298 22.273C172.172 22.0847 169.034 22.3098 165.975 22.9419C164.448 23.2491 162.999 23.8375 161.713 24.6736C160.459 25.5533 159.528 26.7803 159.049 28.1836C158.567 29.5887 158.398 31.0724 158.551 32.5421C158.685 34.0138 159.057 35.4576 159.655 36.823C160.805 39.5646 162.785 41.9265 165.346 43.6149C167.905 45.281 171.012 46.0257 174.103 45.7136C174.866 45.6348 175.619 45.4831 176.35 45.2611C177.083 45.0516 177.787 44.7631 178.449 44.4014C179.797 43.7295 180.912 42.7062 181.661 41.4533C182.015 40.8301 182.221 40.1411 182.263 39.4349C182.304 38.7287 182.182 38.0224 181.903 37.3657C181.344 36.0393 180.374 34.903 179.119 34.1055C177.851 33.3189 176.458 32.7275 174.994 32.3537C173.551 31.9752 172.036 31.5164 170.598 31.8284C169.888 31.975 169.259 32.3595 168.826 32.9107C168.626 33.1842 168.502 33.5015 168.467 33.8326C168.432 34.1637 168.487 34.4977 168.627 34.8032C168.935 35.4269 169.423 35.9558 170.035 36.3286C170.647 36.7181 171.332 36.9935 172.053 37.1396C173.485 37.4896 175.001 37.3547 176.339 36.7584C176.991 36.4579 177.548 36.0001 177.952 35.4312C178.357 34.8624 178.595 34.2027 178.643 33.519C178.712 32.8383 178.635 32.1515 178.416 31.4996C178.197 30.8477 177.841 30.2442 177.37 29.7253C176.898 29.2063 176.32 28.7826 175.67 28.4795C175.021 28.1764 174.313 28.0001 173.59 27.9613C172.15 27.8332 170.702 28.1053 169.425 28.744C168.147 29.3828 167.095 30.3603 166.398 31.5563C166.072 32.1522 165.888 32.8086 165.86 33.4791C165.843 34.1459 166.018 34.8045 166.366 35.3852C167.14 36.5226 168.313 37.3669 169.68 37.7708C171.031 38.205 172.441 38.4565 173.866 38.5177C175.296 38.6004 176.73 38.5594 178.152 38.3953C180.978 38.0601 183.71 37.2147 186.197 35.9054C186.804 35.5719 187.357 35.1575 187.839 34.675C188.321 34.2139 188.65 33.6291 188.782 32.9933C188.855 32.3593 188.746 31.7185 188.466 31.1378C188.187 30.5571 187.748 30.0578 187.194 29.6919C186.049 28.9548 184.767 28.4295 183.414 28.1441C182.069 27.7904 180.718 27.4614 179.359 27.194C176.66 26.6523 173.93 26.2587 171.183 26.015C165.787 25.5469 160.358 25.5193 154.956 25.9324C152.312 26.0717 149.733 26.7578 147.402 27.9422C146.256 28.515 145.309 29.3867 144.673 30.4534C144.383 30.9799 144.272 31.5786 144.357 32.1669C144.45 32.755 144.724 33.3043 145.145 33.7467C146.022 34.626 147.091 35.3156 148.277 35.7682C149.442 36.2754 150.639 36.714 151.861 37.0813C154.289 37.7843 156.757 38.3586 159.253 38.8016C164.103 39.8122 169.022 40.4983 173.974 40.8547C178.758 41.1897 183.568 40.7642 188.203 39.5959C190.447 39.0123 192.602 38.1601 194.616 37.0601C196.602 36.0076 198.2 34.4076 199.196 32.4742C199.692 31.5397 199.942 30.5065 199.927 29.4614C199.912 28.4164 199.631 27.39 199.108 26.4686C198.563 25.5763 197.806 24.8153 196.897 24.2452C195.998 23.6737 195.015 23.2296 193.979 22.927C191.925 22.3573 189.775 22.1633 187.644 22.3553C185.554 22.5096 183.49 22.8847 181.489 23.4734C177.643 24.6796 173.964 26.3171 170.532 28.3508C168.839 29.3098 167.191 30.2998 165.563 31.2713C163.935 32.2428 162.339 33.2081 160.822 34.2353C159.311 35.2305 157.879 36.3286 156.538 37.5207C155.174 38.6103 154.06 39.9513 153.265 41.4614C152.905 42.199 152.794 43.0232 152.947 43.8224C153.128 44.6019 153.617 45.2868 154.316 45.7361C155.75 46.5457 157.4 46.9488 159.07 46.897C160.688 46.9671 162.309 46.8872 163.91 46.6585C165.458 46.457 166.987 46.1442 168.485 45.7227C171.304 44.9269 174.045 43.8999 176.675 42.6535C179.205 41.4677 181.552 40.1953 183.769 38.9658C185.884 37.7943 187.931 36.5175 189.902 35.1409C193.604 32.5142 196.503 29.6026 198.18 26.6396C198.978 25.2743 199.385 23.7366 199.363 22.1776C199.339 20.8836 198.884 19.6295 198.063 18.593C197.497 17.9018 196.73 17.3804 195.857 17.0922C194.983 16.804 194.039 16.7613 193.14 16.9694C192.53 17.1154 191.966 17.4002 191.499 17.799V17.799Z" fill="#495E4C"/>
<path d="M72.8155 89.7555C72.8155 89.7555 72.6914 89.7553 72.4563 89.7179L71.3983 89.562C70.048 89.3658 68.7308 89.0029 67.4807 88.4826C66.5678 88.0897 65.7487 87.5262 65.073 86.8261C64.2493 85.9954 63.735 84.9338 63.6083 83.8024C63.5541 83.166 63.6815 82.5275 63.9772 81.9533C64.3105 81.3517 64.8016 80.8409 65.4037 80.4697C66.0467 80.066 66.8177 79.8843 67.5864 79.9554C67.9883 80.0147 68.3717 80.156 68.7098 80.3696C69.048 80.5831 69.3326 80.8637 69.544 81.1918C69.9719 81.8829 70.158 82.6837 70.0759 83.4802C70.0076 84.3009 69.757 85.0989 69.3403 85.822C69.1251 86.1945 68.8611 86.54 68.5547 86.8504C68.2537 87.1744 67.9256 87.4749 67.5734 87.749C66.8315 88.2876 66.0098 88.7204 65.1346 89.0336C64.2228 89.3443 63.267 89.5256 62.2987 89.5715C61.3002 89.629 60.2985 89.5315 59.3335 89.2829C58.3355 89.0308 57.3936 88.6115 56.5527 88.0451C55.6918 87.4538 54.972 86.6985 54.4399 85.828C53.3335 84.0174 52.924 81.9017 53.2806 79.839C53.4616 78.778 53.8558 77.7595 54.4419 76.8382C54.7419 76.372 55.0953 75.9384 55.4957 75.5451C55.8867 75.127 56.3598 74.7844 56.8888 74.5363C57.4374 74.2518 58.0817 74.1799 58.6856 74.3358C58.9878 74.433 59.264 74.5913 59.4948 74.7996C59.7106 75.0216 59.8689 75.2878 59.9573 75.5772C60.1034 76.1425 60.1024 76.7327 59.9544 77.2975C59.8233 77.854 59.6229 78.3938 59.3573 78.9058C58.7938 79.9099 58.1847 80.8646 57.5299 81.8254C56.8684 82.7985 56.0886 83.6953 55.2064 84.4975C54.3117 85.3076 53.2501 85.9354 52.0874 86.342C50.9285 86.7462 49.6677 86.8128 48.4681 86.5333C47.2976 86.2332 46.2353 85.6391 45.3942 84.814C44.5627 84.0175 43.8992 83.079 43.4391 82.0485C42.6571 80.0305 42.2518 77.8998 42.2412 75.7512C42.1513 74.7139 42.1727 73.6707 42.3051 72.6375C42.3981 71.5663 42.9041 70.5645 43.7274 69.8221C44.1545 69.4875 44.6737 69.2745 45.2243 69.208C45.7627 69.1405 46.3104 69.2007 46.8179 69.3833C47.812 69.7398 48.6272 70.4369 49.101 71.3355C49.5237 72.2092 49.6804 73.1766 49.5536 74.1294C49.4516 75.0404 49.192 75.9294 48.7849 76.7609C48.408 77.5657 47.9332 78.3264 47.3702 79.0276C46.8223 79.6981 46.2065 80.3166 45.5315 80.8743C44.2485 81.9181 42.7692 82.7251 41.1704 83.2532C39.7241 83.734 38.1942 83.9511 36.662 83.8931C35.2959 83.8399 33.9502 83.5622 32.6851 83.0726C30.6525 82.295 28.8581 81.0499 27.4652 79.4507C26.5865 78.441 25.897 77.2971 25.4262 76.0684C25.2978 75.7524 25.1914 75.4289 25.1078 75.0998C25.0493 74.8839 25.0234 74.7667 25.0234 74.7667C25.0234 74.7667 25.1468 75.2232 25.4916 76.0438C25.9899 77.2432 26.6943 78.3568 27.5765 79.3399C28.9676 80.9014 30.7447 82.1157 32.7508 82.8754C33.9992 83.348 35.3248 83.613 36.6689 83.6588C38.1732 83.7052 39.6734 83.486 41.0924 83.0126C43.4954 82.2132 45.5982 80.7678 47.1418 78.8546C47.6875 78.1657 48.1468 77.4196 48.5108 76.631C48.9065 75.8275 49.1574 74.9673 49.2532 74.0857C49.37 73.183 49.22 72.2673 48.8199 71.4399C48.3785 70.6085 47.6216 69.9644 46.6999 69.6359C46.2399 69.4615 45.7385 69.4073 45.2487 69.4792C44.7588 69.5511 44.2986 69.7463 43.9164 70.0444C43.1766 70.7326 42.7231 71.6485 42.6383 72.6257C42.5055 73.6486 42.4863 74.6818 42.5809 75.7086C42.5951 77.8131 42.9938 79.8996 43.7595 81.8764C44.2073 82.8683 44.8535 83.7696 45.6626 84.5309C46.4588 85.3176 47.4675 85.8843 48.5798 86.1697C49.7128 86.4321 50.903 86.3675 51.9965 85.9842C53.1134 85.5962 54.1363 85.0004 55.0044 84.232C56.7511 82.6749 57.9499 80.6607 59.0767 78.7327C59.6296 77.7955 59.8359 76.7111 59.6632 75.6507C59.5805 75.4227 59.4497 75.2127 59.2788 75.0335C59.0932 74.8628 58.8705 74.732 58.6262 74.6501C58.1053 74.5175 57.5503 74.5806 57.0778 74.8264C56.5817 75.0606 56.1378 75.3821 55.7697 75.7737C55.3888 76.1496 55.0509 76.5624 54.7617 77.0052C54.1957 77.8915 53.817 78.8729 53.6463 79.8951C53.2934 81.8876 53.6824 83.9341 54.7472 85.6867C55.2589 86.508 55.9382 87.2254 56.7458 87.7972C57.5533 88.369 58.4729 88.784 59.4515 89.0179C60.8127 89.3735 62.2426 89.4267 63.6291 89.1733C65.0156 88.92 66.321 88.367 67.443 87.5576C68.1278 87.0463 68.7068 86.4202 69.1511 85.7107C69.5473 85.0071 69.7802 84.2319 69.8342 83.4367C69.9192 82.6893 69.7513 81.9357 69.3544 81.284C69.1545 80.9877 68.8897 80.7351 68.578 80.5432C68.2663 80.3513 67.9147 80.2244 67.5468 80.1711C66.832 80.1019 66.1138 80.2684 65.5145 80.6425C64.9325 80.9941 64.4568 81.4818 64.1338 82.0583C63.8481 82.5981 63.7229 83.201 63.7716 83.8027C63.8897 84.8987 64.3807 85.9292 65.1711 86.74C65.8259 87.4295 66.6201 87.9884 67.507 88.384C68.756 88.9162 70.0729 89.2936 71.4246 89.5065L72.4759 89.6994L72.8155 89.7555Z" fill="#495E4C"/>
<path d="M159 205.936L118.887 205.869C117.304 205.866 116.019 207.076 116.016 208.571L116.016 208.787C116.013 210.282 117.295 211.495 118.878 211.498L158.99 211.565C160.574 211.568 161.859 210.358 161.862 208.863L161.862 208.647C161.864 207.153 160.583 205.939 159 205.936Z" fill="#495E4C"/>
<path d="M126.999 214.88L151.709 214.922C151.709 214.922 148.411 221.119 138.835 221.103C128.848 221.086 126.999 214.88 126.999 214.88Z" fill="#495E4C"/>
<path d="M151.269 83.8129C150.359 82.4361 149.038 81.3439 147.473 80.6735C145.907 80.0031 144.167 79.7845 142.471 80.045C140.774 80.3055 139.198 81.0335 137.938 82.1377C136.679 83.2419 135.793 84.6729 135.393 86.2509C134.992 87.8289 135.095 89.4836 135.687 91.0071C136.279 92.5306 137.335 93.8549 138.722 94.8136C140.109 95.7723 141.765 96.3226 143.482 96.3955C145.199 96.4684 146.901 96.0605 148.373 95.2232L148.482 95.1547L142.539 118L161.56 122.41L161.482 122.307C160.61 120.923 160.189 119.327 160.272 117.719C160.356 116.11 160.939 114.561 161.95 113.264C162.961 111.968 164.355 110.982 165.957 110.429C167.558 109.876 169.297 109.782 170.956 110.157C172.614 110.533 174.119 111.362 175.281 112.54C176.443 113.719 177.212 115.195 177.491 116.784C177.769 118.372 177.546 120.003 176.848 121.472C176.15 122.941 175.009 124.184 173.567 125.044L173.385 125.151L193.829 129.897C198.269 120.588 200.85 108.104 195.447 93.8209C192.636 86.1584 187.924 79.2421 181.704 73.6502C175.483 68.0583 167.936 63.9533 159.693 61.6783L157.326 61.1301L151.383 83.9896L151.269 83.8129Z" fill="#E9E9E9"/>
<path d="M151.267 83.8127C151.31 83.8681 151.35 83.9254 151.387 83.9846C151.596 83.0778 153.713 74.8338 157.257 61.1151L157.257 61.0415L157.335 61.0417L159.282 61.4911C159.946 61.6344 160.605 61.8464 161.28 62.0387C162.619 62.4577 163.989 62.9308 165.37 63.4822C168.308 64.6416 171.131 66.0443 173.807 67.674C176.761 69.4818 179.532 71.5431 182.085 73.8318C184.81 76.3614 187.26 79.1415 189.399 82.1307C189.953 82.9064 190.435 83.7359 190.953 84.5409L191.735 85.7681C191.973 86.1902 192.191 86.6269 192.424 87.0588L193.801 89.6746L194.975 92.4225C196.581 96.2243 197.677 100.201 198.237 104.26C198.794 108.533 198.721 112.858 198.019 117.111C197.861 118.2 197.6 119.278 197.369 120.366C197.139 121.454 196.81 122.523 196.455 123.591C195.765 125.752 194.927 127.869 193.946 129.927L193.905 130.025L193.796 130.025L179.525 126.716L173.347 125.303L173.031 125.229L173.311 125.068C174.84 124.204 176.044 122.912 176.756 121.371C177.105 120.611 177.327 119.804 177.414 118.979C177.514 118.161 177.474 117.333 177.293 116.528C177.207 116.126 177.092 115.731 176.947 115.345C176.791 114.964 176.608 114.594 176.399 114.236C175.991 113.522 175.466 112.872 174.844 112.311C173.934 111.487 172.841 110.862 171.645 110.483C170.449 110.103 169.179 109.978 167.926 110.117C166.673 110.255 165.468 110.654 164.398 111.284C163.327 111.914 162.417 112.76 161.734 113.761C161.289 114.407 160.948 115.112 160.723 115.853C160.482 116.581 160.36 117.34 160.361 118.103C160.365 119.615 160.82 121.095 161.673 122.376L161.838 122.631L161.537 122.562L142.522 118.142L142.408 118.112L142.434 118.004C144.613 109.672 146.615 102.011 148.392 95.1642L148.543 95.2625C147.216 96.0487 145.692 96.4863 144.126 96.53C142.642 96.5644 141.174 96.2359 139.864 95.5766C138.743 95.0208 137.764 94.2422 136.992 93.2946C136.22 92.3469 135.675 91.2527 135.394 90.0872C135.113 88.9217 135.103 87.7126 135.365 86.5432C135.626 85.3738 136.153 84.2718 136.909 83.3131C138.112 81.8189 139.807 80.7452 141.728 80.2615C142.542 80.0739 143.379 79.988 144.216 80.0057C144.951 80.0411 145.679 80.1541 146.386 80.3428C148.185 80.8367 149.762 81.8726 150.879 83.2923C151.026 83.4711 151.16 83.6598 151.278 83.8569L151.174 83.7194C151.107 83.6212 151.003 83.4838 150.858 83.307C150.428 82.7806 149.934 82.3041 149.386 81.8875C148.491 81.2133 147.465 80.7118 146.366 80.4114C145.664 80.2303 144.943 80.1239 144.216 80.094C143.387 80.0778 142.559 80.1654 141.754 80.3547C139.861 80.8398 138.192 81.9067 137.013 83.3869C136.271 84.3306 135.755 85.415 135.499 86.5654C135.244 87.7157 135.256 88.9047 135.535 90.0503C135.813 91.196 136.352 92.271 137.112 93.2014C137.873 94.1317 138.839 94.8953 139.942 95.4394C141.262 96.0982 142.743 96.4157 144.234 96.3596C145.725 96.3035 147.174 95.8759 148.434 95.1202L148.642 94.9979L148.584 95.2185C146.807 102.08 144.826 109.712 142.662 118.068L142.579 117.936L161.595 122.336L161.465 122.522C160.58 121.201 160.109 119.67 160.106 118.107C160.101 117.321 160.225 116.539 160.474 115.788C160.705 115.025 161.056 114.298 161.516 113.633C162.446 112.277 163.772 111.205 165.333 110.545C166.931 109.867 168.706 109.654 170.433 109.932C172.16 110.21 173.761 110.966 175.031 112.106C175.672 112.679 176.216 113.341 176.643 114.07C176.857 114.439 177.046 114.821 177.207 115.213C177.357 115.61 177.476 116.017 177.564 116.43C177.752 117.261 177.796 118.116 177.694 118.96C177.56 120.251 177.105 121.495 176.368 122.59C175.631 123.684 174.632 124.601 173.451 125.264L173.415 125.028L179.593 126.461L193.858 129.775L193.703 129.843C194.678 127.794 195.512 125.687 196.201 123.537C196.556 122.473 196.827 121.4 197.11 120.326C197.392 119.253 197.601 118.175 197.754 117.096C198.459 112.866 198.536 108.564 197.983 104.313C197.436 100.259 196.352 96.2855 194.757 92.4859L193.588 89.7478C193.132 88.8742 192.671 88.0056 192.221 87.1418C191.993 86.7148 191.776 86.2781 191.538 85.8609L190.761 84.6387C190.243 83.8287 189.756 83.0041 189.207 82.2334C185.163 76.4633 179.883 71.557 173.708 67.8308C171.045 66.2035 168.236 64.8009 165.313 63.6391C163.937 63.0827 162.572 62.6097 161.238 62.1907C160.563 61.9983 159.915 61.7864 159.25 61.6382L157.309 61.2034L157.402 61.1496C153.817 74.8732 151.653 83.0926 151.387 83.9895L151.267 83.8127Z" fill="#495E4C"/>
<path d="M169.029 143.169L169.175 143.027C170.353 141.889 171.149 140.447 171.462 138.882C171.774 137.318 171.591 135.701 170.933 134.235C170.276 132.769 169.174 131.519 167.767 130.642C166.359 129.765 164.709 129.301 163.023 129.307C161.337 129.313 159.69 129.789 158.29 130.676C156.89 131.563 155.799 132.821 155.154 134.291C154.509 135.762 154.339 137.38 154.665 138.942C154.991 140.504 155.798 141.94 156.986 143.071L157.08 143.149L136.774 143.115L136.738 164.636L136.821 164.543C137.606 163.802 138.537 163.213 139.563 162.812C140.588 162.411 141.687 162.204 142.798 162.204C144.194 162.205 145.569 162.529 146.803 163.149C148.036 163.769 149.089 164.664 149.87 165.758C150.65 166.851 151.135 168.109 151.281 169.421C151.427 170.732 151.23 172.057 150.706 173.28C150.183 174.503 149.35 175.585 148.28 176.433C147.21 177.28 145.936 177.867 144.57 178.141C143.204 178.415 141.788 178.368 140.445 178.005C139.102 177.642 137.875 176.972 136.87 176.056L136.719 175.914L136.678 200.588L159.575 200.626C159.575 200.626 160.628 192.395 161.677 186.14C162.726 179.885 177.574 167.146 181.836 161.833C183.553 159.693 187.797 152.674 189.657 143.213L169.029 143.169Z" fill="#E9E9E9"/>
<path d="M175.977 167.997C175.726 167.451 175.28 167.005 174.717 166.735C174.155 166.466 173.51 166.39 172.895 166.521C172.069 166.716 171.336 167.288 170.469 167.198C170.087 167.121 169.732 166.957 169.433 166.719C169.135 166.482 168.903 166.179 168.757 165.837C168.405 165.18 168.214 164.449 167.8 163.825C167.62 163.497 167.343 163.225 167.004 163.042C166.664 162.859 166.276 162.772 165.885 162.792C164.882 162.948 164.252 164.109 163.234 164.127C162.933 164.104 162.643 164.013 162.388 163.86C162.133 163.708 161.921 163.499 161.771 163.251C161.435 162.76 161.228 162.24 160.88 161.779C160.301 161.07 159.451 160.604 158.512 160.478C157.573 160.353 156.619 160.579 155.855 161.109C154.877 161.573 153.836 163.116 153.693 164.689C153.265 169.445 151.3 170.295 151.3 170.295C151.299 171.874 150.806 173.418 149.882 174.735C148.958 176.052 147.644 177.082 146.104 177.699C144.564 178.316 142.866 178.491 141.221 178.204C139.577 177.916 138.058 177.178 136.853 176.081L136.703 175.939L136.662 200.613L159.559 200.651C159.559 200.651 160.611 192.42 161.66 186.165L161.624 186.008C161.64 185.943 161.653 185.878 161.661 185.812C162.343 181.336 175.977 167.997 175.977 167.997Z" fill="#5CCD6A"/>
<path d="M169.029 143.169L189.678 143.135L189.766 143.135L189.766 143.218C188.934 147.396 187.596 151.469 185.778 155.357C184.739 157.636 183.463 159.811 181.971 161.853C180.29 163.905 178.329 165.853 176.31 167.899C174.292 169.945 172.211 172.05 170.125 174.263C167.946 176.531 165.934 178.938 164.104 181.466C163.138 182.763 162.401 184.199 161.921 185.719C161.602 187.292 161.397 188.929 161.124 190.562C160.63 193.836 160.162 197.199 159.721 200.621L159.72 200.729L136.543 200.69L136.585 175.605L136.813 175.826C137.726 176.702 138.844 177.364 140.077 177.76C141.31 178.155 142.624 178.273 143.914 178.103C144.763 178.003 145.59 177.772 146.361 177.421C146.746 177.25 147.117 177.054 147.473 176.834C147.82 176.604 148.152 176.354 148.466 176.085C149.534 175.159 150.33 173.986 150.774 172.682C151.219 171.378 151.297 169.987 151.002 168.646C150.707 167.304 150.049 166.058 149.091 165.028C148.134 163.999 146.909 163.222 145.539 162.773C144.785 162.521 143.996 162.375 143.197 162.342C142.405 162.296 141.61 162.364 140.839 162.544C139.314 162.898 137.925 163.65 136.832 164.715L136.608 164.93L136.608 164.636C136.621 157.045 136.633 149.852 136.644 143.115L136.644 143.007L136.759 143.007L157.064 143.041L157.002 143.203C155.89 142.187 155.091 140.906 154.686 139.497C154.315 138.159 154.317 136.754 154.693 135.417C155.172 133.623 156.286 132.037 157.851 130.923C159.416 129.81 161.338 129.236 163.297 129.296C165.256 129.357 167.134 130.048 168.619 131.256C170.105 132.464 171.107 134.115 171.461 135.936C171.587 136.609 171.629 137.293 171.588 137.976C171.511 139.048 171.206 140.095 170.689 141.053C170.376 141.642 169.984 142.19 169.523 142.684C169.372 142.856 169.242 142.973 169.164 143.051L169.034 143.169L169.154 143.047C169.232 142.958 169.352 142.841 169.503 142.67C170.692 141.349 171.394 139.7 171.505 137.971C171.531 137.644 171.532 137.316 171.506 136.99C171.444 135.866 171.125 134.768 170.572 133.772C169.786 132.332 168.554 131.151 167.041 130.388C165.528 129.625 163.804 129.315 162.1 129.499C160.395 129.683 158.791 130.352 157.499 131.418C156.208 132.484 155.29 133.896 154.87 135.467C154.504 136.776 154.502 138.152 154.863 139.463C155.264 140.837 156.048 142.084 157.132 143.075L157.303 143.238L157.064 143.237L136.758 143.203L136.873 143.096C136.862 149.833 136.85 157.026 136.837 164.617L136.619 164.538C137.744 163.435 139.177 162.656 140.751 162.289C142.357 161.935 144.037 162.016 145.596 162.523C146.802 162.917 147.9 163.559 148.812 164.401C149.725 165.243 150.428 166.266 150.873 167.395C151.318 168.524 151.493 169.732 151.385 170.932C151.278 172.133 150.89 173.296 150.25 174.338C149.816 175.052 149.267 175.698 148.622 176.252C148.293 176.531 147.946 176.789 147.582 177.025C147.214 177.252 146.83 177.455 146.433 177.632C145.637 177.993 144.784 178.23 143.908 178.333C143.028 178.45 142.135 178.437 141.259 178.295C139.486 178.003 137.854 177.196 136.589 175.987L136.823 175.894L136.811 183.362C136.801 189.246 136.791 195.057 136.782 200.568L136.652 200.445L159.549 200.484L159.419 200.591C159.872 197.156 160.345 193.8 160.838 190.522C161.096 188.88 161.316 187.267 161.641 185.664C162.129 184.118 162.878 182.658 163.861 181.338C165.702 178.804 167.724 176.391 169.912 174.116C171.993 171.883 174.1 169.778 176.113 167.752C178.126 165.725 180.098 163.762 181.768 161.73C183.257 159.703 184.531 157.542 185.57 155.278C187.392 151.404 188.738 147.346 189.584 143.184L189.651 143.262L169.029 143.169Z" fill="#495E4C"/>
<path d="M153.761 158.54C153.761 158.909 153.644 159.27 153.426 159.577C153.208 159.884 152.899 160.123 152.537 160.264C152.175 160.404 151.777 160.441 151.394 160.368C151.01 160.295 150.658 160.117 150.381 159.855C150.105 159.593 149.917 159.26 149.841 158.898C149.766 158.535 149.805 158.16 149.956 157.818C150.106 157.477 150.36 157.186 150.686 156.981C151.012 156.776 151.394 156.668 151.786 156.668C152.31 156.669 152.813 156.867 153.184 157.218C153.554 157.569 153.762 158.044 153.761 158.54V158.54Z" fill="#5CCD6A"/>
<g opacity="0.2">
<path d="M143.56 178.176C141.545 178.329 139.313 177.556 138.371 175.852L136.812 176.497C136.81 177.478 138.1 179.407 139.05 179.776C140.95 180.579 143.086 180.735 145.094 180.218C146.106 179.89 147.013 179.323 147.728 178.572C148.444 177.82 148.944 176.909 149.183 175.924C147.4 177.147 145.576 178.022 143.56 178.176Z" fill="black"/>
</g>
<path d="M125.08 89.919C127.256 89.5959 129.48 90.0831 131.284 91.2778L131.444 91.4006L127.671 68.5837L125.312 68.9328C117.051 70.4977 109.307 73.9079 102.729 78.8781C96.1501 83.8482 90.928 90.2338 87.4994 97.5007C80.9489 111.028 82.3615 123.451 85.8824 132.891L88.3965 132.517L107.98 129.633L107.855 129.799C106.88 131.097 106.333 132.639 106.283 134.23C106.232 135.821 106.681 137.39 107.573 138.742C108.464 140.093 109.759 141.165 111.294 141.824C112.829 142.482 114.535 142.698 116.199 142.444C117.864 142.19 119.411 141.477 120.647 140.395C121.883 139.313 122.753 137.91 123.148 136.363C123.542 134.815 123.443 133.192 122.864 131.697C122.284 130.202 121.25 128.902 119.891 127.961L119.782 127.897L120.327 127.814L137.1 125.322L133.327 102.52L133.254 102.623C132.602 103.471 131.779 104.19 130.833 104.738C129.887 105.286 128.835 105.652 127.738 105.815C125.561 106.036 123.377 105.458 121.638 104.2C119.9 102.943 118.74 101.103 118.398 99.0601C118.056 97.0177 118.56 94.9296 119.803 93.228C121.047 91.5265 122.936 90.3417 125.08 89.919V89.919Z" fill="#5CCD6A"/>
<path d="M125.08 89.9186L124.508 90.0402C124.274 90.0871 124.043 90.149 123.817 90.2254C123.682 90.2693 123.537 90.3083 123.381 90.3668L122.892 90.5671C122.044 90.9328 121.266 91.4285 120.589 92.0342C119.671 92.8658 118.96 93.8795 118.507 95.0022C118.375 95.3222 118.263 95.6495 118.173 95.9824C118.085 96.3405 118.023 96.7042 117.989 97.0706C117.901 97.8566 117.943 98.6509 118.115 99.4244C118.519 101.337 119.651 103.043 121.297 104.221C122.943 105.398 124.989 105.965 127.047 105.814C128.245 105.727 129.409 105.394 130.456 104.839C131.561 104.256 132.512 103.444 133.238 102.465L133.368 102.289L133.404 102.5C134.52 109.214 135.795 116.881 137.199 125.302L137.199 125.405L137.09 125.405L119.802 127.96L119.849 127.749C121.157 128.613 122.184 129.803 122.814 131.187C123.138 131.887 123.346 132.63 123.429 133.389C123.533 134.156 123.518 134.932 123.383 135.694C123.246 136.463 122.995 137.211 122.637 137.914C122.268 138.625 121.797 139.284 121.237 139.873C120.086 141.06 118.591 141.901 116.938 142.293C115.251 142.697 113.474 142.605 111.844 142.029C110.187 141.445 108.758 140.4 107.746 139.032C107.223 138.35 106.829 137.588 106.581 136.779C106.309 135.974 106.176 135.132 106.185 134.287C106.2 132.567 106.789 130.894 107.871 129.509L108 129.711L93.7102 131.815L85.9185 132.964L85.8042 132.964L85.768 132.861C84.2579 128.815 83.3135 124.6 82.9586 120.323C82.7866 118.241 82.7676 116.15 82.9016 114.066C82.9968 113.037 83.0608 112.007 83.2287 110.992C83.3022 110.502 83.355 109.977 83.4545 109.477L83.753 107.977C84.5755 104.086 85.9204 100.31 87.755 96.7407L89.1303 94.1687L89.4741 93.5318C89.5939 93.3212 89.7345 93.1253 89.8594 92.9195L90.6456 91.7097C90.9008 91.308 91.1663 90.9064 91.4214 90.5097L91.8067 89.9121L92.2387 89.3489L93.9614 87.106C94.2321 86.7289 94.5598 86.3911 94.8668 86.0435L95.7981 85.0104L96.719 83.9823C97.0312 83.6493 97.3796 83.3459 97.7073 83.0277C98.3679 82.4012 99.0078 81.7599 99.6787 81.1628L101.759 79.455C104.449 77.3465 107.346 75.4845 110.41 73.8943C113.241 72.4609 116.196 71.2584 119.244 70.3001C121.993 69.4217 124.825 68.7958 127.702 68.4313L127.785 68.4315L127.785 68.5099C129.471 78.854 130.736 86.5937 131.512 91.3317L131.512 91.4248L131.444 91.4002C130.076 90.4435 128.437 89.8944 126.737 89.8233C126.323 89.8073 125.908 89.8181 125.495 89.8555L125.09 89.8941C125.09 89.8941 125.22 89.8698 125.495 89.8359C125.907 89.7871 126.322 89.7697 126.737 89.784C128.451 89.8369 130.108 90.3781 131.491 91.3365L131.423 91.3756C130.632 86.6425 129.336 78.9028 127.603 68.5685L127.702 68.6373C124.838 69.0032 122.019 69.6324 119.285 70.5159C112.914 72.4905 107.001 75.5944 101.862 79.6611L99.8082 81.3641C99.1373 81.9612 98.5026 82.6025 97.842 83.2241C97.5195 83.5423 97.1763 83.8457 96.8641 84.2031C96.5519 84.5606 96.2553 84.8837 95.9484 85.2264L95.0223 86.2546C94.7008 86.5934 94.3985 86.9481 94.1169 87.3171L92.4098 89.5453L91.9778 90.084L91.5925 90.6767L90.8219 91.8767L90.0461 93.0816C89.916 93.2825 89.7806 93.4833 89.6608 93.689L89.3222 94.3259C88.8638 95.1734 88.4105 96.0259 87.9521 96.8832C86.1298 100.438 84.7937 104.198 83.9762 108.071C83.8819 108.561 83.7824 109.051 83.6829 109.542C83.5834 110.032 83.5307 110.522 83.4571 111.051C83.2893 112.032 83.2252 113.081 83.1352 114.106C83.0012 116.179 83.0203 118.258 83.1923 120.328C83.5468 124.583 84.4878 128.777 85.9914 132.802L85.8462 132.719L93.6379 131.57L107.933 129.465L108.255 129.417L108.063 129.662C107.278 130.659 106.754 131.818 106.537 133.043C106.319 134.269 106.412 135.526 106.81 136.711C106.936 137.1 107.091 137.481 107.275 137.849C107.469 138.212 107.69 138.562 107.938 138.895C108.921 140.221 110.306 141.236 111.911 141.804C112.701 142.078 113.528 142.244 114.367 142.298C115.202 142.331 116.037 142.255 116.85 142.072C117.652 141.884 118.42 141.586 119.131 141.188C120.536 140.392 121.666 139.227 122.382 137.835C122.726 137.15 122.97 136.425 123.108 135.679C123.237 134.939 123.252 134.186 123.153 133.443C123.069 132.706 122.869 131.985 122.56 131.304C121.947 129.962 120.956 128.805 119.693 127.96L119.439 127.793L119.74 127.749L137.054 125.243L136.96 125.365C135.556 116.905 134.312 109.244 133.212 102.534L133.373 102.564C132.628 103.563 131.654 104.391 130.523 104.986C129.453 105.548 128.264 105.881 127.042 105.961C124.947 106.109 122.868 105.526 121.198 104.323C119.528 103.12 118.383 101.381 117.98 99.434C117.811 98.6484 117.772 97.8427 117.865 97.0459C117.925 96.324 118.101 95.6149 118.388 94.9432C118.787 93.9616 119.388 93.0641 120.156 92.3022C120.923 91.5403 121.843 90.929 122.861 90.5033L123.355 90.3031L123.797 90.1714C124.023 90.0965 124.256 90.0395 124.493 90.0009C124.882 89.9182 125.08 89.9186 125.08 89.9186Z" fill="#495E4C"/>
<path d="M136.31 200.65L115.605 200.616C115.605 200.616 114.58 192.381 113.552 186.123C112.524 179.864 97.7183 167.076 93.4739 161.744C91.7637 159.598 87.543 152.57 85.7152 143.098L105.273 143.131L105.122 143.278C103.943 144.417 103.146 145.859 102.833 147.425C102.52 148.99 102.704 150.608 103.361 152.075C104.019 153.542 105.121 154.793 106.529 155.671C107.938 156.548 109.589 157.013 111.277 157.007C112.964 157.001 114.611 156.525 116.012 155.637C117.413 154.75 118.505 153.491 119.15 152.019C119.796 150.547 119.966 148.928 119.639 147.365C119.313 145.802 118.505 144.365 117.316 143.234L117.222 143.151L136.255 143.315L136.22 164.836C136.22 164.836 138 162.284 142.284 162.394C146.568 162.504 149.799 165.388 150.485 168.292C151.171 171.196 150.585 176.672 144.808 178.138C139.03 179.605 136.139 175.755 136.139 175.755L136.16 200.763" fill="white"/>
<path d="M136.13 199.552C136.198 199.552 136.255 199.827 136.255 200.165C136.254 200.503 136.2 200.778 136.128 200.778C136.056 200.778 136.003 200.503 136.003 200.165C136.004 199.826 136.058 199.552 136.13 199.552Z" fill="#495E4C"/>
<path d="M136.132 194.535C136.263 194.942 136.31 195.368 136.27 195.791C136.315 196.214 136.268 196.641 136.133 197.046C136.002 196.64 135.957 196.213 136 195.79C135.955 195.368 136 194.941 136.132 194.535V194.535Z" fill="#495E4C"/>
<path d="M136.13 189.52C136.261 189.926 136.306 190.352 136.263 190.775C136.308 191.198 136.263 191.624 136.131 192.03C135.997 191.624 135.95 191.198 135.993 190.775C135.949 190.352 135.995 189.925 136.13 189.52V189.52Z" fill="#495E4C"/>
<path d="M136.124 184.504C136.258 184.909 136.305 185.336 136.262 185.759C136.307 186.182 136.26 186.609 136.125 187.014C135.994 186.608 135.949 186.181 135.992 185.759C135.947 185.336 135.992 184.91 136.124 184.504V184.504Z" fill="#495E4C"/>
<path d="M136.121 179.487C136.252 179.893 136.297 180.32 136.254 180.743C136.299 181.165 136.254 181.592 136.122 181.998C135.991 181.592 135.944 181.165 135.984 180.742C135.94 180.319 135.986 179.892 136.121 179.487V179.487Z" fill="#495E4C"/>
<path d="M137.014 176.64C137.014 176.669 136.858 176.6 136.671 176.463C136.56 176.382 136.455 176.295 136.355 176.202L136.184 176.031L136.096 175.932L136.054 175.883L136.054 175.859L136.299 175.786C136.343 176.199 136.297 176.616 136.162 177.011C136.007 176.606 135.944 176.175 135.977 175.746L136.221 175.673L136.221 175.697L136.262 175.746L136.34 175.84L136.49 176.011L136.755 176.306C136.947 176.503 137.014 176.615 137.014 176.64Z" fill="#495E4C"/>
<path d="M141.613 178.447C140.751 178.561 139.874 178.366 139.157 177.898C139.579 177.927 139.994 178.008 140.393 178.141C140.812 178.192 141.222 178.295 141.613 178.447V178.447Z" fill="#495E4C"/>
<path d="M146.527 177.509C146.568 177.567 146.085 177.88 145.404 178.095C145.006 178.259 144.569 178.324 144.137 178.284C144.137 178.206 144.656 178.059 145.316 177.855C145.701 177.688 146.109 177.572 146.527 177.509V177.509Z" fill="#495E4C"/>
<path d="M149.912 174.067C149.869 174.479 149.7 174.87 149.427 175.194C149.042 175.762 148.59 176.119 148.543 176.07C148.497 176.021 148.835 175.58 149.199 175.051C149.564 174.522 149.84 174.037 149.912 174.067Z" fill="#495E4C"/>
<path d="M150.642 169.396C150.814 169.773 150.876 170.186 150.822 170.593C150.859 171.002 150.777 171.414 150.586 171.784C150.514 171.388 150.502 170.985 150.552 170.587C150.519 170.188 150.55 169.787 150.642 169.396Z" fill="#495E4C"/>
<path d="M148.609 165.092C148.661 165.043 149.128 165.397 149.512 165.957C149.795 166.271 149.975 166.656 150.029 167.066C149.962 167.095 149.682 166.634 149.293 166.084C148.905 165.534 148.552 165.141 148.609 165.092Z" fill="#495E4C"/>
<path d="M144.308 162.672C144.743 162.649 145.177 162.742 145.559 162.939C146.218 163.195 146.68 163.534 146.638 163.593C146.225 163.505 145.827 163.364 145.455 163.174C145.051 163.055 144.665 162.886 144.308 162.672Z" fill="#495E4C"/>
<path d="M139.301 162.786C139.654 162.541 140.075 162.397 140.512 162.372C140.932 162.261 141.376 162.262 141.795 162.374C141.394 162.505 140.977 162.584 140.553 162.607C140.145 162.713 139.725 162.773 139.301 162.786V162.786Z" fill="#495E4C"/>
<path d="M136.2 163.601C136.334 163.996 136.379 164.414 136.333 164.827L136.084 164.753L136.084 164.728L136.125 164.674L136.209 164.576L136.38 164.405C136.478 164.309 136.584 164.22 136.697 164.141C136.885 164.004 137.02 163.945 137.046 163.97C137.072 163.994 136.978 164.107 136.827 164.273C136.676 164.44 136.64 164.479 136.562 164.562L136.411 164.739L136.338 164.832L136.302 164.881L136.302 164.905L136.052 164.836C136.012 164.419 136.063 163.999 136.2 163.601Z" fill="#495E4C"/>
<path d="M136.199 158.153C136.365 159.052 136.363 159.975 136.195 160.874C136.029 159.975 136.03 159.052 136.199 158.153V158.153Z" fill="#495E4C"/>
<path d="M136.208 152.7C136.374 153.599 136.373 154.522 136.204 155.421C136.038 154.521 136.039 153.598 136.208 152.7V152.7Z" fill="#495E4C"/>
<path d="M136.217 147.257C136.383 148.157 136.382 149.08 136.213 149.979C136.047 149.079 136.048 148.156 136.217 147.257V147.257Z" fill="#495E4C"/>
<path d="M134.935 143.294C135.356 143.173 135.797 143.134 136.234 143.178L136.369 143.306L136.368 143.536C136.368 143.61 136.368 143.688 136.368 143.767C136.368 143.845 136.368 144.046 136.367 144.159C136.341 144.38 136.304 144.517 136.268 144.517C136.232 144.517 136.196 144.379 136.175 144.159C136.175 144.046 136.176 143.913 136.145 143.766L136.145 143.305L136.28 143.433C135.827 143.479 135.368 143.431 134.935 143.294V143.294Z" fill="#495E4C"/>
<path d="M130.241 143.256C130.617 143.13 131.018 143.089 131.414 143.135C131.812 143.099 132.212 143.147 132.588 143.275C132.21 143.395 131.81 143.434 131.414 143.39C131.017 143.427 130.617 143.381 130.241 143.256V143.256Z" fill="#495E4C"/>
<path d="M125.542 143.214C126.316 143.048 127.12 143.05 127.894 143.218C127.516 143.343 127.113 143.385 126.715 143.338C126.319 143.379 125.918 143.337 125.542 143.214V143.214Z" fill="#495E4C"/>
<path d="M120.847 143.176C121.223 143.05 121.625 143.008 122.021 143.055C122.418 143.016 122.819 143.063 123.194 143.194C122.817 143.314 122.416 143.354 122.02 143.31C121.623 143.346 121.223 143.3 120.847 143.176V143.176Z" fill="#495E4C"/>
<path d="M118.062 144.059C118.031 144.059 117.911 143.995 117.74 143.843C117.652 143.769 117.554 143.676 117.45 143.573L117.289 143.406L117.206 143.317L117.159 143.278C117.081 143.474 117.274 143.003 117.253 143.052C117.692 143.016 118.133 143.064 118.551 143.192C118.132 143.315 117.69 143.354 117.253 143.307C117.253 143.356 117.425 142.886 117.342 143.087L117.342 143.111L117.388 143.156L117.476 143.249L117.632 143.431C117.73 143.549 117.818 143.657 117.886 143.75C118.021 143.912 118.093 144.035 118.062 144.059Z" fill="#495E4C"/>
<path d="M119.762 148.45C119.614 148.079 119.517 147.692 119.473 147.298C119.347 146.919 119.276 146.527 119.262 146.13C119.53 146.453 119.695 146.841 119.738 147.249C119.868 147.639 119.877 148.056 119.762 148.45Z" fill="#495E4C"/>
<path d="M118.566 152.994C118.83 152.243 119.15 151.511 119.526 150.804C119.491 151.618 119.151 152.395 118.566 152.994V152.994Z" fill="#495E4C"/>
<path d="M114.894 156.136C114.863 156.068 115.346 155.804 115.934 155.447C116.521 155.09 116.942 154.767 116.974 154.821C117.005 154.875 116.651 155.31 116.063 155.658C115.729 155.918 115.324 156.084 114.894 156.136Z" fill="#495E4C"/>
<path d="M109.99 156.819C110.4 156.725 110.826 156.711 111.242 156.777C111.659 156.706 112.088 156.722 112.499 156.823C112.101 156.974 111.675 157.045 111.247 157.032C110.817 157.046 110.388 156.974 109.99 156.819V156.819Z" fill="#495E4C"/>
<path d="M105.512 154.816C105.564 154.762 106.031 155.081 106.55 155.44C107.069 155.799 107.588 156.065 107.587 156.133C107.157 156.076 106.752 155.906 106.42 155.641C105.839 155.282 105.46 154.865 105.512 154.816Z" fill="#495E4C"/>
<path d="M102.969 150.801C103.192 151.135 103.367 151.497 103.487 151.875C103.684 152.225 103.832 152.598 103.926 152.984C103.864 153.023 103.506 152.591 103.237 151.973C103.03 151.615 102.937 151.208 102.969 150.801Z" fill="#495E4C"/>
<path d="M103.221 146.124C103.209 146.52 103.14 146.912 103.016 147.291C102.978 147.685 102.881 148.073 102.729 148.443C102.59 147.639 102.765 146.815 103.221 146.124V146.124Z" fill="#495E4C"/>
<path d="M103.952 143.119C104.372 142.995 104.814 142.953 105.251 142.994C105.292 143.092 105.158 142.778 105.349 143.214L105.302 143.258L105.214 143.342L105.053 143.513L104.767 143.787C104.6 143.939 104.476 144.022 104.45 144.002C104.424 143.983 104.486 143.855 104.621 143.674C104.689 143.581 104.772 143.468 104.866 143.351L105.022 143.17C105.049 143.136 105.079 143.105 105.111 143.077L105.157 143.033C105.349 143.469 105.209 143.155 105.251 143.249C104.813 143.291 104.371 143.247 103.952 143.119V143.119Z" fill="#495E4C"/>
<path d="M99.4509 143.111C99.451 143.042 99.7419 142.984 100.1 142.985C100.459 142.985 100.749 143.045 100.749 143.113C100.749 143.182 100.458 143.24 100.1 143.24C99.7415 143.239 99.4508 143.185 99.4509 143.111Z" fill="#495E4C"/>
<path d="M136.382 200.65L136.008 200.649L134.923 200.648L130.768 200.641L115.682 200.718L115.588 200.718L115.588 200.63C115.076 196.613 114.45 192.057 113.669 187.157C113.475 184.656 111.958 182.423 110.372 180.287C108.682 178.091 106.873 175.98 104.95 173.962C102.405 171.237 99.8232 168.663 97.3814 166.148C96.1682 164.886 94.9759 163.644 93.8874 162.367C93.3503 161.735 92.8603 161.069 92.4211 160.374C91.9756 159.696 91.5717 159.004 91.1833 158.322C89.7606 155.741 88.5682 153.052 87.6186 150.284C86.7895 147.938 86.1341 145.54 85.6571 143.107L85.6573 143.004L85.7664 143.005L95.5399 143.06L98.1365 143.089L98.8168 143.09L99.0453 143.09L98.8168 143.09L98.1365 143.089L95.5399 143.085L85.7662 143.108L85.8546 143.005C86.3343 145.418 86.9862 147.798 87.8058 150.128C88.7634 152.881 89.961 155.555 91.3862 158.121C91.7693 158.804 92.1733 159.491 92.6188 160.163C93.0561 160.848 93.5426 161.504 94.0748 162.127C95.1529 163.389 96.3453 164.627 97.5636 165.884C100.005 168.399 102.593 170.967 105.138 173.703C107.068 175.748 108.881 177.888 110.57 180.116C111.381 181.18 112.112 182.297 112.756 183.459C113.065 184.034 113.321 184.633 113.521 185.25C113.697 185.859 113.825 186.481 113.902 187.109C114.673 192.013 115.273 196.57 115.781 200.601L115.672 200.508L130.763 200.577L134.918 200.613L136.003 200.615C136.258 200.64 136.382 200.65 136.382 200.65Z" fill="#495E4C"/>
<path d="M135.017 200.649C135.017 200.575 135.308 200.522 135.666 200.522C136.024 200.523 136.315 200.577 136.315 200.651C136.315 200.724 136.024 200.778 135.666 200.777C135.307 200.777 135.017 200.717 135.017 200.649Z" fill="#495E4C"/>
<path d="M129.844 200.64C130.701 200.47 131.585 200.471 132.441 200.644C131.585 200.814 130.7 200.813 129.844 200.64V200.64Z" fill="#495E4C"/>
<path d="M124.666 200.631C125.522 200.461 126.406 200.463 127.262 200.636C126.406 200.806 125.521 200.804 124.666 200.631V200.631Z" fill="#495E4C"/>
<path d="M119.493 200.623C120.349 200.453 121.234 200.454 122.09 200.627C121.233 200.797 120.349 200.795 119.493 200.623V200.623Z" fill="#495E4C"/>
<path d="M115.451 199.4C115.487 199.4 115.539 199.527 115.596 199.743C115.595 199.856 115.647 199.983 115.673 200.131C115.698 200.278 115.698 200.288 115.709 200.356L115.709 200.479L115.708 200.543L115.708 200.596C115.646 200.547 115.838 200.714 115.573 200.483C116.011 200.441 116.453 200.485 116.872 200.613C116.452 200.737 116.01 200.779 115.573 200.738C115.573 200.479 115.397 200.679 115.438 200.621L115.438 200.503L115.439 200.38L115.439 200.155C115.439 200.008 115.439 199.875 115.44 199.762C115.398 199.542 115.414 199.404 115.451 199.4Z" fill="#495E4C"/>
<path d="M114.773 194.343C115.07 195.154 115.187 196.013 115.117 196.869C114.827 196.056 114.71 195.198 114.773 194.343V194.343Z" fill="#495E4C"/>
<path d="M114.044 189.306C114.239 189.695 114.348 190.117 114.364 190.547C114.47 190.966 114.488 191.401 114.419 191.827C114.119 191.018 113.991 190.161 114.044 189.306V189.306Z" fill="#495E4C"/>
<path d="M112.972 184.332C113.266 184.67 113.462 185.074 113.542 185.505C113.687 185.917 113.726 186.356 113.654 186.785C113.566 186.784 113.457 186.23 113.282 185.568C113.123 185.17 113.019 184.755 112.972 184.332V184.332Z" fill="#495E4C"/>
<path d="M110.226 179.964C110.577 180.237 110.869 180.57 111.087 180.946C111.376 181.278 111.591 181.662 111.719 182.075C111.656 182.114 111.273 181.672 110.858 181.093C110.57 180.76 110.355 180.376 110.226 179.964Z" fill="#495E4C"/>
<path d="M106.894 175.962C106.952 175.918 107.382 176.326 107.854 176.871C108.174 177.177 108.43 177.539 108.605 177.936C108.543 177.98 108.117 177.572 107.646 177.032C107.323 176.726 107.068 176.362 106.894 175.962V175.962Z" fill="#495E4C"/>
<path d="M103.339 172.137C103.391 172.093 103.858 172.476 104.335 173.002C104.67 173.294 104.941 173.646 105.133 174.038C105.075 174.087 104.614 173.698 104.132 173.173C103.65 172.647 103.266 172.186 103.339 172.137Z" fill="#495E4C"/>
<path d="M99.6893 168.389C99.7413 168.34 100.208 168.718 100.726 169.239C101.067 169.526 101.346 169.873 101.545 170.26C101.488 170.304 101.027 169.926 100.508 169.41C99.9896 168.894 99.6372 168.438 99.6893 168.389Z" fill="#495E4C"/>
<path d="M96.0443 164.636C96.0963 164.587 96.563 164.971 97.0503 165.491C97.3846 165.783 97.6587 166.131 97.8588 166.517C97.8016 166.566 97.34 166.183 96.8475 165.663C96.355 165.142 96.0079 164.681 96.0443 164.636Z" fill="#495E4C"/>
<path d="M93.4678 161.744C93.525 161.7 93.7532 161.882 93.9865 162.147C94.2197 162.412 94.3388 162.638 94.2816 162.707C94.2243 162.775 93.9962 162.569 93.7629 162.304C93.5296 162.038 93.4158 161.788 93.4678 161.744Z" fill="#495E4C"/>
</g>
<defs>
<clipPath id="clip0_9035_116">
<rect width="300" height="250" fill="white" transform="translate(0.417117) rotate(0.0955963)"/>
</clipPath>
</defs>
</svg>
