<svg width="300" height="250" viewBox="0 0 300 250" fill="none" xmlns="http://www.w3.org/2000/svg">
<g opacity="0.5" clip-path="url(#clip0_86_2353)">
<path d="M239.014 240.794C239.328 236.506 238.667 232.197 237.101 228.318C235.536 224.439 233.123 221.133 230.116 218.747C227.109 216.361 223.618 214.983 220.011 214.758C216.403 214.533 212.811 215.468 209.611 217.466C208.064 212.54 206.478 207.527 203.743 203.407C201.009 199.286 196.874 196.125 192.464 196.319V240.794H239.014Z" fill="#D0FFD4"/>
<path d="M167.968 133.76H71.5298L53.5118 103.276L34.623 134.623L12.4301 134.197L36.3483 95.8102L143.878 96.3435L167.968 133.76Z" fill="#E0E0E0"/>
<path d="M119.741 134.197V241.056H23.4414V134.197H34.4768L53.5121 103.276L71.5871 133.731L119.741 134.197Z" fill="#F5F5F5"/>
<path d="M83.6069 194.729H106.133V241.056H83.6069V194.729Z" fill="#E0E0E0"/>
<path d="M34.623 193.42H70.1055V219.608H34.623V193.42Z" fill="#E0E0E0"/>
<path d="M59.4528 193.42H60.2667V219.851H59.4528V193.42Z" fill="#EBEBEB"/>
<path d="M44.6976 193.419H45.5114V219.851H44.6976V193.419Z" fill="#EBEBEB"/>
<path d="M45.1054 206.945H59.86V207.915H45.1054V206.945Z" fill="#EBEBEB"/>
<path d="M34.623 141.013H70.1055V167.202H34.623V141.013Z" fill="#E0E0E0"/>
<path d="M59.4528 141.003H60.2667V167.434H59.4528V141.003Z" fill="#EBEBEB"/>
<path d="M44.6976 141.003H45.5114V167.434H44.6976V141.003Z" fill="#EBEBEB"/>
<path d="M45.1054 154.539H59.86V155.508H45.1054V154.539Z" fill="#EBEBEB"/>
<path d="M85.959 141.246H108.339V166.494H85.959V141.246Z" fill="#E0E0E0"/>
<path d="M119.733 134.197H158.82V241.046H119.733V134.197Z" fill="#E0E0E0"/>
<path d="M96.7419 141.246H97.5558V166.494H96.7419V141.246Z" fill="#EBEBEB"/>
<path d="M85.959 154.005H108.339V154.975H85.959V154.005Z" fill="#EBEBEB"/>
<path d="M53.5605 129.329C50.9402 129.329 48.816 126.798 48.816 123.676C48.816 120.555 50.9402 118.024 53.5605 118.024C56.1809 118.024 58.3051 120.555 58.3051 123.676C58.3051 126.798 56.1809 129.329 53.5605 129.329Z" fill="#E0E0E0"/>
<path d="M87.4075 116.744L81.4177 107.94V86.7738H93.9587V116.909L87.4075 116.744Z" fill="#F5F5F5"/>
<path d="M87.4078 116.744V86.7738H81.4181V107.94L87.4078 116.744Z" fill="#EBEBEB"/>
<path d="M80.5797 83.6614H95.3587V86.7738H80.5797V83.6614Z" fill="#EBEBEB"/>
<path d="M119.74 180.941H192.463V241.056H119.74V180.941Z" fill="#F5F5F5"/>
<path d="M146.93 180.941H192.463V241.056H146.93V180.941Z" fill="#E0E0E0"/>
<path d="M153.709 200.323H183.487V240.949H153.709V200.323Z" fill="#F5F5F5"/>
<path d="M123.745 200.159H142.927V205.976H123.745V200.159Z" fill="#EBEBEB"/>
<path d="M167.968 133.761V136.854H71.5867V133.732L167.968 133.761Z" fill="#EBEBEB"/>
<path d="M71.5865 136.853L53.5604 106.708L53.5116 103.276L71.5296 133.76L71.5865 136.853Z" fill="#EBEBEB"/>
<path d="M12.8937 134.197H34.4763V136.194H12.8937V134.197Z" fill="#EBEBEB"/>
<path d="M91.2893 187.622H99.2566V191.228H91.2893V187.622Z" fill="#E0E0E0"/>
<path d="M263.11 45.6831C255.724 34.6644 244.994 29.5276 233.792 29.5276C233.792 29.5276 206.364 29.5276 198.242 56.1773C195.242 65.9986 195.909 76.6628 199.542 86.2273C200.906 89.8633 202.624 93.3305 204.668 96.5696C211.751 107.664 233.792 137.993 233.792 137.993H238.585C244.724 128.718 260.226 97.8972 264.866 88.0288C270.692 75.6282 271.586 58.3405 263.11 45.6831ZM238.368 94.9816C233.734 94.9823 229.203 93.4913 225.349 90.6972C221.496 87.9032 218.492 83.9315 216.718 79.2845C214.944 74.6375 214.48 69.524 215.384 64.5906C216.288 59.6572 218.519 55.1255 221.797 51.5688C225.074 48.012 229.249 45.5899 233.795 44.6088C238.34 43.6277 243.052 44.1316 247.333 46.0568C251.615 47.9821 255.274 51.2421 257.849 55.4247C260.423 59.6073 261.797 64.5246 261.796 69.5546C261.795 76.2979 259.327 82.7648 254.933 87.5331C250.54 92.3014 244.582 94.9806 238.368 94.9816V94.9816Z" fill="#71D281"/>
<path d="M267.932 45.8927C260.55 34.8739 249.817 29.7372 238.615 29.7372C238.615 29.7372 211.187 29.7372 203.064 56.3869C200.065 66.2082 200.731 76.8724 204.368 86.4369C205.73 90.0732 207.447 93.5404 209.491 96.7792C216.573 107.881 238.615 138.199 238.615 138.199C238.615 138.199 264.083 100.176 269.689 88.2384C275.515 75.8306 276.412 58.5501 267.932 45.8927ZM238.391 95.1911C233.757 95.1911 229.227 93.6997 225.374 90.9053C221.52 88.111 218.517 84.1392 216.744 79.4924C214.97 74.8456 214.506 69.7323 215.41 64.7993C216.314 59.8662 218.546 55.3349 221.823 51.7784C225.1 48.2219 229.275 45.7998 233.82 44.8186C238.365 43.8373 243.077 44.3409 247.358 46.2657C251.64 48.1905 255.299 51.45 257.874 55.6321C260.449 59.8141 261.823 64.7308 261.823 69.7605C261.846 73.1071 261.256 76.4253 260.086 79.5219C258.917 82.6186 257.192 85.432 255.011 87.7985C252.831 90.1649 250.239 92.0372 247.385 93.3063C244.532 94.5755 241.475 95.2162 238.391 95.1911V95.1911Z" fill="#8EEE9E"/>
<path d="M238.368 44.124C233.526 44.124 228.803 45.752 224.848 48.7843C220.894 51.8165 217.902 56.1041 216.284 61.0573C218.093 56.7218 221.161 53.1486 225.018 50.8839C228.875 48.6191 233.309 47.7875 237.643 48.516C241.976 49.2445 245.971 51.4931 249.016 54.9181C252.061 58.3431 253.989 62.756 254.505 67.4825C255.022 72.2089 254.098 76.9888 251.875 81.0915C249.652 85.1942 246.252 88.394 242.195 90.2019C238.139 92.0098 233.648 92.3263 229.41 91.1029C225.172 89.8796 221.42 87.1838 218.727 83.4275C220.942 87.1188 224.002 90.1222 227.609 92.1434C231.215 94.1646 235.243 95.1343 239.299 94.9575C243.354 94.7807 247.298 93.4634 250.743 91.1348C254.188 88.8062 257.017 85.546 258.952 81.6738C260.887 77.8017 261.862 73.4503 261.782 69.0461C261.701 64.6419 260.568 60.336 258.492 56.5502C256.417 52.7645 253.471 49.6288 249.944 47.4505C246.416 45.2722 242.427 44.1259 238.368 44.124V44.124Z" fill="#71D281"/>
</g>
<defs>
<clipPath id="clip0_86_2353">
<rect width="300" height="250" fill="white"/>
</clipPath>
</defs>
</svg>
