<svg width="318" height="250" viewBox="0 0 318 250" fill="none" xmlns="http://www.w3.org/2000/svg">
<g opacity="0.5" clip-path="url(#clip0_9035_41)">
<path d="M194.606 8.46727L296.301 118.448L39.7141 61.8432L176.351 4.38469C179.328 3.13482 182.754 2.85801 186.069 3.5994C189.384 4.34079 192.393 6.05665 194.606 8.46727V8.46727Z" fill="#EBEBEB"/>
<path d="M297.688 119.231L194.999 8.17393C192.714 5.66909 189.596 3.88656 186.159 3.12016C182.722 2.35377 179.172 2.64927 176.093 3.95794L38.1143 61.9767L297.688 119.231ZM182.461 3.60216C184.667 3.6035 186.876 4.0651 188.914 4.95082C190.952 5.83653 192.764 7.12234 194.208 8.7076V8.7076L294.924 117.674L41.283 61.7188L176.576 4.79402C178.398 4.03159 180.406 3.64034 182.464 3.64663L182.461 3.60216Z" fill="#E0E0E0"/>
<path d="M296.306 118.479L38.8151 61.6764L13.4248 185.491C12.922 187.943 13.5373 190.536 15.1355 192.701C16.7336 194.866 19.1836 196.424 21.9465 197.034L258.592 249.238C261.355 249.847 264.205 249.458 266.514 248.155C268.823 246.852 270.403 244.743 270.905 242.291L296.296 118.476L296.306 118.479Z" fill="#F0F0F0"/>
<path d="M54.901 68.4338L148.431 149.312L279.292 122.379L289.991 58.9167C290.606 55.6406 289.745 52.1959 287.594 49.3267C285.444 46.4576 282.176 44.3943 278.498 43.5826L83.4535 0.577702C81.6146 0.170629 79.7274 0.089377 77.8999 0.338596C76.0725 0.587815 74.3408 1.16261 72.8038 2.03009C71.2668 2.89756 69.9548 4.04068 68.9428 5.394C67.9308 6.74733 67.2388 8.2843 66.9063 9.91693L54.901 68.4338Z" fill="white"/>
<path d="M160.038 142.952L271.253 241.183C270.98 242.519 270.414 243.776 269.585 244.883C268.757 245.99 267.683 246.925 266.426 247.634C265.168 248.344 263.752 248.814 262.257 249.018C260.762 249.222 259.218 249.156 257.713 248.823L22.874 196.995C19.8359 196.325 17.1419 194.611 15.3843 192.231C13.6267 189.851 12.9494 186.999 13.5013 184.303L13.6631 183.52L146.956 140.177C149.123 139.471 151.51 139.357 153.831 139.85C156.151 140.342 158.307 141.419 160.038 142.952V142.952Z" fill="#E0E0E0"/>
<path d="M186.993 52.9789L263.298 69.8242L261.879 76.7379L185.574 59.8927L186.993 52.9789Z" fill="#E0E0E0"/>
<path d="M90.401 49.978L259.702 87.3531L258.098 95.1645L88.7975 57.7894L90.401 49.978Z" fill="#E0E0E0"/>
<path d="M86.4784 69.0614L255.779 106.437L254.176 114.248L84.8749 76.8729L86.4784 69.0614Z" fill="#E0E0E0"/>
<path d="M84.7534 94.3437L90.3054 99.0489L232.555 132.021L250.565 128.17L251.13 126.382L82.3721 89.1315L81.8348 91.7198L84.7534 94.3437Z" fill="#E0E0E0"/>
<path d="M122.873 127.209L186.899 141.333L205.888 137.366L110.198 116.242L122.873 127.209Z" fill="#E0E0E0"/>
<path d="M164.1 146.528C164.1 146.528 164.176 146.626 164.356 146.795L165.158 147.533L168.255 150.317L179.725 160.572C189.433 169.209 202.886 181.145 217.772 194.229C232.658 207.313 246.316 219.071 256.254 227.486C261.229 231.693 265.277 235.09 268.086 237.412L271.323 240.08L272.18 240.765C272.271 240.85 272.372 240.925 272.482 240.987C272.403 240.895 272.314 240.808 272.217 240.729L271.397 240.009L268.244 237.278L256.533 227.245C246.642 218.805 233.051 207.001 218.134 193.9C203.217 180.798 189.733 168.995 179.995 160.341L168.424 150.192L165.271 147.453L164.432 146.75L164.1 146.528Z" fill="#FAFAFA"/>
<path d="M13.6639 183.52C13.722 183.645 42.1558 174.545 77.1694 163.196C112.183 151.847 140.523 142.543 140.465 142.419C140.407 142.294 111.973 151.384 76.9616 162.769C41.9505 174.154 13.6051 183.387 13.6639 183.52Z" fill="#FAFAFA"/>
<path d="M50.4519 64.5383C50.5122 64.6176 50.5802 64.692 50.6551 64.7607L51.3004 65.3744L53.8041 67.7137L63.1095 76.2435C71.007 83.4213 81.9834 93.2586 94.2666 103.994C106.55 114.73 117.814 124.309 126.016 131.194L135.775 139.305L138.455 141.485L139.156 142.045C139.323 142.169 139.406 142.232 139.415 142.223C139.347 142.147 139.273 142.075 139.193 142.009L138.529 141.413L135.914 139.172L126.275 130.953C118.128 124.007 106.91 114.383 94.6374 103.656C82.3647 92.9295 71.3408 83.1189 63.3793 76.0122L53.9039 67.5891L51.4045 65.3122L50.7217 64.7251C50.6398 64.6537 50.5493 64.591 50.4519 64.5383V64.5383Z" fill="#FAFAFA"/>
<path d="M164.1 146.528C164.216 146.522 164.331 146.504 164.441 146.474L165.413 146.261L169.297 145.371C172.617 144.606 177.445 143.53 183.422 142.249C195.365 139.661 211.952 136.326 230.284 132.697C248.617 129.068 265.19 125.679 277.107 123.002C283.071 121.668 287.885 120.547 291.192 119.729L294.946 118.812L295.914 118.554C296.029 118.532 296.139 118.496 296.242 118.448L295.901 118.51L294.929 118.715L291.094 119.604C287.764 120.369 282.936 121.436 276.959 122.726C265.016 125.314 248.439 128.65 230.097 132.279C211.755 135.908 195.191 139.296 183.274 141.974C177.311 143.308 172.495 144.42 169.189 145.247L165.389 146.199L164.42 146.457L164.1 146.528Z" fill="#FAFAFA"/>
<path d="M54.9012 68.4327C54.9012 68.4327 54.9791 68.1392 55.1047 67.5433L55.647 65.0261C56.1207 62.7936 56.8075 59.5293 57.6941 55.3222L65.1073 19.6375C65.4936 17.7518 65.8933 15.8217 66.3062 13.8471C66.5035 12.8687 66.7087 11.8637 66.9238 10.8586C67.0261 10.3516 67.1185 9.84461 67.2615 9.35541C67.3888 8.85707 67.5554 8.36964 67.7603 7.89671C68.5972 5.90129 70.0129 4.17013 71.8678 2.87399C73.7227 1.57784 75.9526 0.761463 78.3377 0.505376C79.5772 0.36457 80.8431 0.379535 82.1 0.549848C83.3571 0.745528 84.642 1.05684 85.9343 1.33257L93.8053 3.11147L110.221 6.70485L183.33 22.8573L256.495 38.9741L272.902 42.5853L276.862 43.4747C278.159 43.706 279.437 44.0394 280.682 44.4709C281.892 44.9189 283.034 45.518 284.074 46.2498C285.106 46.9622 286.031 47.7945 286.824 48.7225C287.605 49.6326 288.258 50.6221 288.768 51.6666C289.249 52.6975 289.59 53.7701 289.783 54.8597C290.233 57.0389 289.711 59.138 289.384 61.2104C288.69 65.3612 288.028 69.337 287.395 73.1379C284.899 88.3564 282.808 100.649 281.437 109.161C280.75 113.412 280.213 116.703 279.839 118.945C279.661 120.056 279.534 120.91 279.437 121.497C279.341 122.084 279.323 122.387 279.323 122.387C279.323 122.387 279.391 122.093 279.497 121.497C279.602 120.901 279.751 120.065 279.949 118.962C280.342 116.712 280.909 113.421 281.645 109.178C283.106 100.675 285.207 88.3831 287.805 73.2091C288.444 69.4082 289.12 65.4323 289.833 61.2816C290.162 59.2358 290.699 57.0656 290.244 54.8152C290.046 53.7129 289.698 52.6283 289.207 51.5865C288.68 50.5088 288.007 49.4867 287.206 48.5446C286.39 47.5857 285.436 46.7264 284.371 45.9919C283.303 45.2294 282.125 44.606 280.876 44.1418C279.609 43.6876 278.306 43.3363 276.983 43.0923L272.974 42.2028L256.556 38.5739L183.388 22.4214L110.222 6.3046L93.8824 2.66674L86.0152 0.941207C84.7222 0.656582 83.4577 0.354169 82.1408 0.149595C80.2208 -0.106491 78.2876 -0.0181388 76.4543 0.409484C74.621 0.837107 72.9244 1.59542 71.4636 2.64006C69.6052 3.97251 68.1876 5.7331 67.3457 7.7544C67.1325 8.24015 66.9635 8.74277 66.8402 9.25757C66.6984 9.76456 66.5961 10.2715 66.4938 10.7785C66.2886 11.7836 66.0834 12.7887 65.8868 13.776C65.4837 15.7506 65.0972 17.6807 64.7076 19.5663L57.4665 55.3133C56.62 59.5293 56.0226 62.8025 55.5194 65.035C55.3118 66.1468 55.1446 66.9918 55.0375 67.57C54.9304 68.1481 54.9012 68.4327 54.9012 68.4327Z" fill="#E0E0E0"/>
<path d="M161.902 21.4892L172.133 28.1868L172.564 40.977L181.041 34.5819L186.243 38.3887L203.515 17.5223L161.902 21.4892Z" fill="#5CCD6A"/>
<g opacity="0.3">
<path d="M175.986 30.9079C176.013 31.2993 172.563 40.9765 172.563 40.9765L181.04 34.5813L175.986 30.9079Z" fill="black"/>
</g>
<path d="M203.515 17.5223L175.996 30.9085L172.564 40.977L172.133 28.1868L203.515 17.5223Z" fill="#54BE61"/>
<path d="M136.781 190.093C138.531 190.041 140.228 189.662 141.764 188.981C140.013 189.034 138.317 189.412 136.781 190.093Z" fill="#495D4C"/>
<path d="M128.835 191.872C128.844 192.006 129.581 191.961 130.397 191.783C131.214 191.606 131.846 191.339 131.807 191.205C131.768 191.072 131.061 191.116 130.235 191.303C129.41 191.49 128.786 191.739 128.835 191.872Z" fill="#495D4C"/>
<path d="M151.36 39.3045C152.236 39.316 153.098 39.1927 153.91 38.9398C154.772 38.8464 155.597 38.6113 156.347 38.2461C155.46 38.1419 154.571 38.221 153.749 38.4773C152.878 38.5717 152.058 38.8554 151.36 39.3045V39.3045Z" fill="#495D4C"/>
<path d="M142.07 42.9955C142.912 42.8274 143.705 42.5264 144.414 42.106C145.212 41.8289 145.942 41.4256 146.57 40.9142C145.694 40.9897 144.864 41.2518 144.147 41.6791C142.895 42.2484 141.983 42.8799 142.07 42.9955Z" fill="#495D4C"/>
<path d="M134.192 48.6525C134.307 48.7503 135.138 48.0832 136.184 47.2471C137.23 46.4111 138.048 45.6995 137.912 45.5839C137.097 45.8543 136.375 46.2958 135.803 46.8736C134.768 47.7274 134.087 48.5635 134.192 48.6525Z" fill="#495D4C"/>
<path d="M128.403 56.0794C128.545 56.1417 129.135 55.2789 129.849 54.2116C130.354 53.5972 130.738 52.9062 130.987 52.1658C130.873 52.0858 130.098 52.8507 129.377 53.9447C128.864 54.5661 128.53 55.2977 128.403 56.0794V56.0794Z" fill="#495D4C"/>
<path d="M125.442 64.8586C125.816 64.1688 126.057 63.4204 126.153 62.6439C126.431 61.9108 126.56 61.1309 126.533 60.3402C126.036 60.9758 125.727 61.7206 125.631 62.5105C125.352 63.2547 125.287 64.0615 125.442 64.8586Z" fill="#495D4C"/>
<path d="M125.569 74.1978C125.69 73.4255 125.671 72.6326 125.511 71.8497C125.53 71.0635 125.394 70.2716 125.109 69.5104C124.855 70.2602 124.807 71.0651 124.969 71.8586C124.963 72.6583 125.169 73.4599 125.569 74.1978V74.1978Z" fill="#495D4C"/>
<path d="M128.899 83.2167C128.738 82.4358 128.438 81.6758 128.01 80.9664C127.755 80.2038 127.371 79.4744 126.871 78.8051C126.879 79.6064 127.116 80.4056 127.558 81.1265C127.813 81.9013 128.274 82.6193 128.899 83.2167V83.2167Z" fill="#495D4C"/>
<path d="M135.466 90.8128C135.557 90.7061 134.732 89.9234 133.727 88.9628C132.721 88.0022 131.914 87.1839 131.792 87.2817C132.126 88.0435 132.659 88.731 133.345 89.283C134.371 90.2703 135.374 90.9107 135.466 90.8128Z" fill="#495D4C"/>
<path d="M144.525 95.8647C143.823 95.3564 143.041 94.9479 142.21 94.655C141.45 94.2194 140.624 93.8949 139.764 93.6944C140.381 94.3098 141.146 94.7893 141.994 95.0908C142.767 95.529 143.637 95.7948 144.525 95.8647V95.8647Z" fill="#495D4C"/>
<path d="M154.787 97.8393C153.947 97.5767 153.074 97.4385 152.202 97.4301C151.336 97.2534 150.453 97.2024 149.587 97.2789C150.389 97.6765 151.276 97.8936 152.167 97.9104C153.047 98.086 153.948 98.0615 154.787 97.8393V97.8393Z" fill="#495D4C"/>
<path d="M164.824 96.0601C163.961 96.1398 163.124 96.3346 162.339 96.6383C161.496 96.7897 160.69 97.0534 159.948 97.421C160.839 97.5204 161.729 97.41 162.53 97.1008C163.397 96.95 164.189 96.5908 164.824 96.0601Z" fill="#495D4C"/>
<path d="M171.525 89.6562C171.377 89.6562 170.986 90.5456 170.251 91.5952C169.516 92.6447 168.788 93.3741 168.906 93.5075C169.024 93.6409 169.944 92.9738 170.715 91.8798C171.262 91.2578 171.547 90.4744 171.525 89.6562V89.6562Z" fill="#495D4C"/>
<path d="M166.678 82.3719C166.688 82.5142 167.786 82.8255 168.962 83.546C170.137 84.2664 170.803 85.1648 170.936 85.0936C171.069 85.0225 170.559 83.9551 169.25 83.1546C168.514 82.6145 167.594 82.3345 166.678 82.3719V82.3719Z" fill="#495D4C"/>
<path d="M157.995 85.7071C158.138 85.7782 158.708 84.9066 159.674 84.0527C160.639 83.1988 161.655 82.7719 161.547 82.6385C160.646 82.7102 159.83 83.0883 159.264 83.6969C158.579 84.1951 158.129 84.9075 157.995 85.7071V85.7071Z" fill="#495D4C"/>
<path d="M158.301 94.7885C158.173 94.0135 157.957 93.2475 157.656 92.5026C157.527 91.7248 157.31 90.9559 157.01 90.2078C156.869 90.9913 156.913 91.803 157.138 92.5916C157.364 93.3801 157.766 94.1282 158.32 94.7885H158.301Z" fill="#495D4C"/>
<path d="M165.553 101.77C165.634 101.655 164.689 100.988 163.555 100.16C162.421 99.3331 161.473 98.6216 161.41 98.7105C161.347 98.7995 162.05 99.6711 163.223 100.489C164.396 101.308 165.483 101.886 165.553 101.77Z" fill="#495D4C"/>
<path d="M175.085 106.094C174.394 105.561 173.6 105.153 172.75 104.893C171.96 104.488 171.095 104.23 170.21 104.137C170.906 104.667 171.703 105.075 172.555 105.337C173.342 105.74 174.203 105.997 175.085 106.094V106.094Z" fill="#495D4C"/>
<path d="M184.66 110.345C184.731 110.229 183.749 109.598 182.458 108.922C181.7 108.465 180.849 108.161 179.968 108.032C179.898 108.166 180.943 108.708 182.221 109.348C182.959 109.826 183.789 110.165 184.66 110.345V110.345Z" fill="#495D4C"/>
<path d="M192.956 116.464C193.058 116.375 192.316 115.504 191.215 114.588C190.114 113.671 189.135 113.075 189.004 113.173C188.872 113.271 189.777 114.063 190.856 114.952C191.935 115.842 192.841 116.518 192.956 116.464Z" fill="#495D4C"/>
<path d="M199.458 124.131C199.237 123.346 198.82 122.607 198.239 121.97C197.401 120.858 196.565 120.058 196.442 120.138C196.763 120.891 197.22 121.598 197.794 122.228C198.572 123.322 199.324 124.193 199.458 124.131Z" fill="#495D4C"/>
<path d="M203.862 132.848C203.856 132.051 203.637 131.255 203.224 130.527C202.983 129.744 202.543 129.013 201.939 128.392C202.052 129.181 202.317 129.954 202.722 130.678C202.963 131.447 203.348 132.182 203.862 132.848V132.848Z" fill="#495D4C"/>
<path d="M205.88 142.134C206.128 140.574 205.891 138.956 205.194 137.455C205.093 138.232 205.149 139.027 205.36 139.803C205.382 140.593 205.558 141.382 205.88 142.134V142.134Z" fill="#495D4C"/>
<path d="M205.174 151.411C205.569 150.723 205.794 149.96 205.835 149.169C206.077 148.413 206.091 147.601 205.875 146.812C205.555 147.528 205.359 148.289 205.295 149.071C205.075 149.825 205.034 150.622 205.174 151.411Z" fill="#495D4C"/>
<path d="M201.768 160.038C202.383 159.499 202.84 158.829 203.1 158.082C203.528 157.406 203.762 156.637 203.78 155.84C203.255 156.442 202.856 157.128 202.602 157.868C202.176 158.531 201.894 159.267 201.768 160.038V160.038Z" fill="#495D4C"/>
<path d="M196.063 167.537C196.168 167.626 197.008 166.95 197.924 165.954C198.52 165.396 198.958 164.714 199.204 163.961C199.07 163.872 198.346 164.655 197.487 165.634C196.629 166.612 195.948 167.439 196.063 167.537Z" fill="#495D4C"/>
<path d="M188.473 173.496C189.315 173.288 190.079 172.901 190.702 172.366C191.812 171.601 192.567 170.836 192.48 170.73C191.687 171.025 190.965 171.447 190.348 171.975C189.237 172.731 188.385 173.38 188.473 173.496Z" fill="#495D4C"/>
<path d="M179.384 177.534C180.272 177.528 181.131 177.33 181.889 176.955C182.729 176.74 183.484 176.337 184.085 175.781C183.229 175.896 182.41 176.14 181.66 176.502C180.837 176.731 180.069 177.079 179.384 177.534V177.534Z" fill="#495D4C"/>
<path d="M174.293 178.779C174.302 178.903 174.379 179.01 174.417 179.001C174.455 178.992 174.462 178.877 174.398 178.743C174.335 178.61 174.313 178.512 174.275 178.521C174.237 178.53 174.258 178.601 174.293 178.779Z" fill="#495D4C"/>
<path d="M180.151 155.445L190.715 152.251L193.347 158.302L182.783 161.496L180.151 155.445Z" fill="#43AF55"/>
<path d="M180.123 155.458C182.205 156.37 184.35 157.143 186.542 157.771L186.734 157.833L186.842 157.691L187.014 157.477C188.391 155.834 189.617 154.088 190.681 152.256C189.163 153.794 187.785 155.441 186.559 157.184L186.397 157.397L186.697 157.317C184.554 156.542 182.355 155.92 180.123 155.458V155.458Z" fill="#2A9348"/>
<path d="M187.884 155.965C188.67 156.567 189.563 157.04 190.519 157.361C191.411 157.821 192.375 158.143 193.369 158.313C192.577 157.714 191.681 157.241 190.724 156.916C189.835 156.459 188.874 156.137 187.884 155.965V155.965Z" fill="#2A9348"/>
<path d="M182.616 161.559C183.173 160.889 183.587 160.127 183.839 159.309C184.396 157.984 184.75 156.845 184.554 156.863C183.996 157.535 183.579 158.296 183.322 159.113C182.916 159.872 182.676 160.702 182.616 161.559V161.559Z" fill="#2A9348"/>
<path d="M137.84 179.156L165.006 170.942L171.777 186.508L144.61 194.722L137.84 179.156Z" fill="#5CCD6A"/>
<path d="M137.853 179.161C138.263 179.366 138.691 179.536 139.132 179.668L142.671 180.887C145.702 181.892 149.835 183.262 154.489 184.765L154.681 184.827L154.79 184.685L155.214 184.133C157.979 180.531 160.471 177.258 162.245 174.865L164.324 172.028C164.596 171.688 164.831 171.325 165.027 170.943C164.682 171.234 164.374 171.559 164.109 171.912L161.885 174.661C160.028 176.991 157.494 180.238 154.72 183.84L154.295 184.382L154.595 184.302C149.951 182.808 145.763 181.492 142.737 180.567L139.149 179.49C138.726 179.347 138.292 179.237 137.853 179.161V179.161Z" fill="#43AF55"/>
<path d="M157.68 180.487C159.923 181.702 162.248 182.781 164.637 183.716C166.958 184.789 169.348 185.722 171.791 186.509C169.555 185.283 167.233 184.201 164.843 183.271C162.523 182.191 160.129 181.26 157.68 180.487V180.487Z" fill="#43AF55"/>
<path d="M144.464 194.423C145.471 192.584 146.328 190.672 147.03 188.701C147.883 186.787 148.578 184.809 149.11 182.782C148.095 184.62 147.238 186.536 146.544 188.513C145.69 190.423 144.995 192.399 144.464 194.423V194.423Z" fill="#43AF55"/>
<path d="M163.728 174.768C164.451 175.225 165.295 175.487 166.153 175.521C167.011 175.555 167.845 175.359 168.549 174.959C169.253 174.559 169.796 173.972 170.109 173.272C170.422 172.573 170.491 171.792 170.308 171.029C170.124 170.266 169.696 169.554 169.078 168.984C168.459 168.415 167.679 168.012 166.834 167.828C165.989 167.644 165.118 167.686 164.332 167.949C163.545 168.212 162.878 168.685 162.415 169.307C162.107 169.72 161.896 170.189 161.796 170.688C161.695 171.186 161.706 171.703 161.828 172.211C161.95 172.718 162.181 173.205 162.507 173.644C162.833 174.082 163.248 174.464 163.728 174.768V174.768Z" fill="#495D4C"/>
<path d="M163.327 170.908C164.287 171.522 165.299 172.064 166.352 172.527L167.067 172.873L167.2 172.936L167.261 172.829C167.681 172.161 168.027 171.456 168.296 170.721C167.79 171.337 167.358 172.002 167.006 172.704L167.189 172.651L166.474 172.295C165.466 171.754 164.413 171.289 163.327 170.908Z" fill="white"/>
<path d="M154.17 158.174L168.405 153.87L171.952 162.025L157.717 166.329L154.17 158.174Z" fill="#43AF55"/>
<path d="M154.188 158.179C154.404 158.285 154.628 158.374 154.858 158.446L156.719 159.087C158.286 159.611 160.468 160.332 162.901 161.115H163L163.063 161.035L163.28 160.75C164.735 158.864 165.985 157.148 166.972 155.893L168.061 154.408C168.201 154.229 168.323 154.039 168.425 153.839C168.249 153.99 168.096 154.16 167.967 154.346L166.796 155.787C165.827 157.005 164.497 158.704 163.041 160.59L162.825 160.883H162.983C160.55 160.101 158.36 159.407 156.767 158.927L154.892 158.366C154.665 158.279 154.429 158.216 154.188 158.179V158.179Z" fill="#2A9348"/>
<path d="M164.577 158.873C165.753 159.507 166.97 160.072 168.219 160.563C169.437 161.129 170.691 161.619 171.974 162.031C170.801 161.39 169.583 160.822 168.331 160.332C167.115 159.767 165.86 159.28 164.577 158.873V158.873Z" fill="#2A9348"/>
<path d="M157.483 166.407C158.049 165.407 158.529 164.367 158.921 163.294C159.395 162.251 159.787 161.175 160.094 160.074C159.041 162.112 158.168 164.229 157.483 166.407V166.407Z" fill="#2A9348"/>
<path d="M263.747 56.0974C265 59.6568 267.377 62.8685 270.577 65.3268C273.776 67.785 277.656 69.3794 281.724 69.9084C285.792 70.4374 289.867 69.8772 293.434 68.2988C297 66.7203 299.898 64.1943 301.761 61.0401C303.624 57.8859 304.368 54.2451 303.9 50.5778C303.432 46.9105 301.772 43.3814 299.13 40.4364C296.489 37.4915 292.984 35.2629 289.059 34.0324C285.134 32.8019 280.965 32.6247 277.079 33.5232C274.497 34.1214 272.103 35.18 270.036 36.6383C267.968 38.0967 266.266 39.9262 265.028 42.0225C263.79 44.1188 263.04 46.4408 262.82 48.8558C262.6 51.2708 262.915 53.7315 263.747 56.0974V56.0974Z" fill="#5CCD6A"/>
<path d="M275.042 41.4573C274.687 41.5907 277.465 47.808 281.254 55.3505C281.815 56.4445 282.343 57.4941 282.87 58.5258L283.156 59.0862L283.802 58.8727C290.317 56.5512 295.066 54.6389 294.928 54.3632C294.79 54.0875 289.821 55.5284 283.247 57.7253L284.14 58.0811C283.633 57.0493 283.105 55.9909 282.564 54.8969C278.745 47.3543 275.389 41.3328 275.042 41.4573Z" fill="white"/>
</g>
<defs>
<clipPath id="clip0_9035_41">
<rect width="300.36" height="250.14" fill="white" transform="matrix(-1 0 0.0705125 0.997511 300.36 0)"/>
</clipPath>
</defs>
</svg>
