<svg width="373" height="345" viewBox="0 0 373 345" fill="none" xmlns="http://www.w3.org/2000/svg">
<g opacity="0.5" clip-path="url(#clip0_9035_222)">
<path d="M292.781 102.514L339.015 119.708C341.007 120.447 342.874 121.485 344.506 122.761C346.138 124.037 347.503 125.526 348.52 127.14C349.537 128.753 350.186 130.46 350.429 132.16C350.672 133.86 350.504 135.518 349.936 137.039L329.567 191.516C328.489 194.389 326.041 196.61 322.71 197.735C319.379 198.861 315.409 198.81 311.587 197.592C310.306 197.182 308.974 197.168 307.862 197.554C306.75 197.94 305.942 198.696 305.603 199.669L264.853 315.7C263.52 319.5 260.289 322.413 255.865 323.804C251.441 325.196 246.184 324.952 241.241 323.127L64.5211 257.793C63.8627 257.55 63.2451 257.208 62.7042 256.789C62.1633 256.369 61.7099 255.879 61.3701 255.347C61.0303 254.815 60.8109 254.252 60.7247 253.691C60.6384 253.129 60.687 252.58 60.8677 252.075L133.76 51.5753C134.118 50.5915 134.956 49.8348 136.1 49.4628C137.244 49.0908 138.605 49.1324 139.9 49.5788L292.781 102.514Z" fill="#5CCD6A"/>
<g opacity="0.3">
<path d="M62.5809 248.397L61.1931 252.191L249.359 313.665L326.484 114.86C326.484 114.86 279.991 102.023 279.15 101.679C278.309 101.336 62.5809 248.397 62.5809 248.397Z" fill="black"/>
</g>
<path d="M264.106 78.4392L316.897 97.0436L238.685 303.804L50.4466 244.244L106.741 29.7824L264.106 78.4392Z" fill="#EBEBEB"/>
<path d="M264.784 78.716L261.961 77.8673L253.751 75.3592L222.257 65.6565L106.689 29.9217L106.905 29.8325C91.8806 87.3122 72.3492 161.982 50.7931 244.377L50.6077 244.107L92.9832 257.536L239.703 304.017L239.43 304.117C273.629 213.711 301.72 139.554 317.702 97.3723L317.784 97.5073L278.339 83.5259L268.19 79.9214C265.921 79.113 264.774 78.6869 264.774 78.6869C264.774 78.6869 265.936 79.0768 268.211 79.8707L278.378 83.4318L317.855 97.308L317.973 97.3561L317.935 97.4503C301.989 139.672 273.989 213.866 239.81 304.247L239.742 304.413L239.534 304.328L92.8805 257.917L50.505 244.488L50.2696 244.392L50.3465 244.203C71.9359 161.83 91.5034 87.1751 106.576 29.7066L106.633 29.569L106.805 29.6392L222.328 65.4827L253.799 75.2688L261.997 77.8312C263.828 78.4439 264.784 78.716 264.784 78.716Z" fill="#495E4C"/>
<path d="M99.5847 18.9324L40.5432 235.053L240.237 299.773L296.326 82.6159L99.5847 18.9324Z" fill="white"/>
<path d="M99.5729 18.9615L297.201 82.7788L297.394 82.8577L297.332 83.0098C281.631 143.991 262.287 219.118 241.412 300.228L241.335 300.416L241.096 300.318L239.673 299.864L40.5989 235.278L40.3874 235.192L40.4554 235.025C75.4472 107.084 99.1652 20.4851 99.5729 18.9615C99.1445 20.5358 75.6041 107.199 40.8571 235.198L40.6893 234.952L239.809 299.53L241.229 299.992L240.926 300.105C261.858 218.96 281.223 143.858 296.952 82.8885L297.107 83.1125L99.5729 18.9615Z" fill="#495E4C"/>
<path d="M181.04 245.639C182.879 241.175 186.486 237.554 191.405 235.233C196.323 232.913 202.333 231.997 208.672 232.602C215.012 233.207 221.398 235.305 227.022 238.632C232.646 241.959 237.256 246.364 240.268 251.291C243.28 256.217 244.56 261.444 243.945 266.31C243.33 271.177 240.848 275.463 236.813 278.628C232.778 281.794 227.372 283.695 221.277 284.092C215.182 284.489 208.674 283.364 202.574 280.859C194.401 277.497 187.544 271.9 183.507 265.297C179.47 258.694 178.583 251.625 181.04 245.639V245.639ZM242.151 270.717C243.958 266.336 243.95 261.324 242.126 256.314C240.302 251.305 236.744 246.524 231.903 242.575C227.062 238.627 221.155 235.689 214.929 234.132C208.703 232.575 202.438 232.47 196.926 233.83C191.413 235.19 186.902 237.954 183.962 241.772C181.021 245.59 179.785 250.291 180.408 255.28C181.031 260.269 183.485 265.323 187.461 269.801C191.438 274.279 196.756 277.982 202.745 280.439C210.774 283.727 219.432 284.551 226.819 282.728C234.206 280.905 239.72 276.586 242.151 270.717V270.717Z" fill="#E0E0E0"/>
<path d="M185.522 247.454C187.128 243.563 190.274 240.406 194.564 238.383C198.854 236.361 204.094 235.563 209.623 236.091C215.151 236.62 220.719 238.45 225.623 241.351C230.527 244.252 234.547 248.093 237.173 252.389C239.8 256.685 240.916 261.243 240.38 265.487C239.845 269.73 237.681 273.468 234.164 276.229C230.646 278.989 225.932 280.648 220.618 280.996C215.304 281.343 209.629 280.364 204.309 278.181C197.178 275.248 191.195 270.366 187.673 264.605C184.151 258.844 183.377 252.676 185.522 247.454V247.454ZM235.352 267.908C236.721 264.59 236.715 260.793 235.333 256.999C233.951 253.205 231.256 249.583 227.589 246.592C223.922 243.602 219.448 241.376 214.732 240.198C210.016 239.019 205.271 238.939 201.096 239.97C196.92 241 193.504 243.094 191.277 245.986C189.05 248.878 188.114 252.439 188.586 256.218C189.059 259.997 190.918 263.825 193.931 267.217C196.943 270.609 200.972 273.412 205.508 275.274C211.585 277.754 218.134 278.369 223.72 276.986C229.306 275.602 233.475 272.332 235.313 267.892L235.352 267.908Z" fill="#E0E0E0"/>
<path d="M192.914 250.821C193.84 248.556 195.485 246.622 197.713 245.176L200.719 247.933C198.935 249.095 197.617 250.647 196.872 252.463C196.017 254.537 195.933 256.883 196.628 259.26C197.324 261.637 198.774 263.959 200.829 265.986C202.885 268.014 205.471 269.674 208.321 270.795C211.171 271.916 214.183 272.458 217.045 272.365L218.101 275.686C214.525 275.803 210.763 275.126 207.202 273.724C203.641 272.323 200.411 270.249 197.845 267.715C195.278 265.181 193.468 262.28 192.601 259.31C191.735 256.341 191.843 253.41 192.914 250.821V250.821Z" fill="#E0E0E0"/>
<path d="M207.055 241.552C211.538 241.663 216.178 242.976 220.258 245.289C224.339 247.602 227.633 250.786 229.633 254.351C231.633 257.916 232.229 261.662 231.327 265.014C230.425 268.365 228.077 271.135 224.644 272.896L221.916 269.965C224.664 268.555 226.544 266.338 227.265 263.655C227.987 260.972 227.51 257.973 225.908 255.119C224.306 252.266 221.668 249.717 218.401 247.866C215.135 246.015 211.421 244.965 207.832 244.878L207.055 241.552Z" fill="#E0E0E0"/>
<path d="M285.068 139.826C285.027 139.927 244.396 126.594 194.264 110.073C144.132 93.5521 103.519 80.0322 103.551 79.9268C103.582 79.8213 144.223 93.1585 194.368 109.676C244.513 126.194 285.103 139.713 285.068 139.826Z" fill="#495E4C"/>
<path d="M189.947 99.0817C189.905 99.1831 171.134 93.088 147.993 85.4535C124.853 77.819 106.123 71.538 106.145 71.4285C106.166 71.3191 124.958 77.4222 148.098 85.0567C171.238 92.6912 189.965 98.9795 189.947 99.0817Z" fill="#495E4C"/>
<path d="M282.399 148.564C282.358 148.665 241.717 135.328 191.595 118.811C141.473 102.294 100.851 88.7704 100.882 88.6649C100.914 88.5595 141.554 101.897 191.697 118.422C241.839 134.947 282.446 148.422 282.399 148.564Z" fill="#495E4C"/>
<path d="M279.76 157.23C279.716 157.339 239.078 143.994 188.953 127.484C138.828 110.975 98.2088 97.4436 98.2433 97.3309C98.2777 97.2182 138.915 110.563 189.057 127.088C239.2 143.613 279.792 157.125 279.76 157.23Z" fill="#495E4C"/>
<path d="M277.103 165.939C277.062 166.04 236.421 152.703 186.299 136.186C136.177 119.669 95.5547 106.145 95.5774 106.061C95.6 105.978 136.249 119.293 186.395 135.811C236.54 152.329 277.129 165.848 277.103 165.939Z" fill="#495E4C"/>
<path d="M274.449 174.64C274.408 174.742 233.767 161.405 183.635 144.884C133.503 128.363 92.9009 114.847 92.9225 114.737C92.9441 114.628 133.595 127.969 183.739 144.487C233.884 161.005 274.471 174.531 274.449 174.64Z" fill="#495E4C"/>
<path d="M271.785 183.338C271.741 183.447 231.113 170.107 180.978 153.593C130.843 137.079 90.2342 123.552 90.2786 123.443C90.323 123.335 130.951 136.675 181.092 153.2C231.234 169.725 271.817 183.233 271.785 183.338Z" fill="#495E4C"/>
<path d="M269.129 192.048C269.088 192.149 228.971 179.026 179.544 162.7C130.117 146.374 89.9899 133.052 90.0214 132.947C90.0529 132.841 130.179 145.969 179.659 162.307C229.138 178.646 269.164 191.935 269.129 192.048Z" fill="#495E4C"/>
<path d="M194.521 180.403C194.479 180.504 170.278 172.529 140.466 162.55C110.654 152.571 86.4689 144.442 86.5004 144.337C86.5319 144.231 110.733 152.206 140.57 162.153C170.407 172.1 194.545 180.286 194.521 180.403Z" fill="#495E4C"/>
<path d="M137.612 238.066C137.571 238.167 122.858 233.299 104.724 227.168C86.5905 221.038 71.9228 216.002 71.9474 215.885C71.972 215.768 86.7018 220.652 104.835 226.783C122.969 232.913 137.647 237.953 137.612 238.066Z" fill="#495E4C"/>
<path d="M106.824 234.829C106.779 234.937 98.5055 232.276 88.3442 228.81C78.183 225.345 69.9406 222.494 69.9622 222.384C69.9838 222.275 78.2755 224.977 88.4486 228.414C98.6217 231.85 106.855 234.723 106.824 234.829Z" fill="#495E4C"/>
<path d="M128.732 174.887C128.688 174.996 118.94 171.902 106.912 167.978C94.8832 164.054 85.1611 160.784 85.1956 160.671C85.2301 160.559 94.9905 163.65 107.016 167.581C119.042 171.512 128.764 174.782 128.732 174.887Z" fill="#5CCD6A"/>
<g opacity="0.3">
<path d="M52.4721 199.277L72.8015 204.412L88.3896 196.936L54.7556 191.793L52.4721 199.277Z" fill="black"/>
</g>
<path d="M24.9515 170.35L77.7236 187.755L88.3897 196.936L75.2113 201.027L21.4003 183.848L24.9515 170.35Z" fill="#5CCD6A"/>
<path d="M194.19 200.541L194.351 200.658C194.507 200.772 194.649 200.898 194.774 201.033C195.28 201.563 195.696 202.135 196.009 202.729C197.169 205.022 197.853 207.375 198.029 209.681C198.458 213.354 197.877 216.88 196.325 220.013C195.823 220.952 195.192 221.827 194.44 222.623C193.615 223.449 192.69 224.201 191.674 224.874C189.467 226.341 186.862 227.419 183.978 228.06C180.817 228.785 177.38 228.987 173.844 228.653C169.995 228.303 166.105 227.215 162.501 225.482C158.559 223.503 155.11 220.832 152.491 217.729C149.871 214.626 148.169 211.196 147.55 207.773C147.226 205.943 147.28 204.149 147.71 202.464C148.103 200.717 149.017 199.154 150.384 197.894C151.732 196.542 153.702 195.685 155.997 195.455C157.185 195.37 158.444 195.525 159.67 195.905C160.895 196.285 162.053 196.88 163.046 197.64C165.081 199.172 166.526 201.123 167.13 203.154C167.714 205.185 167.747 207.199 167.227 209.05C166.258 212.838 164.056 216.163 160.816 218.727C157.597 221.313 153.389 223.017 148.606 223.669C143.932 224.258 138.856 223.74 133.935 222.173C129.169 220.706 124.734 218.246 121.145 215.081C117.756 212.007 115.361 208.386 114.252 204.66C113.14 201.123 113.262 197.62 114.603 194.561C115.224 193.078 116.218 191.765 117.535 190.689C118.791 189.628 120.44 188.906 122.328 188.59C123.251 188.438 124.247 188.452 125.253 188.63C126.258 188.808 127.252 189.147 128.172 189.625C129.915 190.596 131.308 191.959 132.114 193.483C132.902 194.93 133.241 196.437 133.098 197.856C132.926 199.182 132.424 200.411 131.619 201.478C130.064 203.427 128.009 205.05 125.553 206.268C123.428 207.412 121.112 208.349 118.64 209.064C116.493 209.684 114.249 210.152 111.928 210.463C109.971 210.703 107.967 210.833 105.929 210.852C103.11 210.888 100.226 210.671 97.3289 210.205C96.3209 210.055 95.3119 209.866 94.3057 209.637C94.3057 209.637 94.5697 209.669 95.0761 209.758C95.5824 209.846 96.338 210.003 97.3288 210.12C100.212 210.546 103.077 210.737 105.88 210.689C107.901 210.65 109.888 210.505 111.829 210.254C114.127 209.932 116.348 209.455 118.472 208.826C120.921 208.13 123.219 207.218 125.333 206.102C127.742 204.886 129.759 203.277 131.289 201.351C132.08 200.307 132.572 199.102 132.739 197.803C132.874 196.44 132.542 194.993 131.775 193.606C131.004 192.162 129.681 190.87 128.029 189.947C127.164 189.501 126.229 189.186 125.285 189.023C124.341 188.86 123.407 188.852 122.542 188.998C120.725 189.307 119.138 190.004 117.928 191.026C116.657 192.071 115.698 193.345 115.101 194.782C113.803 197.79 113.699 201.229 114.802 204.699C115.907 208.342 118.257 211.878 121.572 214.884C125.097 217.973 129.439 220.377 134.103 221.819C138.936 223.353 143.919 223.859 148.509 223.283C153.202 222.631 157.324 220.945 160.469 218.39C163.647 215.867 165.813 212.601 166.776 208.882C167.27 207.085 167.24 205.136 166.686 203.167C166.108 201.238 164.74 199.386 162.814 197.926C161.871 197.215 160.781 196.655 159.628 196.287C158.489 195.943 157.322 195.802 156.218 195.874C154.031 196.095 152.153 196.912 150.87 198.203C149.54 199.419 148.653 200.934 148.277 202.628C147.831 204.257 147.756 205.998 148.056 207.777C148.662 211.132 150.326 214.495 152.888 217.539C155.449 220.583 158.821 223.207 162.679 225.158C166.217 226.862 170.035 227.938 173.817 228.296C177.306 228.63 180.699 228.44 183.822 227.735C187.992 226.812 191.548 224.967 194.148 222.377C194.895 221.605 195.518 220.752 196.007 219.832C197.584 216.731 198.198 213.232 197.805 209.581C197.652 207.293 197.005 204.957 195.893 202.674C195.595 202.085 195.203 201.515 194.727 200.98C194.404 200.696 194.172 200.559 194.19 200.541Z" fill="#495E4C"/>
<path d="M243.048 102.28C243.048 102.28 243.098 102.157 243.129 101.899C243.159 101.641 243.277 101.275 243.393 100.807C243.638 99.8424 244.002 98.4279 244.463 96.5961L248.514 80.8257L248.628 80.9906L146.521 48.9029L146.814 48.786C144.883 56.1267 143.022 63.2935 141.186 70.1915L140.998 69.9204L213.807 92.9567L235.241 99.7676L241.017 101.611L242.515 102.096L243.027 102.305L242.531 102.162L241.051 101.71L235.312 99.9321L213.901 93.2487L140.911 70.3159L140.674 70.2188L140.748 70.0377C142.496 63.1461 144.435 55.9692 146.357 48.6248L146.434 48.4365L146.672 48.5336L248.707 80.7187L248.854 80.7784L248.809 80.887C246.993 87.6579 245.563 93.0145 244.576 96.6846C244.082 98.4942 243.705 99.8868 243.442 100.844C243.317 101.308 243.217 101.656 243.147 101.907C243.077 102.157 243.048 102.28 243.048 102.28Z" fill="#455A64"/>
<path d="M148.468 65.5107L150.81 56.6769L156.223 58.4613C157.525 58.8905 158.412 59.4344 158.884 60.0931C159.358 60.7435 159.461 61.5734 159.194 62.583C158.926 63.5926 158.433 64.2307 157.716 64.4974C157.001 64.7557 155.993 64.6703 154.691 64.2411L151.138 63.0701L150.328 66.1241L148.468 65.5107ZM151.52 61.6314L154.964 62.767C155.651 62.9934 156.184 63.0454 156.562 62.923C156.942 62.7922 157.199 62.4744 157.333 61.9696C157.469 61.4564 157.408 61.0339 157.151 60.7019C156.903 60.3734 156.431 60.0942 155.734 59.8644L152.289 58.7289L151.52 61.6314Z" fill="#78C081"/>
<path d="M161.729 70.0055C160.683 69.6608 159.956 69.2475 159.549 68.7656C159.144 68.2753 159.034 67.681 159.219 66.9827C159.411 66.2592 159.814 65.8338 160.427 65.7067C161.053 65.5745 161.971 65.7078 163.18 66.1066L165.749 66.9532C165.866 66.4248 165.787 65.987 165.511 65.64C165.248 65.2878 164.758 64.9935 164.04 64.7569C163.456 64.5643 162.983 64.4955 162.623 64.5506C162.265 64.5973 161.989 64.7762 161.795 65.0873L160.058 64.5145C160.408 63.7794 160.928 63.3332 161.616 63.1758C162.307 63.0101 163.247 63.1232 164.436 63.5152C165.769 63.9546 166.673 64.4952 167.15 65.1371C167.636 65.7824 167.749 66.5972 167.488 67.5815L166.464 71.4432L164.711 70.8653L164.909 70.1207C164.162 70.4968 163.102 70.4584 161.729 70.0055ZM160.97 67.505C160.827 68.0435 161.33 68.5019 162.478 68.8804C163.268 69.1407 163.894 69.2189 164.356 69.1151C164.818 69.0114 165.168 68.724 165.404 68.253L165.464 68.0258L163.357 67.3313C161.922 66.8582 161.126 66.9161 160.97 67.505Z" fill="#78C081"/>
<path d="M168.64 69.9372L170.377 70.51C170.434 71.1783 171.078 71.7152 172.308 72.1208C173.538 72.5263 174.213 72.5061 174.331 72.0602C174.436 71.6648 173.783 71.143 172.371 70.4949C171.146 69.9446 170.312 69.4318 169.87 68.9566C169.44 68.4763 169.307 67.9249 169.472 67.3023C169.648 66.6377 170.051 66.2351 170.679 66.0945C171.317 65.9573 172.226 66.083 173.405 66.4717C174.604 66.8671 175.461 67.3369 175.974 67.8813C176.487 68.4256 176.711 69.0941 176.646 69.8868L174.909 69.314C174.881 68.9571 174.715 68.6556 174.413 68.4095C174.122 68.1583 173.665 67.9296 173.039 67.7235C171.912 67.3518 171.292 67.3762 171.18 67.7969C171.125 68.0072 171.244 68.2295 171.539 68.4639C171.846 68.6932 172.342 68.9665 173.027 69.2838C174.328 69.8864 175.195 70.4194 175.63 70.8828C176.077 71.3412 176.219 71.8775 176.056 72.4916C175.875 73.1731 175.452 73.5917 174.787 73.7474C174.121 73.9031 173.168 73.7764 171.927 73.3675C170.718 72.9687 169.851 72.4955 169.327 71.9478C168.814 71.4035 168.585 70.7333 168.64 69.9372Z" fill="#78C081"/>
<path d="M180.776 76.2844C179.382 75.8248 178.438 75.221 177.945 74.473C177.452 73.7251 177.363 72.7579 177.678 71.5717C177.992 70.3854 178.539 69.6279 179.317 69.2989C180.096 68.97 181.182 69.0354 182.576 69.495C183.817 69.9039 184.695 70.4176 185.211 71.036C185.727 71.6543 185.938 72.4373 185.842 73.3848L184.105 72.812C184.108 72.3373 183.961 71.9458 183.664 71.6374C183.366 71.329 182.895 71.0683 182.249 70.8554C181.449 70.5918 180.827 70.5649 180.381 70.7748C179.937 70.9762 179.621 71.4345 179.431 72.1496C179.241 72.8647 179.282 73.4455 179.554 73.8918C179.828 74.3298 180.365 74.6806 181.165 74.9442C181.8 75.1537 182.318 75.2192 182.718 75.1406C183.13 75.057 183.45 74.8192 183.676 74.4273L185.414 75.0001C185.044 75.848 184.486 76.3775 183.739 76.5886C183.004 76.7947 182.016 76.6933 180.776 76.2844Z" fill="#78C081"/>
<path d="M189.106 79.0302C188.06 78.6855 187.333 78.2722 186.926 77.7902C186.521 77.2999 186.411 76.7056 186.596 76.0073C186.788 75.2838 187.191 74.8584 187.804 74.7313C188.43 74.5991 189.348 74.7324 190.557 75.1312L193.125 75.9778C193.243 75.4494 193.164 75.0117 192.888 74.6646C192.625 74.3125 192.135 74.0181 191.417 73.7816C190.833 73.5889 190.36 73.5201 190 73.5752C189.642 73.6219 189.366 73.8008 189.172 74.112L187.434 73.5391C187.785 72.804 188.305 72.3578 188.993 72.2005C189.684 72.0347 190.624 72.1478 191.813 72.5399C193.146 72.9792 194.05 73.5198 194.527 74.1617C195.013 74.807 195.126 75.6218 194.865 76.6062L193.841 80.4678L192.088 79.8899L192.286 79.1453C191.539 79.5214 190.479 79.483 189.106 79.0302ZM188.347 76.5297C188.204 77.0681 188.707 77.5266 189.855 77.9051C190.645 78.1653 191.271 78.2435 191.733 78.1398C192.195 78.036 192.544 77.7486 192.781 77.2776L192.841 77.0505L190.734 76.356C189.299 75.8828 188.503 75.9407 188.347 76.5297Z" fill="#78C081"/>
<path d="M195.874 81.138L198.384 71.6732L200.122 72.246L197.612 81.7108L195.874 81.138Z" fill="#78C081"/>
<path d="M205.424 74.6799L207.392 75.3288L209.396 83.8525L215.235 77.9141L217.203 78.5629L210.032 85.805L207.91 85.1054L205.424 74.6799Z" fill="#78C081"/>
<path d="M216.108 84.2398C216.42 83.062 216.97 82.3103 217.759 81.9848C218.55 81.6508 219.663 81.7204 221.098 82.1936C222.534 82.6667 223.498 83.2772 223.99 84.0252C224.483 84.7732 224.572 85.7403 224.258 86.9265C224.233 87.0191 224.184 87.1629 224.11 87.3581L217.79 85.2746C217.695 85.8838 217.797 86.3839 218.094 86.7747C218.402 87.169 218.92 87.4861 219.648 87.7261C220.725 88.0809 221.496 88.0103 221.962 87.5144L223.776 88.1126C223.359 88.8442 222.775 89.2601 222.024 89.3601C221.273 89.4601 220.364 89.3344 219.298 88.983C217.863 88.5098 216.894 87.8976 216.391 87.1462C215.887 86.3949 215.793 85.4261 216.108 84.2398ZM218.09 84.207L222.657 85.7126C222.707 85.1437 222.578 84.6849 222.269 84.3361C221.963 83.9788 221.466 83.687 220.779 83.4606C220.092 83.2342 219.528 83.1762 219.086 83.2867C218.655 83.4006 218.322 83.7074 218.09 84.207Z" fill="#78C081"/>
<path d="M226.793 84.1944L228.531 84.7673L228.324 85.5497C229.046 85.1382 230.048 85.1437 231.329 85.5661C232.467 85.9413 233.235 86.4506 233.633 87.0941C234.044 87.7325 234.113 88.5649 233.841 89.5913L232.85 93.3268L231.112 92.754L232.103 89.0185C232.25 88.4633 232.188 88.0037 231.917 87.6397C231.655 87.2792 231.171 86.9823 230.464 86.7492C229.664 86.4856 229.043 86.4545 228.599 86.6559C228.166 86.8607 227.853 87.3248 227.661 88.0484L226.791 91.3295L225.053 90.7567L226.793 84.1944Z" fill="#78C081"/>
<path d="M238.952 88.2024L241.274 88.9679L240.919 90.3056L238.597 89.5401L237.848 92.3669C237.75 92.7371 237.786 93.0418 237.957 93.281C238.127 93.5203 238.459 93.721 238.951 93.8832L239.996 94.2279L239.642 95.5656L238.55 95.2057C237.473 94.8508 236.736 94.4156 236.338 93.9001C235.952 93.3795 235.861 92.7322 236.067 91.9581L236.86 88.9673L235.599 88.5516L235.953 87.2139L237.214 87.6296L237.596 86.1909L239.333 86.7638L238.952 88.2024Z" fill="#78C081"/>
</g>
<defs>
<clipPath id="clip0_9035_222">
<rect width="300" height="250" fill="white" transform="translate(94.5287) rotate(22.217)"/>
</clipPath>
</defs>
</svg>
