<svg width="301" height="251" viewBox="0 0 301 251" fill="none" xmlns="http://www.w3.org/2000/svg">
<g opacity="0.5" clip-path="url(#clip0_9021_6)">
<path opacity="0.2" d="M292.706 43.5868L13.019 46.2533C13.019 46.2533 10.689 99.7828 13.661 121.714C16.6331 143.646 13.4415 217.328 13.4415 217.328C45.1665 219.687 77.0251 220.374 108.846 219.384L90.41 230.102C90.1364 231.749 90.369 233.43 91.0835 234.971C91.798 236.512 92.9686 237.857 94.474 238.866L104.279 236.189L107.512 238.834L115.745 236.341C115.745 236.341 119.097 227.371 112.241 219.253C162.95 217.294 211.388 212.965 211.388 212.965C211.388 212.965 212.174 215.746 222.331 224.592C232.488 233.438 246.403 263.916 246.403 263.916L279.564 218.872L298.572 216.604C298.572 216.604 294.654 174.647 298.406 149.348C302.158 124.049 292.706 43.5868 292.706 43.5868Z" fill="black" fill-opacity="0.7"/>
<path d="M291.001 207.197C291.001 207.197 187.439 205.574 143.515 207.561C112.091 208.981 17.5927 207.872 17.5927 207.872C17.5927 207.872 19.3831 147.177 17.3668 116.417C16.0689 96.7997 17.1727 37.8112 17.1727 37.8112C17.1727 37.8112 117.768 37.7306 150.104 36.5531C203.612 34.5744 290.581 37.1358 290.581 37.1358C290.581 37.1358 292.772 79.3295 290.747 104.45C288.701 130.074 291.001 207.197 291.001 207.197Z" fill="white"/>
<path opacity="0.2" d="M187.364 204.915L184.535 74.0639L153.967 74.1394C152.658 94.7321 153.76 177.591 154.173 204.997L187.364 204.915Z" fill="#92E3A9" fill-opacity="0.7"/>
<path opacity="0.2" d="M20.7159 76.7154L54.2446 76.4324C54.2446 76.4324 57.0524 177.656 51.2848 205.252L22.9665 205.322C22.9665 205.322 23.265 168.448 22.8003 138.014C22.3356 107.579 20.7159 76.7154 20.7159 76.7154Z" fill="#92E3A9" fill-opacity="0.7"/>
<path d="M107.328 45.4279C107.413 45.4812 107.579 45.5826 107.824 45.7319C108.08 45.8706 108.251 46.0359 108.336 46.2279C108.421 46.4199 108.464 46.6866 108.464 47.0279C108.464 47.4119 108.352 47.7532 108.128 48.0519C107.904 48.3399 107.616 48.5639 107.264 48.7239C107.008 48.8412 106.693 48.9319 106.32 48.9959C105.957 49.0599 105.669 49.0919 105.456 49.0919C105.243 49.0919 104.965 49.0599 104.624 48.9959C104.293 48.9319 104.064 48.8732 103.936 48.8199C103.605 48.6279 103.317 48.3932 103.072 48.1159C102.837 47.8386 102.72 47.5559 102.72 47.2679C102.72 47.0546 102.789 46.8892 102.928 46.7719C103.067 46.6439 103.248 46.5799 103.472 46.5799C103.579 46.5799 103.691 46.6226 103.808 46.7079C103.925 46.7826 104.005 46.8626 104.048 46.9479C104.165 47.2252 104.363 47.4332 104.64 47.5719C104.917 47.7106 105.2 47.7799 105.488 47.7799C105.861 47.7799 106.208 47.7212 106.528 47.6039C106.848 47.4759 107.008 47.3052 107.008 47.0919C107.008 46.9959 106.981 46.9212 106.928 46.8679C106.885 46.8039 106.821 46.7399 106.736 46.6759C106.587 46.5692 106.363 46.4839 106.064 46.4199C105.765 46.3452 105.573 46.2972 105.488 46.2759C105.051 46.1799 104.624 46.0359 104.208 45.8439C103.792 45.6412 103.461 45.4012 103.216 45.1239C102.971 44.8466 102.848 44.4892 102.848 44.0519C102.848 43.7639 102.955 43.4652 103.168 43.1559C103.381 42.8359 103.621 42.6119 103.888 42.4839C104.08 42.4092 104.4 42.3292 104.848 42.2439C105.307 42.1586 105.616 42.1159 105.776 42.1159C106.021 42.1159 106.288 42.1426 106.576 42.1959C106.864 42.2386 107.083 42.3132 107.232 42.4199C107.52 42.5906 107.755 42.7719 107.936 42.9639C108.117 43.1452 108.208 43.3532 108.208 43.5879C108.208 43.7052 108.181 43.8332 108.128 43.9719C108.075 44.0999 108.011 44.1799 107.936 44.2119C107.776 44.2866 107.589 44.3239 107.376 44.3239C107.28 44.3239 107.2 44.2972 107.136 44.2439C107.083 44.1906 107.008 44.1052 106.912 43.9879C106.795 43.8066 106.683 43.6999 106.576 43.6679C106.448 43.6359 106.261 43.5986 106.016 43.5559C105.771 43.5026 105.605 43.4759 105.52 43.4759C105.275 43.4759 105.019 43.5452 104.752 43.6839C104.496 43.8226 104.368 43.9826 104.368 44.1639C104.368 44.2599 104.405 44.3346 104.48 44.3879C104.565 44.4412 104.651 44.4892 104.736 44.5319C104.832 44.5746 104.896 44.6012 104.928 44.6119C105.152 44.7186 105.397 44.8092 105.664 44.8839C105.941 44.9586 106.112 45.0066 106.176 45.0279C106.752 45.1666 107.136 45.2999 107.328 45.4279ZM118.469 44.1799C118.309 44.1799 118.17 44.1426 118.053 44.0679C117.946 43.9826 117.834 43.8706 117.717 43.7319C117.6 43.5932 117.472 43.5026 117.333 43.4599C117.205 43.4172 117.056 43.3959 116.885 43.3959C116.576 43.3959 116.272 43.4919 115.973 43.6839C115.685 43.8652 115.445 44.1212 115.253 44.4519C115.072 44.7826 114.981 45.1506 114.981 45.5559C114.981 46.0039 115.066 46.3772 115.237 46.6759C115.418 46.9746 115.701 47.2359 116.085 47.4599C116.224 47.5346 116.384 47.5932 116.565 47.6359C116.757 47.6786 116.922 47.6999 117.061 47.6999C117.392 47.6999 117.818 47.5559 118.341 47.2679C118.384 47.2466 118.464 47.2092 118.581 47.1559C118.709 47.0919 118.805 47.0599 118.869 47.0599C118.986 47.0599 119.12 47.1186 119.269 47.2359C119.418 47.3426 119.493 47.4759 119.493 47.6359C119.493 47.9559 119.354 48.2279 119.077 48.4519C118.81 48.6759 118.474 48.8412 118.069 48.9479C117.664 49.0546 117.264 49.1079 116.869 49.1079C116.24 49.1079 115.653 48.9639 115.109 48.6759C114.565 48.3879 114.133 47.9879 113.813 47.4759C113.493 46.9639 113.333 46.3879 113.333 45.7479C113.333 45.0546 113.488 44.4306 113.797 43.8759C114.106 43.3106 114.522 42.8679 115.045 42.5479C115.578 42.2172 116.154 42.0519 116.773 42.0519C117.37 42.0519 117.92 42.1692 118.421 42.4039C118.933 42.6386 119.189 42.9959 119.189 43.4759C119.189 43.9452 118.949 44.1799 118.469 44.1799ZM126.23 38.8839C126.23 39.1612 126.225 39.4866 126.214 39.8599C126.204 40.2226 126.193 40.4999 126.182 40.6919C126.15 41.2359 126.134 41.7799 126.134 42.3239C126.134 43.0386 126.15 43.6146 126.182 44.0519C126.428 43.4439 126.774 42.9852 127.222 42.6759C127.67 42.3559 128.182 42.1959 128.758 42.1959C129.153 42.1959 129.521 42.3719 129.862 42.7239C130.204 43.0759 130.422 43.4866 130.518 43.9559C130.529 44.0092 130.534 44.0892 130.534 44.1959C130.534 44.3239 130.524 44.5266 130.502 44.8039C130.47 45.0279 130.454 45.2519 130.454 45.4759C130.454 46.0519 130.476 46.4999 130.518 46.8199C130.561 47.1292 130.652 47.3852 130.79 47.5879C130.929 47.7799 131.148 47.9346 131.446 48.0519C131.564 48.0946 131.644 48.1532 131.686 48.2279C131.74 48.2919 131.766 48.3932 131.766 48.5319C131.766 48.7239 131.665 48.8679 131.462 48.9639C131.27 49.0599 131.084 49.1079 130.902 49.1079C130.529 49.1079 130.193 49.0066 129.894 48.8039C129.596 48.6012 129.372 48.3346 129.222 48.0039C129.116 47.7799 129.046 47.5132 129.014 47.2039C128.982 46.8946 128.966 46.5319 128.966 46.1159L128.982 44.7239C128.982 43.9666 128.737 43.5879 128.246 43.5879C127.894 43.5879 127.553 43.8759 127.222 44.4519C126.892 45.0279 126.625 45.7052 126.422 46.4839C126.22 47.2626 126.118 47.9026 126.118 48.4039C126.118 48.6386 126.044 48.8146 125.894 48.9319C125.756 49.0386 125.612 49.0919 125.462 49.0919C125.228 49.0919 125.014 49.0226 124.822 48.8839C124.63 48.7346 124.534 48.5692 124.534 48.3879C124.609 47.5879 124.646 46.2492 124.646 44.3719C124.646 44.0306 124.62 42.7666 124.566 40.5799L124.518 39.1079C124.518 38.8732 124.625 38.6706 124.838 38.4999C125.052 38.3186 125.292 38.2279 125.558 38.2279C125.793 38.2279 125.964 38.2812 126.07 38.3879C126.177 38.4946 126.23 38.6599 126.23 38.8839ZM136.202 45.6359C136.202 45.2306 136.277 44.8252 136.426 44.4199C136.575 44.0039 136.773 43.6252 137.018 43.2839C137.263 42.9426 137.653 42.6652 138.186 42.4519C138.719 42.2279 139.194 42.1159 139.61 42.1159C140.037 42.1159 140.469 42.1746 140.906 42.2919C141.354 42.4092 141.663 42.5906 141.834 42.8359C142.229 43.3906 142.426 43.9346 142.426 44.4679C142.426 44.7559 142.362 45.0012 142.234 45.2039C142.117 45.4066 141.946 45.6252 141.722 45.8599C141.541 46.0519 141.253 46.1799 140.858 46.2439C140.474 46.3079 140.09 46.3399 139.706 46.3399C139.461 46.3399 139.162 46.3186 138.81 46.2759C138.458 46.2226 138.117 46.1586 137.786 46.0839C137.807 46.2972 137.861 46.5052 137.946 46.7079C138.031 46.9106 138.133 47.0652 138.25 47.1719C138.463 47.3746 138.682 47.5026 138.906 47.5559C139.141 47.6092 139.439 47.6359 139.802 47.6359C140.186 47.6359 140.543 47.5719 140.874 47.4439C141.141 47.3479 141.359 47.2999 141.53 47.2999C141.733 47.2999 141.887 47.3639 141.994 47.4919C142.101 47.6092 142.154 47.7639 142.154 47.9559C142.154 48.2226 141.999 48.4412 141.69 48.6119C141.381 48.7826 141.023 48.9106 140.618 48.9959C140.223 49.0706 139.903 49.1079 139.658 49.1079C139.157 49.1079 138.671 49.0172 138.202 48.8359C137.733 48.6546 137.343 48.3986 137.034 48.0679C136.778 47.7692 136.575 47.4119 136.426 46.9959C136.277 46.5692 136.202 46.1159 136.202 45.6359ZM139.69 43.4759C139.455 43.4759 139.221 43.5239 138.986 43.6199C138.751 43.7052 138.559 43.8279 138.41 43.9879C138.218 44.1906 138.085 44.3559 138.01 44.4839C137.946 44.6012 137.903 44.7666 137.882 44.9799C138.149 45.0652 138.703 45.1079 139.546 45.1079C140.005 45.1079 140.357 45.0386 140.602 44.8999C140.858 44.7612 140.986 44.5799 140.986 44.3559C140.986 44.1319 140.847 43.9292 140.57 43.7479C140.293 43.5666 139.999 43.4759 139.69 43.4759ZM153.859 39.0119C153.859 39.1186 153.832 39.4119 153.779 39.8919C153.662 41.0652 153.603 42.2546 153.603 43.4599C153.603 44.5159 153.619 45.3212 153.651 45.8759C153.683 46.4306 153.763 46.8572 153.891 47.1559C154.019 47.4439 154.216 47.5879 154.483 47.5879C154.995 47.5879 155.251 47.7586 155.251 48.0999C155.251 48.3239 155.139 48.5159 154.915 48.6759C154.691 48.8252 154.446 48.8999 154.179 48.8999C153.859 48.8999 153.56 48.8252 153.283 48.6759C153.006 48.5266 152.787 48.2972 152.627 47.9879C152.403 48.3186 152.078 48.5852 151.651 48.7879C151.235 48.9799 150.83 49.0759 150.435 49.0759C149.827 49.0759 149.288 48.9479 148.819 48.6919C148.35 48.4359 147.987 48.0892 147.731 47.6519C147.475 47.2039 147.347 46.7132 147.347 46.1799C147.347 45.6679 147.406 45.1772 147.523 44.7079C147.651 44.2279 147.822 43.8332 148.035 43.5239C148.323 43.1186 148.707 42.7986 149.187 42.5639C149.678 42.3186 150.158 42.1959 150.627 42.1959C150.915 42.1959 151.187 42.2546 151.443 42.3719C151.699 42.4786 151.923 42.6119 152.115 42.7719C152.115 42.0572 152.11 41.6092 152.099 41.4279V41.0919C152.099 40.0999 152.163 39.3746 152.291 38.9159C152.408 38.4679 152.691 38.2439 153.139 38.2439C153.384 38.2439 153.566 38.2972 153.683 38.4039C153.8 38.5106 153.859 38.7132 153.859 39.0119ZM148.931 46.1479C148.931 46.6386 149.07 47.0332 149.347 47.3319C149.635 47.6306 149.976 47.7799 150.371 47.7799C150.936 47.7799 151.352 47.6039 151.619 47.2519C151.896 46.8999 152.035 46.4466 152.035 45.8919L152.019 44.3079C151.603 43.8492 151.171 43.6199 150.723 43.6199C150.414 43.6199 150.12 43.6999 149.843 43.8599C149.576 44.0092 149.363 44.2386 149.203 44.5479C149.022 44.8999 148.931 45.4332 148.931 46.1479ZM160.511 42.0839C161.215 42.0839 161.567 42.5479 161.567 43.4759C161.567 43.5932 161.556 43.8546 161.535 44.2599C161.514 44.7292 161.503 45.0972 161.503 45.3639C161.503 46.1106 161.604 46.7132 161.807 47.1719C161.882 47.3212 162.015 47.4386 162.207 47.5239C162.41 47.6092 162.58 47.6519 162.719 47.6519C162.932 47.6519 163.108 47.6252 163.247 47.5719C163.386 47.5186 163.514 47.4386 163.631 47.3319C163.759 47.2252 163.882 47.1079 163.999 46.9799C164.202 46.7559 164.33 46.4999 164.383 46.2119C164.447 45.9132 164.484 45.5186 164.495 45.0279C164.495 44.7186 164.511 44.4199 164.543 44.1319C164.607 43.6626 164.639 43.2252 164.639 42.8199C164.639 42.5959 164.698 42.4092 164.815 42.2599C164.943 42.0999 165.124 42.0199 165.359 42.0199C165.476 42.0199 165.615 42.0626 165.775 42.1479C165.946 42.2226 166.058 42.3079 166.111 42.4039C166.186 42.5319 166.223 42.7079 166.223 42.9319C166.223 43.0706 166.207 43.1986 166.175 43.3159C166.122 43.4759 166.095 43.6786 166.095 43.9239C166.095 44.0519 166.106 44.2652 166.127 44.5639C166.159 44.7879 166.175 45.0172 166.175 45.2519C166.175 45.9666 166.228 46.4946 166.335 46.8359C166.452 47.1986 166.612 47.5186 166.815 47.7959C167.028 48.0199 167.172 48.1852 167.247 48.2919C167.322 48.3879 167.359 48.4732 167.359 48.5479C167.359 48.6759 167.295 48.7986 167.167 48.9159C167.039 49.0332 166.906 49.0919 166.767 49.0919C166.372 49.0919 166.026 48.9586 165.727 48.6919C165.439 48.4146 165.226 48.0626 165.087 47.6359C164.97 47.7746 164.815 47.9452 164.623 48.1479C164.431 48.3506 164.25 48.5159 164.079 48.6439C163.663 48.9426 163.13 49.0919 162.479 49.0919C162.212 49.0919 161.919 49.0119 161.599 48.8519C161.29 48.6919 161.007 48.4839 160.751 48.2279C160.495 47.9612 160.319 47.6786 160.223 47.3799C160.212 47.3586 160.18 47.2732 160.127 47.1239C160.084 46.9746 160.063 46.7506 160.063 46.4519L160.047 43.8919C160.047 43.7426 160.01 43.5079 159.935 43.1879C159.871 42.9746 159.839 42.8146 159.839 42.7079C159.839 42.5266 159.898 42.3772 160.015 42.2599C160.143 42.1426 160.308 42.0839 160.511 42.0839ZM173.869 46.5479C173.869 46.9532 173.928 47.2679 174.045 47.4919C174.173 47.7052 174.333 47.8119 174.525 47.8119C174.632 47.8119 174.733 47.8066 174.829 47.7959C174.925 47.7746 175.021 47.7639 175.117 47.7639C175.224 47.7639 175.315 47.8172 175.389 47.9239C175.475 48.0306 175.517 48.1479 175.517 48.2759C175.517 48.5319 175.395 48.7346 175.149 48.8839C174.915 49.0226 174.595 49.0919 174.189 49.0919C173.901 49.0919 173.608 49.0066 173.309 48.8359C173.021 48.6546 172.781 48.3772 172.589 48.0039C172.397 47.6199 172.301 47.1452 172.301 46.5799C172.301 45.3639 172.323 44.3346 172.365 43.4919C172.419 42.4892 172.445 41.2252 172.445 39.6999C172.445 39.2199 172.472 38.8839 172.525 38.6919C172.589 38.5426 172.691 38.4306 172.829 38.3559C172.979 38.2706 173.133 38.2279 173.293 38.2279C173.453 38.2279 173.592 38.2546 173.709 38.3079C173.837 38.3612 173.923 38.4466 173.965 38.5639C174.008 38.6919 174.035 38.8199 174.045 38.9479C174.067 39.0652 174.077 39.2359 174.077 39.4599C174.077 39.8972 174.061 40.3186 174.029 40.7239C174.008 41.2146 173.997 41.5719 173.997 41.7959C173.912 43.6732 173.869 45.2572 173.869 46.5479ZM180.001 45.4119C180.001 45.0279 180.07 44.6706 180.209 44.3399C180.347 43.9986 180.55 43.6466 180.817 43.2839C181.083 42.9212 181.451 42.6386 181.921 42.4359C182.39 42.2226 182.902 42.1159 183.457 42.1159C183.883 42.1159 184.294 42.2066 184.689 42.3879C185.094 42.5586 185.457 42.7719 185.777 43.0279C185.819 43.1026 185.894 43.2412 186.001 43.4439C186.107 43.6359 186.182 43.8119 186.225 43.9719C186.278 44.1319 186.305 44.2972 186.305 44.4679C186.305 45.1826 186.043 45.6626 185.521 45.9079C184.998 46.1426 184.337 46.2599 183.537 46.2599C182.737 46.2599 182.086 46.2066 181.585 46.0999C181.606 46.3026 181.659 46.5052 181.745 46.7079C181.83 46.9106 181.931 47.0652 182.049 47.1719C182.262 47.3746 182.47 47.5079 182.673 47.5719C182.886 47.6252 183.169 47.6519 183.521 47.6519C184.054 47.6519 184.47 47.5506 184.769 47.3479C185.046 47.1666 185.259 47.0759 185.409 47.0759C185.611 47.0759 185.766 47.1399 185.873 47.2679C185.979 47.3852 186.033 47.5399 186.033 47.7319C186.033 48.1372 185.771 48.4679 185.249 48.7239C184.737 48.9799 184.155 49.1079 183.505 49.1079C182.993 49.1079 182.486 49.0172 181.985 48.8359C181.483 48.6546 181.083 48.3986 180.785 48.0679C180.582 47.7266 180.401 47.3106 180.241 46.8199C180.081 46.3292 180.001 45.8599 180.001 45.4119ZM183.521 43.4279C183.286 43.4279 183.041 43.4706 182.785 43.5559C182.539 43.6306 182.347 43.7479 182.209 43.9079C182.038 44.0892 181.91 44.2546 181.825 44.4039C181.75 44.5532 181.702 44.7399 181.681 44.9639C181.798 44.9639 181.91 44.9692 182.017 44.9799C182.123 44.9906 182.225 45.0012 182.321 45.0119C182.79 45.0546 183.142 45.0759 183.377 45.0759C183.846 45.0759 184.203 45.0066 184.449 44.8679C184.705 44.7292 184.833 44.5426 184.833 44.3079C184.833 44.0839 184.689 43.8812 184.401 43.6999C184.123 43.5186 183.83 43.4279 183.521 43.4279Z" fill="black"/>
<path d="M291.001 207.197C291.001 207.197 187.439 205.574 143.515 207.561C112.091 208.981 17.5927 207.872 17.5927 207.872C17.5927 207.872 19.3831 147.177 17.3668 116.417C16.0689 96.7997 17.1727 37.8112 17.1727 37.8112C17.1727 37.8112 117.768 37.7306 150.104 36.5531C203.612 34.5744 290.581 37.1358 290.581 37.1358C290.581 37.1358 292.772 79.3295 290.747 104.45C288.701 130.074 291.001 207.197 291.001 207.197Z" stroke="#495E4C" stroke-width="0.6" stroke-linecap="round" stroke-linejoin="round"/>
<path d="M24.8294 57.8592C24.8294 57.8592 56.5187 56.7543 92.8654 57.6911C129.212 58.6279 184.48 57.8329 213.98 56.9336C243.479 56.0343 279.161 55.6943 279.161 55.6943" stroke="#495E4C" stroke-width="0.6" stroke-linecap="round" stroke-linejoin="round"/>
<path d="M24.8753 76.505C24.8753 76.505 254.996 73.8899 279.169 73.8302" stroke="#495E4C" stroke-width="0.6" stroke-linecap="round" stroke-linejoin="round"/>
<path d="M54.1947 56.2498C54.1947 56.2498 57.6713 169.396 54.5291 191.621" stroke="#495E4C" stroke-width="0.6" stroke-linecap="round" stroke-linejoin="round"/>
<path d="M85.8866 56.1714C85.8866 56.1714 85.033 180.731 86.2158 189.457" stroke="#495E4C" stroke-width="0.6" stroke-linecap="round" stroke-linejoin="round"/>
<path d="M119.034 56.0897C119.034 56.0897 120.255 80.621 120.618 102.32C120.98 124.019 119.36 188.348 120.848 195.524" stroke="#495E4C" stroke-width="0.6" stroke-linecap="round" stroke-linejoin="round"/>
<path d="M153.925 57.0364C153.925 57.0364 152.338 131.612 153.136 157.152C153.934 182.691 154.27 196.488 154.27 196.488" stroke="#495E4C" stroke-width="0.6" stroke-linecap="round" stroke-linejoin="round"/>
<path d="M184.453 55.928C184.453 55.928 187.612 144.58 187.336 163.594C187.059 182.609 187.409 193.223 187.409 193.223" stroke="#495E4C" stroke-width="0.6" stroke-linecap="round" stroke-linejoin="round"/>
<path d="M217.597 54.5547C217.597 54.5547 217.542 106.852 219.452 121.381C221.362 135.909 218.792 196.354 218.792 196.354" stroke="#495E4C" stroke-width="0.6" stroke-linecap="round" stroke-linejoin="round"/>
<path d="M250.2 54.4742C250.2 54.4742 251.516 81.2199 251.773 96.1594C252.03 111.099 251.418 187.357 253.482 193.085" stroke="#495E4C" stroke-width="0.6" stroke-linecap="round" stroke-linejoin="round"/>
<path d="M24.9144 92.336C24.9144 92.336 72.7442 91.456 103.056 92.143C103.056 92.143 103 99.2968 103.081 102.105C103.081 102.105 32.5226 101.769 24.939 102.298C24.939 102.298 25.4995 94.123 24.9144 92.336Z" fill="white" stroke="#495E4C" stroke-linecap="round" stroke-linejoin="round"/>
<path d="M185.614 91.6032L185.64 101.933C185.64 101.933 245.325 101.276 251.71 100.24L251.567 90.2781C251.567 90.2781 206.799 89.9303 185.614 91.6032Z" fill="white" stroke="#495E4C" stroke-linecap="round" stroke-linejoin="round"/>
<path d="M85.4853 104.957L153.44 104.789L153.038 114.307C153.038 114.307 124.412 114.952 109.001 115.313C93.5891 115.674 86.0347 116.132 86.0347 116.132L85.4853 104.957Z" fill="#5CCD6A" stroke="#495E4C" stroke-linecap="round" stroke-linejoin="round"/>
<path d="M253.183 101.734L253.48 108.887C253.48 108.887 274.622 107.544 277.731 107.807L277.714 100.653C277.714 100.653 259.001 100.441 253.183 101.734Z" fill="#5CCD6A" stroke="#495E4C" stroke-linecap="round" stroke-linejoin="round"/>
<path d="M153.497 127.535C153.497 127.535 211.556 126.204 219.458 123.834L219.494 138.038C219.494 138.038 162.762 138.378 152.925 139.978C152.925 140.004 152.328 130.366 153.497 127.535Z" fill="white" stroke="#495E4C" stroke-linecap="round" stroke-linejoin="round"/>
<path d="M157.494 127.435C157.494 127.435 151.964 134.97 153.106 135.929C154.247 136.888 159.854 127.758 161.574 127.515C163.293 127.272 155.6 140.068 156.336 140.518C157.072 140.968 166.805 126.992 169.12 126.986C171.435 126.981 164.006 139.15 165.475 139.088C166.945 139.026 173.795 127.207 176.293 126.969C178.792 126.73 170.531 138.895 172.45 138.838C174.368 138.782 182.031 125.857 183.62 126.544C185.209 127.231 175.747 137.804 178.263 138.663C180.778 139.522 187.172 127.349 190.25 126.728C193.328 126.107 183.155 137.818 186.133 138.12C189.11 138.423 193.54 125.919 195.865 126.907C198.19 127.896 191.622 134.846 192.593 135.309C193.565 135.771 196.644 126.944 199.746 126.898C202.847 126.851 196.091 134.835 196.828 135.795C197.565 136.755 200.71 133.436 200.71 133.436" stroke="#92E3A9" stroke-linecap="round" stroke-linejoin="round"/>
<path d="M27.8174 92.29C27.8174 92.29 25.3607 97.4612 25.9493 97.6987C26.5378 97.9361 28.8765 92.5844 31.1702 92.8306C33.464 93.0767 27.0334 102.203 28.5327 102.154C30.0319 102.105 35.1216 91.6974 36.6884 92.2488C38.2553 92.8001 32.9321 100.935 33.9478 101.495C34.9634 102.054 40.0311 91.6465 41.6347 92.2172C43.2384 92.7878 37.1513 101.099 38.7168 101.095C40.2822 101.092 45.5296 92.0397 47.1245 92.0357C48.7194 92.0318 42.205 99.9312 43.8025 100.973C45.3999 102.015 49.3049 91.0102 51.6372 92.0246C53.9696 93.0389 48.1669 100.427 49.9107 101.216C51.6545 102.006 56.1337 91.3808 57.5903 91.9453C59.0469 92.5099 53.2788 102.002 54.2784 102.006C55.2779 102.01 61.6893 91.0959 63.1466 91.9122C64.6039 92.7286 57.7915 102.004 59.0998 102.001C60.408 101.997 67.2156 90.7852 68.9588 91.3362C70.7021 91.8871 64.4749 100.031 66.0416 100.537C67.6084 101.043 71.4074 94.7778 72.135 94.7761C72.8627 94.7743 69.5989 100.529 70.5103 100.526C71.4216 100.524 74.8964 90.9212 76.6333 91.8854C78.3702 92.8495 74.613 98.2176 75.4883 98.4737C76.3635 98.7298 81.8655 91.5561 83.4629 92.5787C85.0603 93.6013 77.2757 102.033 79.7452 102.027C82.2147 102.021 86.4104 92.6941 88.4466 92.8182C90.4828 92.9423 84.3954 101.131 85.9979 101.256C87.6005 101.381 90.7745 92.0506 92.5177 92.5563C94.2608 93.0621 90.0655 99.587 91.2277 99.965C92.3899 100.343 94.8424 93.4416 96.8786 93.5657C98.9147 93.6898 93.1172 100.219 95.5873 100.464C98.0575 100.71 98.9135 93.1797 101.384 93.4254C103.854 93.6711 98.2771 100.348 99.6242 101.223C100.971 102.097 103.041 97.8892 103.041 97.8892" stroke="#5CCD6A" stroke-linecap="round" stroke-linejoin="round"/>
<path d="M25.8499 108.042L29.2348 106.742C29.2056 107.721 28.9791 108.688 28.5657 109.598C29.0553 109.499 29.5 109.273 29.8425 108.95C30.1849 108.627 30.4093 108.221 30.4868 107.785L30.1146 108.832L33.2822 108.824C33.231 108.672 33.2384 108.509 33.3031 108.361C33.3678 108.212 33.4863 108.087 33.6403 108.003C33.3029 108.269 33.51 108.811 33.9147 108.991C34.3468 109.129 34.8209 109.128 35.2523 108.987C36.3685 108.74 37.4425 108.364 38.4466 107.869C38.3661 108.19 38.4176 108.525 38.5919 108.815C38.7662 109.106 39.052 109.332 39.3987 109.455C40.0864 109.687 40.828 109.769 41.56 109.695L51.0623 109.407" stroke="#495E4C" stroke-linecap="round" stroke-linejoin="round"/>
<path d="M25.0411 113.861C25.0411 113.861 26.3456 112.373 27.5147 112.564C28.6837 112.755 27.9528 114.39 28.3871 114.647C28.8213 114.904 29.5472 111.242 30.2708 112.557C30.7292 113.365 32.1721 114.651 32.1721 114.651C32.1721 114.651 33.7633 113.168 34.1976 113.451C34.632 113.734 35.5059 113.448 35.5059 113.448L49.029 113.415" stroke="#495E4C" stroke-linecap="round" stroke-linejoin="round"/>
<path d="M67.6884 106.673C67.6884 106.673 56.8368 138.033 148.302 134.411" stroke="#495E4C" stroke-linecap="round" stroke-linejoin="round"/>
<path d="M148.297 132.164L150.626 134.664L148.307 135.941" stroke="#495E4C" stroke-linecap="round" stroke-linejoin="round"/>
<path d="M93.6375 135.566C86.0746 132.518 72.3728 134.624 62.2149 140.267C52.057 145.909 50.0078 164.308 87.2494 158.85C124.491 153.393 100.891 138.357 87.8456 138.389" fill="white"/>
<path d="M93.6375 135.566C86.0746 132.518 72.3728 134.624 62.2149 140.267C52.057 145.909 50.0078 164.308 87.2494 158.85C124.491 153.393 100.891 138.357 87.8456 138.389" stroke="#92E3A9" stroke-linecap="round" stroke-linejoin="round"/>
<path d="M64.1171 145.601C64.1171 145.601 66.3909 143.781 67.3755 143.656C68.36 143.531 65.5202 145.333 67.3803 145.593C69.2404 145.853 68.8486 144.944 70.6558 144.61C72.4629 144.276 73.0259 146.05 73.0259 146.05C73.0259 146.05 75.9636 145.172 77.675 144.748C79.3864 144.324 78.2606 146.786 80.618 146.032C82.9753 145.277 81.9068 144.13 85.6198 144.728C89.3328 145.326 96.5344 144.921 99.7677 144.693" stroke="#92E3A9" stroke-linecap="round" stroke-linejoin="round"/>
<path d="M67.4305 151.01C68.1616 149.446 67.2495 149.145 69.2873 149.934C71.3251 150.723 72.4889 151.792 73.3616 150.995C73.7192 150.639 74.1938 150.388 74.72 150.278C75.2462 150.168 75.7981 150.204 76.2999 150.381C77.1679 150.702 75.1334 151.217 77.1679 150.702C78.3492 150.416 79.4428 149.901 80.3686 149.196C80.3686 149.196 79.8568 150.282 82.0053 151.252C84.1538 152.221 85.6775 150.21 85.6775 150.21C88.9531 150.092 92.2334 150.129 95.5042 150.321" stroke="#92E3A9" stroke-linecap="round" stroke-linejoin="round"/>
<path d="M87.7116 239.726L95.4689 232.224L95.4642 230.288L101.391 225.508C101.391 225.508 108.643 227.692 112.116 235.437L105.837 240.114L103.434 240.391L94.1659 246.225C94.1659 246.225 87.7229 244.278 87.7116 239.726Z" fill="#495E4C"/>
<path opacity="0.3" d="M101.63 226.954C101.63 226.954 104.3 233.881 111.154 235.278" stroke="white" stroke-width="0.6" stroke-linecap="round" stroke-linejoin="round"/>
<path opacity="0.3" d="M96.704 232.331C96.704 232.331 99.1285 237.91 104.256 239.686" stroke="white" stroke-width="0.6" stroke-linecap="round" stroke-linejoin="round"/>
<path d="M36.0012 60.9159C36.1505 60.9159 36.3319 61.0172 36.5452 61.2199C36.7692 61.4119 36.8812 61.5772 36.8812 61.7159C36.8812 62.3666 36.8599 63.2572 36.8172 64.3879C36.8065 64.6652 36.7959 65.0012 36.7852 65.3959C36.7745 65.7799 36.7692 66.2279 36.7692 66.7399C36.7692 68.3612 36.8652 69.5559 37.0572 70.3239C37.0465 70.5799 36.9452 70.7666 36.7532 70.8839C36.5612 70.9906 36.3692 71.0439 36.1772 71.0439C35.7505 71.0439 35.4679 70.8946 35.3292 70.5959C35.2012 70.2972 35.1372 69.8706 35.1372 69.3159C35.1372 67.2572 35.1585 65.3639 35.2012 63.6359C33.9745 65.0012 33.0199 66.1479 32.3372 67.0759C32.3372 67.0759 32.2412 67.1399 32.0492 67.2679C31.8679 67.4279 31.7185 67.5079 31.6012 67.5079C31.3239 67.5079 31.0945 67.4386 30.9132 67.2999C30.7319 67.1612 30.5559 66.9586 30.3852 66.6919L29.6172 65.6039C29.0839 64.8572 28.6945 64.2919 28.4492 63.9079C28.4492 64.8892 28.4972 66.2226 28.5932 67.9079C28.6679 68.8786 28.7052 69.6092 28.7052 70.0999C28.7052 70.3559 28.6412 70.5746 28.5132 70.7559C28.3852 70.9266 28.1825 71.0119 27.9052 71.0119C27.6279 71.0119 27.3985 70.9586 27.2172 70.8519C27.0465 70.7452 26.9559 70.5852 26.9452 70.3719C26.9559 70.1906 26.9612 69.8919 26.9612 69.4759C26.9612 68.6439 26.9345 67.6306 26.8812 66.4359L26.8492 65.5719L26.8172 64.4519C26.8065 64.1212 26.7959 63.7372 26.7852 63.2999C26.7745 62.8519 26.7692 62.3666 26.7692 61.8439C26.7692 61.2039 27.1159 60.8839 27.8092 60.8839C28.0225 60.8839 28.2359 60.9372 28.4492 61.0439C28.6732 61.1506 28.8385 61.3052 28.9452 61.5079C29.0305 61.8812 29.3452 62.4999 29.8892 63.3639C30.4332 64.2279 30.9665 65.0386 31.4892 65.7959C31.9585 65.1986 32.3425 64.7506 32.6412 64.4519C33.1532 63.9292 33.5745 63.4439 33.9052 62.9959C34.2465 62.5479 34.6145 62.0092 35.0092 61.3799C35.1052 61.2519 35.2439 61.1452 35.4252 61.0599C35.6065 60.9639 35.7985 60.9159 36.0012 60.9159ZM45.3793 65.8919C45.4646 66.0412 45.534 66.2599 45.5873 66.5479C45.6406 66.8252 45.6673 67.0759 45.6673 67.2999C45.6673 67.7159 45.5766 68.3079 45.3953 69.0759C44.6593 70.4199 43.5713 71.0919 42.1313 71.0919C41.598 71.0919 41.054 70.9159 40.4993 70.5639C39.9446 70.2119 39.5606 69.8066 39.3473 69.3479C39.0593 68.4306 38.9153 67.8492 38.9153 67.6039C38.9153 67.1772 39.006 66.7239 39.1873 66.2439C39.3793 65.7639 39.6193 65.3479 39.9073 64.9959C40.0886 64.7506 40.414 64.5426 40.8833 64.3719C41.3526 64.1906 41.7793 64.0999 42.1633 64.0999C42.91 64.0999 43.5446 64.2439 44.0673 64.5319C44.59 64.8092 45.0273 65.2626 45.3793 65.8919ZM43.9873 68.4679C44.0406 68.3292 44.0673 67.9719 44.0673 67.3959C44.0673 67.0866 44.0086 66.7826 43.8913 66.4839C43.7846 66.1852 43.6246 65.9292 43.4113 65.7159C43.39 65.6946 43.3313 65.6626 43.2353 65.6199C43.1393 65.5666 43.006 65.5186 42.8353 65.4759C42.6753 65.4226 42.4886 65.3959 42.2753 65.3959C41.678 65.3959 41.2406 65.6359 40.9633 66.1159C40.686 66.5959 40.5473 67.1399 40.5473 67.7479C40.5473 67.8546 40.574 68.0572 40.6273 68.3559C40.6913 68.6546 40.7446 68.8412 40.7873 68.9159C40.8193 68.9906 40.8993 69.0972 41.0273 69.2359C41.166 69.3639 41.3313 69.4812 41.5233 69.5879C41.726 69.6839 41.934 69.7319 42.1473 69.7319C42.6273 69.7319 43.0113 69.6199 43.2993 69.3959C43.5873 69.1612 43.8166 68.8519 43.9873 68.4679Z" fill="#333A2E"/>
<path d="M58.8479 62.6999C58.8479 62.2412 59.1839 62.0119 59.8559 62.0119C60.1439 62.0119 60.6932 62.0226 61.5039 62.0439C62.3999 62.0866 63.0772 62.1079 63.5359 62.1079C63.9092 62.1079 64.3625 62.0866 64.8959 62.0439C65.2585 62.0226 65.4879 62.0119 65.5839 62.0119C66.1705 62.0332 66.6665 62.1399 67.0719 62.3319C67.1892 62.3852 67.2852 62.4492 67.3599 62.5239C67.4345 62.5986 67.4719 62.7212 67.4719 62.8919C67.4719 63.1266 67.3972 63.3292 67.2479 63.4999C67.0985 63.6599 66.9172 63.7399 66.7039 63.7399C66.4692 63.7399 66.1279 63.7079 65.6799 63.6439C65.2852 63.5692 64.9385 63.5319 64.6399 63.5319C64.3519 63.5319 64.1332 63.5372 63.9839 63.5479C63.9519 63.8999 63.9359 64.7426 63.9359 66.0759C63.9359 67.6652 63.9839 69.2759 64.0799 70.9079L64.1119 71.3719C64.1119 71.8092 63.8612 72.0279 63.3599 72.0279C62.9652 72.0279 62.6985 71.9372 62.5599 71.7559C62.4212 71.5639 62.3519 71.2759 62.3519 70.8919C62.3519 70.1346 62.3305 69.1906 62.2879 68.0599C62.2452 67.1212 62.2239 66.4546 62.2239 66.0599C62.2239 65.7932 62.2559 64.9772 62.3199 63.6119L60.4479 63.6279C59.8505 63.6279 59.4345 63.5746 59.1999 63.4679C58.9652 63.3506 58.8479 63.0946 58.8479 62.6999ZM67.0284 66.6359C66.943 66.6359 66.863 66.6039 66.7884 66.5399C66.7244 66.4652 66.6924 66.3799 66.6924 66.2839C66.6924 66.0386 66.799 65.8092 67.0124 65.5959C67.0764 65.5639 67.2044 65.5106 67.3964 65.4359C67.5884 65.3612 67.759 65.3239 67.9084 65.3239C68.3137 65.3239 68.6444 65.4359 68.9004 65.6599C69.1564 65.8732 69.2844 66.1826 69.2844 66.5879C69.2844 66.7052 69.263 66.9559 69.2204 67.3399C69.1777 67.7879 69.1564 68.1346 69.1564 68.3799C69.1564 69.1266 69.2577 69.7292 69.4604 70.1879C69.535 70.3372 69.6524 70.4546 69.8124 70.5399C69.9724 70.6252 70.1164 70.6679 70.2444 70.6679C70.5537 70.6679 70.8044 70.6146 70.9964 70.5079C71.1884 70.4012 71.3964 70.2306 71.6204 69.9959C71.8444 69.7612 71.9884 69.4946 72.0524 69.1959C72.127 68.8972 72.1804 68.4866 72.2124 67.9639C72.2337 67.6226 72.255 67.3719 72.2764 67.2119C72.3297 66.6999 72.3564 66.2626 72.3564 65.8999C72.3564 65.6652 72.4204 65.4732 72.5484 65.3239C72.6764 65.1639 72.8524 65.0839 73.0764 65.0839C73.2044 65.0839 73.3484 65.1266 73.5084 65.2119C73.679 65.2866 73.791 65.3772 73.8444 65.4839C73.9084 65.5906 73.9404 65.7666 73.9404 66.0119C73.9404 66.1399 73.9244 66.2626 73.8924 66.3799C73.8177 66.6466 73.7804 66.9666 73.7804 67.3399L73.7964 68.1719C73.7964 68.9292 73.8497 69.4892 73.9564 69.8519C74.0097 70.0226 74.0844 70.1986 74.1804 70.3799C74.2764 70.5506 74.367 70.6946 74.4524 70.8119C74.6657 71.0466 74.8044 71.2119 74.8684 71.3079C74.9324 71.3932 74.9644 71.4786 74.9644 71.5639C74.9644 71.6919 74.9004 71.8146 74.7724 71.9319C74.655 72.0386 74.527 72.0919 74.3884 72.0919C73.9937 72.0919 73.6524 71.9586 73.3644 71.6919C73.0764 71.4252 72.863 71.0786 72.7244 70.6519C72.3617 71.0679 72.0257 71.4039 71.7164 71.6599C71.503 71.8092 71.2417 71.9212 70.9324 71.9959C70.623 72.0599 70.3137 72.0919 70.0044 72.0919C69.5884 72.0919 69.167 71.9212 68.7404 71.5799C68.3137 71.2386 68.0257 70.8439 67.8764 70.3959C67.8657 70.3746 67.8337 70.2892 67.7804 70.1399C67.7377 69.9906 67.7164 69.7666 67.7164 69.4679C67.7164 69.0732 67.7377 68.5772 67.7804 67.9799C67.8124 67.5959 67.8284 67.2439 67.8284 66.9239C67.8284 66.8279 67.791 66.7479 67.7164 66.6839C67.6524 66.6199 67.5777 66.5879 67.4924 66.5879C67.4284 66.5879 67.3537 66.5986 67.2684 66.6199C67.1937 66.6306 67.1137 66.6359 67.0284 66.6359Z" fill="#333A2E"/>
<path opacity="0.2" d="M175.064 19.1095L178.151 15.9964L185.339 15.9786C187.277 15.5958 189.114 14.8899 190.75 13.8992C190.75 13.8992 188.01 11.459 184.71 11.3832L178.507 11.3985L161.934 8.79878L69.6696 16.2643C69.0313 17.9092 68.8513 19.6642 69.1445 21.3823C69.4378 23.1004 70.1958 24.7314 71.355 26.1385L175.064 19.1095Z" fill="black" fill-opacity="0.7"/>
<path opacity="0.2" d="M216.592 25.7795L219.079 23.9075L227.119 23.8102C227.629 21.524 227.683 19.1776 227.278 16.8757L205.279 10.2284C199.642 13.3349 201.966 25.8157 201.966 25.8157L216.592 25.7795Z" fill="black" fill-opacity="0.7"/>
<path d="M184.296 4.19192C184.296 4.19192 188.16 3.75625 190.369 5.32613C190.369 5.32613 190.088 7.32828 184.275 7.85268L184.296 4.19192Z" fill="#5CCD6A" stroke="#495E4C" stroke-width="0.5" stroke-linecap="round" stroke-linejoin="round"/>
<path d="M177.135 3.31212L172.107 0.31585L69.5458 7.81974C65.0563 14.2356 70.6945 20.5812 70.6945 20.5812L173.902 12.7788L177.518 9.65137L184.674 8.55548C185.113 7.76557 185.333 6.89534 185.314 6.01652C185.37 5.05438 185.025 4.10754 184.345 3.35242L177.135 3.31212Z" fill="#495E4C"/>
<path d="M103.417 6.19291L149.152 2.78722C149.246 2.97618 149.287 3.18216 149.271 3.38791C149.256 3.59367 149.185 3.79323 149.064 3.96989C148.942 4.14655 148.775 4.29518 148.575 4.40334C148.375 4.5115 148.149 4.57605 147.914 4.59159L105.038 7.92565C104.833 7.94426 104.626 7.9248 104.43 7.86855C104.234 7.8123 104.054 7.7205 103.901 7.59912C103.749 7.47774 103.627 7.32949 103.543 7.16397C103.46 6.99846 103.417 6.81939 103.418 6.63839L103.417 6.19291Z" fill="#92E3A9"/>
<path opacity="0.3" d="M172.023 1.71076C172.023 1.71076 175.331 4.93074 173.017 11.3928" stroke="white" stroke-width="0.6" stroke-linecap="round" stroke-linejoin="round"/>
<path opacity="0.3" d="M177.534 4.17634C178.116 5.47661 178.269 6.89466 177.977 8.26853" stroke="white" stroke-width="0.6" stroke-linecap="round" stroke-linejoin="round"/>
<path opacity="0.3" d="M70.3279 9.02497C70.3279 9.02497 73.8255 11.7022 71.5146 19.3521" stroke="white" stroke-width="0.6" stroke-linecap="round" stroke-linejoin="round"/>
<path opacity="0.3" d="M72.2889 8.51031C72.2889 8.51031 73.3917 8.63672 73.8446 13.4908L172.031 5.24879C171.801 3.70051 171.102 2.23514 170.007 1.00547L72.2889 8.51031Z" fill="white"/>
<path opacity="0.3" d="M178.488 3.85114C178.988 4.55663 179.259 5.36837 179.273 6.19929L184.696 5.72105C184.596 5.06294 184.366 4.4254 184.015 3.83749L178.488 3.85114Z" fill="white"/>
<path d="M225.193 20.6641L214.008 18.206L212.048 19.1277L204.465 16.7769C204.465 16.7769 203.236 10.13 209.364 3.77476L217.022 6.42875L218.437 8.162L228.649 12.5852C228.649 12.5852 229.751 18.5029 225.193 20.6641Z" fill="#5CCD6A"/>
<path d="M225.193 20.6641L214.008 18.206L212.048 19.1277L204.465 16.7769C204.465 16.7769 203.236 10.13 209.364 3.77476L217.022 6.42875L218.437 8.162L228.649 12.5852C228.649 12.5852 229.751 18.5029 225.193 20.6641Z" stroke="#495E4C" stroke-width="0.6" stroke-linecap="round" stroke-linejoin="round"/>
<path d="M205.83 15.9279C205.83 15.9279 211.527 10.5809 209.697 4.61984" stroke="#495E4C" stroke-width="0.6" stroke-linecap="round" stroke-linejoin="round"/>
<path d="M213.528 17.2002C213.528 17.2002 217.985 12.6698 217.349 7.87436" stroke="#495E4C" stroke-width="0.6" stroke-linecap="round" stroke-linejoin="round"/>
<path d="M232.438 249.559C232.438 249.559 226.49 203.559 222.438 193.806C218.387 184.054 212.912 151.683 212.912 151.683C212.912 151.683 225.287 150.78 229.035 150.739C232.783 150.697 237.619 147.535 237.619 147.535C237.209 148.181 236.274 147.79 235.574 143.84C235.104 141.194 230.523 140.405 230.523 140.405C230.523 140.405 219.537 141.155 210.267 140.08C208.022 140.707 205.613 140.713 203.365 140.097C199.989 139.028 199.303 137.874 201.151 136.3C201.151 136.3 198.52 133.298 207.476 128.989C207.476 128.989 201.504 124.297 204.407 121.249C207.31 118.201 214.159 115.136 214.159 115.136C214.159 115.136 214.44 112.837 215.703 112.24C216.966 111.643 223.839 109.153 227.611 106.845C231.383 104.537 233.03 104.701 240.011 104.516C246.993 104.331 255.515 102.773 258.715 104.044C261.202 105.032 262.365 108.922 262.365 108.922C264.689 109.562 264.933 112.9 265.082 113.719C265.775 117.378 270.611 132.539 272.749 135.168C274.887 137.797 276.155 142.397 275.779 144.787C275.403 147.177 274.432 149.955 273.474 154.839C272.516 159.722 269.265 176.555 267.66 181.415C266.055 186.274 265.172 194.702 266.049 198.786L288.605 238.082" fill="white"/>
<path opacity="0.4" d="M260.287 124.816C260.287 124.816 255.656 127.287 255.66 128.85C255.66 128.85 246.855 134.766 245.858 141.709C245.858 141.709 240.981 146.073 239.913 148.051C238.845 150.029 234.191 152.359 234.191 152.359C232.874 152.253 231.551 152.213 230.229 152.239C227.992 151.948 225.781 151.522 223.611 150.964C225.816 150.836 227.844 150.734 229.012 150.725C232.121 150.717 235.974 148.513 237.2 147.767C236.73 147.768 236.073 146.776 235.551 143.82C235.082 141.181 230.501 140.385 230.501 140.385C230.501 140.385 219.515 141.135 210.245 140.067C208.728 140.484 207.132 140.632 205.549 140.505C205.584 139.993 205.502 139.48 205.309 138.996C205.116 138.512 204.816 138.067 204.425 137.686C204.425 137.686 208.675 135.19 207.56 133.275C207.029 132.36 205.124 131.796 203.263 131.458C204.552 130.498 205.957 129.665 207.454 128.975C207.454 128.975 201.482 124.283 204.385 121.235C207.288 118.187 214.159 115.136 214.159 115.136C214.159 115.136 214.44 112.843 215.703 112.24C215.703 112.24 214.977 115.786 220.554 115.456C226.132 115.126 234.158 112.194 234.158 112.194C234.158 112.194 249.299 112.525 252.366 110.47C252.366 110.47 256.047 113.218 258.738 113.683C261.429 114.148 260.287 124.816 260.287 124.816Z" fill="#92E3A9"/>
<path opacity="0.4" d="M275.765 144.806C275.381 147.19 274.418 149.975 273.46 154.858C272.501 159.742 269.25 176.581 267.645 181.434C266.04 186.287 265.157 194.721 266.035 198.806L268.103 203.114C263.625 196.178 263.955 187.06 264.309 184.664C264.736 181.725 267.215 170.86 269.406 165.237C271.597 159.615 271.767 147.864 271.766 147.457C271.765 147.05 270.611 150.042 269.436 153.357C268.26 156.672 263.94 166.019 263.94 166.019C263.788 164.082 265.575 152.747 265.903 151.455C266.231 150.163 268.87 141.472 269.341 139.018C269.813 136.563 267.594 133.857 267.038 131.921C266.482 129.986 264.285 121.353 263.69 115.408C263.451 112.176 262.529 109.012 260.97 106.078C261.576 106.989 262.048 107.964 262.373 108.98C264.697 109.62 264.941 112.951 265.09 113.771C265.782 117.43 270.619 132.59 272.757 135.226C274.895 137.861 276.141 142.423 275.765 144.806Z" fill="#92E3A9"/>
<path opacity="0.4" d="M233.039 251.145C230.609 234.649 225.754 203.25 222.72 194.645C224.805 196.861 227.181 200.445 228.859 207.356C232.237 221.267 233.274 227.392 233.43 233.777C233.572 237.857 233.488 245.379 233.039 251.145Z" fill="#92E3A9"/>
<path d="M232.438 249.559C232.438 249.559 226.49 203.559 222.438 193.806C218.387 184.054 212.912 151.683 212.912 151.683C212.912 151.683 225.287 150.78 229.035 150.739C232.783 150.697 237.619 147.535 237.619 147.535C237.209 148.181 236.274 147.79 235.574 143.84C235.104 141.194 230.523 140.405 230.523 140.405C230.523 140.405 219.537 141.155 210.267 140.08C208.022 140.707 205.613 140.713 203.365 140.097C199.989 139.028 199.303 137.874 201.151 136.3C201.151 136.3 198.52 133.298 207.476 128.989C207.476 128.989 201.504 124.297 204.407 121.249C207.31 118.201 214.159 115.136 214.159 115.136C214.159 115.136 214.44 112.837 215.703 112.24C216.966 111.643 223.839 109.153 227.611 106.845C231.383 104.537 233.03 104.701 240.011 104.516C246.993 104.331 255.515 102.773 258.715 104.044C261.202 105.032 262.365 108.922 262.365 108.922C264.689 109.562 264.933 112.9 265.082 113.719C265.775 117.378 270.611 132.539 272.749 135.168C274.887 137.797 276.155 142.397 275.779 144.787C275.403 147.177 274.432 149.955 273.474 154.839C272.516 159.722 269.265 176.555 267.66 181.415C266.055 186.274 265.172 194.702 266.049 198.786L288.605 238.082" stroke="#495E4C" stroke-width="0.6" stroke-linecap="round" stroke-linejoin="round"/>
<path d="M201.115 136.3C201.115 136.3 203.053 138.6 209.739 137.641C216.425 136.682 224.421 130.793 224.421 130.793L229.216 129C229.216 129 235.325 129.578 237.55 128.637" stroke="#495E4C" stroke-width="0.6" stroke-linecap="round" stroke-linejoin="round"/>
<path d="M234.134 129.155C234.134 129.155 238.127 132.89 241.326 133.734" stroke="#495E4C" stroke-width="0.6" stroke-linecap="round" stroke-linejoin="round"/>
<path d="M237.582 147.535C240.29 145.998 243.866 141.708 247.158 141.384" stroke="#495E4C" stroke-width="0.5" stroke-linecap="round" stroke-linejoin="round"/>
<path d="M237.011 142.345C238.47 138.073 242.869 133.73 242.869 133.73C243.592 132.307 244.498 130.962 245.571 129.721C246.661 128.301 248.32 127.294 250.217 126.901C250.217 126.901 246.342 117.336 247.476 115.409" stroke="#495E4C" stroke-width="0.6" stroke-linecap="round" stroke-linejoin="round"/>
<path d="M230.487 140.405C230.487 140.405 233.476 139.565 234.155 137.813" stroke="#495E4C" stroke-width="0.6" stroke-linecap="round" stroke-linejoin="round"/>
<path d="M229.802 136.83C229.802 136.83 229.625 139.555 224.967 140.418" stroke="#495E4C" stroke-width="0.6" stroke-linecap="round" stroke-linejoin="round"/>
<path d="M229.202 129C229.202 129 231.514 127.638 232.289 126.267" stroke="#495E4C" stroke-width="0.6" stroke-linecap="round" stroke-linejoin="round"/>
<path d="M214.159 115.136C214.159 115.136 213.334 117.185 216.805 118.022C220.276 118.859 229.578 117.906 233.445 115.088C233.445 115.088 234.394 112.704 234.104 111.174" stroke="#495E4C" stroke-width="0.6" stroke-linecap="round" stroke-linejoin="round"/>
<path d="M232.924 115.445C232.924 115.445 244.293 115.061 245.16 115.059C246.027 115.057 249.514 113.435 250.186 111.728" stroke="#495E4C" stroke-width="0.6" stroke-linecap="round" stroke-linejoin="round"/>
<path d="M250.202 126.901C250.202 126.901 252.762 127.67 254.532 127.33" stroke="#495E4C" stroke-width="0.6" stroke-linecap="round" stroke-linejoin="round"/>
<path d="M244.574 142.326C244.574 142.326 244.153 138.55 247.138 133.197" stroke="#495E4C" stroke-width="0.6" stroke-linecap="round" stroke-linejoin="round"/>
<path d="M262.351 108.941C263.907 114.206 266.324 131.529 267.934 134.805C269.545 138.08 269.739 139.197 268.585 142.266C267.431 145.336 265.575 152.746 265.575 152.746" stroke="#495E4C" stroke-width="0.6" stroke-linecap="round" stroke-linejoin="round"/>
<path d="M266.005 198.806C264.74 195.316 263.957 190.721 264.429 188.596" stroke="#495E4C" stroke-width="0.6" stroke-linecap="round" stroke-linejoin="round"/>
<path d="M192.134 124.836C192.134 124.836 188.916 125.374 187.832 126.907C187.832 126.907 188.784 128.195 192.671 127.837C196.558 127.479 192.134 124.836 192.134 124.836Z" fill="#495E4C"/>
<path d="M203.594 119.468L294.473 107.396L295.669 121.643L204.391 129.823L200.124 128.148L193.142 128.32C192.491 127.806 192.066 127.107 191.939 126.346C191.812 125.585 191.993 124.808 192.449 124.151L199.633 122.777L203.594 119.468Z" fill="#5CCD6A"/>
<path d="M219.229 120.179L256.7 115.412C257.077 115.365 257.461 115.385 257.829 115.472C258.197 115.558 258.542 115.709 258.842 115.915C259.142 116.121 259.392 116.378 259.577 116.67C259.762 116.963 259.877 117.286 259.917 117.619L259.992 118.264C260.07 118.911 259.856 119.559 259.395 120.069C258.934 120.578 258.264 120.908 257.529 120.988L219.99 125.09C219.616 125.131 219.237 125.105 218.874 125.015C218.512 124.924 218.173 124.771 217.879 124.564C217.585 124.358 217.341 124.101 217.161 123.81C216.981 123.52 216.869 123.2 216.832 122.871C216.764 122.238 216.975 121.607 217.421 121.106C217.866 120.605 218.513 120.274 219.229 120.179Z" fill="#495E4C"/>
<path opacity="0.3" d="M295.669 121.643L204.391 129.829L200.124 128.148L193.142 128.32C192.769 128.027 192.468 127.669 192.258 127.27L199.607 127.032L202.841 127.283L215.547 126.315L219.25 120.179C219.25 120.179 222.513 119.809 225.137 122.715C227.76 125.62 229.215 125.242 229.215 125.242L291.739 119.341L292.472 118.694C292.472 118.694 289.939 113.677 292.45 109.571C293.079 108.543 293.806 108.128 294.541 108.132L295.669 121.643Z" fill="black" fill-opacity="0.7"/>
<path d="M203.594 119.468L294.473 107.396L295.669 121.643L204.391 129.823L200.124 128.148L193.142 128.32C192.491 127.806 192.066 127.107 191.939 126.346C191.812 125.585 191.993 124.808 192.449 124.151L199.633 122.777L203.594 119.468Z" stroke="#495E4C" stroke-width="0.6" stroke-linecap="round" stroke-linejoin="round"/>
<path d="M294.473 107.397C300.77 106.942 302.157 121.059 295.669 121.643C289.46 122.2 288.08 107.852 294.473 107.397Z" fill="#5CCD6A"/>
<path opacity="0.3" d="M295.669 121.643C293.972 121.795 292.632 120.83 291.717 119.341L292.45 118.694C292.45 118.694 289.917 113.677 292.428 109.571C293.057 108.543 293.784 108.128 294.519 108.133C296.723 108.127 298.982 111.866 298.891 113.887L299.847 114.091C300.201 117.635 298.932 121.383 295.669 121.643Z" fill="black" fill-opacity="0.7"/>
<path d="M294.473 107.397C300.77 106.942 302.157 121.059 295.669 121.643C289.46 122.2 288.08 107.852 294.473 107.397Z" stroke="#495E4C" stroke-width="0.6" stroke-linecap="round" stroke-linejoin="round"/>
<path d="M203.594 119.469C203.594 119.469 201.798 121.462 202.293 125.231C202.464 126.909 203.194 128.506 204.391 129.822" stroke="#495E4C" stroke-width="0.6" stroke-linecap="round" stroke-linejoin="round"/>
<path d="M199.633 122.778C199.306 123.657 199.181 124.585 199.265 125.507C199.349 126.428 199.641 127.326 200.124 128.148" stroke="#495E4C" stroke-width="0.6" stroke-linecap="round" stroke-linejoin="round"/>
<path d="M291.686 122.001C285.47 122.559 284.238 108.836 290.564 107.916" stroke="#495E4C" stroke-width="0.6" stroke-linecap="round" stroke-linejoin="round"/>
<path d="M294.6 108.287C299.582 107.894 300.685 120.1 295.549 120.597C290.611 121.081 289.544 108.687 294.6 108.287Z" stroke="#495E4C" stroke-width="0.6" stroke-linecap="round" stroke-linejoin="round"/>
<path d="M294.617 109.159C294.617 109.159 297.221 109.998 297.694 114.148C298.167 118.299 295.502 119.583 295.502 119.583" stroke="#495E4C" stroke-width="0.6" stroke-linecap="round" stroke-linejoin="round"/>
<path d="M237.594 152.222C237.594 152.222 230.98 152.574 230.244 152.24C229.508 151.906 225.376 145.098 225.179 142.975C224.983 140.851 224.577 134.034 224.368 129.773C224.159 125.513 224.157 118.875 215.047 120.312C210.977 120.968 210.302 124.346 208.968 131.949C207.634 139.551 208.896 141.569 207.95 151.275C207.004 160.981 208.175 164.833 210.517 169.715C212.858 174.596 213.749 187.023 219.964 191.604C226.178 196.186 228.633 205.032 228.633 205.032" fill="white"/>
<path opacity="0.4" d="M221.32 127.837C219.653 128.197 213.237 128.503 212.823 130.383C212.408 132.263 216.218 133.138 217.802 134.819C217.743 134.819 211.187 134.835 209.724 137.648C208.261 140.46 210.959 146.483 210.967 149.802C210.975 153.12 207.699 159.772 210.229 163.214C212.441 166.217 214.501 173.14 213.452 179.721C212.332 175.786 211.558 171.978 210.487 169.715C208.16 164.865 206.989 160.994 207.935 151.307C208.882 141.62 207.612 139.577 208.953 131.974C209.91 126.516 210.527 123.228 212.316 121.571C214.41 121.166 216.776 121.005 218.196 121.892C221.236 123.725 223.01 127.472 221.32 127.837Z" fill="#92E3A9"/>
<path d="M237.594 152.222C237.594 152.222 230.98 152.574 230.244 152.24C229.508 151.906 225.376 145.098 225.179 142.975C224.983 140.851 224.577 134.034 224.368 129.773C224.159 125.513 224.157 118.875 215.047 120.312C210.977 120.968 210.302 124.346 208.968 131.949C207.634 139.551 208.896 141.569 207.95 151.275C207.004 160.981 208.175 164.833 210.517 169.715C212.858 174.596 213.749 187.023 219.964 191.604C226.178 196.186 228.633 205.032 228.633 205.032" stroke="#495E4C" stroke-width="0.6" stroke-linecap="round" stroke-linejoin="round"/>
<path d="M225.165 142.975C225.165 142.975 224.539 142.802 224.164 139.484C224.042 138.508 223.654 137.573 223.031 136.758C222.408 135.943 221.57 135.273 220.588 134.806" stroke="#495E4C" stroke-width="0.6" stroke-linecap="round" stroke-linejoin="round"/>
<path d="M212.062 134.827C212.062 134.827 209.359 135.344 208.294 138.671" stroke="#495E4C" stroke-width="0.6" stroke-linecap="round" stroke-linejoin="round"/>
<path d="M103.201 60.7799C103.265 60.5559 103.361 60.3746 103.489 60.2359C103.617 60.0866 103.756 60.0119 103.905 60.0119C104.268 60.0119 104.529 60.0812 104.689 60.2199C104.849 60.3586 104.929 60.5986 104.929 60.9399C104.929 61.0359 104.855 61.3079 104.705 61.7559C104.375 62.7692 104.012 64.0226 103.617 65.5159C103.521 65.8572 103.441 66.1559 103.377 66.4119C103.324 66.6679 103.276 66.8812 103.233 67.0519C102.977 68.1506 102.753 68.9772 102.561 69.5319C102.497 69.6919 102.385 69.8199 102.225 69.9159C102.065 70.0012 101.895 70.0439 101.713 70.0439C101.532 70.0439 101.351 70.0066 101.169 69.9319C100.999 69.8466 100.876 69.7506 100.801 69.6439C100.471 68.9932 100.06 68.1079 99.5692 66.9879C99.0892 65.8572 98.7159 64.8706 98.4492 64.0279C97.7879 65.7026 97.1959 67.3186 96.6732 68.8759C96.6412 68.9719 96.6039 69.0786 96.5612 69.1959C96.5292 69.3026 96.4919 69.4146 96.4492 69.5319C96.3745 69.6919 96.2679 69.8199 96.1292 69.9159C95.9905 70.0012 95.8359 70.0439 95.6652 70.0439C95.4732 70.0439 95.2865 70.0066 95.1052 69.9319C94.9239 69.8466 94.8012 69.7506 94.7372 69.6439C94.5985 69.4092 94.4492 69.0466 94.2892 68.5559C94.1399 68.0652 93.9372 67.3772 93.6812 66.4919L93.2812 65.1319C93.0039 64.2466 92.7639 63.3399 92.5612 62.4119C92.3585 61.4839 92.2572 60.9292 92.2572 60.7479C92.2572 60.5239 92.3692 60.3479 92.5932 60.2199C92.8172 60.0812 93.0412 60.0119 93.2652 60.0119C93.3932 60.0119 93.5265 60.0546 93.6652 60.1399C93.8039 60.2146 93.8945 60.3479 93.9372 60.5399C94.3105 62.5346 94.8599 64.8492 95.5852 67.4839C95.8625 66.8226 96.1665 66.0172 96.4972 65.0679C96.8385 64.1186 97.1639 63.1959 97.4732 62.2999L97.6332 61.8199C97.6759 61.6599 97.7825 61.5372 97.9532 61.4519C98.1345 61.3559 98.3159 61.3079 98.4972 61.3079C98.7319 61.3079 98.9239 61.3666 99.0732 61.4839C99.2225 61.6012 99.3185 61.7292 99.3612 61.8679C99.3719 61.9106 99.5852 62.5452 100.001 63.7719C100.417 64.9986 100.913 66.2359 101.489 67.4839C101.703 66.8546 101.959 65.8466 102.257 64.4599L102.497 63.4039C102.785 62.2732 103.02 61.3986 103.201 60.7799ZM105.478 66.6359C105.478 66.2306 105.552 65.8252 105.702 65.4199C105.851 65.0039 106.048 64.6252 106.294 64.2839C106.539 63.9426 106.928 63.6652 107.462 63.4519C107.995 63.2279 108.47 63.1159 108.886 63.1159C109.312 63.1159 109.744 63.1746 110.182 63.2919C110.63 63.4092 110.939 63.5906 111.11 63.8359C111.504 64.3906 111.702 64.9346 111.702 65.4679C111.702 65.7559 111.638 66.0012 111.51 66.2039C111.392 66.4066 111.222 66.6252 110.998 66.8599C110.816 67.0519 110.528 67.1799 110.134 67.2439C109.75 67.3079 109.366 67.3399 108.982 67.3399C108.736 67.3399 108.438 67.3186 108.086 67.2759C107.734 67.2226 107.392 67.1586 107.062 67.0839C107.083 67.2972 107.136 67.5052 107.222 67.7079C107.307 67.9106 107.408 68.0652 107.526 68.1719C107.739 68.3746 107.958 68.5026 108.182 68.5559C108.416 68.6092 108.715 68.6359 109.078 68.6359C109.462 68.6359 109.819 68.5719 110.15 68.4439C110.416 68.3479 110.635 68.2999 110.806 68.2999C111.008 68.2999 111.163 68.3639 111.27 68.4919C111.376 68.6092 111.43 68.7639 111.43 68.9559C111.43 69.2226 111.275 69.4412 110.966 69.6119C110.656 69.7826 110.299 69.9106 109.894 69.9959C109.499 70.0706 109.179 70.1079 108.934 70.1079C108.432 70.1079 107.947 70.0172 107.478 69.8359C107.008 69.6546 106.619 69.3986 106.31 69.0679C106.054 68.7692 105.851 68.4119 105.702 67.9959C105.552 67.5692 105.478 67.1159 105.478 66.6359ZM108.966 64.4759C108.731 64.4759 108.496 64.5239 108.262 64.6199C108.027 64.7052 107.835 64.8279 107.686 64.9879C107.494 65.1906 107.36 65.3559 107.286 65.4839C107.222 65.6012 107.179 65.7666 107.158 65.9799C107.424 66.0652 107.979 66.1079 108.822 66.1079C109.28 66.1079 109.632 66.0386 109.878 65.8999C110.134 65.7612 110.262 65.5799 110.262 65.3559C110.262 65.1319 110.123 64.9292 109.846 64.7479C109.568 64.5666 109.275 64.4759 108.966 64.4759Z" fill="#333A2E"/>
<path d="M126.387 61.6999C126.387 61.2412 126.723 61.0119 127.395 61.0119C127.683 61.0119 128.232 61.0226 129.043 61.0439C129.939 61.0866 130.616 61.1079 131.075 61.1079C131.448 61.1079 131.902 61.0866 132.435 61.0439C132.798 61.0226 133.027 61.0119 133.123 61.0119C133.71 61.0332 134.206 61.1399 134.611 61.3319C134.728 61.3852 134.824 61.4492 134.899 61.5239C134.974 61.5986 135.011 61.7212 135.011 61.8919C135.011 62.1266 134.936 62.3292 134.787 62.4999C134.638 62.6599 134.456 62.7399 134.243 62.7399C134.008 62.7399 133.667 62.7079 133.219 62.6439C132.824 62.5692 132.478 62.5319 132.179 62.5319C131.891 62.5319 131.672 62.5372 131.523 62.5479C131.491 62.8999 131.475 63.7426 131.475 65.0759C131.475 66.6652 131.523 68.2759 131.619 69.9079L131.651 70.3719C131.651 70.8092 131.4 71.0279 130.899 71.0279C130.504 71.0279 130.238 70.9372 130.099 70.7559C129.96 70.5639 129.891 70.2759 129.891 69.8919C129.891 69.1346 129.87 68.1906 129.827 67.0599C129.784 66.1212 129.763 65.4546 129.763 65.0599C129.763 64.7932 129.795 63.9772 129.859 62.6119L127.987 62.6279C127.39 62.6279 126.974 62.5746 126.739 62.4679C126.504 62.3506 126.387 62.0946 126.387 61.6999ZM137.964 60.8839C137.964 61.1612 137.958 61.4866 137.948 61.8599C137.937 62.2226 137.926 62.4999 137.916 62.6919C137.884 63.2359 137.868 63.7799 137.868 64.3239C137.868 64.7292 137.884 65.1506 137.916 65.5879C138.246 65.1079 138.604 64.7559 138.988 64.5319C139.372 64.3079 139.836 64.1959 140.38 64.1959C140.774 64.1959 141.142 64.3719 141.484 64.7239C141.825 65.0759 142.044 65.4866 142.14 65.9559C142.172 66.3719 142.188 66.8786 142.188 67.4759C142.188 67.8599 142.209 68.3612 142.252 68.9799C142.273 69.2146 142.332 69.4332 142.428 69.6359C142.534 69.8386 142.684 69.9399 142.876 69.9399C142.972 69.9399 143.046 69.9346 143.1 69.9239C143.164 69.9132 143.222 69.9079 143.276 69.9079C143.425 69.9079 143.526 69.9452 143.58 70.0199C143.644 70.0946 143.676 70.2012 143.676 70.3399C143.676 70.5959 143.548 70.7879 143.292 70.9159C143.036 71.0439 142.801 71.1079 142.588 71.1079C141.82 71.1079 141.292 70.7879 141.004 70.1479C140.844 69.7852 140.742 69.3159 140.7 68.7399C140.657 68.1532 140.636 67.4706 140.636 66.6919C140.636 65.9239 140.374 65.5399 139.852 65.5399C139.564 65.5399 139.27 65.6946 138.972 66.0039C138.684 66.3026 138.444 66.7026 138.252 67.2039C138.06 67.6946 137.964 68.2066 137.964 68.7399L137.98 70.4039C137.98 70.6386 137.889 70.8146 137.708 70.9319C137.526 71.0386 137.356 71.0919 137.196 71.0919C136.961 71.0919 136.748 71.0226 136.556 70.8839C136.364 70.7346 136.268 70.5692 136.268 70.3879C136.342 69.5879 136.38 68.2492 136.38 66.3719C136.38 66.0306 136.353 64.7666 136.3 62.5799L136.252 61.1079C136.252 60.8732 136.358 60.6706 136.572 60.4999C136.785 60.3186 137.025 60.2279 137.292 60.2279C137.526 60.2279 137.697 60.2812 137.804 60.3879C137.91 60.4946 137.964 60.6599 137.964 60.8839Z" fill="#333A2E"/>
<path d="M163.749 70.4519C163.717 70.6119 163.621 70.7506 163.461 70.8679C163.312 70.9746 163.098 71.0279 162.821 71.0279C162.586 71.0279 162.4 70.9639 162.261 70.8359C162.133 70.7079 162.064 70.5746 162.053 70.4359C162.117 69.9879 162.149 69.3159 162.149 68.4199C162.149 67.8866 162.117 67.0652 162.053 65.9559C161.978 64.9106 161.941 63.9826 161.941 63.1719C161.941 62.7346 161.962 62.2866 162.005 61.8279C162.005 61.6786 162.09 61.5186 162.261 61.3479C162.442 61.1772 162.688 61.0706 162.997 61.0279C164.01 60.9212 165.253 60.8679 166.725 60.8679H167.237C167.621 60.8679 167.994 60.9372 168.357 61.0759C168.73 61.2146 168.917 61.4546 168.917 61.7959C168.917 62.0199 168.864 62.1959 168.757 62.3239C168.65 62.4519 168.453 62.5159 168.165 62.5159C168.026 62.5159 167.866 62.5052 167.685 62.4839C167.504 62.4626 167.376 62.4466 167.301 62.4359C166.896 62.3719 166.581 62.3399 166.357 62.3399C165.12 62.3399 164.186 62.4252 163.557 62.5959C163.557 62.9479 163.568 63.5186 163.589 64.3079L163.605 65.3319C164.16 65.3319 164.656 65.3106 165.093 65.2679C165.53 65.2146 165.781 65.1826 165.845 65.1719C166.4 65.1079 166.768 65.0759 166.949 65.0759C167.205 65.0759 167.418 65.1346 167.589 65.2519C167.77 65.3586 167.861 65.5292 167.861 65.7639C167.861 66.2972 167.488 66.5639 166.741 66.5639C166.56 66.5639 166.4 66.5692 166.261 66.5799C166.122 66.5906 166.005 66.6012 165.909 66.6119C165.525 66.6546 165.221 66.6759 164.997 66.6759C164.506 66.6759 164.09 66.6919 163.749 66.7239C163.749 67.1186 163.765 67.5346 163.797 67.9719C163.797 68.1106 163.802 68.3239 163.813 68.6119C163.834 68.8999 163.845 69.1612 163.845 69.3959C163.845 69.5986 163.84 69.7852 163.829 69.9559C163.818 70.1266 163.792 70.2919 163.749 70.4519ZM172.068 70.3879C172.068 70.5692 171.998 70.7292 171.86 70.8679C171.721 71.0066 171.55 71.0759 171.348 71.0759C171.028 71.0759 170.793 71.0172 170.644 70.8999C170.494 70.7719 170.42 70.5426 170.42 70.2119C170.42 69.8172 170.409 69.2999 170.388 68.6599C170.366 68.1266 170.356 67.6786 170.356 67.3159C170.356 67.1452 170.366 66.9212 170.388 66.6439C170.409 66.3879 170.42 66.1959 170.42 66.0679C170.388 65.8652 170.308 65.6999 170.18 65.5719C170.052 65.4332 169.886 65.3639 169.684 65.3639C169.588 65.3639 169.508 65.3212 169.444 65.2359C169.38 65.1399 169.348 65.0439 169.348 64.9479C169.348 64.7026 169.444 64.5159 169.636 64.3879C169.838 64.2599 170.078 64.1959 170.356 64.1959C170.932 64.1959 171.332 64.5372 171.556 65.2199C171.833 64.8999 172.148 64.6439 172.5 64.4519C172.862 64.2492 173.209 64.1479 173.54 64.1479C173.934 64.1479 174.292 64.2546 174.612 64.4679C174.942 64.6812 175.108 64.9692 175.108 65.3319C175.108 65.5346 175.017 65.7426 174.836 65.9559C174.665 66.1692 174.489 66.2759 174.308 66.2759C174.212 66.2759 174.126 66.2546 174.052 66.2119C173.988 66.1586 173.908 66.0839 173.812 65.9879C173.705 65.8812 173.614 65.8066 173.54 65.7639C173.465 65.7106 173.38 65.6839 173.284 65.6839C173.113 65.6839 172.953 65.7106 172.804 65.7639C172.654 65.8172 172.553 65.8812 172.5 65.9559C172.329 66.2226 172.201 66.4626 172.116 66.6759C172.041 66.8892 172.004 67.1186 172.004 67.3639C172.004 67.5452 171.998 67.6892 171.988 67.7959L171.972 68.7079C171.972 68.8466 171.977 69.0012 171.988 69.1719C171.998 69.3426 172.009 69.4706 172.02 69.5559C172.052 69.8439 172.068 70.1212 172.068 70.3879Z" fill="#333A2E"/>
<path d="M199.672 67.1319C199.672 67.6332 199.555 68.0652 199.32 68.4279C199.096 68.7799 198.723 69.1052 198.2 69.4039C197.848 69.6172 197.437 69.7772 196.968 69.8839C196.499 69.9906 196.024 70.0439 195.544 70.0439C195.053 70.0439 194.445 69.8839 193.72 69.5639C193.197 69.3079 192.781 69.0039 192.472 68.6519C192.173 68.2999 192.024 67.9159 192.024 67.4999C192.024 67.2119 192.088 67.0039 192.216 66.8759C192.344 66.7372 192.552 66.6679 192.84 66.6679C192.989 66.6679 193.144 66.7319 193.304 66.8599C193.464 66.9772 193.56 67.0946 193.592 67.2119C193.741 67.6492 194.003 67.9852 194.376 68.2199C194.749 68.4439 195.213 68.5559 195.768 68.5559C196.408 68.5559 196.941 68.4386 197.368 68.2039C197.805 67.9692 198.024 67.6546 198.024 67.2599C198.024 66.8759 197.789 66.5346 197.32 66.2359C196.851 65.9372 196.371 65.7292 195.88 65.6119C195.176 65.4199 194.552 65.1906 194.008 64.9239C193.443 64.6466 193.021 64.3052 192.744 63.8999C192.467 63.4946 192.328 63.0679 192.328 62.6199C192.328 62.2039 192.472 61.7826 192.76 61.3559C193.048 60.9186 193.389 60.6039 193.784 60.4119C193.997 60.3052 194.36 60.1932 194.872 60.0759C195.395 59.9479 195.773 59.8839 196.008 59.8839C196.317 59.8839 196.659 59.9212 197.032 59.9959C197.405 60.0706 197.709 60.1772 197.944 60.3159C198.413 60.5826 198.76 60.8226 198.984 61.0359C199.208 61.2492 199.32 61.5159 199.32 61.8359C199.32 62.0279 199.245 62.1986 199.096 62.3479C198.957 62.4972 198.712 62.5719 198.36 62.5719C198.275 62.5719 198.189 62.5346 198.104 62.4599C198.019 62.3852 197.912 62.2732 197.784 62.1239C197.613 61.8999 197.448 61.7506 197.288 61.6759C197.128 61.6226 196.893 61.5639 196.584 61.4999C196.285 61.4359 196.019 61.4039 195.784 61.4039C195.528 61.4039 195.261 61.4572 194.984 61.5639C194.707 61.6706 194.472 61.8252 194.28 62.0279C194.099 62.2199 194.008 62.4439 194.008 62.6999C194.008 62.9132 194.104 63.0999 194.296 63.2599C194.499 63.4092 194.739 63.5319 195.016 63.6279C195.336 63.7559 195.683 63.8679 196.056 63.9639C196.547 64.1132 196.947 64.2519 197.256 64.3799C197.576 64.4972 197.885 64.6466 198.184 64.8279C198.707 65.1372 199.085 65.4572 199.32 65.7879C199.555 66.1079 199.672 66.5559 199.672 67.1319ZM208.448 69.2599C208.448 69.4946 208.32 69.6919 208.064 69.8519C207.819 70.0119 207.59 70.0919 207.376 70.0919C206.971 70.0919 206.646 70.0439 206.4 69.9479C206.166 69.8412 205.947 69.6492 205.744 69.3719C205.467 69.6172 205.088 69.8039 204.608 69.9319C204.128 70.0492 203.686 70.1079 203.28 70.1079C202.619 70.1079 202.075 69.9319 201.648 69.5799C201.222 69.2172 201.008 68.6892 201.008 67.9959C201.008 67.6972 201.088 67.4252 201.248 67.1799C201.408 66.9239 201.627 66.6999 201.904 66.5079C202.214 66.3052 202.566 66.1506 202.96 66.0439C203.355 65.9266 203.766 65.8679 204.192 65.8679C204.416 65.8679 204.683 65.9106 204.992 65.9959C205.302 66.0812 205.542 66.1719 205.712 66.2679V66.0119C205.712 65.4359 205.574 65.0412 205.296 64.8279C205.019 64.6039 204.571 64.4919 203.952 64.4919C203.771 64.4919 203.59 64.5292 203.408 64.6039C203.238 64.6786 203.04 64.7799 202.816 64.9079C202.518 65.0679 202.235 65.1479 201.968 65.1479C201.872 65.1479 201.782 65.0839 201.696 64.9559C201.611 64.8172 201.568 64.6946 201.568 64.5879C201.568 64.2786 201.712 64.0119 202 63.7879C202.299 63.5639 202.651 63.3986 203.056 63.2919C203.462 63.1746 203.824 63.1159 204.144 63.1159C204.464 63.1159 204.832 63.1799 205.248 63.3079C205.664 63.4252 206.006 63.5906 206.272 63.8039C206.592 64.0812 206.838 64.4066 207.008 64.7799C207.19 65.1426 207.28 65.5426 207.28 65.9799C207.28 66.1186 207.27 66.3266 207.248 66.6039C207.227 66.9026 207.216 67.1586 207.216 67.3719C207.216 67.4679 207.206 67.6119 207.184 67.8039C207.163 68.0386 207.152 68.2252 207.152 68.3639C207.152 68.4919 207.2 68.6039 207.296 68.6999C207.392 68.7852 207.504 68.8279 207.632 68.8279L208.08 68.8119C208.198 68.8119 208.288 68.8546 208.352 68.9399C208.416 69.0252 208.448 69.1319 208.448 69.2599ZM203.296 68.8439C203.755 68.8439 204.139 68.7959 204.448 68.6999C204.758 68.6039 205.131 68.4279 205.568 68.1719C205.611 67.9906 205.638 67.7506 205.648 67.4519C205.062 67.1746 204.576 67.0359 204.192 67.0359C203.755 67.0359 203.366 67.1159 203.024 67.2759C202.683 67.4359 202.512 67.7186 202.512 68.1239C202.512 68.3266 202.598 68.4972 202.768 68.6359C202.939 68.7746 203.115 68.8439 203.296 68.8439Z" fill="#333A2E"/>
<path d="M232.422 68.1319C232.422 68.6332 232.305 69.0652 232.07 69.4279C231.846 69.7799 231.473 70.1052 230.95 70.4039C230.598 70.6172 230.187 70.7772 229.718 70.8839C229.249 70.9906 228.774 71.0439 228.294 71.0439C227.803 71.0439 227.195 70.8839 226.47 70.5639C225.947 70.3079 225.531 70.0039 225.222 69.6519C224.923 69.2999 224.774 68.9159 224.774 68.4999C224.774 68.2119 224.838 68.0039 224.966 67.8759C225.094 67.7372 225.302 67.6679 225.59 67.6679C225.739 67.6679 225.894 67.7319 226.054 67.8599C226.214 67.9772 226.31 68.0946 226.342 68.2119C226.491 68.6492 226.753 68.9852 227.126 69.2199C227.499 69.4439 227.963 69.5559 228.518 69.5559C229.158 69.5559 229.691 69.4386 230.118 69.2039C230.555 68.9692 230.774 68.6546 230.774 68.2599C230.774 67.8759 230.539 67.5346 230.07 67.2359C229.601 66.9372 229.121 66.7292 228.63 66.6119C227.926 66.4199 227.302 66.1906 226.758 65.9239C226.193 65.6466 225.771 65.3052 225.494 64.8999C225.217 64.4946 225.078 64.0679 225.078 63.6199C225.078 63.2039 225.222 62.7826 225.51 62.3559C225.798 61.9186 226.139 61.6039 226.534 61.4119C226.747 61.3052 227.11 61.1932 227.622 61.0759C228.145 60.9479 228.523 60.8839 228.758 60.8839C229.067 60.8839 229.409 60.9212 229.782 60.9959C230.155 61.0706 230.459 61.1772 230.694 61.3159C231.163 61.5826 231.51 61.8226 231.734 62.0359C231.958 62.2492 232.07 62.5159 232.07 62.8359C232.07 63.0279 231.995 63.1986 231.846 63.3479C231.707 63.4972 231.462 63.5719 231.11 63.5719C231.025 63.5719 230.939 63.5346 230.854 63.4599C230.769 63.3852 230.662 63.2732 230.534 63.1239C230.363 62.8999 230.198 62.7506 230.038 62.6759C229.878 62.6226 229.643 62.5639 229.334 62.4999C229.035 62.4359 228.769 62.4039 228.534 62.4039C228.278 62.4039 228.011 62.4572 227.734 62.5639C227.457 62.6706 227.222 62.8252 227.03 63.0279C226.849 63.2199 226.758 63.4439 226.758 63.6999C226.758 63.9132 226.854 64.0999 227.046 64.2599C227.249 64.4092 227.489 64.5319 227.766 64.6279C228.086 64.7559 228.433 64.8679 228.806 64.9639C229.297 65.1132 229.697 65.2519 230.006 65.3799C230.326 65.4972 230.635 65.6466 230.934 65.8279C231.457 66.1372 231.835 66.4572 232.07 66.7879C232.305 67.1079 232.422 67.5559 232.422 68.1319ZM233.614 65.6359C233.529 65.6359 233.449 65.6039 233.374 65.5399C233.31 65.4652 233.278 65.3799 233.278 65.2839C233.278 65.0386 233.385 64.8092 233.598 64.5959C233.662 64.5639 233.79 64.5106 233.982 64.4359C234.174 64.3612 234.345 64.3239 234.494 64.3239C234.9 64.3239 235.23 64.4359 235.486 64.6599C235.742 64.8732 235.87 65.1826 235.87 65.5879C235.87 65.7052 235.849 65.9559 235.806 66.3399C235.764 66.7879 235.742 67.1346 235.742 67.3799C235.742 68.1266 235.844 68.7292 236.046 69.1879C236.121 69.3372 236.238 69.4546 236.398 69.5399C236.558 69.6252 236.702 69.6679 236.83 69.6679C237.14 69.6679 237.39 69.6146 237.582 69.5079C237.774 69.4012 237.982 69.2306 238.206 68.9959C238.43 68.7612 238.574 68.4946 238.638 68.1959C238.713 67.8972 238.766 67.4866 238.798 66.9639C238.82 66.6226 238.841 66.3719 238.862 66.2119C238.916 65.6999 238.942 65.2626 238.942 64.8999C238.942 64.6652 239.006 64.4732 239.134 64.3239C239.262 64.1639 239.438 64.0839 239.662 64.0839C239.79 64.0839 239.934 64.1266 240.094 64.2119C240.265 64.2866 240.377 64.3772 240.43 64.4839C240.494 64.5906 240.526 64.7666 240.526 65.0119C240.526 65.1399 240.51 65.2626 240.478 65.3799C240.404 65.6466 240.366 65.9666 240.366 66.3399L240.382 67.1719C240.382 67.9292 240.436 68.4892 240.542 68.8519C240.596 69.0226 240.67 69.1986 240.766 69.3799C240.862 69.5506 240.953 69.6946 241.038 69.8119C241.252 70.0466 241.39 70.2119 241.454 70.3079C241.518 70.3932 241.55 70.4786 241.55 70.5639C241.55 70.6919 241.486 70.8146 241.358 70.9319C241.241 71.0386 241.113 71.0919 240.974 71.0919C240.58 71.0919 240.238 70.9586 239.95 70.6919C239.662 70.4252 239.449 70.0786 239.31 69.6519C238.948 70.0679 238.612 70.4039 238.302 70.6599C238.089 70.8092 237.828 70.9212 237.518 70.9959C237.209 71.0599 236.9 71.0919 236.59 71.0919C236.174 71.0919 235.753 70.9212 235.326 70.5799C234.9 70.2386 234.612 69.8439 234.462 69.3959C234.452 69.3746 234.42 69.2892 234.366 69.1399C234.324 68.9906 234.302 68.7666 234.302 68.4679C234.302 68.0732 234.324 67.5772 234.366 66.9799C234.398 66.5959 234.414 66.2439 234.414 65.9239C234.414 65.8279 234.377 65.7479 234.302 65.6839C234.238 65.6199 234.164 65.5879 234.078 65.5879C234.014 65.5879 233.94 65.5986 233.854 65.6199C233.78 65.6306 233.7 65.6359 233.614 65.6359Z" fill="#333A2E"/>
</g>
<defs>
<clipPath id="clip0_9021_6">
<rect width="300" height="250" fill="white" transform="translate(0 0.741034) rotate(-0.141527)"/>
</clipPath>
</defs>
</svg>
