<svg width="32" height="32" viewBox="0 0 32 32" fill="none" xmlns="http://www.w3.org/2000/svg">
<path d="M1.15314 30.3033C0.776845 30.3751 0.393676 30.3751 0.0173807 30.3033H7.9728e-06C2.21596 31.8444 10.4858 33.9316 20.4576 28.1653C31.9994 21.5142 33.3817 10.134 29.4986 4.63019C29.4048 4.49895 29.311 4.3677 29.2138 4.24493C12.2676 30.6759 1.15314 30.3033 1.15314 30.3033Z" fill="url(#paint0_linear_8782_66)"/>
<path d="M10.9826 14.1188C5.64417 28.2551 0.375202 30.2068 0.0244002 30.3211C0.400696 30.393 0.783864 30.393 1.16016 30.3211C1.16016 30.3211 12.2747 30.6937 29.2139 4.27121C24.8862 -1.41888 17.0296 -1.89305 10.9826 14.1188Z" fill="url(#paint1_linear_8782_66)"/>
<path d="M26.3619 20.4139L26.5842 19.872C26.6537 19.6984 26.7301 19.4867 26.8204 19.2411C26.8621 19.1184 26.9038 18.9871 26.9524 18.8474C27.001 18.7077 27.0462 18.5595 27.0879 18.424C27.1295 18.2886 27.1782 18.1065 27.2268 17.9414C27.2754 17.7763 27.3171 17.5942 27.3622 17.4164C27.4456 17.0523 27.529 16.6671 27.6019 16.2649C27.6748 15.8627 27.7374 15.4478 27.7929 15.0201C27.8173 14.8085 27.8381 14.5968 27.8624 14.3766C27.8867 14.1565 27.9006 13.9533 27.9145 13.7204C27.9423 13.297 27.9666 12.8483 27.9701 12.4164C27.9735 11.9846 27.9701 11.5697 27.9701 11.1463C27.9701 10.7229 27.9388 10.3419 27.9076 9.96511C27.8763 9.58832 27.8485 9.24115 27.8103 8.91516C27.7374 8.2674 27.654 7.73396 27.5845 7.36562C27.5533 7.17934 27.522 7.0354 27.5012 6.94225L27.4699 6.80254C27.458 6.70952 27.4747 6.61441 27.5169 6.53555C27.5591 6.45669 27.6238 6.39967 27.6984 6.37548C27.7731 6.35128 27.8524 6.36163 27.9212 6.40453C27.99 6.44743 28.0432 6.51984 28.0708 6.60779C28.0708 6.60779 28.0708 6.66706 28.1021 6.77714C28.1333 6.88722 28.1472 7.0354 28.175 7.23015C28.234 7.61965 28.3 8.17849 28.3521 8.84742C28.3799 9.18188 28.4042 9.54598 28.4181 9.93124C28.432 10.3165 28.439 10.7229 28.439 11.1463C28.439 11.5697 28.439 11.9931 28.4008 12.4376C28.3626 12.8821 28.3417 13.3267 28.3 13.7712C28.2757 13.9914 28.2479 14.1946 28.2201 14.4317C28.1924 14.6688 28.1611 14.855 28.1264 15.0879C28.0569 15.5113 27.977 15.9346 27.8867 16.358C27.7964 16.7814 27.7026 17.1497 27.6019 17.5138L27.4491 18.0388L27.2893 18.5256C27.2407 18.6823 27.1851 18.8262 27.1365 18.949C27.0879 19.0718 27.0392 19.22 26.9871 19.3428C26.8864 19.5841 26.8031 19.8 26.7266 19.9693L26.487 20.5028C26.483 20.5118 26.4776 20.5198 26.471 20.5262C26.4644 20.5326 26.4569 20.5374 26.4487 20.5401C26.4406 20.5429 26.4321 20.5437 26.4238 20.5423C26.4154 20.541 26.4074 20.5376 26.4002 20.5324C26.39 20.5298 26.3806 20.5242 26.3726 20.516C26.3647 20.5079 26.3586 20.4975 26.3548 20.4857C26.351 20.474 26.3497 20.4612 26.3509 20.4487C26.3522 20.4362 26.356 20.4242 26.3619 20.4139Z" fill="url(#paint2_linear_8782_66)"/>
<path d="M22.4599 23.2665L22.728 22.807C22.8121 22.6596 22.9065 22.4786 23.0176 22.2689C23.0697 22.1635 23.1225 22.0505 23.183 21.9308C23.2435 21.8111 23.3013 21.6832 23.3545 21.5664C23.4077 21.4495 23.4719 21.2914 23.5346 21.1487C23.5973 21.006 23.6546 20.8469 23.715 20.6922C23.8296 20.374 23.946 20.0367 24.0535 19.6826C24.1611 19.3284 24.2594 18.9613 24.3519 18.5817C24.3945 18.3933 24.4337 18.2044 24.477 18.0083C24.5204 17.8123 24.5519 17.6301 24.5861 17.421C24.6506 17.0413 24.7139 16.638 24.7551 16.2471C24.7962 15.8563 24.829 15.4798 24.8659 15.0961C24.9029 14.7124 24.9051 14.3626 24.9069 14.0167C24.9088 13.6707 24.9115 13.3522 24.902 13.0513C24.8861 12.4539 24.8499 11.9586 24.813 11.6149C24.7982 11.4416 24.7797 11.3067 24.7672 11.2194L24.7483 11.0883C24.7446 11.0023 24.7695 10.9185 24.8183 10.853C24.8671 10.7875 24.9363 10.7451 25.0126 10.7337C25.0888 10.7224 25.1667 10.7431 25.2313 10.7917C25.2958 10.8404 25.3424 10.9136 25.3621 10.9972C25.3621 10.9972 25.3569 11.0509 25.3784 11.1551C25.3998 11.2593 25.4007 11.3956 25.4113 11.576C25.4359 11.9374 25.4527 12.4533 25.446 13.0669C25.4444 13.374 25.4368 13.7074 25.417 14.0585C25.3972 14.4097 25.3686 14.779 25.3316 15.1627C25.2947 15.5464 25.2577 15.9301 25.181 16.3275C25.1042 16.725 25.0447 17.1249 24.9645 17.5218C24.9212 17.7179 24.8758 17.8981 24.8275 18.1091C24.7793 18.32 24.732 18.4844 24.6771 18.6904C24.5712 19.0643 24.4549 19.4366 24.3283 19.8075C24.2016 20.1783 24.0763 20.4988 23.9445 20.8145L23.7469 21.2685L23.5457 21.6871C23.4838 21.8221 23.416 21.9447 23.357 22.049C23.298 22.1534 23.2368 22.2808 23.1743 22.3846C23.0532 22.589 22.9516 22.7729 22.8609 22.9155L22.5763 23.3649C22.5716 23.3725 22.5655 23.379 22.5584 23.3839C22.5513 23.3887 22.5434 23.392 22.5351 23.3933C22.5268 23.3947 22.5183 23.3941 22.5101 23.3917C22.5019 23.3894 22.4942 23.3852 22.4875 23.3794C22.4776 23.3756 22.4687 23.3692 22.4616 23.3606C22.4544 23.3521 22.4493 23.3418 22.4465 23.3306C22.4438 23.3194 22.4436 23.3077 22.4459 23.2965C22.4482 23.2853 22.453 23.275 22.4599 23.2665Z" fill="url(#paint3_linear_8782_66)"/>
<path d="M22.1278 14.7588C22.1278 14.7588 22.1035 14.9705 22.0479 15.3219C21.9924 15.6733 21.9055 16.1686 21.7805 16.7783C21.6555 17.3879 21.5026 18.0484 21.3046 18.7977C21.2074 19.1618 21.0963 19.5344 20.9816 19.9112C20.867 20.288 20.7385 20.669 20.603 21.0458C20.4676 21.4226 20.3287 21.7952 20.1758 22.155C20.1029 22.3329 20.0265 22.5107 19.9501 22.6843C19.8737 22.8578 19.7938 23.0272 19.7139 23.1923C19.634 23.3574 19.5541 23.5225 19.4742 23.6792C19.3943 23.8358 19.3145 23.9882 19.2311 24.1322C19.1477 24.2761 19.0713 24.4201 18.9914 24.5556C18.9116 24.691 18.8351 24.8223 18.7553 24.9408C18.6059 25.1864 18.4531 25.3981 18.3211 25.5886C18.1891 25.7791 18.0606 25.9315 17.9738 26.0627L17.6264 26.4565C17.6206 26.4639 17.6136 26.4698 17.6058 26.4739C17.5981 26.4779 17.5897 26.48 17.5813 26.48C17.5729 26.48 17.5645 26.4779 17.5567 26.4739C17.549 26.4698 17.542 26.4639 17.5361 26.4565C17.5249 26.4423 17.5186 26.4233 17.5186 26.4036C17.5186 26.3838 17.5249 26.3648 17.5361 26.3506L17.8453 25.9273C17.939 25.7918 18.0537 25.6351 18.1926 25.4446C18.3315 25.2541 18.4566 25.0213 18.599 24.7842C18.6719 24.6614 18.7414 24.5302 18.8143 24.3947C18.8872 24.2592 18.9637 24.1195 19.0366 23.9713C19.1095 23.8231 19.1859 23.6749 19.2554 23.5141C19.3249 23.3532 19.4048 23.1965 19.4742 23.0272C19.5437 22.8578 19.6166 22.6885 19.6826 22.5149C19.7486 22.3413 19.8216 22.1635 19.8876 21.9815C20.0195 21.6216 20.1446 21.249 20.2627 20.8722C20.3808 20.4954 20.4919 20.1186 20.5926 19.7418C20.6934 19.365 20.7837 18.9967 20.867 18.6326C21.0337 17.9044 21.1623 17.2228 21.2595 16.6301C21.3568 16.0374 21.4227 15.5462 21.4644 15.2033C21.5061 14.8604 21.52 14.6656 21.52 14.6614C21.5239 14.611 21.536 14.5621 21.5557 14.5176C21.5754 14.473 21.6023 14.4338 21.6347 14.4022C21.6671 14.3706 21.7044 14.3472 21.7444 14.3336C21.7843 14.3199 21.8262 14.3162 21.8673 14.3227C21.9507 14.3334 22.0272 14.384 22.0799 14.4634C22.1327 14.5428 22.1574 14.6445 22.1487 14.7461L22.1278 14.7588Z" fill="url(#paint4_linear_8782_66)"/>
<path d="M18.502 18.8138L18.4638 18.945C18.4394 19.0339 18.4012 19.1609 18.3526 19.3176C18.304 19.4742 18.238 19.669 18.1685 19.8891C18.0991 20.1093 18.0122 20.3506 17.915 20.6131C17.8177 20.8756 17.71 21.1635 17.592 21.4598C17.4739 21.7562 17.3419 22.0653 17.2064 22.387C17.071 22.7088 16.9181 23.0348 16.7653 23.365C16.6125 23.6952 16.4458 24.0212 16.2721 24.343C16.0985 24.6647 15.9248 24.9907 15.7442 25.2956C15.6504 25.448 15.5636 25.6004 15.4733 25.7486C15.383 25.8968 15.2857 26.0407 15.1954 26.1719L14.921 26.5953C14.8342 26.7308 14.7369 26.8536 14.6466 26.9806C14.466 27.2219 14.2993 27.4632 14.1291 27.6622L13.6672 28.2126C13.5247 28.3692 13.3962 28.5005 13.292 28.6106L12.9621 28.9535C12.9489 28.9639 12.933 28.9682 12.9175 28.9656C12.9019 28.963 12.8876 28.9537 12.8771 28.9394C12.8666 28.9251 12.8607 28.9068 12.8604 28.8876C12.86 28.8684 12.8653 28.8498 12.8752 28.8349L13.1878 28.4793C13.2851 28.3608 13.4101 28.2253 13.5352 28.0559C13.6602 27.8866 13.8096 27.6961 13.9659 27.4844C14.1222 27.2727 14.2819 27.0356 14.4521 26.7858C14.5355 26.6588 14.6258 26.5318 14.7057 26.3921C14.7855 26.2524 14.8724 26.1127 14.9557 25.9687C15.0391 25.8248 15.1329 25.6808 15.2128 25.5454L15.4594 25.0839C15.633 24.7748 15.7824 24.4446 15.9421 24.1186C16.1019 23.7926 16.2374 23.4539 16.3867 23.1279C16.5361 22.8019 16.6576 22.4717 16.7792 22.1499C16.9008 21.8282 17.0189 21.5191 17.1265 21.2185C17.2342 20.9179 17.3245 20.6343 17.4079 20.3718C17.4912 20.1093 17.5642 19.8637 17.6302 19.6478C17.6962 19.4319 17.7448 19.2244 17.783 19.0847C17.8212 18.945 17.8559 18.8095 17.8768 18.7249C17.8976 18.6402 17.908 18.5979 17.908 18.5979C17.9197 18.5503 17.9389 18.506 17.9645 18.4676C17.9902 18.4291 18.0218 18.3971 18.0576 18.3735C18.0934 18.3499 18.1327 18.3352 18.1732 18.3301C18.2137 18.325 18.2546 18.3297 18.2936 18.3438C18.3326 18.358 18.3689 18.3814 18.4005 18.4127C18.432 18.444 18.4583 18.4826 18.4776 18.5262C18.497 18.5698 18.5091 18.6177 18.5133 18.667C18.5174 18.7164 18.5136 18.7662 18.502 18.8138Z" fill="url(#paint5_linear_8782_66)"/>
<path d="M9.14122 29.445L9.22111 29.4069C9.29455 29.3736 9.36643 29.3354 9.43645 29.2925C9.54587 29.2272 9.65252 29.1551 9.75599 29.0766C9.87408 28.9835 10.0095 28.8776 10.1485 28.7464C10.2874 28.6152 10.4298 28.4712 10.5792 28.323C10.7285 28.1749 10.8813 27.9801 11.0376 27.7896C11.1939 27.5991 11.3433 27.3959 11.4961 27.1842C11.6489 26.9725 11.7983 26.7608 11.9476 26.5322C12.4864 25.7173 12.9907 24.8695 13.4585 23.992C13.653 23.6363 13.8058 23.3315 13.9135 23.1198L14.0767 22.7854C14.1187 22.6995 14.1869 22.6374 14.2663 22.6128C14.3458 22.5881 14.43 22.603 14.5005 22.6541C14.571 22.7052 14.6219 22.7883 14.6421 22.8852C14.6623 22.982 14.6501 23.0847 14.6082 23.1706L14.4171 23.5051C14.299 23.7168 14.1219 24.0131 13.91 24.3518C13.3857 25.2089 12.8258 26.0327 12.2324 26.8201C12.0727 27.036 11.906 27.2434 11.7392 27.4509C11.5725 27.6583 11.3919 27.8446 11.2356 28.0309C11.0793 28.2172 10.8883 28.3865 10.7389 28.5389C10.5896 28.6914 10.4194 28.8353 10.27 28.9623C10.1207 29.0893 9.97481 29.1867 9.84629 29.2756C9.71778 29.3645 9.59969 29.4238 9.49897 29.4704C9.42429 29.5098 9.34774 29.5437 9.26973 29.572L9.18637 29.6016C9.17862 29.6049 9.1704 29.6064 9.16218 29.6058C9.15397 29.6053 9.14593 29.6028 9.13852 29.5985C9.1311 29.5942 9.12445 29.5881 9.11896 29.5806C9.11346 29.5732 9.10922 29.5645 9.10648 29.555C9.10375 29.5456 9.10257 29.5356 9.10301 29.5256C9.10345 29.5156 9.1055 29.5057 9.10905 29.4967C9.1126 29.4877 9.11757 29.4796 9.12369 29.4729C9.1298 29.4662 9.13694 29.461 9.14469 29.4577L9.14122 29.445Z" fill="url(#paint6_linear_8782_66)"/>
<path d="M27.6785 7.04432C27.6785 7.04432 27.5083 6.98081 27.1992 6.8792C26.8901 6.7776 26.442 6.64212 25.9036 6.50241C24.585 6.1535 23.246 5.92986 21.899 5.83348C21.5308 5.80808 21.1626 5.79538 20.8014 5.79538C20.6208 5.79538 20.4541 5.79538 20.263 5.79538C20.072 5.79538 19.9157 5.79538 19.7386 5.82502C19.3912 5.85465 19.0648 5.89275 18.7522 5.94779C18.4396 6.00283 18.1443 6.06634 17.8734 6.13408L17.4879 6.24415L17.1406 6.36269C17.0329 6.4008 16.9356 6.4389 16.8419 6.48124L16.5918 6.58708C16.439 6.65482 16.3243 6.71832 16.2444 6.75643L16.1229 6.81993C16.1081 6.82368 16.0927 6.82113 16.0793 6.81271C16.0658 6.80429 16.0552 6.7905 16.0491 6.77365C16.043 6.7568 16.0418 6.73791 16.0457 6.72013C16.0497 6.70236 16.0585 6.68678 16.0708 6.67599L16.1923 6.60825C16.2722 6.56591 16.3868 6.49394 16.5397 6.41773L16.7828 6.32459C16.8731 6.27802 16.9738 6.23568 17.0815 6.19335L17.4288 6.05364L17.8248 5.90122C18.0992 5.81655 18.3944 5.73188 18.7139 5.66414C19.0335 5.5964 19.3669 5.53712 19.7143 5.49055C19.8879 5.46515 20.0616 5.45245 20.2457 5.43128L20.7944 5.38895C21.1626 5.38895 21.5377 5.36354 21.9094 5.38895C23.2834 5.42089 24.6534 5.5794 26.0078 5.86312C26.5601 5.98166 27.0186 6.09597 27.3416 6.18488L27.7132 6.29072L27.8487 6.33306C27.9284 6.35776 27.9967 6.42004 28.0387 6.50618C28.0808 6.59233 28.093 6.69529 28.0727 6.79242C28.0524 6.88954 28.0013 6.97288 27.9307 7.02409C27.86 7.0753 27.7755 7.09019 27.6959 7.06549L27.6785 7.04432Z" fill="url(#paint7_linear_8782_66)"/>
<path d="M25.0699 10.4906L24.6149 10.3975C24.3231 10.3382 23.9029 10.262 23.3992 10.1858C22.1652 9.98875 20.9235 9.87145 19.6794 9.83437C19.332 9.83437 19.0021 9.83437 18.6686 9.83437C18.3352 9.83437 18.0087 9.85977 17.6926 9.88941C17.3766 9.91905 17.0709 9.95715 16.7826 10.008C16.6368 10.008 16.4978 10.0545 16.3624 10.0884C16.2269 10.1223 16.0984 10.1434 15.9768 10.1815C15.7268 10.2408 15.5045 10.317 15.3065 10.389L15.0356 10.4991L14.8098 10.6091C14.6709 10.6726 14.5702 10.7446 14.4972 10.7827L14.3895 10.8462C14.3743 10.8552 14.3568 10.8565 14.3409 10.8497C14.3249 10.843 14.3118 10.8288 14.3044 10.8102C14.2971 10.7917 14.296 10.7704 14.3016 10.7509C14.3071 10.7315 14.3188 10.7155 14.334 10.7065L14.4416 10.6345C14.5431 10.5633 14.6474 10.4983 14.7542 10.4398L14.9835 10.3128L15.2613 10.1858C15.4593 10.1011 15.6851 10.008 15.9352 9.93175C16.0602 9.88941 16.1922 9.85131 16.3276 9.81744C16.4631 9.78357 16.6055 9.74547 16.7514 9.7116C17.0397 9.64386 17.3488 9.58882 17.6718 9.54225C17.9948 9.49568 18.3248 9.46181 18.6617 9.43217C18.9986 9.40253 19.3563 9.3856 19.6863 9.3729C20.946 9.34311 22.2062 9.39257 23.4618 9.52108C23.9758 9.57189 24.403 9.62692 24.7052 9.66926L25.1776 9.74123C25.2591 9.75527 25.3327 9.8082 25.3822 9.8884C25.4317 9.96859 25.453 10.0695 25.4415 10.1688C25.43 10.2682 25.3866 10.3579 25.3208 10.4183C25.255 10.4786 25.1723 10.5046 25.0907 10.4906H25.0699Z" fill="url(#paint8_linear_8782_66)"/>
<path d="M21.7773 14.7246C21.7773 14.7246 21.628 14.678 21.3536 14.6103C21.0792 14.5426 20.6902 14.4409 20.2178 14.3436C19.7455 14.2462 19.1932 14.1446 18.5993 14.0599C18.3006 14.0218 17.9949 13.9795 17.6823 13.9498C17.3697 13.9202 17.0502 13.899 16.7306 13.8821H16.2548H15.779C15.4664 13.8821 15.1572 13.8821 14.862 13.9329C14.7127 13.9329 14.5668 13.9625 14.4244 13.9879C14.282 14.0133 14.1431 14.026 14.0076 14.0557L13.8061 14.0938L13.6151 14.1446L13.431 14.1912L13.2539 14.2462L13.0837 14.297L12.9274 14.3563C12.8232 14.3986 12.7225 14.4325 12.6356 14.4791L12.3821 14.5976L12.1772 14.7204C12.0806 14.7761 11.9867 14.8383 11.8958 14.9067L11.7951 14.9786C11.7807 14.9884 11.7637 14.9913 11.7476 14.9865C11.7315 14.9818 11.7175 14.97 11.7083 14.9532C11.7039 14.9446 11.7009 14.9351 11.6995 14.9251C11.6982 14.9151 11.6985 14.9048 11.7005 14.895C11.7024 14.8851 11.7059 14.8758 11.7109 14.8677C11.7158 14.8595 11.722 14.8526 11.7291 14.8474L11.8264 14.7669C11.9183 14.6918 12.0134 14.6226 12.1112 14.5595L12.3196 14.4198L12.5731 14.2801C12.6634 14.2293 12.7642 14.1869 12.8684 14.1404L13.0316 14.0684L13.2018 14.0049L13.3824 13.9371L13.57 13.8779L13.7645 13.8186L13.9659 13.7636C14.1048 13.7297 14.2438 13.6958 14.3896 13.6704C14.5355 13.645 14.6849 13.6111 14.8342 13.59C15.1364 13.5392 15.4525 13.5095 15.772 13.4799L16.2513 13.4503H16.7411C17.0641 13.4503 17.3906 13.4503 17.7066 13.4503C18.0227 13.4503 18.3422 13.4799 18.6444 13.5053C19.2522 13.5561 19.8184 13.6281 20.3012 13.7001C20.784 13.772 21.1869 13.844 21.4682 13.899C21.7495 13.9541 21.9128 13.9964 21.9128 13.9964C21.9527 14.0059 21.9907 14.0248 22.0246 14.0522C22.0585 14.0795 22.0876 14.1147 22.1104 14.1558C22.1331 14.1969 22.149 14.243 22.1571 14.2916C22.1652 14.3402 22.1654 14.3902 22.1576 14.4388C22.1499 14.4875 22.1344 14.5338 22.1119 14.5751C22.0895 14.6164 22.0606 14.652 22.0269 14.6797C21.9932 14.7074 21.9553 14.7268 21.9155 14.7367C21.8757 14.7465 21.8346 14.7468 21.7947 14.7373L21.7773 14.7246Z" fill="url(#paint9_linear_8782_66)"/>
<path d="M18.113 19.0596L18.0296 19.0258L17.7761 18.9368C17.4696 18.8335 17.1589 18.7502 16.8452 18.6871C16.6507 18.6447 16.4354 18.6066 16.2096 18.5727C15.9839 18.5389 15.7442 18.5177 15.4976 18.5008C15.251 18.4838 14.9905 18.4754 14.73 18.5008C14.4695 18.5262 14.2021 18.5262 13.9381 18.5558L13.5422 18.6109C13.4102 18.6363 13.2782 18.6574 13.1497 18.6871C12.8927 18.7421 12.6391 18.8098 12.3994 18.8903C12.1598 18.9707 11.9271 19.0554 11.7048 19.1443L11.3922 19.2882L11.1039 19.4364C10.9198 19.5338 10.7566 19.6312 10.6072 19.7201C10.4579 19.809 10.3363 19.8937 10.2356 19.9699L9.91952 20.2027C9.91247 20.2081 9.90462 20.2117 9.89641 20.2134C9.8882 20.215 9.87981 20.2146 9.87172 20.2123C9.86364 20.2099 9.85602 20.2056 9.84931 20.1996C9.84261 20.1936 9.83696 20.186 9.83268 20.1773C9.8243 20.1602 9.82144 20.1399 9.82465 20.1203C9.82786 20.1008 9.83691 20.0834 9.85006 20.0715L10.1592 19.8132C10.2599 19.7328 10.3849 19.6439 10.5273 19.538C10.6697 19.4322 10.8365 19.3221 11.0171 19.2078L11.3054 19.0385L11.6214 18.8691C11.8402 18.7633 12.073 18.6532 12.3161 18.5558C12.5592 18.4584 12.8162 18.3738 13.0802 18.2933L13.4831 18.179L13.8895 18.0943C14.1639 18.0478 14.4383 18.0054 14.7092 17.9843C14.9801 17.9631 15.2475 17.9462 15.508 17.9419C15.7685 17.9377 16.0151 17.9419 16.2548 17.9673C16.4944 17.9927 16.7167 18.0097 16.9217 18.0393C17.335 18.0986 17.6788 18.1748 17.9185 18.2341L18.1964 18.3145L18.3005 18.3484C18.3737 18.3815 18.4341 18.4467 18.4698 18.5313C18.5055 18.6159 18.5139 18.7137 18.4935 18.8055C18.473 18.8973 18.4251 18.9764 18.3592 19.0274C18.2933 19.0783 18.2141 19.0974 18.1373 19.0808L18.113 19.0596Z" fill="url(#paint10_linear_8782_66)"/>
<path d="M14.2019 23.1749H13.9206L13.1738 23.2427C12.5591 23.3019 11.7359 23.3993 10.9162 23.5348C10.1669 23.6489 9.42446 23.8214 8.6933 24.0513C8.54395 24.1021 8.41197 24.1529 8.29388 24.2037C8.17579 24.2545 8.07854 24.3053 7.99518 24.3477C7.93339 24.3819 7.8731 24.4201 7.81456 24.462L7.75205 24.5297C7.74453 24.535 7.73622 24.5385 7.72761 24.5398C7.71899 24.5412 7.71024 24.5405 7.70185 24.5378C7.69346 24.535 7.68559 24.5303 7.67871 24.5238C7.67183 24.5173 7.66606 24.5093 7.66174 24.5001C7.65469 24.4829 7.65291 24.4632 7.65674 24.4446C7.66056 24.4259 7.66972 24.4096 7.68258 24.3985L7.74511 24.3434C7.80432 24.2918 7.86706 24.2465 7.93266 24.208C8.03057 24.1406 8.13146 24.0798 8.23484 24.0259C8.34946 23.9624 8.48491 23.8989 8.63426 23.8312C9.3612 23.5298 10.1038 23.288 10.8572 23.1072C11.6734 22.8955 12.4966 22.7262 13.1148 22.6076L13.865 22.4721L14.1498 22.4256C14.1902 22.4189 14.2313 22.422 14.2706 22.4346C14.31 22.4473 14.347 22.4693 14.3794 22.4994C14.4118 22.5295 14.439 22.567 14.4595 22.6099C14.4801 22.6528 14.4934 22.7002 14.4989 22.7494C14.5044 22.7986 14.5018 22.8487 14.4915 22.8967C14.4811 22.9447 14.463 22.9898 14.4383 23.0293C14.4137 23.0688 14.3828 23.102 14.3476 23.127C14.3124 23.152 14.2736 23.1683 14.2332 23.1749H14.2054H14.2019Z" fill="url(#paint11_linear_8782_66)"/>
<path d="M1.15294 30.1473H1.26061L1.58362 30.1177C1.9947 30.0587 2.40284 29.9725 2.80622 29.8594C3.44009 29.6779 4.06509 29.4531 4.67832 29.1863C5.4696 28.845 6.24526 28.4521 7.00194 28.0093C7.21034 27.8823 7.42569 27.768 7.63756 27.6325L8.29053 27.2091C8.51282 27.0694 8.73163 26.9128 8.95392 26.7604C9.17621 26.6079 9.40892 26.4513 9.64858 26.2819L10.3432 25.7739L11.0379 25.232L11.3852 24.9526L11.7326 24.6604L12.4272 24.0635C12.6634 23.8603 12.8961 23.6401 13.1219 23.4327C13.3476 23.2252 13.5977 23.0093 13.8165 22.7849C14.0353 22.5605 14.2854 22.3361 14.5112 22.1118L14.8585 21.7688L15.2058 21.4174L15.9005 20.7062C16.1367 20.4691 16.3624 20.2151 16.5951 19.9695L17.2898 19.2286L17.9845 18.4623L18.6618 17.696L19.3599 16.9085L20.0163 16.1253C20.2351 15.8671 20.4435 15.5919 20.6589 15.3294C21.5133 14.2752 22.3191 13.2125 23.0902 12.1583L24.219 10.6003L24.4934 10.2235C24.5802 10.0923 24.6705 9.96529 24.7574 9.83827L25.2784 9.08467L25.782 8.35648C25.9487 8.11516 26.1119 7.87807 26.2648 7.64099C26.5808 7.16681 26.883 6.70534 27.1713 6.26503L27.5985 5.62151L27.9945 4.99493L28.7239 3.83489C28.9531 3.4708 29.1719 3.13633 29.3629 2.81457L29.8943 1.93396C30.5369 0.87554 30.9016 0.265887 30.9016 0.265887C31.0034 0.12034 31.1467 0.0271314 31.3026 0.0049632C31.4585 -0.017205 31.6154 0.0333095 31.742 0.146368C31.8687 0.259427 31.9555 0.426663 31.9851 0.614519C32.0148 0.802376 31.9851 0.996951 31.9019 1.1592C31.9019 1.1592 31.5198 1.75615 30.8599 2.81034L30.3042 3.65708C30.1062 3.9746 29.877 4.30907 29.6408 4.66893L28.8801 5.81626L28.4668 6.43438L28.0222 7.07367L27.081 8.43269C26.9212 8.66977 26.751 8.90263 26.5774 9.13971L26.0529 9.86368L25.5145 10.6046L25.2401 10.9856L24.9519 11.3582L23.7848 12.8992C22.9721 13.9238 22.135 14.9864 21.2493 16.0237C21.0305 16.2862 20.8152 16.5529 20.586 16.8112L19.9087 17.624L19.214 18.3988L18.5193 19.1524L17.8247 19.906L17.1092 20.6342C16.8695 20.8755 16.6368 21.1253 16.3937 21.3539L15.6678 22.0525L15.3205 22.3996L14.9523 22.7341L14.2264 23.3946C13.9867 23.619 13.7366 23.8179 13.4935 24.0296C13.2504 24.2413 13.0107 24.453 12.7676 24.6435L12.0382 25.2278C11.9201 25.3209 11.7985 25.4225 11.6909 25.5114L11.2949 25.7993L10.5829 26.3328L9.88824 26.8239C9.659 26.989 9.42282 27.1414 9.19358 27.2896C8.96435 27.4377 8.73858 27.5859 8.49893 27.7129L7.83206 28.1109C7.61324 28.2464 7.39095 28.3565 7.17908 28.475C6.39987 28.9053 5.60217 29.2841 4.78946 29.6096C4.16258 29.8586 3.52483 30.065 2.87916 30.2278C2.46304 30.3338 2.04198 30.4088 1.61835 30.4521C1.469 30.4521 1.35786 30.4733 1.27103 30.4775H1.15294C1.11885 30.4775 1.08617 30.461 1.06207 30.4317C1.03796 30.4023 1.02443 30.3624 1.02443 30.3209C1.02443 30.2793 1.03796 30.2395 1.06207 30.2101C1.08617 30.1808 1.11885 30.1642 1.15294 30.1642V30.1473Z" fill="url(#paint12_linear_8782_66)"/>
<path d="M12.53 15.9249C12.4834 15.2687 12.451 13.7623 12.414 12.9814C12.0123 7.65913 7.95382 6.52642 5.51138 11.6835C3.71012 15.4308 2.58843 20.6071 3.14208 24.3095C3.3947 25.8691 3.64025 27.9057 5.23023 27.9756C6.38699 27.9598 7.58029 26.4671 8.78199 26.1828C10.4686 25.6564 12.3739 25.0632 12.7486 22.7976C13.2595 20.4963 12.4765 18.1977 12.53 15.9249ZM5.98432 25.0856C5.32223 25.1908 5.42761 24.1971 5.31949 23.7877C5.21178 22.792 5.20281 21.7881 5.29272 20.7907C5.30337 20.6728 5.36025 20.564 5.45093 20.488C5.54161 20.412 5.65871 20.3749 5.77664 20.3849C5.89457 20.3949 6.00374 20.4512 6.08028 20.5415C6.15682 20.6317 6.19451 20.7486 6.18511 20.8665C6.09898 21.7984 6.10496 22.7366 6.20296 23.6673C6.22703 24.1552 6.6185 24.9576 5.98432 25.0856ZM26.0586 13.0482C23.3014 5.87368 18.9351 7.6835 18.5581 12.9813C18.5231 13.5492 18.5373 14.3919 18.4866 14.9794L18.4421 15.8937C18.5104 18.25 17.6591 20.6383 18.277 23.0206C18.7474 25.1221 20.6008 25.6871 22.2302 26.1916C23.5793 26.509 24.8418 28.3889 26.2504 27.8776C27.3615 27.4359 27.6248 25.6966 27.8345 24.3006C28.2952 20.9659 27.6083 16.9394 26.0586 13.0482ZM24.7334 17.6955C24.6187 17.7237 24.4974 17.706 24.3957 17.6459C24.2939 17.5859 24.2197 17.4884 24.1891 17.3744C23.8172 15.8871 23.3047 14.4386 22.6586 13.0482C22.609 12.9411 22.6036 12.8187 22.6437 12.7076C22.6838 12.5966 22.7661 12.5058 22.8728 12.4551C22.9258 12.4298 22.9832 12.4153 23.0418 12.4124C23.1004 12.4095 23.159 12.4183 23.2142 12.4382C23.2695 12.4581 23.3201 12.4887 23.3634 12.5284C23.4067 12.568 23.4416 12.6159 23.4662 12.6691C24.1356 14.1099 24.6674 15.6107 25.0547 17.1514C25.084 17.2661 25.0667 17.3878 25.0065 17.4897C24.9463 17.5917 24.8481 17.6657 24.7334 17.6955ZM16.8269 9.68543C16.8281 10.6131 17.1514 11.5116 17.7416 12.2276C17.7059 12.4551 17.6836 12.6914 17.6657 12.9322C17.6382 13.459 17.6395 14.3535 17.5943 14.9348L17.5675 15.5101C16.754 15.0586 16.0453 14.44 15.4883 13.6949C14.9299 14.4428 14.2198 15.0644 13.4045 15.519C13.3904 15.0776 13.3522 14.4864 13.3332 14.0249C13.349 13.4268 13.3132 12.8285 13.2261 12.2365C13.8216 11.5195 14.1482 10.6173 14.1497 9.68543V3.44599C14.15 3.32782 14.1972 3.21458 14.2808 3.13102C14.3644 3.04745 14.4777 3.00035 14.5959 3H16.3807C16.4989 3.00035 16.6122 3.04745 16.6958 3.13102C16.7794 3.21458 16.8265 3.32782 16.8269 3.44599V9.68543Z" fill="#C3FF17"/>
<defs>
<linearGradient id="paint0_linear_8782_66" x1="10.9663" y1="41.9337" x2="13.7106" y2="13.3386" gradientUnits="userSpaceOnUse">
<stop offset="0.08" stop-color="#B0E355"/>
<stop offset="0.21" stop-color="#ADE152"/>
<stop offset="0.32" stop-color="#A2DA4A"/>
<stop offset="0.42" stop-color="#91CE3B"/>
<stop offset="0.52" stop-color="#79BE27"/>
<stop offset="0.61" stop-color="#5AA90D"/>
<stop offset="0.65" stop-color="#4A9F00"/>
<stop offset="1" stop-color="#346D0A"/>
</linearGradient>
<linearGradient id="paint1_linear_8782_66" x1="-4.71892" y1="21.8948" x2="45.8936" y2="13.2237" gradientUnits="userSpaceOnUse">
<stop offset="0.08" stop-color="#B0E355"/>
<stop offset="0.21" stop-color="#ADE152"/>
<stop offset="0.32" stop-color="#A2DA4A"/>
<stop offset="0.42" stop-color="#91CE3B"/>
<stop offset="0.52" stop-color="#79BE27"/>
<stop offset="0.61" stop-color="#5AA90D"/>
<stop offset="0.65" stop-color="#4A9F00"/>
<stop offset="1" stop-color="#346D0A"/>
</linearGradient>
<linearGradient id="paint2_linear_8782_66" x1="26.5078" y1="20.7187" x2="29.5594" y2="6.53225" gradientUnits="userSpaceOnUse">
<stop stop-color="#3C7A27"/>
<stop offset="0.738213" stop-color="#1A3705"/>
</linearGradient>
<linearGradient id="paint3_linear_8782_66" x1="22.5781" y1="23.5635" x2="26.8725" y2="11.1491" gradientUnits="userSpaceOnUse">
<stop stop-color="#3C7A27"/>
<stop offset="0.738213" stop-color="#1A3705"/>
</linearGradient>
<linearGradient id="paint4_linear_8782_66" x1="-4.91719" y1="39.9876" x2="25.8695" y2="23.7088" gradientUnits="userSpaceOnUse">
<stop offset="0.08" stop-color="#B0E355"/>
<stop offset="0.21" stop-color="#ADE152"/>
<stop offset="0.32" stop-color="#A2DA4A"/>
<stop offset="0.42" stop-color="#91CE3B"/>
<stop offset="0.52" stop-color="#79BE27"/>
<stop offset="0.61" stop-color="#5AA90D"/>
<stop offset="0.65" stop-color="#4A9F00"/>
<stop offset="1" stop-color="#346D0A"/>
</linearGradient>
<linearGradient id="paint5_linear_8782_66" x1="-4.91971" y1="39.9827" x2="25.8669" y2="23.7039" gradientUnits="userSpaceOnUse">
<stop offset="0.08" stop-color="#B0E355"/>
<stop offset="0.21" stop-color="#ADE152"/>
<stop offset="0.32" stop-color="#A2DA4A"/>
<stop offset="0.42" stop-color="#91CE3B"/>
<stop offset="0.52" stop-color="#79BE27"/>
<stop offset="0.61" stop-color="#5AA90D"/>
<stop offset="0.65" stop-color="#4A9F00"/>
<stop offset="1" stop-color="#346D0A"/>
</linearGradient>
<linearGradient id="paint6_linear_8782_66" x1="-5.08961" y1="39.6624" x2="25.6952" y2="23.3799" gradientUnits="userSpaceOnUse">
<stop offset="0.08" stop-color="#B0E355"/>
<stop offset="0.21" stop-color="#ADE152"/>
<stop offset="0.32" stop-color="#A2DA4A"/>
<stop offset="0.42" stop-color="#91CE3B"/>
<stop offset="0.52" stop-color="#79BE27"/>
<stop offset="0.61" stop-color="#5AA90D"/>
<stop offset="0.65" stop-color="#4A9F00"/>
<stop offset="1" stop-color="#346D0A"/>
</linearGradient>
<linearGradient id="paint7_linear_8782_66" x1="-9.30853" y1="31.6833" x2="21.4763" y2="15.4009" gradientUnits="userSpaceOnUse">
<stop offset="0.08" stop-color="#B0E355"/>
<stop offset="0.21" stop-color="#ADE152"/>
<stop offset="0.32" stop-color="#A2DA4A"/>
<stop offset="0.42" stop-color="#91CE3B"/>
<stop offset="0.52" stop-color="#79BE27"/>
<stop offset="0.61" stop-color="#5AA90D"/>
<stop offset="0.65" stop-color="#4A9F00"/>
<stop offset="1" stop-color="#346D0A"/>
</linearGradient>
<linearGradient id="paint8_linear_8782_66" x1="-8.55605" y1="33.1033" x2="22.2288" y2="16.8209" gradientUnits="userSpaceOnUse">
<stop offset="0.08" stop-color="#B0E355"/>
<stop offset="0.21" stop-color="#ADE152"/>
<stop offset="0.32" stop-color="#A2DA4A"/>
<stop offset="0.42" stop-color="#91CE3B"/>
<stop offset="0.52" stop-color="#79BE27"/>
<stop offset="0.61" stop-color="#5AA90D"/>
<stop offset="0.65" stop-color="#4A9F00"/>
<stop offset="1" stop-color="#346D0A"/>
</linearGradient>
<linearGradient id="paint9_linear_8782_66" x1="-7.85858" y1="34.4292" x2="22.928" y2="18.1504" gradientUnits="userSpaceOnUse">
<stop offset="0.08" stop-color="#B0E355"/>
<stop offset="0.21" stop-color="#ADE152"/>
<stop offset="0.32" stop-color="#A2DA4A"/>
<stop offset="0.42" stop-color="#91CE3B"/>
<stop offset="0.52" stop-color="#79BE27"/>
<stop offset="0.61" stop-color="#5AA90D"/>
<stop offset="0.65" stop-color="#4A9F00"/>
<stop offset="1" stop-color="#346D0A"/>
</linearGradient>
<linearGradient id="paint10_linear_8782_66" x1="-6.87302" y1="36.2833" x2="23.908" y2="20.0035" gradientUnits="userSpaceOnUse">
<stop offset="0.08" stop-color="#B0E355"/>
<stop offset="0.21" stop-color="#ADE152"/>
<stop offset="0.32" stop-color="#A2DA4A"/>
<stop offset="0.42" stop-color="#91CE3B"/>
<stop offset="0.52" stop-color="#79BE27"/>
<stop offset="0.61" stop-color="#5AA90D"/>
<stop offset="0.65" stop-color="#4A9F00"/>
<stop offset="1" stop-color="#346D0A"/>
</linearGradient>
<linearGradient id="paint11_linear_8782_66" x1="-6.20861" y1="37.5465" x2="24.578" y2="21.2677" gradientUnits="userSpaceOnUse">
<stop offset="0.08" stop-color="#B0E355"/>
<stop offset="0.21" stop-color="#ADE152"/>
<stop offset="0.32" stop-color="#A2DA4A"/>
<stop offset="0.42" stop-color="#91CE3B"/>
<stop offset="0.52" stop-color="#79BE27"/>
<stop offset="0.61" stop-color="#5AA90D"/>
<stop offset="0.65" stop-color="#4A9F00"/>
<stop offset="1" stop-color="#346D0A"/>
</linearGradient>
<linearGradient id="paint12_linear_8782_66" x1="1.15298" y1="30.4564" x2="21.8583" y2="20.3268" gradientUnits="userSpaceOnUse">
<stop stop-color="#ADE152"/>
<stop offset="0.32" stop-color="#A2DA4A"/>
<stop offset="0.42" stop-color="#91CE3B"/>
<stop offset="0.52" stop-color="#79BE27"/>
<stop offset="0.61" stop-color="#5AA90D"/>
<stop offset="0.65" stop-color="#4A9F00"/>
<stop offset="1" stop-color="#346D0A"/>
</linearGradient>
</defs>
</svg>
