<svg xmlns="http://www.w3.org/2000/svg" fill="none" viewBox="0 0 300 250"><g clip-path="url(#clip0_9035_252)" opacity=".5"><path fill="#8FE89A" d="M68.82 91.696H11.34v45.039h57.48V91.696Z"/><path fill="#495D4C" d="M54.421 136.419c-.05 0-.094-10.038-.094-22.418 0-12.381.044-22.419.094-22.419s.095 10.033.095 22.419c0 12.386-.04 22.418-.095 22.418Z"/><path fill="#F5F5F5" d="M63.119 126.485h-4.408v5.061h4.408v-5.061Z"/><path fill="#495D4C" d="M35.401 91.82h-6.527v9.611h6.527v-9.612Zm0 35.169h-6.527v9.612h6.527v-9.612Z"/><path fill="#263238" d="M67.494 91.722a.438.438 0 0 1-.149 0h-8.193l-20.144.028-20.15-.028h-8.187a.439.439 0 0 1-.15 0h2.235l6.102-.033h40.294l6.108.033h2.235Z"/><path fill="#E0E0E0" d="M116.672 91.644h-57.48v45.039h57.48V91.644Z"/><path fill="#495D4C" d="M102.262 136.368c-.05 0-.095-10.044-.095-22.419s.045-22.418.095-22.418.094 10.038.094 22.418c0 12.381-.033 22.419-.094 22.419Z"/><path fill="#F5F5F5" d="M111.8 126.426h-4.408v5.061h4.408v-5.061Z"/><path fill="#fff" d="M83.254 91.76h-6.527v9.612h6.527V91.76Zm0 35.178h-6.527v9.611h6.527v-9.611Z" opacity=".5"/><path fill="#0A0D0E" d="M117.69 91.644h-2.207l-6.108.034H60.717a.732.732 0 0 1 .144 0h2.091l6.102-.028h40.293l6.108.028h2.091a.737.737 0 0 1 .144-.034Z"/><path fill="#E0E0E0" d="M119.9 46.608H62.42v45.038h57.48V46.608Z"/><path fill="#495D4C" d="M105.501 91.332c-.05 0-.095-10.038-.095-22.418 0-12.38.045-22.419.095-22.419s.094 10.038.094 22.419c0 12.38-.022 22.418-.094 22.418Z"/><path fill="#F5F5F5" d="M115.029 81.388h-4.409v5.061h4.409v-5.06Zm-28.547-34.66h-6.528v9.612h6.528v-9.612Zm0 35.172h-6.528v9.613h6.528V81.9Z"/><path fill="#263238" d="M118.972 46.612h-2.24l-6.102.033-20.144.028-20.15-.028-6.108-.033h-2.234 8.342l20.15-.028 20.144.028h8.342Z"/><path fill="#89948F" d="M108.924 186.877v-5.274H2.72a1.418 1.418 0 0 0-1.323.912 1.46 1.46 0 0 0-.101.562v2.388c.002.382.152.748.419 1.018s.628.422 1.005.422h2.957v2.404c-.002.377-.15.738-.413 1.003a1.39 1.39 0 0 1-.989.415H2.697c-.371 0-.728.15-.99.417a1.435 1.435 0 0 0-.411 1.007v2.432c.01.371.162.723.424.982.262.258.612.403.977.403h106.227v-5.269H84.189v-3.822h24.735Zm-77.795 0h6.361v3.822h-6.356l-.005-3.822Zm-4.243 3.822h-6.362v-3.822h6.367l-.005 3.822Zm14.847-3.822h6.373v3.822h-6.367l-.006-3.822Zm10.61 0h6.361v3.822H52.35l-.006-3.822Zm10.604 0h6.367v3.822h-6.361l-.006-3.822Zm-53.033 0h6.362v3.822H9.92l-.006-3.822Zm70.005 3.822h-6.362v-3.822h6.367l-.005 3.822Z"/><path fill="#B8B8B8" d="M198.397 102.037c.174-.163.312-.356.404-.568a1.587 1.587 0 0 0-.03-1.328 1.738 1.738 0 0 0-.43-.553l-17.995-15.492a2.046 2.046 0 0 0-1.327-.478c-.493 0-.968.17-1.328.478a1.79 1.79 0 0 0-.437.562 1.65 1.65 0 0 0-.167.672 1.64 1.64 0 0 0 .128.679c.092.216.229.414.404.582l7.177 6.882-3.735 3.273-1.945-1.394-13.578 14.174-7.255-6.357-8.745 23.435 1.734 31.812h20.118l-1.402-37.801 13.473-17.527.105-4.171 3.879-3.616 8.363 6.802c.362.295.835.451 1.321.436a1.97 1.97 0 0 0 1.284-.517l-.016.015Z"/><path fill="#E9E9E9" d="m190.152 156.189 12.816-30.159-4.812-1.653v-5.849l35.043-.463c.825-.014 1.616-.282 2.226-.753.609-.472.996-1.115 1.089-1.809l5.143-38.769c.114-.868.602-1.67 1.369-2.252.768-.583 1.762-.905 2.793-.906.565 0 1.124.097 1.644.285.52.188.989.463 1.381.809.391.345.696.754.896 1.202.201.447.292.925.27 1.403l-1.939 39.949 18.296.084.622 7.29-54.112 1.791-14.111 29.367-8.614.433Z"/><path fill="#B8B8B8" d="m198.678 155.542-44.75.31v2.564l18.538-.206 29.525-.192 71.584-8.711-8.114-26.615h-48.468a5.86 5.86 0 0 0-2.413.482 5.025 5.025 0 0 0-1.875 1.395l-14.027 30.973Z"/><path fill="#E9E9E9" d="m176.253 28.293-31.477 101.964.221 28.36h10.014v-28.18l25.788-101.875 69.873-.398 13.363 106.112h7.884L255.659 28.91a6.03 6.03 0 0 0-2.033-3.52A5.866 5.866 0 0 0 249.85 24h-67.925a5.862 5.862 0 0 0-3.537 1.192 6.021 6.021 0 0 0-2.135 3.101Z"/><path fill="#5CCD6A" d="M139.127 191.38v-27.244l5.892-5.521 55.174-.717 9.931-8.205a11.252 11.252 0 0 1 6.511-2.562l10.593-.605s4.767-3.363 9.38-6.647a34.218 34.218 0 0 1 19.984-6.462h30.583c1.11 0 2.175.448 2.961 1.246a4.29 4.29 0 0 1 1.226 3.008v53.709H139.127Z"/><path fill="#495D4C" d="M291.357 182.598H138.586v8.956h152.771v-8.956Z"/><path fill="#495D4C" d="M146.492 191.282a19.411 19.411 0 0 0 3.032 10.707 18.966 18.966 0 0 0 8.376 7.192 18.628 18.628 0 0 0 10.899 1.253 18.795 18.795 0 0 0 9.747-5.11 19.27 19.27 0 0 0 5.309-9.749 19.47 19.47 0 0 0-.917-11.102 19.145 19.145 0 0 0-6.835-8.713 18.695 18.695 0 0 0-10.449-3.388 18.635 18.635 0 0 0-7.25 1.353 18.866 18.866 0 0 0-6.188 4.069 19.194 19.194 0 0 0-4.183 6.166 19.438 19.438 0 0 0-1.541 7.322Z"/><path fill="#495D4C" d="M146.498 191.228v.05c-.029 5.06 1.911 9.927 5.398 13.541 3.486 3.614 8.236 5.684 13.217 5.757a18.735 18.735 0 0 0 13.378-5.362c3.588-3.509 5.667-8.316 5.784-13.375v-.051l-37.777-.56Z"/><path fill="#FAFAFA" d="M152.12 191.36a13.598 13.598 0 0 0 2.135 7.497 13.29 13.29 0 0 0 5.873 5.031 13.05 13.05 0 0 0 7.634.872 13.17 13.17 0 0 0 6.827-3.581 13.508 13.508 0 0 0 3.719-6.829 13.644 13.644 0 0 0-.638-7.777 13.416 13.416 0 0 0-4.783-6.108 13.07 13.07 0 0 0-12.408-1.437 13.226 13.226 0 0 0-4.346 2.857 13.459 13.459 0 0 0-2.936 4.331 13.62 13.62 0 0 0-1.077 5.144Z"/><path fill="#E0E0E0" d="M165.571 178.083a13.07 13.07 0 0 0-5.092.945 13.226 13.226 0 0 0-4.346 2.857 13.459 13.459 0 0 0-2.936 4.331 13.62 13.62 0 0 0-1.077 5.144l26.522.387a13.64 13.64 0 0 0-.931-5.173 13.472 13.472 0 0 0-2.812-4.415 13.225 13.225 0 0 0-4.264-2.982 13.046 13.046 0 0 0-5.064-1.094Z"/><path fill="#495D4C" d="M157.301 191.437a8.308 8.308 0 0 0 1.295 4.582 8.122 8.122 0 0 0 3.584 3.079c1.467.643 3.09.83 4.663.537a8.042 8.042 0 0 0 4.171-2.185 8.251 8.251 0 0 0 2.273-4.171 8.342 8.342 0 0 0-.392-4.751 8.193 8.193 0 0 0-2.924-3.729 8.002 8.002 0 0 0-7.573-.872 8.074 8.074 0 0 0-2.648 1.74 8.23 8.23 0 0 0-1.79 2.638 8.317 8.317 0 0 0-.659 3.132Zm81.629-.155a19.411 19.411 0 0 0 3.032 10.707 18.966 18.966 0 0 0 8.376 7.192 18.628 18.628 0 0 0 10.899 1.253 18.795 18.795 0 0 0 9.747-5.11 19.275 19.275 0 0 0 5.309-9.749 19.47 19.47 0 0 0-.917-11.102 19.147 19.147 0 0 0-6.835-8.714 18.694 18.694 0 0 0-10.449-3.387c-5.009-.073-9.842 1.878-13.436 5.424-3.593 3.546-5.653 8.397-5.726 13.486Z"/><path fill="#495D4C" d="M238.936 191.228v.05c-.028 5.06 1.912 9.927 5.398 13.541 3.486 3.614 8.237 5.684 13.217 5.757a18.735 18.735 0 0 0 13.378-5.362c3.589-3.509 5.668-8.316 5.785-13.375a.146.146 0 0 1 0-.051l-37.778-.56Z"/><path fill="#FAFAFA" d="M244.558 191.36a13.607 13.607 0 0 0 2.135 7.497 13.29 13.29 0 0 0 5.873 5.031 13.05 13.05 0 0 0 7.634.872 13.17 13.17 0 0 0 6.827-3.581 13.508 13.508 0 0 0 3.719-6.829 13.644 13.644 0 0 0-.638-7.777 13.416 13.416 0 0 0-4.783-6.108 13.07 13.07 0 0 0-12.408-1.437 13.226 13.226 0 0 0-4.346 2.857 13.459 13.459 0 0 0-2.936 4.331 13.62 13.62 0 0 0-1.077 5.144Z"/><path fill="#E0E0E0" d="M258.009 178.083a13.07 13.07 0 0 0-5.092.945 13.226 13.226 0 0 0-4.346 2.857 13.459 13.459 0 0 0-2.936 4.331 13.62 13.62 0 0 0-1.077 5.144l26.522.387a13.62 13.62 0 0 0-.931-5.173 13.472 13.472 0 0 0-2.812-4.415 13.214 13.214 0 0 0-4.264-2.982 13.046 13.046 0 0 0-5.064-1.094Z"/><path fill="#495D4C" d="M249.745 191.437a8.295 8.295 0 0 0 1.297 4.578 8.119 8.119 0 0 0 3.582 3.074 7.963 7.963 0 0 0 4.66.534 8.024 8.024 0 0 0 4.166-2.185 8.238 8.238 0 0 0 2.27-4.168 8.329 8.329 0 0 0-.392-4.747 8.18 8.18 0 0 0-2.923-3.725 7.986 7.986 0 0 0-10.214.87 8.207 8.207 0 0 0-1.789 2.637 8.315 8.315 0 0 0-.657 3.132Zm32.657-13.543s-.033-.039-.094-.129l-.242-.403-.387-.662a7.976 7.976 0 0 0-.551-.885 27.117 27.117 0 0 0-4.26-5.044c-.485-.499-1.103-.936-1.655-1.43-.552-.493-1.241-.924-1.904-1.401a15.712 15.712 0 0 0-2.168-1.306c-.386-.201-.772-.42-1.17-.616l-1.241-.561a26.583 26.583 0 0 0-5.473-1.681 25.795 25.795 0 0 0-17.463 2.802l-1.18.679c-.381.229-.74.487-1.104.723-.745.465-1.385 1.02-2.041 1.507-.657.488-1.225 1.048-1.766 1.581-.541.532-1.07 1.037-1.512 1.586a27.282 27.282 0 0 0-3.768 5.431 9.693 9.693 0 0 0-.464.936c-.126.269-.237.498-.325.695-.088.196-.149.313-.204.42a1.56 1.56 0 0 1-.077.146.532.532 0 0 1 .049-.157l.177-.438.303-.706c.128-.324.276-.64.442-.947a26.353 26.353 0 0 1 3.718-5.52c.436-.561.982-1.054 1.507-1.609.524-.555 1.153-1.059 1.771-1.603a16.233 16.233 0 0 1 2.047-1.535c.364-.241.728-.499 1.103-.74l1.186-.684a26.689 26.689 0 0 1 11.454-3.363 26.486 26.486 0 0 1 11.714 2.242l1.247.561c.403.201.789.42 1.175.627.789.393 1.479.897 2.207 1.329.728.431 1.319.936 1.909 1.423.59.488 1.17.947 1.655 1.457a25.987 25.987 0 0 1 4.215 5.134c.201.29.385.592.552.902.14.262.261.486.364.673l.216.42a.571.571 0 0 1 .038.146Zm-92.355 3.539a.567.567 0 0 1-.072-.156l-.188-.454-.298-.751-.447-.998a30.42 30.42 0 0 0-3.569-5.958 23.58 23.58 0 0 0-7.692-6.658 22.522 22.522 0 0 0-5.683-1.922 28.626 28.626 0 0 0-6.416-.594 28.168 28.168 0 0 0-6.389.835 23.507 23.507 0 0 0-5.584 2.241 28 28 0 0 0-7.94 6.401 32.055 32.055 0 0 0-3.889 5.739 55.88 55.88 0 0 0-.861 1.681l-.221.438a.788.788 0 0 1-.082.151.782.782 0 0 1 .055-.163l.198-.454c.166-.403.442-.98.811-1.72a30.812 30.812 0 0 1 3.835-5.835 27.855 27.855 0 0 1 7.967-6.501 23.53 23.53 0 0 1 5.639-2.242 28.246 28.246 0 0 1 6.455-.852 28.64 28.64 0 0 1 6.483.606 22.745 22.745 0 0 1 5.744 1.961 23.58 23.58 0 0 1 7.724 6.771 29.628 29.628 0 0 1 3.531 6.024c.155.382.298.718.42 1.015.121.297.198.56.275.762.078.202.116.348.16.465.019.055.03.111.034.168Zm-50.959.17H55.345v9.948h83.743v-9.948Z"/><path fill="#89948F" d="M136.82 185.827c0 .49-.143.969-.411 1.376a2.448 2.448 0 0 1-1.094.912 2.396 2.396 0 0 1-1.409.141 2.426 2.426 0 0 1-1.249-.677 2.51 2.51 0 0 1-.528-2.7c.184-.453.497-.84.898-1.112a2.412 2.412 0 0 1 3.079.308 2.492 2.492 0 0 1 .714 1.752Z"/><path fill="#495D4C" d="M237.402 172.311c0 .084-11.785.151-26.318.151-14.532 0-26.318-.067-26.318-.151 0-.084 11.78-.146 26.318-.146 14.539 0 26.318.068 26.318.146Zm-10.719-2.116c-.086 0-.15-5.207-.15-11.624 0-6.417.064-11.63.15-11.63.087 0 .151 5.207.151 11.63 0 6.423-.07 11.624-.151 11.624Zm-87.595-7.075h-9.187v18.618h9.187V163.12Z"/><path fill="#8FE89A" d="M118.587 136.695h-57.48v45.039h57.48v-45.039Z"/><path fill="#495D4C" d="M104.187 181.398c-.05 0-.094-10.038-.094-22.419 0-12.38.044-22.418.094-22.418s.095 10.032.095 22.418c0 12.387-.045 22.419-.095 22.419Z"/><path fill="#F5F5F5" d="M113.715 171.481h-4.408v5.061h4.408v-5.061Z"/><path fill="#495D4C" d="M105.195 136.819h-6.528v9.612h6.528v-9.612Zm-20.027 35.175h-6.527v9.612h6.527v-9.612Z"/><path fill="#263238" d="M122.744 136.698a.382.382 0 0 1-.143 0h-2.086l-6.108.028H74.113l-6.102-.028h-2.085a.415.415 0 0 1-.15 0h2.237l6.102-.027h40.293l6.108.027h2.228Z"/><path fill="#E0E0E0" d="M60.243 136.695H2.763v45.039h57.48v-45.039Z"/><path fill="#263238" d="M43.9 181.398c-.056 0-.095-10.038-.095-22.419 0-12.38.039-22.418.094-22.418.056 0 .089 10.032.089 22.418 0 12.387-.039 22.419-.089 22.419Z"/><path fill="#F5F5F5" d="M53.427 171.481H49.02v5.061h4.408v-5.061Z"/><path fill="#fff" d="M24.88 136.819h-6.527v9.612h6.527v-9.612Zm0 35.175h-6.527v9.612h6.527v-9.612Z" opacity=".5"/><path fill="#263238" d="M56.967 136.698a.414.414 0 0 1-.149 0h-2.085l-6.103.028H8.336l-6.107-.028H.144a.384.384 0 0 1-.144 0h2.229l6.108-.027H48.63l6.102.027h2.235Z"/><path fill="#E8505B" d="M293.768 148.948c2.963.723 5.451 3.783 5.401 6.876a7.16 7.16 0 0 1-1.6 4.239 6.965 6.965 0 0 1-3.801 2.386"/><path fill="#fff" d="M293.768 148.948c2.963.723 5.451 3.783 5.401 6.876a7.16 7.16 0 0 1-1.6 4.239 6.965 6.965 0 0 1-3.801 2.386" opacity=".6"/><path fill="#498D51" d="M293.889 147.201h-2.532v17.044h2.532v-17.044Z"/><path fill="#495D4C" d="M317.94 249.809c0 .103-80.097.191-178.876.191-98.779 0-178.898-.088-178.898-.191 0-.103 80.08-.191 178.898-.191s178.876.081 178.876.191Z"/></g><defs><clipPath id="clip0_9035_252"><path fill="#fff" d="M0 0h300v250H0z"/></clipPath></defs></svg>