<svg xmlns="http://www.w3.org/2000/svg" fill="none" viewBox="0 0 301 251"><g clip-path="url(#clip0_9035_116)" opacity=".5"><path fill="#B4FFCD" d="M13.287 42.702a13.693 13.693 0 0 1 3.268-1.413l.613-3.082 5.513-.188.858 3.041a14.23 14.23 0 0 1 3.368 1.183l2.753-1.77 4.038 3.545-1.67 2.716c.639.962 1.14 2 1.49 3.086l3.266.585.2 5.204-3.222.802a12.222 12.222 0 0 1-1.253 3.186l1.877 2.593-3.736 3.835-2.904-1.614a13.69 13.69 0 0 1-3.269 1.413l-.619 3.082-5.507.188-.857-3.042a14.042 14.042 0 0 1-3.37-1.183l-2.713 1.784-4.038-3.546 1.67-2.717a12.59 12.59 0 0 1-1.497-3.085l-3.304-.573-.187-5.216 3.221-.803c.265-1.11.686-2.181 1.253-3.185l-1.883-2.593 3.756-3.817 2.885 1.584Zm3.078 6.88a5.461 5.461 0 0 0-1.506 2.91 5.298 5.298 0 0 0 .462 3.21 5.7 5.7 0 0 0 2.273 2.428c.996.58 2.15.867 3.32.827a6.142 6.142 0 0 0 3.245-1.053 5.628 5.628 0 0 0 2.078-2.578 5.28 5.28 0 0 0 .211-3.233 5.522 5.522 0 0 0-1.728-2.8 6.126 6.126 0 0 0-4.24-1.486c-1.567.054-3.047.692-4.115 1.775Zm249.443 103.632a13.951 13.951 0 0 1 3.269-1.407l.612-3.082 5.514-.188.857 3.042c1.174.25 2.307.648 3.369 1.183l2.753-1.777 4.038 3.545-1.677 2.723c.644.96 1.148 1.998 1.497 3.085l3.265.585.201 5.199-3.222.808a12.429 12.429 0 0 1-1.253 3.18l1.877 2.599-3.756 3.81-2.859-1.559a14.064 14.064 0 0 1-3.268 1.413l-.619 3.082-5.514.188-.851-3.041a13.846 13.846 0 0 1-3.369-1.183l-2.753 1.777-4.044-3.546 1.677-2.723a12.21 12.21 0 0 1-1.497-3.085l-3.265-.585-.207-5.198 3.221-.809a12.473 12.473 0 0 1 1.253-3.179l-1.877-2.599 3.756-3.811 2.879 1.578-.007-.025Zm3.078 6.88a5.467 5.467 0 0 0-1.51 2.913 5.303 5.303 0 0 0 .458 3.215 5.71 5.71 0 0 0 2.274 2.432c.996.581 2.152.87 3.322.83a6.144 6.144 0 0 0 3.251-1.052 5.637 5.637 0 0 0 2.083-2.579 5.292 5.292 0 0 0 .213-3.237 5.524 5.524 0 0 0-1.729-2.804c-1.149-1.009-2.675-1.546-4.243-1.493-1.568.053-3.049.691-4.119 1.775ZM20.643 14.887a6.32 6.32 0 0 1 1.536-.67l.283-1.442 2.561-.082.403 1.413a6.488 6.488 0 0 1 1.56.545l1.308-.824 1.878 1.65-.805 1.28c.3.448.533.932.697 1.439l1.521.267.094 2.417-1.496.38a5.84 5.84 0 0 1-.584 1.479l.873 1.235-1.747 1.742-1.305-.736a6.309 6.309 0 0 1-1.57.657l-.29 1.436-2.54.095-.396-1.413a6.551 6.551 0 0 1-1.567-.552l-1.308.825-1.872-1.644.792-1.275a5.86 5.86 0 0 1-.696-1.431l-1.522-.274-.094-2.417 1.503-.374a5.732 5.732 0 0 1 .578-1.479l-.867-1.204 1.766-1.772 1.306.73Zm1.431 3.203a2.537 2.537 0 0 0-.687 1.354 2.466 2.466 0 0 0 .223 1.487c.227.464.595.855 1.057 1.122.462.268.998.4 1.54.382a2.858 2.858 0 0 0 1.504-.487 2.62 2.62 0 0 0 .968-1.192c.19-.479.228-1 .106-1.498a2.566 2.566 0 0 0-.79-1.303 2.782 2.782 0 0 0-.918-.539 2.9 2.9 0 0 0-2.117.074c-.33.143-.626.347-.872.6h-.014Z"/><path fill="#EBEBEB" d="m37.049 232.1-6.818 2.616s2.33 5.405-3.58 7.787a6.268 6.268 0 0 1-3.596.399 6.058 6.058 0 0 1-3.175-1.643 6.16 6.16 0 0 1-1.57-2.499 5.885 5.885 0 0 1-.198-2.899c.382-2.244 2.21-4.855 7.136-5.858l-6.247-14.531-6.739 2.591 3.65 8.496s-8.462 5.942-4.213 15.778c4.06 9.409 13.94 8.156 17.77 6.688 2.922-1.105 12.604-5.627 7.58-16.925ZM10.89 215.094l6.842-2.629-2.602-6.03-6.842 2.629 2.602 6.03ZM275.424 70.867l6.299 2.477s2.23-4.991 7.766-2.898a5.501 5.501 0 0 1 2.634 1.982c.638.903.964 1.97.931 3.055a5.542 5.542 0 0 1-.72 2.617 5.91 5.91 0 0 1-1.901 2.022c-1.812 1.23-4.831 1.842-8.759-.576l-5.987 13.407 6.235 2.477 3.501-7.856s9.692 1.348 13.731-7.746c3.882-8.693-3.478-13.996-7.016-15.426-2.664-1.028-12.157-4.078-16.714 6.465Zm5.352 27.396-6.322-2.515-2.487 5.574 6.321 2.514 2.488-5.573Z"/><path fill="#E0E0E0" d="m262.071 8.674-7.716 20.452a3.324 3.324 0 0 0 .052 2.489 3.6 3.6 0 0 0 1.789 1.83 3.92 3.92 0 0 0 2.754.222 3.68 3.68 0 0 0 2.154-1.632l11.438-19.058a2.624 2.624 0 0 0 .218-2.257 2.747 2.747 0 0 0-.637-.992 2.929 2.929 0 0 0-1.012-.656l-5.177-2.02a3.068 3.068 0 0 0-2.299.03 2.909 2.909 0 0 0-.955.645 2.731 2.731 0 0 0-.609.947Zm-5.375 38.238a5.667 5.667 0 0 1-2.773 1.606 5.923 5.923 0 0 1-3.252-.12 5.603 5.603 0 0 1-2.634-1.804 5.12 5.12 0 0 1-1.128-2.88 5.054 5.054 0 0 1 .758-2.988 5.489 5.489 0 0 1 2.389-2.085 5.898 5.898 0 0 1 3.213-.482 5.759 5.759 0 0 1 2.956 1.285 5.332 5.332 0 0 1 1.323 1.645 5.026 5.026 0 0 1 .255 4.042 5.228 5.228 0 0 1-1.107 1.781Z"/><path fill="#E9E9E9" d="M263.11 106.917c4.818-7.695 6.575-16.76 4.955-25.568a11.31 11.31 0 0 0-.227-1.042c-.648-3.029-1.186-5.49-2.737-8.057-.156-.327-.312-.618-.481-.963-.17-.346-.339-.617-.515-.944-3.275-5.605-8.008-10.33-13.754-13.73-5.745-3.4-12.313-5.364-19.085-5.704-2.265-20.555-17.447-39.374-37.809-46.924-20.362-7.55-45.068-3.41-61.494 10.244-17.342-12.256-41.284-15.7-61.657-8.84-20.373 6.86-36.621 23.82-41.815 43.665-1.584 6.07-2.248 12.5-5.537 17.92-2.489 4.097-6.29 7.303-9.536 10.886C8.211 83.6 4.397 90.344 2.242 97.622a49.022 49.022 0 0 0-1.296 22.37c1.3 7.457 4.313 14.556 8.826 20.799 4.513 6.243 10.417 11.479 17.3 15.342-10.992 14.2-7.182 36.595 7.969 46.837 8.698 5.878 20.309 8.148 26.932 16.076 2.817 3.378 4.443 7.487 6.886 11.11 8.309 12.346 26.807 17.39 40.809 11.167l74.355-17.689c25.282 1.838 50.332-5.646 69.886-20.878 7.136-5.63 13.549-12.402 16.647-20.702 3.097-8.3 2.382-18.173-3.532-24.934 14.048-13.604 12.058-38.702-3.914-50.203Z"/><path fill="#fff" d="M44.558 182.723a12.577 12.577 0 0 1 .15-3.536l-2.747-2.01 2.401-4.934 3.396.681a13.964 13.964 0 0 1 2.757-2.409l-.45-3.248 5.4-1.881 1.89 2.749a14.986 14.986 0 0 1 3.743.141l2.128-2.599 5.214 2.267-.758 3.209a13.573 13.573 0 0 1 2.538 2.603l3.441-.426 1.984 5.107-2.913 1.786a12.75 12.75 0 0 1-.1 3.511l2.746 2.011-2.407 4.93-3.395-.681a13.547 13.547 0 0 1-2.755 2.403l.448 3.255-5.401 1.88-1.892-2.757a14.824 14.824 0 0 1-3.74-.133l-2.129 2.6-5.21-2.273.716-3.215a13.507 13.507 0 0 1-2.538-2.603l-3.435.429-1.984-5.107 2.91-1.795-.008.045Zm8.223.533a5.868 5.868 0 0 0 2.158 2.696 6.388 6.388 0 0 0 3.379 1.105 6.43 6.43 0 0 0 3.46-.856 5.956 5.956 0 0 0 2.377-2.531c.51-1.047.68-2.213.49-3.351a5.697 5.697 0 0 0-1.56-3.042 6.242 6.242 0 0 0-3.086-1.709 6.503 6.503 0 0 0-3.57.202 6.248 6.248 0 0 0-2.051 1.188 5.863 5.863 0 0 0-1.414 1.841 5.537 5.537 0 0 0-.183 4.457Z"/><path fill="#78C081" d="M190.422 52.684a7.921 7.921 0 0 1 1.843-.793l.343-1.744 3.11-.106.48 1.715c.66.139 1.297.362 1.893.663l1.55-.996 2.277 1.995-.943 1.528c.362.542.646 1.127.846 1.74l1.841.33.113 2.929-1.81.453a7.124 7.124 0 0 1-.709 1.793l1.056 1.463-2.113 2.148-1.619-.89a7.907 7.907 0 0 1-1.843.792l-.349 1.744-3.103.106-.481-1.715a7.867 7.867 0 0 1-1.9-.663l-1.55.997-2.276-1.996.943-1.533a7.042 7.042 0 0 1-.879-1.734l-1.848-.33-.106-2.93 1.817-.459a6.638 6.638 0 0 1 .708-1.787l-1.049-1.45 2.113-2.149 1.645.879Zm1.731 3.875a3.076 3.076 0 0 0-.847 1.64 2.985 2.985 0 0 0 .262 1.81 3.22 3.22 0 0 0 1.282 1.366 3.486 3.486 0 0 0 1.87.465 3.46 3.46 0 0 0 1.828-.594c.534-.365.942-.87 1.171-1.453.229-.583.27-1.217.118-1.822a3.108 3.108 0 0 0-.974-1.577 3.362 3.362 0 0 0-1.111-.651 3.507 3.507 0 0 0-2.562.09c-.399.173-.759.42-1.056.726h.019ZM84.128 214.907a8.759 8.759 0 0 1 .079-2.489l-1.923-1.394 1.68-3.452 2.383.452a9.755 9.755 0 0 1 1.927-1.679l-.314-2.276 3.765-1.316 1.317 1.92a10.331 10.331 0 0 1 2.617.1l1.478-1.825 3.646 1.591-.48 2.255a9.477 9.477 0 0 1 1.776 1.815l2.401-.302 1.394 3.563-2.034 1.254c.072.832.028 1.67-.132 2.491l1.92 1.399-1.676 3.447-2.384-.452a9.783 9.783 0 0 1-1.92 1.682l.319 2.251-3.771 1.313-1.317-1.92a10.11 10.11 0 0 1-2.577-.108l-1.477 1.825-3.646-1.59.48-2.256a9.452 9.452 0 0 1-1.776-1.815l-2.387.302-1.393-3.563 2.04-1.25-.015.027Zm5.74.374c.296.755.822 1.41 1.51 1.883a4.47 4.47 0 0 0 2.363.772 4.504 4.504 0 0 0 2.42-.6 4.165 4.165 0 0 0 1.66-1.77 3.875 3.875 0 0 0 .341-2.342 3.984 3.984 0 0 0-1.091-2.127 4.359 4.359 0 0 0-2.157-1.194 4.549 4.549 0 0 0-2.496.141c-1.071.377-1.94 1.139-2.419 2.121a3.878 3.878 0 0 0-.13 3.116Z"/><path fill="#fff" d="M196.085 188.714a10.109 10.109 0 0 1 2.386-1.026l.448-2.256 4.017-.135.65 2.215c.855.182 1.681.472 2.455.861l2.007-1.291 2.942 2.582-1.218 1.983a9.18 9.18 0 0 1 1.041 2.246l2.384.43.15 3.786-2.346.612a9.038 9.038 0 0 1-.912 2.317l1.369 1.896-2.735 2.776-2.102-1.151a10.07 10.07 0 0 1-2.36.977l-.448 2.256-4.017.135-.65-2.215a10.155 10.155 0 0 1-2.455-.861l-2.001 1.292-2.948-2.583 1.225-1.983a9.02 9.02 0 0 1-1.094-2.246l-2.384-.423-.15-3.793 2.353-.612a8.799 8.799 0 0 1 .912-2.317l-1.369-1.895 2.735-2.777 2.095 1.151.02.049Zm2.245 5.011a3.977 3.977 0 0 0-1.099 2.122 3.86 3.86 0 0 0 .335 2.341 4.155 4.155 0 0 0 1.656 1.771 4.509 4.509 0 0 0 2.42.604 4.468 4.468 0 0 0 2.367-.766 4.099 4.099 0 0 0 1.518-1.878 3.854 3.854 0 0 0 .156-2.358 4.023 4.023 0 0 0-1.258-2.042 4.346 4.346 0 0 0-1.432-.835 4.54 4.54 0 0 0-3.299.111 4.302 4.302 0 0 0-1.364.93ZM57.848 110.767a7.967 7.967 0 0 0-2.11-2.918 8.567 8.567 0 0 0-3.239-1.771c-2.076-.565-4.526-.347-6.144-1.7-.77-.618-1.225-1.556-1.903-2.284-1.302-1.249-3.034-2.017-4.883-2.167-6.1-.787-11.705 3.144-13.934 7.752-2.498 1.556-5.041 3.143-6.926 5.335-1.885 2.191-3.053 5.118-2.365 7.863.513 2.017 1.953 3.74 2.48 5.751.473 1.85.15 3.774.303 5.661.154 1.887 1 3.96 2.867 4.653 2.298.849 5.155-.743 7.283.45 1.442.811 1.903 2.581 3.083 3.705 2.042 1.958 5.492 1.464 8.25.569a45.873 45.873 0 0 0 9.106-4.085 17.868 17.868 0 0 0 5.004-4.024 7.685 7.685 0 0 0 1.503-2.748 7.399 7.399 0 0 0 .258-3.082c-.22-1.234-.859-2.431-.935-3.701-.146-2.233 1.418-4.197 2.258-6.286a9.156 9.156 0 0 0 .044-6.973Z"/><path fill="#F5F5F5" d="m53.248 134.966-5.97 3.868-.007.007 6.098 2.051-.12-5.926Z"/><path fill="#495E4C" d="M33.831 120.962c0 .458-.146.906-.416 1.287-.27.381-.655.678-1.104.852-.449.175-.943.22-1.42.13a2.502 2.502 0 0 1-1.256-.637 2.281 2.281 0 0 1-.67-1.188 2.197 2.197 0 0 1 .142-1.339c.187-.423.502-.785.907-1.039a2.57 2.57 0 0 1 3.1.293c.46.436.718 1.026.717 1.641Zm7.636.013c0 .46-.143.909-.414 1.292-.27.383-.655.681-1.105.857-.45.176-.946.222-1.424.133a2.517 2.517 0 0 1-1.261-.637 2.29 2.29 0 0 1-.674-1.192 2.202 2.202 0 0 1 .141-1.343c.187-.425.503-.788.909-1.043a2.567 2.567 0 0 1 1.37-.39 2.536 2.536 0 0 1 1.737.682 2.26 2.26 0 0 1 .721 1.641Zm7.63.012c0 .459-.145.907-.416 1.288-.27.38-.654.677-1.104.852a2.6 2.6 0 0 1-1.419.129 2.508 2.508 0 0 1-1.257-.636 2.284 2.284 0 0 1-.67-1.189 2.198 2.198 0 0 1 .142-1.339c.187-.423.502-.785.907-1.039a2.56 2.56 0 0 1 1.365-.388 2.53 2.53 0 0 1 1.735.682c.46.435.718 1.025.717 1.64Z"/><path fill="#fff" d="M244.903 71.932c-.554-.846-1.736-1.051-2.787-1.14a48.303 48.303 0 0 0-11.4.358c-1.307.195-3.227.08-3.356-1.19.02-.375.164-.735.414-1.028.249-.293.59-.504.974-.603 1.307-.467 2.724-.242 4.103-.271 1.378-.029 2.94-.458 3.497-1.647.846-1.805-1.339-3.701-3.41-3.97-2.07-.269-4.246.246-6.237-.343l-4.358.079c-3.221.046-6.422.48-9.526 1.291-.869.227-1.896.663-1.962 1.507-.067.845.84 1.401 1.257 2.136.84 1.481-.535 3.335-2.202 3.911-1.666.577-3.515.346-5.285.466-1.771.12-3.745.827-4.335 2.41-.466 1.233.087 2.67-.32 3.934-.519 1.608-2.402 2.462-4.153 2.743-1.751.28-3.606.24-5.227.94a5.634 5.634 0 0 0-2.747 2.478 5.167 5.167 0 0 0-.515 3.552 5.393 5.393 0 0 0 1.94 3.084 5.964 5.964 0 0 0 3.551 1.273c1.255.002 2.49-.322 3.738-.382a4.481 4.481 0 0 1 2.612.621 6.01 6.01 0 0 0 1.354 3.478 6.6 6.6 0 0 0 3.209 2.134c1.73.441 3.586.167 5.336.521 1.75.355 3.557 1.763 3.221 3.421-.243 1.19-1.493 2.057-1.592 3.259-.127 1.474 1.563 2.55 3.124 2.688 1.561.138 3.117-.316 4.678-.227s3.303 1.029 3.34 2.503c.036 1.646-2.017 2.802-2.052 4.442-.035 1.375 1.355 2.395 2.713 2.89 1.358.496 2.886.757 3.955 1.69 1.07.933 1.243 2.925-.09 3.478 2.156-.065 3.421-3.016 1.967-4.48-.926-.908-2.48-1.157-3.191-2.225-.795-1.185-.1-2.824 1.052-3.697 1.151-.874 2.615-1.272 3.987-1.844 1.373-.571 2.714-1.481 3.069-2.843.526-2.04-1.542-3.98-3.716-4.44-2.175-.459-4.429.055-6.65.174-2.222.12-4.749-.31-6-2.051l7.269-3.25c.349-.105.672-.276.95-.503.277-.226.504-.502.666-.813.407-1.177-1.016-2.141-2.21-2.655l-4.726-2.036a2.467 2.467 0 0 0-.188-.796c2.876-1.105 6.122-.674 9.198-.275 3.076.4 6.361.714 9.146-.6 2.785-1.316 4.581-4.877 2.789-7.278-.959-1.29-2.819-2.181-2.862-3.766.002-1.307 1.31-2.291 2.618-2.709 1.307-.417 2.757-.5 3.973-1.127 1.216-.627 2.127-2.186 1.397-3.272Z"/><path fill="#495E4C" d="M210.389 81.573c1.299.002 2.353-.99 2.356-2.216.002-1.226-1.05-2.221-2.348-2.223-1.299-.002-2.354.99-2.356 2.216-.002 1.225 1.049 2.22 2.348 2.223Zm9.652-2.203a2.133 2.133 0 0 1-.398 1.232 2.328 2.328 0 0 1-1.057.816c-.43.167-.903.21-1.359.124a2.396 2.396 0 0 1-1.203-.61 2.187 2.187 0 0 1-.642-1.137 2.11 2.11 0 0 1 .136-1.282c.179-.406.481-.752.868-.995a2.451 2.451 0 0 1 1.307-.372 2.424 2.424 0 0 1 1.662.653c.44.417.687.982.686 1.57Zm4.948 2.227c1.299.003 2.353-.99 2.355-2.215.002-1.226-1.049-2.222-2.348-2.224-1.298-.002-2.353.99-2.355 2.216-.002 1.226 1.049 2.221 2.348 2.223Z"/><path fill="#fff" d="M60.469 27.97a13.98 13.98 0 0 0-7.41 2.058c-2.202 1.358-3.932 3.298-4.974 5.578a11.995 11.995 0 0 0-.884 7.242c.465 2.444 1.682 4.705 3.499 6.501-6.43 1.284-10.532 8.387-8.85 14.37 1.682 5.984 8.476 10.083 15.009 9.669 6.533-.415 12.42-4.912 14.84-10.698.89 2.407 2.53 4.504 4.706 6.015a13.9 13.9 0 0 0 7.484 2.45 13.98 13.98 0 0 0 7.64-1.976c2.276-1.371 4.06-3.361 5.115-5.708 2.886 5.092 11.128 5.95 15.857 2.296 4.729-3.655 5.819-10.472 3.567-15.822-2.251-5.35-7.281-9.34-12.81-11.78 3.539-3.002 3.993-8.514 1.478-12.329-2.515-3.814-7.47-5.87-12.246-5.643-4.775.226-9.234 2.494-12.597 5.664-.749-1.935-2.16-3.578-4.011-4.67a10.268 10.268 0 0 0-6.204-1.357c-2.17.212-4.204 1.102-5.777 2.529-1.574 1.427-2.598 3.308-2.91 5.347"/><path fill="#495E4C" d="M67.708 38.994 73.83 49.21c.241.404.63.71 1.095.861.465.15.972.136 1.425-.043.477-.186.86-.538 1.07-.983a1.8 1.8 0 0 0 .058-1.407L73.277 36.5a1.487 1.487 0 0 0-.35-.533 1.595 1.595 0 0 0-.551-.35 1.672 1.672 0 0 0-1.299.047l-2.7 1.284c-.189.09-.357.215-.494.368-.136.152-.24.33-.302.52a1.407 1.407 0 0 0 .127 1.158Zm14.645 15.612a2.72 2.72 0 0 1-.29 1.637 2.936 2.936 0 0 1-1.207 1.209 3.177 3.177 0 0 1-3.358-.215 2.872 2.872 0 0 1-1.023-1.352 2.708 2.708 0 0 1-.054-1.659c.155-.546.48-1.036.93-1.409a3.116 3.116 0 0 1 1.603-.683 3.206 3.206 0 0 1 1.182.074c.384.098.745.267 1.06.497.317.23.581.515.78.842.198.326.326.686.377 1.059Z"/><path fill="#E0E0E0" d="m87.57 32.954.185 10.13c.007.4.169.784.455 1.078.286.295.676.48 1.097.522.443.046.886-.072 1.24-.327a1.62 1.62 0 0 0 .657-1.045l1.69-10.096c.03-.18.018-.365-.033-.541a1.265 1.265 0 0 0-.265-.48 1.356 1.356 0 0 0-.45-.336 1.43 1.43 0 0 0-.557-.132l-2.613-.078a1.438 1.438 0 0 0-.539.088 1.376 1.376 0 0 0-.46.281 1.286 1.286 0 0 0-.305.428c-.07.161-.105.334-.102.508Zm4.295 17.536c-.186.456-.51.848-.932 1.13-.423.28-.924.437-1.44.449a2.731 2.731 0 0 1-1.462-.38 2.515 2.515 0 0 1-.992-1.084 2.341 2.341 0 0 1-.188-1.42c.088-.48.324-.925.68-1.28a2.65 2.65 0 0 1 1.318-.707 2.76 2.76 0 0 1 1.512.102c.321.116.614.291.864.514.25.224.45.49.589.787a2.344 2.344 0 0 1 .05 1.89Z"/><path fill="#fff" d="m216.378 142.759-5.583 14.788a2.423 2.423 0 0 0 .041 1.805 2.62 2.62 0 0 0 1.293 1.33 2.84 2.84 0 0 0 1.994.158 2.67 2.67 0 0 0 1.561-1.182l8.28-13.798a1.905 1.905 0 0 0 .159-1.635 1.975 1.975 0 0 0-.46-.72 2.13 2.13 0 0 0-.733-.476l-3.747-1.462a2.245 2.245 0 0 0-1.673.028 2.127 2.127 0 0 0-.692.472c-.195.2-.344.436-.44.692Zm-3.887 27.678a4.1 4.1 0 0 1-2.008 1.163 4.293 4.293 0 0 1-2.354-.087 4.053 4.053 0 0 1-1.906-1.307 3.704 3.704 0 0 1-.816-2.087 3.662 3.662 0 0 1 .551-2.162 3.976 3.976 0 0 1 1.73-1.508 4.276 4.276 0 0 1 2.327-.347 4.174 4.174 0 0 1 2.139.933c.398.334.723.738.956 1.19.232.453.368.944.399 1.445a3.605 3.605 0 0 1-.217 1.479 3.782 3.782 0 0 1-.801 1.288ZM126.677 33.956l5.292.009s.007-4.606 4.626-4.678a4.49 4.49 0 0 1 2.566.775 4.092 4.092 0 0 1 1.577 2.062 5.07 5.07 0 0 1 .325 2.258 5.117 5.117 0 0 1-.705 2.18c-.904 1.534-2.872 2.924-6.438 2.271l-.02 12.363 5.225.008.013-7.245s7.345-1.948 7.359-10.334c.014-8.015-6.927-9.877-9.9-9.881-2.26-.023-10.001.513-9.92 10.212ZM139.2 53.75l-5.318-.008-.008 5.142 5.317.01.009-5.143Z"/><path fill="#F5F5F5" d="M260.371 122.943s.072-.068.223-.185a2.39 2.39 0 0 1 .797-.374 2.981 2.981 0 0 1 1.451.002 2.97 2.97 0 0 1 1.683 1.014c.526.653.822 1.445.846 2.264a5.412 5.412 0 0 1-.73 2.823 17.591 17.591 0 0 1-5.183 5.356 43.243 43.243 0 0 1-3.832 2.398c-1.379.781-2.844 1.58-4.426 2.329a32.175 32.175 0 0 1-5.131 1.946 20.42 20.42 0 0 1-2.869.612 16.64 16.64 0 0 1-3.051.149 5.804 5.804 0 0 1-3.056-.745 2.093 2.093 0 0 1-.919-1.284 2.5 2.5 0 0 1 .205-1.566 8.062 8.062 0 0 1 2.069-2.518 24.207 24.207 0 0 1 2.688-2.067c1.916-1.28 3.963-2.46 6.068-3.69a32.4 32.4 0 0 1 6.878-3.071 18.016 18.016 0 0 1 3.881-.715 11.31 11.31 0 0 1 4.03.364c1.372.346 2.557 1.164 3.321 2.293a4.064 4.064 0 0 1 .072 3.928 6.96 6.96 0 0 1-2.951 2.955 18.003 18.003 0 0 1-4.059 1.615 28.689 28.689 0 0 1-8.958.799 70.532 70.532 0 0 1-9.221-1.249 43.366 43.366 0 0 1-4.643-1.08 20.465 20.465 0 0 1-2.259-.83 5.697 5.697 0 0 1-2.042-1.317 2.11 2.11 0 0 1-.547-1.099 1.966 1.966 0 0 1 .217-1.232 4.293 4.293 0 0 1 1.8-1.662 12.104 12.104 0 0 1 4.816-1.293 62.309 62.309 0 0 1 10.177.017 47.14 47.14 0 0 1 5.134.736c.855.168 1.704.373 2.546.621a7.253 7.253 0 0 1 2.448 1.009c.387.256.693.607.886 1.014.193.408.264.857.208 1.3-.128.423-.35.816-.65 1.154-.3.337-.672.611-1.091.804a14.72 14.72 0 0 1-5.124 1.588 15.4 15.4 0 0 1-2.724.076 10.158 10.158 0 0 1-2.704-.48 4.111 4.111 0 0 1-2.212-1.6 2.641 2.641 0 0 1-.35-1.314 2.64 2.64 0 0 1 .355-1.313 4.774 4.774 0 0 1 2.005-1.872 5.14 5.14 0 0 1 2.767-.518 3.883 3.883 0 0 1 2.54 1.194c.632.716.94 1.638.858 2.566a2.786 2.786 0 0 1-.48 1.313c-.28.387-.66.701-1.105.911a4.446 4.446 0 0 1-2.862.266 3.379 3.379 0 0 1-1.364-.55 3.153 3.153 0 0 1-.965-1.063 1.42 1.42 0 0 1 .153-1.424 2.144 2.144 0 0 1 1.268-.781 6.222 6.222 0 0 1 2.887.331 9.508 9.508 0 0 1 2.644 1.133 4.764 4.764 0 0 1 1.838 2.155 3.114 3.114 0 0 1-.161 2.768 5.165 5.165 0 0 1-2.126 1.914 7.616 7.616 0 0 1-2.817.853 8.786 8.786 0 0 1-5.668-1.329c-1.644-1.089-2.913-2.609-3.651-4.372a7.72 7.72 0 0 1-.383-5.55 4.646 4.646 0 0 1 1.761-2.315 7.77 7.77 0 0 1 2.752-1.124 22.653 22.653 0 0 1 5.88-.428c1.961.03 3.915.24 5.833.627 1.954.392 3.692 1.437 4.894 2.943.568.775.903 1.681.969 2.622a6.3 6.3 0 0 1-.462 2.73c-.747 1.702-2.008 3.158-3.626 4.187a21.145 21.145 0 0 1-2.432 1.427c-.831.435-1.689.823-2.569 1.161-1.762.72-3.706.946-5.6.65-3.675-.814-6.938-2.804-9.234-5.632a9.534 9.534 0 0 1-1.873-4.875 11.278 11.278 0 0 1 .734-5.091 12.083 12.083 0 0 1 2.842-4.312 14.72 14.72 0 0 1 4.323-2.94 16.36 16.36 0 0 1 5.084-1.305c1.764-.149 3.541.02 5.238.496 1.69.439 3.187 1.374 4.275 2.671a8.312 8.312 0 0 1 1.579 4.541 19.243 19.243 0 0 1-1.726 9.178 18.399 18.399 0 0 1-2.431 3.979 11.654 11.654 0 0 1-3.591 2.997 8.907 8.907 0 0 1-4.574.997 7.531 7.531 0 0 1-4.25-1.709 24.904 24.904 0 0 1-3.124-3.131 14.058 14.058 0 0 1-2.515-3.519 5.914 5.914 0 0 1-.493-2.054 5.67 5.67 0 0 1 .317-2.071 10.75 10.75 0 0 1 2.187-3.511c1.774-2.075 4.194-3.57 6.919-4.274a10.694 10.694 0 0 1 3.997-.235c1.336.174 2.621.598 3.781 1.247 2.154 1.343 3.781 3.317 4.629 5.619a13.256 13.256 0 0 1 .87 6.71c-.252 2.172-1.303 4.193-2.968 5.711a12.274 12.274 0 0 1-5.766 2.567c-1.96.394-3.977.472-5.965.231a9.304 9.304 0 0 1-4.961-2.216 9.547 9.547 0 0 1-2.684-4.025 9.342 9.342 0 0 1-.431-4.316c.335-2.434 1.425-4.719 3.134-6.568a16.042 16.042 0 0 1 4.395-3.341 19.826 19.826 0 0 1 3.171-1.332c.745-.24 1.137-.331 1.137-.331l-.288.092-.836.27a20.9 20.9 0 0 0-3.151 1.357 16.095 16.095 0 0 0-4.35 3.347c-1.687 1.84-2.759 4.11-3.081 6.524a9.231 9.231 0 0 0 .437 4.249 9.453 9.453 0 0 0 2.665 3.963 9.137 9.137 0 0 0 4.876 2.16c1.961.232 3.948.149 5.88-.243a12.139 12.139 0 0 0 5.661-2.524c1.625-1.495 2.647-3.477 2.89-5.606a13.077 13.077 0 0 0-.857-6.636c-.839-2.256-2.443-4.188-4.564-5.496a10.189 10.189 0 0 0-3.668-1.203 10.34 10.34 0 0 0-3.875.235c-2.671.691-5.042 2.161-6.775 4.2a10.407 10.407 0 0 0-2.135 3.431 5.493 5.493 0 0 0-.304 1.979c.042.676.205 1.341.48 1.967a13.692 13.692 0 0 0 2.418 3.47 24.977 24.977 0 0 0 3.091 3.088 7.28 7.28 0 0 0 4.093 1.653 8.673 8.673 0 0 0 4.431-.973 11.489 11.489 0 0 0 3.499-2.929 17.992 17.992 0 0 0 2.391-3.918 18.962 18.962 0 0 0 1.694-9.042 8.054 8.054 0 0 0-1.521-4.393 7.93 7.93 0 0 0-4.118-2.559 14.22 14.22 0 0 0-5.055-.49 15.878 15.878 0 0 0-4.98 1.274c-3.231 1.401-5.745 3.95-6.995 7.092a10.957 10.957 0 0 0-.713 4.931 9.207 9.207 0 0 0 1.814 4.769c2.243 2.766 5.433 4.71 9.025 5.503 1.83.298 3.712.087 5.417-.607a24.484 24.484 0 0 0 2.53-1.143c.83-.416 1.629-.884 2.393-1.402a9.223 9.223 0 0 0 3.514-4.045 6.02 6.02 0 0 0 .436-2.595 4.663 4.663 0 0 0-.911-2.468c-1.154-1.443-2.823-2.442-4.698-2.813a31.276 31.276 0 0 0-5.761-.626 22.305 22.305 0 0 0-5.801.415 7.499 7.499 0 0 0-2.615 1.075 4.338 4.338 0 0 0-1.643 2.155 7.484 7.484 0 0 0 .376 5.353 9.504 9.504 0 0 0 3.527 4.229 8.435 8.435 0 0 0 5.44 1.243 7.237 7.237 0 0 0 2.686-.81 4.853 4.853 0 0 0 1.963-1.815 2.86 2.86 0 0 0 .368-1.236 2.83 2.83 0 0 0-.22-1.267 4.46 4.46 0 0 0-1.715-2.007 9.293 9.293 0 0 0-2.553-1.09 6.01 6.01 0 0 0-2.71-.325c-.429.088-.81.32-1.072.652a1.109 1.109 0 0 0-.113 1.128c.211.371.509.691.871.938.361.246.777.411 1.217.484a4.133 4.133 0 0 0 2.613-.236c.397-.186.736-.465.982-.812.247-.347.394-.749.426-1.165a2.955 2.955 0 0 0-.136-1.241 3.084 3.084 0 0 0-.641-1.09 3.283 3.283 0 0 0-1.043-.766 3.466 3.466 0 0 0-1.277-.318 4.8 4.8 0 0 0-2.574.478 4.46 4.46 0 0 0-1.872 1.734 2.353 2.353 0 0 0-.004 2.337 3.76 3.76 0 0 0 2.036 1.465c.843.269 1.722.426 2.612.467.889.049 1.781.022 2.665-.082a14.355 14.355 0 0 0 5-1.54c.38-.171.717-.416.99-.718s.475-.655.594-1.036a2.047 2.047 0 0 0-.189-1.136 2.195 2.195 0 0 0-.781-.882 6.995 6.995 0 0 0-2.337-.96 73.28 73.28 0 0 0-2.527-.621 46.63 46.63 0 0 0-5.094-.736 61.603 61.603 0 0 0-10.119-.053c-1.64.081-3.241.499-4.692 1.225a3.996 3.996 0 0 0-1.681 1.545c-.175.32-.242.684-.191 1.041.051.357.217.691.475.957a5.469 5.469 0 0 0 1.957 1.236c.723.318 1.467.591 2.227.818 1.513.442 3.052.801 4.61 1.074a70.073 70.073 0 0 0 9.162 1.341 28.043 28.043 0 0 0 8.866-.787 17.22 17.22 0 0 0 3.988-1.577 6.71 6.71 0 0 0 2.852-2.838 3.845 3.845 0 0 0 .45-1.856 3.853 3.853 0 0 0-.502-1.844c-.728-1.08-1.86-1.861-3.171-2.188a10.925 10.925 0 0 0-3.919-.358 18.1 18.1 0 0 0-3.836.697 32.625 32.625 0 0 0-6.825 3.034c-2.099 1.23-4.152 2.404-6.061 3.69a24.553 24.553 0 0 0-2.669 2.042 7.877 7.877 0 0 0-2.023 2.463 2.292 2.292 0 0 0-.198 1.449c.114.478.414.899.841 1.179.887.502 1.91.75 2.945.714a16.289 16.289 0 0 0 3.018-.143c.962-.135 1.913-.34 2.842-.612a32.216 32.216 0 0 0 5.112-1.927c1.575-.738 3.04-1.531 4.426-2.305a44.033 44.033 0 0 0 3.826-2.386 17.447 17.447 0 0 0 5.169-5.294 5.3 5.3 0 0 0 .736-2.78 3.714 3.714 0 0 0-.813-2.227 2.953 2.953 0 0 0-1.644-1.008 2.998 2.998 0 0 0-1.431-.002 2.564 2.564 0 0 0-1.046.51Z"/><path fill="#495E4C" d="M191.499 17.799a3.846 3.846 0 0 1 1.628-.916 4.838 4.838 0 0 1 2.326.004 4.764 4.764 0 0 1 2.682 1.626 6.013 6.013 0 0 1 1.346 3.615 8.674 8.674 0 0 1-1.177 4.506c-1.677 3.006-4.582 5.917-8.291 8.556a68.825 68.825 0 0 1-6.14 3.844c-2.216 1.23-4.577 2.526-7.094 3.724a52.11 52.11 0 0 1-8.216 3.15 32.147 32.147 0 0 1-4.574.948 27.11 27.11 0 0 1-4.874.245 9.305 9.305 0 0 1-4.878-1.217 3.37 3.37 0 0 1-1.447-2.031 3.862 3.862 0 0 1 .331-2.466 12.685 12.685 0 0 1 3.273-4.014 39.211 39.211 0 0 1 4.297-3.304c1.531-1.034 3.126-2.005 4.754-2.977 1.629-.971 3.27-1.961 4.97-2.926a52.07 52.07 0 0 1 11.002-4.915 29.98 29.98 0 0 1 6.208-1.136 18.08 18.08 0 0 1 6.433.584 11.4 11.4 0 0 1 2.983 1.343 7.063 7.063 0 0 1 2.289 2.297c.544.955.837 2.019.856 3.102a6.47 6.47 0 0 1-.748 3.126c-1.026 1.98-2.664 3.62-4.699 4.703a28.542 28.542 0 0 1-6.477 2.566 45.433 45.433 0 0 1-14.328 1.278 112.601 112.601 0 0 1-14.76-2.047 71.687 71.687 0 0 1-7.424-1.727 32.788 32.788 0 0 1-3.598-1.332 9.255 9.255 0 0 1-3.262-2.095 3.306 3.306 0 0 1-.814-1.71 3.004 3.004 0 0 1 .349-1.88 6.853 6.853 0 0 1 2.84-2.628 19.208 19.208 0 0 1 7.679-2.046 99.86 99.86 0 0 1 16.292.07c2.758.243 5.499.639 8.209 1.185 1.365.268 2.723.622 4.074.95 1.403.294 2.732.838 3.917 1.604.58.419 1.05.958 1.376 1.575a3.08 3.08 0 0 1 .336 2.041 3.598 3.598 0 0 1-1.028 1.817 7.491 7.491 0 0 1-1.714 1.261 23.497 23.497 0 0 1-8.163 2.527c-1.443.17-2.9.212-4.351.128a16.007 16.007 0 0 1-4.349-.771c-1.44-.43-2.676-1.322-3.491-2.522a3.802 3.802 0 0 1-.545-2.066c.031-.717.226-1.42.572-2.059a7.536 7.536 0 0 1 3.172-2.954 8.131 8.131 0 0 1 4.372-.813 5.996 5.996 0 0 1 2.208.557 5.69 5.69 0 0 1 1.801 1.327c.5.552.876 1.194 1.107 1.887.231.693.312 1.422.237 2.145a4.078 4.078 0 0 1-.748 2.058 4.411 4.411 0 0 1-1.733 1.434 7.032 7.032 0 0 1-4.521.412 5.315 5.315 0 0 1-2.137-.862 4.95 4.95 0 0 1-1.517-1.66 2.164 2.164 0 0 1 .232-2.195 3.342 3.342 0 0 1 1.962-1.23 5.94 5.94 0 0 1 2.332.004c.764.131 1.502.323 2.24.522 1.496.386 2.918.996 4.21 1.807a7.492 7.492 0 0 1 2.914 3.409c.283.7.413 1.447.382 2.195a4.95 4.95 0 0 1-.657 2.157 8.12 8.12 0 0 1-3.349 3.078c-.683.37-1.406.669-2.158.89a12.24 12.24 0 0 1-2.313.459c-3.174.336-6.371-.413-9.011-2.112-2.618-1.733-4.639-4.155-5.809-6.964a14.137 14.137 0 0 1-1.129-4.374 10.394 10.394 0 0 1 .517-4.488 7.424 7.424 0 0 1 2.782-3.695 12.66 12.66 0 0 1 4.38-1.787 36.12 36.12 0 0 1 9.421-.674c3.129.153 6.27.275 9.326 1.002 3.056.726 5.967 2.217 7.779 4.674a7.965 7.965 0 0 1 1.548 4.17 9.85 9.85 0 0 1-.726 4.316c-1.095 2.772-3.313 4.982-5.779 6.667a34.477 34.477 0 0 1-3.884 2.282 39.151 39.151 0 0 1-4.105 1.843 20.587 20.587 0 0 1-4.386 1.133 14.85 14.85 0 0 1-4.526-.1 24.214 24.214 0 0 1-8.232-3.245 22.871 22.871 0 0 1-6.523-5.677 15.172 15.172 0 0 1-2.979-7.762c-.34-4.146.738-8.285 3.077-11.808.36-.586.818-1.115 1.224-1.675s.91-1.053 1.414-1.533a23.58 23.58 0 0 1 6.899-4.687 25.754 25.754 0 0 1 8.117-2.083c2.783-.224 5.586.05 8.262.81 2.691.693 5.076 2.181 6.806 4.246a13.328 13.328 0 0 1 2.51 7.237 30.848 30.848 0 0 1-2.762 14.664 29.166 29.166 0 0 1-3.884 6.35 18.553 18.553 0 0 1-5.724 4.782 14.275 14.275 0 0 1-7.306 1.597 11.434 11.434 0 0 1-3.637-.85 13.602 13.602 0 0 1-3.126-1.856 40.31 40.31 0 0 1-5.002-5.002 22.326 22.326 0 0 1-3.91-5.643 9.673 9.673 0 0 1-.785-3.269 9.003 9.003 0 0 1 .509-3.285 17.017 17.017 0 0 1 3.484-5.6c2.831-3.313 6.695-5.7 11.045-6.825 2.077-.53 4.246-.66 6.377-.382a16.71 16.71 0 0 1 6.032 1.994 16.39 16.39 0 0 1 4.526 3.96 20.117 20.117 0 0 1 2.86 4.998 21.083 21.083 0 0 1 1.373 10.768 16.202 16.202 0 0 1-1.55 5.023 13.718 13.718 0 0 1-3.181 4.101c-2.617 2.283-5.977 3.468-9.198 4.097-3.135.629-6.36.753-9.538.367a16.052 16.052 0 0 1-4.336-1.24 14.025 14.025 0 0 1-3.589-2.306c-1.983-1.773-3.464-3.986-4.307-6.439a14.952 14.952 0 0 1-.694-6.888 18.16 18.16 0 0 1 1.852-5.953 20.942 20.942 0 0 1 3.15-4.582 25.867 25.867 0 0 1 7.025-5.347 31.54 31.54 0 0 1 5.079-2.15c1.183-.386 1.81-.533 1.81-.533l-.451.141c-.307.086-.758.227-1.346.424a32.499 32.499 0 0 0-5.06 2.174 25.829 25.829 0 0 0-6.979 5.353 20.658 20.658 0 0 0-3.13 4.55 18.075 18.075 0 0 0-1.826 5.917 14.84 14.84 0 0 0 .701 6.827 15.162 15.162 0 0 0 4.281 6.37c2.169 1.894 4.905 3.11 7.833 3.478 3.158.38 6.361.25 9.473-.385 3.202-.61 6.535-1.838 9.1-4.06a13.697 13.697 0 0 0 3.129-4.04 16.105 16.105 0 0 0 1.524-4.973 20.985 20.985 0 0 0-1.367-10.663 20.292 20.292 0 0 0-2.84-4.937 16.202 16.202 0 0 0-4.462-3.898c-3.504-2.09-8.044-2.567-12.219-1.575-4.297 1.118-8.111 3.485-10.901 6.765a16.79 16.79 0 0 0-3.432 5.543 8.599 8.599 0 0 0-.489 3.2 9.22 9.22 0 0 0 .765 3.182c1 2.027 2.318 3.9 3.911 5.556a39.327 39.327 0 0 0 4.962 4.94c1.84 1.54 4.158 2.474 6.607 2.663a13.926 13.926 0 0 0 7.142-1.566 18.306 18.306 0 0 0 5.639-4.708 29.41 29.41 0 0 0 3.839-6.295 30.617 30.617 0 0 0 2.728-14.528 13.052 13.052 0 0 0-2.457-7.089c-1.691-2.011-4.019-3.46-6.643-4.136a23.161 23.161 0 0 0-8.204-.772 25.42 25.42 0 0 0-8.005 2.052 23.392 23.392 0 0 0-6.802 4.626c-.497.474-.929 1.003-1.394 1.508-.464.505-.851 1.071-1.204 1.65-2.287 3.467-3.34 7.534-3.005 11.606a14.89 14.89 0 0 0 2.92 7.613 22.656 22.656 0 0 0 6.419 5.597 23.916 23.916 0 0 0 8.108 3.257c1.459.256 2.952.288 4.422.094a20.047 20.047 0 0 0 4.359-1.115 38.408 38.408 0 0 0 4.073-1.843 34.776 34.776 0 0 0 3.845-2.263c2.432-1.66 4.579-3.827 5.654-6.52a9.665 9.665 0 0 0 .713-4.198 7.604 7.604 0 0 0-1.476-3.992 10.784 10.784 0 0 0-3.333-2.91 15.746 15.746 0 0 0-4.25-1.64 51.313 51.313 0 0 0-9.255-.99 35.535 35.535 0 0 0-9.323.669 12.257 12.257 0 0 0-4.262 1.732 7.105 7.105 0 0 0-2.664 3.51 10.17 10.17 0 0 0-.498 4.358 13.78 13.78 0 0 0 1.104 4.281c1.15 2.742 3.13 5.103 5.691 6.792 2.559 1.666 5.666 2.41 8.757 2.099.763-.08 1.516-.23 2.247-.453.733-.21 1.437-.498 2.099-.86a7.761 7.761 0 0 0 3.212-2.948c.354-.623.56-1.312.602-2.018a4.602 4.602 0 0 0-.36-2.07 7.183 7.183 0 0 0-2.784-3.26 14.749 14.749 0 0 0-4.125-1.751c-1.443-.379-2.958-.838-4.396-.526a3.026 3.026 0 0 0-1.772 1.083 1.9 1.9 0 0 0-.359.922c-.035.33.02.665.16.97a3.723 3.723 0 0 0 1.408 1.526c.612.39 1.297.664 2.018.81a6.669 6.669 0 0 0 4.286-.38 4.055 4.055 0 0 0 1.613-1.328 3.747 3.747 0 0 0 .691-1.912 4.81 4.81 0 0 0-.227-2.02 5.021 5.021 0 0 0-1.046-1.774 5.352 5.352 0 0 0-1.7-1.245 5.634 5.634 0 0 0-2.08-.519 7.786 7.786 0 0 0-4.165.783 7.231 7.231 0 0 0-3.027 2.812 4.385 4.385 0 0 0-.538 1.923 3.529 3.529 0 0 0 .506 1.906c.774 1.138 1.947 1.982 3.314 2.386 1.351.434 2.761.685 4.186.747 1.43.082 2.864.041 4.286-.123a23.128 23.128 0 0 0 8.045-2.49 7.263 7.263 0 0 0 1.642-1.23 3.244 3.244 0 0 0 .943-1.682 3.375 3.375 0 0 0-.316-1.855 3.614 3.614 0 0 0-1.272-1.446 11.287 11.287 0 0 0-3.78-1.548 66.309 66.309 0 0 0-4.055-.95 75.423 75.423 0 0 0-8.176-1.179 99.77 99.77 0 0 0-16.227-.083 18.9 18.9 0 0 0-7.554 2.01 6.6 6.6 0 0 0-2.729 2.511 2.734 2.734 0 0 0-.316 1.714c.093.588.367 1.137.788 1.58a8.903 8.903 0 0 0 3.132 2.021c1.165.507 2.362.946 3.584 1.313a71.521 71.521 0 0 0 7.392 1.72 111.396 111.396 0 0 0 14.721 2.054 45.31 45.31 0 0 0 14.229-1.26 28.173 28.173 0 0 0 6.413-2.535c1.986-1.052 3.584-2.652 4.58-4.586a6.228 6.228 0 0 0 .731-3.013 6.239 6.239 0 0 0-.819-2.992 6.844 6.844 0 0 0-2.211-2.224 11.393 11.393 0 0 0-2.918-1.318 17.76 17.76 0 0 0-6.335-.572 29.6 29.6 0 0 0-6.155 1.118 52.046 52.046 0 0 0-10.957 4.878c-1.693.959-3.341 1.949-4.969 2.92-1.628.972-3.224 1.937-4.741 2.964a37.46 37.46 0 0 0-4.284 3.286 12.515 12.515 0 0 0-3.273 3.94 3.759 3.759 0 0 0-.318 2.361c.181.78.67 1.465 1.369 1.914a9.109 9.109 0 0 0 4.754 1.161c1.618.07 3.239-.01 4.84-.239a32.268 32.268 0 0 0 4.575-.935 52.314 52.314 0 0 0 8.19-3.07c2.53-1.185 4.877-2.458 7.094-3.687a69.64 69.64 0 0 0 6.133-3.825c3.702-2.627 6.601-5.538 8.278-8.501a8.591 8.591 0 0 0 1.183-4.462 5.947 5.947 0 0 0-1.3-3.585 4.785 4.785 0 0 0-2.206-1.5 5.055 5.055 0 0 0-2.717-.124 3.937 3.937 0 0 0-1.641.83ZM72.816 89.755s-.125 0-.36-.037l-1.058-.156a16.297 16.297 0 0 1-3.917-1.08 7.419 7.419 0 0 1-2.408-1.656 5.104 5.104 0 0 1-1.465-3.024 3.402 3.402 0 0 1 .37-1.849 4.06 4.06 0 0 1 1.426-1.483 3.506 3.506 0 0 1 2.182-.515c.402.06.786.201 1.124.415.338.213.623.494.834.822a3.63 3.63 0 0 1 .532 2.288 5.621 5.621 0 0 1-.736 2.342 5.065 5.065 0 0 1-.785 1.028c-.301.324-.63.625-.982.899a9.732 9.732 0 0 1-2.438 1.285 10.31 10.31 0 0 1-2.836.537c-.999.058-2-.04-2.965-.288a8.864 8.864 0 0 1-2.781-1.238 7.34 7.34 0 0 1-2.113-2.217 8.635 8.635 0 0 1-1.16-5.989 8.14 8.14 0 0 1 1.162-3c.3-.467.653-.9 1.054-1.294.39-.418.864-.76 1.393-1.009a2.538 2.538 0 0 1 1.797-.2c.302.097.578.255.809.464.216.222.374.488.462.777a3.41 3.41 0 0 1-.003 1.72 6.956 6.956 0 0 1-.597 1.609 39.42 39.42 0 0 1-1.827 2.92 15.05 15.05 0 0 1-2.324 2.672 9.138 9.138 0 0 1-3.119 1.844 6.522 6.522 0 0 1-3.619.191 6.796 6.796 0 0 1-3.074-1.719 8.804 8.804 0 0 1-1.955-2.765 17.657 17.657 0 0 1-1.198-6.298c-.09-1.037-.068-2.08.064-3.114a4.295 4.295 0 0 1 1.422-2.815 3.014 3.014 0 0 1 1.497-.614 3.447 3.447 0 0 1 1.594.175 4.15 4.15 0 0 1 2.283 1.953c.423.873.58 1.84.453 2.793a8.008 8.008 0 0 1-.77 2.632 11.227 11.227 0 0 1-1.414 2.267 13.375 13.375 0 0 1-1.838 1.846 13.733 13.733 0 0 1-4.362 2.38 12.81 12.81 0 0 1-4.508.64 12.358 12.358 0 0 1-3.977-.821 13.136 13.136 0 0 1-5.22-3.622 11.33 11.33 0 0 1-2.039-3.383 7.437 7.437 0 0 1-.318-.968c-.059-.216-.085-.333-.085-.333s.124.456.469 1.277a11.604 11.604 0 0 0 2.084 3.296 13.163 13.163 0 0 0 5.175 3.535c1.248.473 2.574.738 3.918.784a12.747 12.747 0 0 0 4.423-.646c2.403-.8 4.506-2.245 6.05-4.158a11.019 11.019 0 0 0 1.369-2.224 7.622 7.622 0 0 0 .742-2.545 4.686 4.686 0 0 0-.433-2.646 3.85 3.85 0 0 0-2.12-1.804 2.91 2.91 0 0 0-1.451-.157c-.49.072-.95.267-1.333.565a4 4 0 0 0-1.278 2.582 13.977 13.977 0 0 0-.057 3.083 17.39 17.39 0 0 0 1.178 6.167 8.389 8.389 0 0 0 1.904 2.655 6.416 6.416 0 0 0 2.917 1.639 6.154 6.154 0 0 0 3.416-.186 8.983 8.983 0 0 0 3.008-1.752c1.747-1.557 2.946-3.571 4.073-5.5a4.59 4.59 0 0 0 .586-3.081 1.77 1.77 0 0 0-.384-.617 1.816 1.816 0 0 0-.653-.384 2.194 2.194 0 0 0-1.548.176 4.33 4.33 0 0 0-1.308.948 7.47 7.47 0 0 0-1.008 1.231 7.735 7.735 0 0 0-1.116 2.89 8.328 8.328 0 0 0 1.101 5.792 7.36 7.36 0 0 0 1.999 2.11 7.833 7.833 0 0 0 2.706 1.22 9.672 9.672 0 0 0 4.177.156 9.41 9.41 0 0 0 3.814-1.615 6.838 6.838 0 0 0 1.708-1.847c.396-.704.63-1.48.683-2.274a3.393 3.393 0 0 0-.48-2.153 2.542 2.542 0 0 0-.776-.74 2.709 2.709 0 0 0-1.031-.373 3.254 3.254 0 0 0-2.032.471 3.87 3.87 0 0 0-1.381 1.416 3.176 3.176 0 0 0-.362 1.745 4.973 4.973 0 0 0 1.4 2.937 7.343 7.343 0 0 0 2.335 1.644 16.59 16.59 0 0 0 3.918 1.123l1.05.192.34.056ZM159 205.936l-40.113-.067c-1.583-.003-2.868 1.207-2.871 2.702v.216c-.003 1.495 1.279 2.708 2.862 2.711l40.112.067c1.584.003 2.869-1.207 2.872-2.702v-.216c.002-1.494-1.279-2.708-2.862-2.711Zm-32.001 8.944 24.71.042s-3.298 6.197-12.874 6.181c-9.987-.017-11.836-6.223-11.836-6.223Z"/><path fill="#E9E9E9" d="M151.269 83.813a8.59 8.59 0 0 0-3.796-3.14 9.19 9.19 0 0 0-5.002-.628 8.932 8.932 0 0 0-4.533 2.093 8.143 8.143 0 0 0-2.545 4.113 7.798 7.798 0 0 0 .294 4.756 8.296 8.296 0 0 0 3.035 3.807 9.055 9.055 0 0 0 4.76 1.582 9.126 9.126 0 0 0 4.891-1.173l.109-.068L142.539 118l19.021 4.41-.078-.103a7.837 7.837 0 0 1-1.21-4.588 7.911 7.911 0 0 1 1.678-4.455 8.65 8.65 0 0 1 4.007-2.835 9.16 9.16 0 0 1 4.999-.272 8.807 8.807 0 0 1 4.325 2.383 8.03 8.03 0 0 1 2.21 4.244 7.776 7.776 0 0 1-.643 4.688 8.348 8.348 0 0 1-3.281 3.572l-.182.107 20.444 4.746c4.44-9.309 7.021-21.793 1.618-36.076-2.811-7.663-7.523-14.579-13.743-20.17-6.221-5.593-13.768-9.698-22.011-11.973l-2.367-.548-5.943 22.86-.114-.177Z"/><path fill="#495E4C" d="M151.267 83.813c.043.055.083.112.12.172.209-.907 2.326-9.151 5.87-22.87v-.074h.078l1.947.45c.664.143 1.323.355 1.998.548 1.339.419 2.709.892 4.09 1.443a55.116 55.116 0 0 1 8.437 4.192 56.87 56.87 0 0 1 8.278 6.158 54.999 54.999 0 0 1 7.314 8.299c.554.775 1.036 1.605 1.554 2.41l.782 1.227c.238.422.456.859.689 1.29l1.377 2.617 1.174 2.748a46.876 46.876 0 0 1 3.262 11.837 43.968 43.968 0 0 1-.218 12.851c-.158 1.089-.419 2.167-.65 3.255-.23 1.088-.559 2.157-.914 3.225a50.24 50.24 0 0 1-2.509 6.336l-.041.098h-.109l-14.271-3.309-6.178-1.413-.316-.074.28-.161c1.529-.864 2.733-2.156 3.445-3.697.349-.76.571-1.567.658-2.392.1-.818.06-1.646-.121-2.451a8.297 8.297 0 0 0-.346-1.183 8.85 8.85 0 0 0-.548-1.109 7.822 7.822 0 0 0-1.555-1.925 8.665 8.665 0 0 0-3.199-1.828 9.014 9.014 0 0 0-3.719-.366 8.873 8.873 0 0 0-3.528 1.167 8.33 8.33 0 0 0-2.664 2.477 7.561 7.561 0 0 0-1.011 2.092 7.127 7.127 0 0 0-.362 2.25 7.738 7.738 0 0 0 1.312 4.273l.165.255-.301-.069-19.015-4.42-.114-.03.026-.108c2.179-8.332 4.181-15.993 5.958-22.84l.151.099a9.175 9.175 0 0 1-4.417 1.267 9.027 9.027 0 0 1-4.262-.953 8.66 8.66 0 0 1-2.872-2.282 8.077 8.077 0 0 1-1.598-3.208 7.812 7.812 0 0 1-.029-3.544 8.05 8.05 0 0 1 1.544-3.23c1.203-1.494 2.898-2.568 4.819-3.052a10.133 10.133 0 0 1 2.488-.255c.735.035 1.463.148 2.17.337 1.799.494 3.376 1.53 4.493 2.95.147.178.281.367.399.564l-.104-.138a8.69 8.69 0 0 0-1.788-1.832 8.933 8.933 0 0 0-3.02-1.476 10.304 10.304 0 0 0-2.15-.317 9.915 9.915 0 0 0-2.462.26c-1.893.486-3.562 1.553-4.741 3.033a7.929 7.929 0 0 0-1.514 3.178 7.682 7.682 0 0 0 .036 3.485 7.946 7.946 0 0 0 1.577 3.151 8.52 8.52 0 0 0 2.83 2.238 8.878 8.878 0 0 0 4.292.92 8.818 8.818 0 0 0 4.2-1.239l.208-.122-.058.22c-1.777 6.862-3.758 14.494-5.922 22.85l-.083-.132 19.016 4.4-.13.186a7.952 7.952 0 0 1-1.359-4.415 7.217 7.217 0 0 1 .368-2.319 7.722 7.722 0 0 1 1.042-2.155 8.742 8.742 0 0 1 3.817-3.088 9.3 9.3 0 0 1 5.1-.613 9.03 9.03 0 0 1 4.598 2.174 8.189 8.189 0 0 1 1.612 1.964c.214.369.403.751.564 1.143.15.397.269.804.357 1.217.188.831.232 1.686.13 2.53a7.975 7.975 0 0 1-1.326 3.63 8.565 8.565 0 0 1-2.917 2.674l-.036-.236 6.178 1.433 14.265 3.314-.155.068a50.652 50.652 0 0 0 2.498-6.306c.355-1.064.626-2.137.909-3.211.282-1.073.491-2.151.644-3.23.705-4.23.782-8.532.229-12.783a46.673 46.673 0 0 0-3.226-11.827l-1.169-2.738c-.456-.874-.917-1.742-1.367-2.606-.228-.427-.445-.864-.683-1.281l-.777-1.222c-.518-.81-1.005-1.635-1.554-2.406-4.044-5.77-9.324-10.676-15.499-14.402a55.203 55.203 0 0 0-8.395-4.192 54.035 54.035 0 0 0-4.075-1.448c-.675-.193-1.323-.405-1.988-.553l-1.941-.435.093-.053c-3.585 13.723-5.749 21.943-6.015 22.84l-.12-.177Z"/><path fill="#E9E9E9" d="m169.029 143.169.146-.142a7.933 7.933 0 0 0 2.287-4.145 7.662 7.662 0 0 0-.529-4.647 8.207 8.207 0 0 0-3.166-3.593 8.923 8.923 0 0 0-4.744-1.335 8.914 8.914 0 0 0-4.733 1.369 8.194 8.194 0 0 0-3.136 3.615 7.659 7.659 0 0 0-.489 4.651 7.95 7.95 0 0 0 2.321 4.129l.094.078-20.306-.034-.036 21.521.083-.093a8.5 8.5 0 0 1 2.742-1.731 8.944 8.944 0 0 1 7.24.337 8.387 8.387 0 0 1 3.067 2.609 7.788 7.788 0 0 1 1.411 3.663 7.637 7.637 0 0 1-.575 3.859 8.09 8.09 0 0 1-2.426 3.153 8.751 8.751 0 0 1-3.71 1.708 9.027 9.027 0 0 1-4.125-.136 8.658 8.658 0 0 1-3.575-1.949l-.151-.142-.041 24.674 22.897.038s1.053-8.231 2.102-14.486c1.049-6.255 15.897-18.994 20.159-24.307 1.717-2.14 5.961-9.159 7.821-18.62l-20.628-.044Z"/><path fill="#5CCD6A" d="M175.977 167.997a2.627 2.627 0 0 0-1.26-1.262 2.856 2.856 0 0 0-1.822-.214c-.826.195-1.559.767-2.426.677a2.433 2.433 0 0 1-1.036-.479 2.265 2.265 0 0 1-.676-.882c-.352-.657-.543-1.388-.957-2.012-.18-.328-.457-.6-.796-.783a2.134 2.134 0 0 0-1.119-.25c-1.003.156-1.633 1.317-2.651 1.335a1.93 1.93 0 0 1-.846-.267 1.79 1.79 0 0 1-.617-.609c-.336-.491-.543-1.011-.891-1.472a3.684 3.684 0 0 0-2.368-1.301 3.795 3.795 0 0 0-2.657.631c-.978.464-2.019 2.007-2.162 3.58-.428 4.756-2.393 5.606-2.393 5.606a7.731 7.731 0 0 1-1.418 4.44 8.43 8.43 0 0 1-3.778 2.964 8.998 8.998 0 0 1-4.883.505 8.722 8.722 0 0 1-4.368-2.123l-.15-.142-.041 24.674 22.897.038s1.052-8.231 2.101-14.486l-.036-.157a1.65 1.65 0 0 0 .037-.196c.682-4.476 14.316-17.815 14.316-17.815Z"/><path fill="#495E4C" d="m169.029 143.169 20.649-.034h.088v.083a53.168 53.168 0 0 1-3.988 12.139 37.1 37.1 0 0 1-3.807 6.496c-1.681 2.052-3.642 4-5.661 6.046-2.018 2.046-4.099 4.151-6.185 6.364a67.693 67.693 0 0 0-6.021 7.203 14.36 14.36 0 0 0-2.183 4.253c-.319 1.573-.524 3.21-.797 4.843a471.387 471.387 0 0 0-1.403 10.059l-.001.108-23.177-.039.042-25.085.228.221a8.437 8.437 0 0 0 3.264 1.934 8.818 8.818 0 0 0 3.837.343 8.236 8.236 0 0 0 2.447-.682 9.278 9.278 0 0 0 1.112-.587c.347-.23.679-.48.993-.749a7.871 7.871 0 0 0 2.308-3.403 7.49 7.49 0 0 0 .228-4.036 7.761 7.761 0 0 0-1.911-3.618 8.432 8.432 0 0 0-3.552-2.255 8.498 8.498 0 0 0-2.342-.431 8.268 8.268 0 0 0-2.358.202 8.487 8.487 0 0 0-4.007 2.171l-.224.215v-.294l.036-21.521v-.108h.115l20.305.034-.062.162a8.032 8.032 0 0 1-2.316-3.706 7.568 7.568 0 0 1 .007-4.08c.479-1.794 1.593-3.38 3.158-4.494a8.94 8.94 0 0 1 5.446-1.627 8.878 8.878 0 0 1 5.322 1.96c1.486 1.208 2.488 2.859 2.842 4.68.126.673.168 1.357.127 2.04a7.625 7.625 0 0 1-.899 3.077 7.661 7.661 0 0 1-1.166 1.631c-.151.172-.281.289-.359.367l-.13.118.12-.122c.078-.089.198-.206.349-.377a7.767 7.767 0 0 0 2.002-4.699c.026-.327.027-.655.001-.981a7.474 7.474 0 0 0-.934-3.218 8.224 8.224 0 0 0-3.531-3.384 8.88 8.88 0 0 0-4.941-.889 8.696 8.696 0 0 0-4.601 1.919 7.914 7.914 0 0 0-2.629 4.049 7.458 7.458 0 0 0-.007 3.996 7.901 7.901 0 0 0 2.269 3.612l.171.163-.239-.001-20.306-.034.115-.107-.036 21.521-.218-.079a8.728 8.728 0 0 1 4.132-2.249 9.257 9.257 0 0 1 4.845.234 8.74 8.74 0 0 1 3.216 1.878 8.136 8.136 0 0 1 2.061 2.994 7.742 7.742 0 0 1 .512 3.537 7.832 7.832 0 0 1-1.135 3.406 8.01 8.01 0 0 1-1.628 1.914c-.329.279-.676.537-1.04.773-.368.227-.752.43-1.149.607a8.528 8.528 0 0 1-2.525.701 9.08 9.08 0 0 1-2.649-.038 8.834 8.834 0 0 1-4.67-2.308l.234-.093-.012 7.468-.029 17.206-.13-.123 22.897.039-.13.107c.453-3.435.926-6.791 1.419-10.069.258-1.642.478-3.255.803-4.858a14.6 14.6 0 0 1 2.22-4.326 68.527 68.527 0 0 1 6.051-7.222c2.081-2.233 4.188-4.338 6.201-6.364 2.013-2.027 3.985-3.99 5.655-6.022a36.894 36.894 0 0 0 3.802-6.452 53.41 53.41 0 0 0 4.014-12.094l.067.078-20.622-.093Z"/><path fill="#5CCD6A" d="M153.761 158.54c0 .369-.117.73-.335 1.037a1.959 1.959 0 0 1-.889.687c-.362.14-.76.177-1.143.104a2.022 2.022 0 0 1-1.013-.513 1.844 1.844 0 0 1-.54-.957 1.775 1.775 0 0 1 .115-1.08c.15-.341.404-.632.73-.837a2.066 2.066 0 0 1 1.1-.313 2.042 2.042 0 0 1 1.398.55c.37.351.578.826.577 1.322Z"/><path fill="#000" d="M143.56 178.176c-2.015.153-4.247-.62-5.189-2.324l-1.559.645c-.002.981 1.288 2.91 2.238 3.279 1.9.803 4.036.959 6.044.442a6.327 6.327 0 0 0 2.634-1.646 5.838 5.838 0 0 0 1.455-2.648c-1.783 1.223-3.607 2.098-5.623 2.252Z" opacity=".2"/><path fill="#5CCD6A" d="M125.08 89.919a8.9 8.9 0 0 1 6.204 1.359l.16.123-3.773-22.817-2.359.349c-8.261 1.565-16.005 4.975-22.583 9.945-6.579 4.97-11.801 11.356-15.23 18.623-6.55 13.527-5.137 25.95-1.617 35.39l2.514-.374 19.584-2.884-.125.166a7.78 7.78 0 0 0-1.572 4.431 7.731 7.731 0 0 0 1.29 4.512 8.422 8.422 0 0 0 3.721 3.082 9.02 9.02 0 0 0 4.905.62 8.756 8.756 0 0 0 4.448-2.049 7.998 7.998 0 0 0 2.501-4.032 7.658 7.658 0 0 0-.284-4.666 8.14 8.14 0 0 0-2.973-3.736l-.109-.064.545-.083 16.773-2.492-3.773-22.802-.073.103a8.293 8.293 0 0 1-2.421 2.115 8.74 8.74 0 0 1-3.095 1.077c-2.177.221-4.361-.357-6.1-1.615-1.738-1.257-2.898-3.097-3.24-5.14-.342-2.042.162-4.13 1.405-5.832 1.244-1.701 3.133-2.886 5.277-3.309Z"/><path fill="#495E4C" d="m125.08 89.919-.572.121a5.587 5.587 0 0 0-.691.185c-.135.044-.28.083-.436.142l-.489.2a8.5 8.5 0 0 0-2.303 1.467 8.1 8.1 0 0 0-2.082 2.968c-.132.32-.244.648-.334.98a7.46 7.46 0 0 0-.184 1.089 7.164 7.164 0 0 0 .126 2.353c.404 1.913 1.536 3.619 3.182 4.797a8.799 8.799 0 0 0 5.75 1.593 8.619 8.619 0 0 0 3.409-.975 8.25 8.25 0 0 0 2.782-2.374l.13-.176.036.211a46160.37 46160.37 0 0 0 3.795 22.802v.103h-.109l-17.288 2.555.047-.211a8.213 8.213 0 0 1 2.965 3.438c.324.7.532 1.443.615 2.202a7.456 7.456 0 0 1-.046 2.305 7.975 7.975 0 0 1-.746 2.22 8.581 8.581 0 0 1-1.4 1.959 8.815 8.815 0 0 1-4.299 2.42 9.02 9.02 0 0 1-5.094-.264 8.666 8.666 0 0 1-4.098-2.997 7.143 7.143 0 0 1-1.165-2.253 7.531 7.531 0 0 1-.396-2.492 7.866 7.866 0 0 1 1.686-4.778l.129.202-14.29 2.104-7.791 1.149h-.115l-.036-.103a46.946 46.946 0 0 1-2.81-12.538 42.707 42.707 0 0 1-.056-6.257c.095-1.029.159-2.059.327-3.074.073-.49.126-1.015.225-1.515l.299-1.5a44.88 44.88 0 0 1 4.002-11.236l1.375-2.572.344-.637c.12-.21.26-.407.385-.612l.787-1.21c.255-.402.52-.804.775-1.2l.386-.598.432-.563 1.722-2.243c.271-.377.599-.715.906-1.063l.931-1.033.921-1.028c.312-.333.66-.636.988-.954.66-.627 1.3-1.268 1.972-1.865l2.08-1.708a55.357 55.357 0 0 1 8.651-5.56 58.197 58.197 0 0 1 8.834-3.595 47.34 47.34 0 0 1 8.458-1.869h.083v.079c1.686 10.344 2.951 18.084 3.727 22.822v.093l-.068-.025a8.867 8.867 0 0 0-4.707-1.577 9.644 9.644 0 0 0-1.242.033l-.405.038s.13-.024.405-.058a8.833 8.833 0 0 1 5.996 1.5l-.068.04a44590.47 44590.47 0 0 0-3.82-22.808l.099.07a46.57 46.57 0 0 0-8.417 1.878c-6.371 1.974-12.284 5.078-17.423 9.145l-2.054 1.703c-.67.597-1.305 1.239-1.966 1.86-.323.318-.666.622-.978.98-.312.357-.609.68-.916 1.022l-.926 1.029c-.321.338-.624.693-.905 1.062l-1.707 2.228-.432.539-.385.593-.771 1.2-.776 1.205c-.13.2-.265.401-.385.607l-.339.637c-.458.847-.912 1.7-1.37 2.557a44.81 44.81 0 0 0-3.976 11.188c-.094.49-.194.98-.293 1.471-.1.49-.152.98-.226 1.509-.168.981-.232 2.03-.322 3.055a42.23 42.23 0 0 0 .057 6.222 46.72 46.72 0 0 0 2.8 12.474l-.146-.083 7.792-1.149 14.295-2.105.322-.048-.192.245a7.615 7.615 0 0 0-1.526 3.381 7.42 7.42 0 0 0 .273 3.668c.126.389.281.77.465 1.138.194.363.415.713.663 1.046a8.438 8.438 0 0 0 3.973 2.909c.79.274 1.617.44 2.456.494a9.585 9.585 0 0 0 2.483-.226 8.765 8.765 0 0 0 2.281-.884 8.164 8.164 0 0 0 3.251-3.353c.344-.685.588-1.41.726-2.156.129-.74.144-1.493.045-2.236a7.129 7.129 0 0 0-.593-2.139 8.07 8.07 0 0 0-2.867-3.344l-.254-.167.301-.044 17.314-2.506-.094.122c-1.404-8.46-2.648-16.121-3.748-22.831l.161.03a8.463 8.463 0 0 1-2.85 2.422 8.718 8.718 0 0 1-3.481.975 8.939 8.939 0 0 1-5.844-1.638c-1.67-1.203-2.815-2.942-3.218-4.889a7.315 7.315 0 0 1-.115-2.388 6.78 6.78 0 0 1 .523-2.103c.399-.981 1-1.879 1.768-2.64a8.475 8.475 0 0 1 2.705-1.8l.494-.2.442-.132c.226-.075.459-.132.696-.17.389-.083.587-.082.587-.082Z"/><path fill="#fff" d="m136.31 200.65-20.705-.034s-1.025-8.235-2.053-14.493c-1.028-6.259-15.834-19.047-20.078-24.379-1.71-2.146-5.931-9.174-7.759-18.646l19.558.033-.151.147a7.935 7.935 0 0 0-2.289 4.147 7.671 7.671 0 0 0 .528 4.65 8.219 8.219 0 0 0 3.168 3.596 8.935 8.935 0 0 0 4.748 1.336 8.913 8.913 0 0 0 4.735-1.37 8.19 8.19 0 0 0 3.138-3.618 7.653 7.653 0 0 0 .489-4.654 7.947 7.947 0 0 0-2.323-4.131l-.094-.083 19.033.164-.035 21.521s1.78-2.552 6.064-2.442c4.284.11 7.515 2.994 8.201 5.898.686 2.904.1 8.38-5.677 9.846-5.778 1.467-8.669-2.383-8.669-2.383l.021 25.008"/><path fill="#495E4C" d="M136.13 199.552c.068 0 .125.275.125.613-.001.338-.055.613-.127.613-.072 0-.125-.275-.125-.613.001-.339.055-.613.127-.613Zm.002-5.017c.131.407.178.833.138 1.256a2.97 2.97 0 0 1-.137 1.255 3.074 3.074 0 0 1-.133-1.256 3.02 3.02 0 0 1 .132-1.255Zm-.002-5.015c.131.406.176.832.133 1.255.045.423 0 .849-.132 1.255a3.022 3.022 0 0 1-.138-1.255c-.044-.423.002-.85.137-1.255Zm-.006-5.016c.134.405.181.832.138 1.255a2.97 2.97 0 0 1-.137 1.255 3.071 3.071 0 0 1-.133-1.255c-.045-.423 0-.849.132-1.255Zm-.003-5.017c.131.406.176.833.133 1.256.045.422 0 .849-.132 1.255a3.13 3.13 0 0 1-.138-1.256c-.044-.423.002-.85.137-1.255Zm.893-2.847c0 .029-.156-.04-.343-.177a3.447 3.447 0 0 1-.316-.261l-.171-.171-.088-.099-.042-.049v-.024l.245-.073a2.85 2.85 0 0 1-.137 1.225 2.91 2.91 0 0 1-.185-1.265l.244-.073v.024l.041.049.078.094.15.171.265.295c.192.197.259.309.259.334Zm4.599 1.807a3.633 3.633 0 0 1-2.456-.549c.422.029.837.11 1.236.243.419.051.829.154 1.22.306Zm4.914-.938c.041.058-.442.371-1.123.586a2.684 2.684 0 0 1-1.267.189c0-.078.519-.225 1.179-.429a4.868 4.868 0 0 1 1.211-.346Zm3.385-3.442a2.085 2.085 0 0 1-.485 1.127c-.385.568-.837.925-.884.876-.046-.049.292-.49.656-1.019.365-.529.641-1.014.713-.984Zm.73-4.671c.172.377.234.79.18 1.197.037.409-.045.821-.236 1.191a3.94 3.94 0 0 1-.034-1.197 3.82 3.82 0 0 1 .09-1.191Zm-2.033-4.304c.052-.049.519.305.903.865.283.314.463.699.517 1.109-.067.029-.347-.432-.736-.982-.388-.55-.741-.943-.684-.992Zm-4.301-2.42c.435-.023.869.07 1.251.267.659.256 1.121.595 1.079.654a4.8 4.8 0 0 1-1.183-.419 4.955 4.955 0 0 1-1.147-.502Zm-5.007.114a2.364 2.364 0 0 1 1.211-.414c.42-.111.864-.11 1.283.002-.401.131-.818.21-1.242.233a5.67 5.67 0 0 1-1.252.179Zm-3.101.815c.134.395.179.813.133 1.226l-.249-.074v-.025l.041-.054.084-.098.171-.171c.098-.096.204-.185.317-.264.188-.137.323-.196.349-.171.026.024-.068.137-.219.303-.151.167-.187.206-.265.289l-.151.177-.073.093-.036.049v.024l-.25-.069a2.93 2.93 0 0 1 .148-1.235Zm-.001-5.448a7.452 7.452 0 0 1-.004 2.721 7.43 7.43 0 0 1 .004-2.721Zm.009-5.453a7.43 7.43 0 0 1-.004 2.721 7.43 7.43 0 0 1 .004-2.721Zm.009-5.443c.166.9.165 1.823-.004 2.722a7.435 7.435 0 0 1 .004-2.722Zm-1.282-3.963c.421-.121.862-.16 1.299-.116l.135.128-.001.23v.231l-.001.392c-.026.221-.063.358-.099.358-.036 0-.072-.138-.093-.358 0-.113.001-.246-.03-.393v-.461l.135.128a3.345 3.345 0 0 1-1.345-.139Zm-4.694-.038a2.71 2.71 0 0 1 1.173-.121c.398-.036.798.012 1.174.14-.378.12-.778.159-1.174.115a2.875 2.875 0 0 1-1.173-.134Zm-4.699-.042a5.584 5.584 0 0 1 2.352.004 2.736 2.736 0 0 1-1.179.12 2.838 2.838 0 0 1-1.173-.124Zm-4.695-.038a2.699 2.699 0 0 1 1.174-.121c.397-.039.798.008 1.173.139-.377.12-.778.16-1.174.116a2.91 2.91 0 0 1-1.173-.134Zm-2.785.883c-.031 0-.151-.064-.322-.216a5.054 5.054 0 0 1-.29-.27l-.161-.167-.083-.089-.047-.039c-.078.196.115-.275.094-.226.439-.036.88.012 1.298.14a3.343 3.343 0 0 1-1.298.115c0 .049.172-.421.089-.22v.024l.046.045.088.093.156.182c.098.118.186.226.254.319.135.162.207.285.176.309Zm1.7 4.391a4.436 4.436 0 0 1-.289-1.152 4.162 4.162 0 0 1-.211-1.168c.268.323.433.711.476 1.119.13.39.139.807.024 1.201Zm-1.196 4.544c.264-.751.584-1.483.96-2.19a3.34 3.34 0 0 1-.96 2.19Zm-3.672 3.142c-.031-.068.452-.332 1.04-.689.587-.357 1.008-.68 1.04-.626.031.054-.323.489-.911.837-.334.26-.739.426-1.169.478Zm-4.904.683c.41-.094.836-.108 1.252-.042a3.097 3.097 0 0 1 1.257.046 3.253 3.253 0 0 1-1.252.209 3.183 3.183 0 0 1-1.257-.213Zm-4.478-2.003c.052-.054.519.265 1.038.624s1.038.625 1.037.693a2.37 2.37 0 0 1-1.167-.492c-.581-.359-.96-.776-.908-.825Zm-2.543-4.015c.223.334.398.696.518 1.074.197.35.345.723.439 1.109-.062.039-.42-.393-.689-1.011a2.021 2.021 0 0 1-.268-1.172Zm.252-4.677a4.153 4.153 0 0 1-.205 1.167 4.057 4.057 0 0 1-.287 1.152 3.207 3.207 0 0 1 .492-2.319Zm.731-3.005c.42-.124.862-.166 1.299-.125.041.098-.093-.216.098.22l-.047.044-.088.084-.161.171-.286.274c-.167.152-.291.235-.317.215-.026-.019.036-.147.171-.328.068-.093.151-.206.245-.323l.156-.181a.713.713 0 0 1 .089-.093l.046-.044c.192.436.052.122.094.216a3.353 3.353 0 0 1-1.299-.13Zm-4.502-.008c.001-.069.292-.127.65-.126.359 0 .649.06.649.128 0 .069-.291.127-.649.127-.358-.001-.65-.055-.65-.129Z"/><path fill="#495E4C" d="m136.382 200.65-.374-.001-1.085-.001-4.155-.007-15.086.077h-.094v-.088a434.29 434.29 0 0 0-1.919-13.473c-.194-2.501-1.711-4.734-3.297-6.87a79.08 79.08 0 0 0-5.422-6.325c-2.545-2.725-5.127-5.299-7.569-7.814-1.213-1.262-2.405-2.504-3.494-3.781a17.585 17.585 0 0 1-1.466-1.993 37.64 37.64 0 0 1-1.238-2.052 50.799 50.799 0 0 1-3.564-8.038 50.96 50.96 0 0 1-1.962-7.177v-.103l.11.001 9.773.055 2.596.029.68.001h.23-.23l-.68-.001-2.596-.004-9.774.023.089-.103a52.05 52.05 0 0 0 1.95 7.123 50.908 50.908 0 0 0 3.581 7.993c.383.683.787 1.37 1.233 2.042.437.685.924 1.341 1.456 1.964 1.078 1.262 2.27 2.5 3.489 3.757 2.441 2.515 5.029 5.083 7.574 7.819a77.973 77.973 0 0 1 5.432 6.413 27.533 27.533 0 0 1 2.186 3.343c.309.575.565 1.174.765 1.791.176.609.304 1.231.381 1.859.771 4.904 1.371 9.461 1.879 13.492l-.109-.093 15.091.069 4.155.036 1.085.002c.255.025.379.035.379.035Z"/><path fill="#495E4C" d="M135.017 200.649c0-.074.291-.127.649-.127.358.001.649.055.649.129 0 .073-.291.127-.649.126-.359 0-.649-.06-.649-.128Zm-5.173-.009a6.619 6.619 0 0 1 2.597.004 6.619 6.619 0 0 1-2.597-.004Zm-5.178-.009a6.614 6.614 0 0 1 2.596.005 6.614 6.614 0 0 1-2.596-.005Zm-5.173-.008a6.619 6.619 0 0 1 2.597.004 6.638 6.638 0 0 1-2.597-.004Zm-4.042-1.223c.036 0 .088.127.145.343-.001.113.051.24.077.388.025.147.025.157.036.225v.123l-.001.064v.053c-.062-.049.13.118-.135-.113.438-.042.88.002 1.299.13-.42.124-.862.166-1.299.125 0-.259-.176-.059-.135-.117v-.118l.001-.123v-.225l.001-.393c-.042-.22-.026-.358.011-.362Zm-.678-5.057c.297.811.414 1.67.344 2.526a6.161 6.161 0 0 1-.344-2.526Zm-.729-5.037c.195.389.304.811.32 1.241.106.419.124.854.055 1.28a6.15 6.15 0 0 1-.375-2.521Zm-1.072-4.974c.294.338.49.742.57 1.173.145.412.184.851.112 1.28-.088-.001-.197-.555-.372-1.217a4.74 4.74 0 0 1-.31-1.236Zm-2.746-4.368c.351.273.643.606.861.982.289.332.504.716.632 1.129-.063.039-.446-.403-.861-.982a3.18 3.18 0 0 1-.632-1.129Zm-3.332-4.002c.058-.044.488.364.96.909.32.306.576.668.751 1.065-.062.044-.488-.364-.959-.904a3.273 3.273 0 0 1-.752-1.07Zm-3.555-3.825c.052-.044.519.339.996.865.335.292.606.644.798 1.036-.058.049-.519-.34-1.001-.865-.482-.526-.866-.987-.793-1.036Zm-3.649-3.748c.051-.049.518.329 1.036.85.341.287.62.634.819 1.021-.057.044-.518-.334-1.037-.85-.518-.516-.87-.972-.819-1.021Zm-3.646-3.753c.052-.049.519.335 1.006.855.335.292.609.64.809 1.026-.057.049-.519-.334-1.011-.854-.493-.521-.84-.982-.804-1.027Zm-2.576-2.892c.057-.044.285.138.519.403.233.265.352.491.295.56-.058.068-.286-.138-.52-.403-.232-.266-.346-.516-.294-.56Z"/></g><defs><clipPath id="clip0_9035_116"><path fill="#fff" d="M0 0h300v250H0z" transform="rotate(.096 .209 250)"/></clipPath></defs></svg>