<svg xmlns="http://www.w3.org/2000/svg" fill="none" viewBox="0 0 318 250"><g clip-path="url(#clip0_9035_41)" opacity=".5"><path fill="#EBEBEB" d="m194.606 8.467 101.695 109.981L39.714 61.843 176.351 4.385c2.977-1.25 6.403-1.527 9.718-.786 3.315.742 6.324 2.458 8.537 4.868Z"/><path fill="#E0E0E0" d="M297.688 119.231 194.999 8.174c-2.285-2.505-5.403-4.287-8.84-5.054-3.437-.766-6.987-.47-10.066.838L38.114 61.977l259.574 57.254ZM182.461 3.602c2.206.002 4.415.463 6.453 1.349a15.534 15.534 0 0 1 5.294 3.757l100.716 108.966L41.283 61.719 176.576 4.794a15.148 15.148 0 0 1 5.888-1.147l-.003-.045Z"/><path fill="#F0F0F0" d="M296.306 118.479 38.816 61.676 13.424 185.491c-.503 2.452.112 5.045 1.71 7.21 1.599 2.165 4.049 3.723 6.812 4.333l236.645 52.204c2.763.609 5.613.22 7.922-1.083 2.309-1.303 3.889-3.412 4.391-5.864l25.391-123.815.01.003Z"/><path fill="#fff" d="m54.901 68.434 93.53 80.878 130.861-26.933 10.699-63.462c.615-3.276-.246-6.721-2.397-9.59-2.15-2.87-5.418-4.933-9.096-5.744L83.454.578A15.843 15.843 0 0 0 77.9.338a14.31 14.31 0 0 0-5.096 1.692 12.423 12.423 0 0 0-3.861 3.364 11.307 11.307 0 0 0-2.037 4.523L54.901 68.434Z"/><path fill="#E0E0E0" d="m160.038 142.952 111.215 98.231a9.249 9.249 0 0 1-1.668 3.7 10.16 10.16 0 0 1-3.159 2.751 11.694 11.694 0 0 1-4.169 1.384 12.963 12.963 0 0 1-4.544-.195L22.874 196.995c-3.038-.67-5.732-2.384-7.49-4.764-1.757-2.38-2.435-5.232-1.883-7.928l.162-.783 133.293-43.343c2.167-.706 4.554-.82 6.875-.327 2.32.492 4.476 1.569 6.207 3.102Zm26.955-89.973 76.305 16.845-1.419 6.914-76.305-16.845 1.419-6.914Zm-96.592-3.001 169.301 37.375-1.604 7.812-169.3-37.376 1.603-7.811Zm-3.923 19.083 169.301 37.376-1.603 7.811L84.875 76.873l1.603-7.812Zm-1.725 25.283 5.552 4.705 142.25 32.972 18.01-3.851.565-1.788-168.758-37.25-.537 2.588 2.918 2.624Zm38.12 32.865 64.026 14.124 18.989-3.967-95.69-21.124 12.675 10.967Z"/><path fill="#FAFAFA" d="M164.1 146.528s.076.098.256.267l.802.738 3.097 2.784 11.47 10.255a8511.894 8511.894 0 0 0 38.047 33.657c14.886 13.084 28.544 24.842 38.482 33.257 4.975 4.207 9.023 7.604 11.832 9.926l3.237 2.668.857.685c.091.085.192.16.302.222a2.089 2.089 0 0 0-.265-.258l-.82-.72-3.153-2.731-11.711-10.033c-9.891-8.44-23.482-20.244-38.399-33.345-14.917-13.102-28.401-24.905-38.139-33.559l-11.571-10.149-3.153-2.739-.839-.703-.332-.222ZM13.664 183.52c.058.125 28.492-8.975 63.505-20.324 35.014-11.349 63.354-20.653 63.296-20.777-.058-.125-28.492 8.965-63.503 20.35-35.012 11.385-63.357 20.618-63.298 20.751ZM50.452 64.538c.06.08.128.154.203.223l.645.613 2.504 2.34 9.305 8.53a2206.374 2206.374 0 0 0 31.158 27.75 2142.766 2142.766 0 0 0 31.749 27.2l9.759 8.111 2.68 2.18.701.56c.167.124.25.187.259.178a2.044 2.044 0 0 0-.222-.214l-.664-.596-2.615-2.241-9.639-8.219a3436.757 3436.757 0 0 1-31.638-27.297A3975.56 3975.56 0 0 1 63.38 76.012l-9.475-8.423-2.5-2.277-.682-.587a1.488 1.488 0 0 0-.27-.187Z"/><path fill="#FAFAFA" d="M164.1 146.528c.116-.006.231-.024.341-.054l.972-.213 3.884-.89c3.32-.765 8.148-1.841 14.125-3.122 11.943-2.588 28.53-5.923 46.862-9.552 18.333-3.629 34.906-7.018 46.823-9.695 5.964-1.334 10.778-2.455 14.085-3.273l3.754-.917.968-.258c.115-.022.225-.058.328-.106l-.341.062-.972.205-3.835.889c-3.33.765-8.158 1.832-14.135 3.122-11.943 2.588-28.52 5.924-46.862 9.553-18.342 3.629-34.906 7.017-46.823 9.695-5.963 1.334-10.779 2.446-14.085 3.273l-3.8.952-.969.258-.32.071Z"/><path fill="#E0E0E0" d="M54.901 68.433s.078-.294.204-.89l.542-2.517c.474-2.232 1.16-5.497 2.047-9.704l7.413-35.685c.387-1.885.786-3.815 1.2-5.79.197-.978.402-1.983.617-2.988.102-.507.194-1.014.337-1.504.128-.498.294-.985.5-1.458.836-1.996 2.252-3.727 4.107-5.023 1.855-1.296 4.085-2.113 6.47-2.369C79.578.365 80.843.38 82.1.55c1.257.196 2.542.507 3.834.783l7.871 1.778 16.416 3.594 73.109 16.152 73.165 16.117 16.407 3.611 3.96.89a25.06 25.06 0 0 1 3.82.996 14.867 14.867 0 0 1 3.392 1.779 14.3 14.3 0 0 1 2.75 2.472c.781.91 1.434 1.9 1.944 2.945a12.84 12.84 0 0 1 1.015 3.193c.45 2.179-.072 4.278-.399 6.35-.694 4.151-1.356 8.127-1.989 11.928-2.496 15.218-4.587 27.511-5.958 36.023-.687 4.251-1.224 7.542-1.598 9.784-.178 1.111-.305 1.965-.402 2.552-.096.587-.114.89-.114.89s.068-.294.174-.89c.105-.596.254-1.432.452-2.535.393-2.25.96-5.541 1.696-9.784 1.461-8.503 3.562-20.795 6.16-35.969.639-3.8 1.315-7.777 2.028-11.927.329-2.046.866-4.216.411-6.467a12.942 12.942 0 0 0-1.037-3.228 14.62 14.62 0 0 0-4.836-5.595 15.03 15.03 0 0 0-3.495-1.85 24.952 24.952 0 0 0-3.893-1.05l-4.009-.89-16.418-3.628-73.168-16.153-73.166-16.116-16.34-3.638L86.015.94C84.722.657 83.458.354 82.141.15a15.851 15.851 0 0 0-5.687.26 14.057 14.057 0 0 0-4.99 2.23c-1.859 1.333-3.276 3.093-4.118 5.114a8.892 8.892 0 0 0-.506 1.504 21.065 21.065 0 0 0-.346 1.52c-.205 1.006-.41 2.01-.607 2.998-.403 1.975-.79 3.905-1.18 5.79l-7.24 35.747c-.847 4.216-1.444 7.49-1.948 9.722-.207 1.112-.374 1.957-.481 2.535-.108.578-.137.863-.137.863Z"/><path fill="#5CCD6A" d="m161.902 21.49 10.231 6.697.431 12.79 8.477-6.395 5.202 3.807 17.272-20.867-41.613 3.967Z"/><path fill="#000" d="M175.986 30.908c.027.391-3.423 10.069-3.423 10.069l8.477-6.396-5.054-3.673Z" opacity=".3"/><path fill="#54BE61" d="M203.515 17.522 175.996 30.91l-3.432 10.068-.431-12.79 31.382-10.665Z"/><path fill="#495D4C" d="M136.781 190.093a13.277 13.277 0 0 0 4.983-1.112 13.292 13.292 0 0 0-4.983 1.112Zm-7.946 1.779c.009.134.746.089 1.562-.089.817-.177 1.449-.444 1.41-.578-.039-.133-.746-.089-1.572.098-.825.187-1.449.436-1.4.569ZM151.36 39.304a8.218 8.218 0 0 0 2.55-.364 7.381 7.381 0 0 0 2.437-.694 6.283 6.283 0 0 0-2.598.231 5.51 5.51 0 0 0-2.389.828Zm-9.29 3.691a7.454 7.454 0 0 0 2.344-.889 7.094 7.094 0 0 0 2.156-1.192 5.685 5.685 0 0 0-2.423.765c-1.252.57-2.164 1.2-2.077 1.316Zm-7.878 5.658c.115.097.946-.57 1.992-1.406s1.864-1.547 1.728-1.663a5.308 5.308 0 0 0-2.109 1.29c-1.035.853-1.716 1.69-1.611 1.779Zm-5.789 7.427c.142.062.732-.801 1.446-1.868a6.464 6.464 0 0 0 1.138-2.046c-.114-.08-.889.685-1.61 1.779a4.472 4.472 0 0 0-.974 2.134Zm-2.961 8.779c.374-.69.615-1.439.711-2.215a5.914 5.914 0 0 0 .38-2.304 4.367 4.367 0 0 0-.902 2.17 4.316 4.316 0 0 0-.189 2.349Zm.127 9.339a6.605 6.605 0 0 0-.058-2.348 6.237 6.237 0 0 0-.402-2.34 4.492 4.492 0 0 0-.14 2.349c-.006.8.2 1.6.6 2.339Zm3.33 9.019a7.157 7.157 0 0 0-.889-2.25 7.693 7.693 0 0 0-1.139-2.162c.008.801.245 1.6.687 2.321a5.124 5.124 0 0 0 1.341 2.09Zm6.567 7.596c.091-.107-.734-.89-1.739-1.85-1.006-.96-1.813-1.78-1.935-1.681a5.34 5.34 0 0 0 1.553 2.001c1.026.987 2.029 1.628 2.121 1.53Zm9.059 5.052a9.12 9.12 0 0 0-2.315-1.21 9.061 9.061 0 0 0-2.446-.96 6.01 6.01 0 0 0 2.23 1.396 6.124 6.124 0 0 0 2.531.774Zm10.262 1.975a8.964 8.964 0 0 0-2.585-.41 9.095 9.095 0 0 0-2.615-.151 6.087 6.087 0 0 0 2.58.631c.88.176 1.781.151 2.62-.07Zm10.037-1.78c-.863.08-1.7.275-2.485.578a8.95 8.95 0 0 0-2.391.783c.891.1 1.781-.011 2.582-.32a4.87 4.87 0 0 0 2.294-1.04Zm6.701-6.404c-.148 0-.539.89-1.274 1.94-.735 1.049-1.463 1.778-1.345 1.911.118.134 1.038-.533 1.809-1.627a3.215 3.215 0 0 0 .81-2.224Zm-4.847-7.284c.01.142 1.108.454 2.284 1.174 1.175.72 1.841 1.619 1.974 1.548.133-.072-.377-1.139-1.686-1.94a4.096 4.096 0 0 0-2.572-.782Zm-8.683 3.335c.143.071.713-.8 1.679-1.654.965-.854 1.981-1.281 1.873-1.415-.901.072-1.717.45-2.283 1.059a3.122 3.122 0 0 0-1.269 2.01Zm.306 9.081a10.798 10.798 0 0 0-.645-2.285 11.005 11.005 0 0 0-.646-2.295 5.27 5.27 0 0 0 .128 2.384 5.999 5.999 0 0 0 1.182 2.197h-.019Zm7.252 6.982c.081-.115-.864-.782-1.998-1.61-1.134-.827-2.082-1.538-2.145-1.45-.063.09.64.961 1.813 1.779 1.173.819 2.26 1.397 2.33 1.281Zm9.532 4.324a7.343 7.343 0 0 0-2.335-1.201 7.24 7.24 0 0 0-2.54-.756c.696.53 1.493.938 2.345 1.2.787.403 1.648.66 2.53.757Zm9.575 4.251c.071-.116-.911-.747-2.202-1.423a6.72 6.72 0 0 0-2.49-.89c-.07.134.975.676 2.253 1.316a7.156 7.156 0 0 0 2.439.997Zm8.296 6.119c.102-.089-.64-.96-1.741-1.876-1.101-.917-2.08-1.513-2.211-1.415-.132.098.773.89 1.852 1.779 1.079.89 1.985 1.566 2.1 1.512Zm6.502 7.667a5.384 5.384 0 0 0-1.219-2.161c-.838-1.112-1.674-1.912-1.797-1.832.321.753.778 1.46 1.352 2.09.778 1.094 1.53 1.965 1.664 1.903Zm4.404 8.717a4.779 4.779 0 0 0-.638-2.321 5.319 5.319 0 0 0-1.285-2.135c.113.789.378 1.562.783 2.286a6.97 6.97 0 0 0 1.14 2.17Zm2.018 9.286c.248-1.56.011-3.178-.686-4.679a5.991 5.991 0 0 0 .166 2.348c.022.79.198 1.579.52 2.331Zm-.706 9.277c.395-.688.62-1.451.661-2.242a4.126 4.126 0 0 0 .04-2.357 6.908 6.908 0 0 0-.58 2.259 5.132 5.132 0 0 0-.121 2.34Zm-3.406 8.627a4.624 4.624 0 0 0 1.332-1.956 4.36 4.36 0 0 0 .68-2.242 6.095 6.095 0 0 0-1.178 2.028 5.711 5.711 0 0 0-.834 2.17Zm-5.705 7.499c.105.089.945-.587 1.861-1.583a4.752 4.752 0 0 0 1.28-1.993c-.134-.089-.858.694-1.717 1.673-.858.978-1.539 1.805-1.424 1.903Zm-7.59 5.959a5.4 5.4 0 0 0 2.229-1.13c1.11-.765 1.865-1.53 1.778-1.636a7.06 7.06 0 0 0-2.132 1.245c-1.111.756-1.963 1.405-1.875 1.521Zm-9.089 4.038a5.74 5.74 0 0 0 2.505-.579 5.076 5.076 0 0 0 2.196-1.174 8.041 8.041 0 0 0-2.425.721 7.97 7.97 0 0 0-2.276 1.032Zm-5.091 1.245c.009.124.086.231.124.222.038-.009.045-.124-.019-.258-.063-.133-.085-.231-.123-.222-.038.009-.017.08.018.258Z"/><path fill="#43AF55" d="m180.151 155.445 10.564-3.194 2.632 6.051-10.564 3.194-2.632-6.051Z"/><path fill="#2A9348" d="M180.123 155.458a51.023 51.023 0 0 0 6.419 2.313l.192.062.108-.142.172-.214a37.266 37.266 0 0 0 3.667-5.221 38.768 38.768 0 0 0-4.122 4.928l-.162.213.3-.08a47.871 47.871 0 0 0-6.574-1.859Z"/><path fill="#2A9348" d="M187.884 155.965a9.1 9.1 0 0 0 2.635 1.396c.892.46 1.856.782 2.85.952a9.4 9.4 0 0 0-2.645-1.397 9.947 9.947 0 0 0-2.84-.951Zm-5.268 5.594a6.519 6.519 0 0 0 1.223-2.25c.557-1.325.911-2.464.715-2.446a6.636 6.636 0 0 0-1.232 2.25 6.075 6.075 0 0 0-.706 2.446Z"/><path fill="#5CCD6A" d="m137.84 179.156 27.166-8.214 6.771 15.566-27.167 8.214-6.77-15.566Z"/><path fill="#43AF55" d="M137.853 179.161c.41.205.838.375 1.279.507l3.539 1.219c3.031 1.005 7.164 2.375 11.818 3.878l.192.062.109-.142.424-.552c2.765-3.602 5.257-6.875 7.031-9.268l2.079-2.837c.272-.34.507-.703.703-1.085a5.915 5.915 0 0 0-.918.969l-2.224 2.749a747.683 747.683 0 0 0-7.165 9.179l-.425.542.3-.08a900.15 900.15 0 0 0-11.858-3.735l-3.588-1.077a8.665 8.665 0 0 0-1.296-.329Z"/><path fill="#43AF55" d="M157.68 180.487a62.222 62.222 0 0 0 6.957 3.229 63.318 63.318 0 0 0 7.154 2.793 58.82 58.82 0 0 0-6.948-3.238 59.202 59.202 0 0 0-7.163-2.784Zm-13.216 13.936a39.509 39.509 0 0 0 2.566-5.722 38.618 38.618 0 0 0 2.08-5.919 37.64 37.64 0 0 0-2.566 5.731 38.265 38.265 0 0 0-2.08 5.91Z"/><path fill="#495D4C" d="M163.728 174.768a4.924 4.924 0 0 0 2.425.753 4.496 4.496 0 0 0 2.396-.562 3.677 3.677 0 0 0 1.56-1.687c.313-.699.382-1.48.199-2.243a4.114 4.114 0 0 0-1.23-2.045 4.848 4.848 0 0 0-2.244-1.156 4.739 4.739 0 0 0-2.502.121 3.92 3.92 0 0 0-1.917 1.358 3.436 3.436 0 0 0-.619 1.381 3.514 3.514 0 0 0 .032 1.523c.122.507.353.994.679 1.433.326.438.741.82 1.221 1.124Z"/><path fill="#fff" d="M163.327 170.908a22.2 22.2 0 0 0 3.025 1.619l.715.346.133.063.061-.107c.42-.668.766-1.373 1.035-2.108a10.633 10.633 0 0 0-1.29 1.983l.183-.053-.715-.356a22.198 22.198 0 0 0-3.147-1.387Z"/><path fill="#43AF55" d="m154.17 158.174 14.235-4.304 3.547 8.155-14.235 4.304-3.547-8.155Z"/><path fill="#2A9348" d="M154.188 158.179c.216.106.44.195.67.267l1.861.641a585.43 585.43 0 0 0 6.182 2.028H163l.063-.08.217-.285c1.455-1.886 2.705-3.602 3.692-4.857l1.089-1.485c.14-.179.262-.369.364-.569a2.678 2.678 0 0 0-.458.507l-1.171 1.441a441.61 441.61 0 0 0-3.755 4.803l-.216.293h.158a389.721 389.721 0 0 0-6.216-1.956l-1.875-.561a3.416 3.416 0 0 0-.704-.187Z"/><path fill="#2A9348" d="M164.577 158.873a33.521 33.521 0 0 0 3.642 1.69 32.458 32.458 0 0 0 3.755 1.468 31.67 31.67 0 0 0-3.643-1.699 31.553 31.553 0 0 0-3.754-1.459Zm-7.094 7.534c.566-1 1.046-2.04 1.438-3.113a22.18 22.18 0 0 0 1.173-3.22 39.815 39.815 0 0 0-2.611 6.333Z"/><path fill="#5CCD6A" d="M263.747 56.097c1.253 3.56 3.63 6.771 6.83 9.23 3.199 2.458 7.079 4.052 11.147 4.581 4.068.53 8.143-.03 11.71-1.61 3.566-1.578 6.464-4.104 8.327-7.258 1.863-3.154 2.607-6.795 2.139-10.462-.468-3.668-2.128-7.197-4.77-10.142-2.641-2.944-6.146-5.173-10.071-6.404-3.925-1.23-8.094-1.407-11.98-.509-2.582.598-4.976 1.657-7.043 3.115-2.068 1.459-3.77 3.288-5.008 5.385a16.315 16.315 0 0 0-2.208 6.833c-.22 2.415.095 4.875.927 7.241Z"/><path fill="#fff" d="M275.042 41.457c-.355.134 2.423 6.351 6.212 13.893.561 1.094 1.089 2.144 1.616 3.176l.286.56.646-.213c6.515-2.322 11.264-4.234 11.126-4.51-.138-.276-5.107 1.165-11.681 3.362l.893.356c-.507-1.032-1.035-2.09-1.576-3.184-3.819-7.543-7.175-13.564-7.522-13.44Z"/></g><defs><clipPath id="clip0_9035_41"><path fill="#fff" d="M0 0h300.36v250.14H0z" transform="matrix(-1 0 .07051 .99751 300.36 0)"/></clipPath></defs></svg>