<svg xmlns="http://www.w3.org/2000/svg" fill="none" viewBox="0 0 301 251"><g clip-path="url(#clip0_9021_6)" opacity=".5"><path fill="#000" fill-opacity=".7" d="M292.706 43.587 13.019 46.253s-2.33 53.53.642 75.461c2.972 21.932-.22 95.614-.22 95.614a906.644 906.644 0 0 0 95.405 2.056L90.41 230.102a8.294 8.294 0 0 0 .674 4.869c.714 1.541 1.885 2.886 3.39 3.895l9.805-2.677 3.233 2.645 8.233-2.493s3.352-8.97-3.504-17.088c50.709-1.959 99.147-6.288 99.147-6.288s.786 2.781 10.943 11.627 24.072 39.324 24.072 39.324l33.161-45.044 19.008-2.268s-3.918-41.957-.166-67.256c3.752-25.299-5.7-105.761-5.7-105.761Z" opacity=".2"/><path fill="#fff" d="M291.001 207.197s-103.562-1.623-147.486.364c-31.424 1.42-125.922.311-125.922.311s1.79-60.695-.226-91.455c-1.298-19.617-.194-78.606-.194-78.606s100.595-.08 132.931-1.258c53.508-1.979 140.477.583 140.477.583s2.191 42.193.166 67.314c-2.046 25.624.254 102.747.254 102.747Z"/><path fill="#92E3A9" fill-opacity=".7" d="m187.364 204.915-2.829-130.851-30.568.075c-1.309 20.593-.207 103.452.206 130.858l33.191-.082ZM20.716 76.715l33.529-.283s2.807 101.224-2.96 128.82l-28.318.07s.298-36.874-.167-67.308c-.464-30.435-2.084-61.299-2.084-61.299Z" opacity=".2"/><path fill="#000" d="m107.328 45.428.496.304c.256.139.427.304.512.496.085.192.128.459.128.8 0 .384-.112.725-.336 1.024a2.257 2.257 0 0 1-.864.672 3.842 3.842 0 0 1-.944.272 5.267 5.267 0 0 1-.864.096 4.72 4.72 0 0 1-.832-.096c-.331-.064-.56-.123-.688-.176a3.46 3.46 0 0 1-.864-.704c-.235-.277-.352-.56-.352-.848 0-.213.069-.379.208-.496a.77.77 0 0 1 .544-.192c.107 0 .219.043.336.128a.647.647 0 0 1 .24.24c.117.277.315.485.592.624.277.139.56.208.848.208a3 3 0 0 0 1.04-.176c.32-.128.48-.299.48-.512a.304.304 0 0 0-.08-.224.828.828 0 0 0-.192-.192c-.149-.107-.373-.192-.672-.256l-.576-.144a6.246 6.246 0 0 1-1.28-.432c-.416-.203-.747-.443-.992-.72-.245-.277-.368-.635-.368-1.072 0-.288.107-.587.32-.896.213-.32.453-.544.72-.672.192-.075.512-.155.96-.24.459-.085.768-.128.928-.128.245 0 .512.027.8.08.288.043.507.117.656.224.288.17.523.352.704.544a.86.86 0 0 1 .272.624c0 .117-.027.245-.08.384-.053.128-.117.208-.192.24-.16.075-.347.112-.56.112a.362.362 0 0 1-.24-.08 3.832 3.832 0 0 1-.224-.256c-.117-.181-.229-.288-.336-.32a8.527 8.527 0 0 0-.56-.112 2.914 2.914 0 0 0-.496-.08c-.245 0-.501.07-.768.208-.256.139-.384.299-.384.48 0 .096.037.17.112.224a3.3 3.3 0 0 0 .256.144c.096.043.16.07.192.08.224.107.469.197.736.272.277.075.448.123.512.144.576.139.96.272 1.152.4Zm11.141-1.248a.757.757 0 0 1-.416-.112 2.446 2.446 0 0 1-.336-.336.825.825 0 0 0-.384-.272 1.416 1.416 0 0 0-.448-.064c-.309 0-.613.096-.912.288a2.175 2.175 0 0 0-.72.768 2.26 2.26 0 0 0-.272 1.104c0 .448.085.821.256 1.12.181.299.464.56.848.784a2.314 2.314 0 0 0 .976.24c.331 0 .757-.144 1.28-.432.043-.021.123-.059.24-.112a.737.737 0 0 1 .288-.096c.117 0 .251.059.4.176.149.107.224.24.224.4 0 .32-.139.592-.416.816-.267.224-.603.39-1.008.496-.405.107-.805.16-1.2.16a3.706 3.706 0 0 1-1.76-.432 3.344 3.344 0 0 1-1.296-1.2 3.193 3.193 0 0 1-.48-1.728c0-.693.155-1.317.464-1.872a3.478 3.478 0 0 1 1.248-1.328 3.218 3.218 0 0 1 1.728-.496c.597 0 1.147.117 1.648.352.512.235.768.592.768 1.072 0 .47-.24.704-.72.704Zm7.761-5.296c0 .277-.005.603-.016.976a29.8 29.8 0 0 1-.032.832 27.786 27.786 0 0 0-.048 1.632c0 .715.016 1.29.048 1.728.246-.608.592-1.067 1.04-1.376.448-.32.96-.48 1.536-.48.395 0 .763.176 1.104.528.342.352.56.763.656 1.232.011.053.016.133.016.24 0 .128-.01.33-.032.608a4.746 4.746 0 0 0-.048.672c0 .576.022 1.024.064 1.344.043.31.134.565.272.768.139.192.358.347.656.464.118.043.198.101.24.176.054.064.08.165.08.304 0 .192-.101.336-.304.432a1.246 1.246 0 0 1-.56.144c-.373 0-.709-.101-1.008-.304a1.896 1.896 0 0 1-.672-.8 2.456 2.456 0 0 1-.208-.8 10.74 10.74 0 0 1-.048-1.088l.016-1.392c0-.757-.245-1.136-.736-1.136-.352 0-.693.288-1.024.864-.33.576-.597 1.253-.8 2.032-.202.779-.304 1.419-.304 1.92 0 .235-.074.41-.224.528a.697.697 0 0 1-.432.16c-.234 0-.448-.07-.64-.208-.192-.15-.288-.315-.288-.496.075-.8.112-2.139.112-4.016 0-.341-.026-1.605-.08-3.792l-.048-1.472c0-.235.107-.437.32-.608.214-.181.454-.272.72-.272.235 0 .406.053.512.16.107.107.16.272.16.496Zm9.972 6.752c0-.405.075-.81.224-1.216.149-.416.347-.795.592-1.136.245-.341.635-.619 1.168-.832.533-.224 1.008-.336 1.424-.336.427 0 .859.059 1.296.176.448.117.757.299.928.544.395.555.592 1.099.592 1.632 0 .288-.064.533-.192.736a3.558 3.558 0 0 1-.512.656c-.181.192-.469.32-.864.384a6.996 6.996 0 0 1-1.152.096 7.57 7.57 0 0 1-.896-.064 14.531 14.531 0 0 1-1.024-.192c.021.213.075.421.16.624s.187.357.304.464c.213.203.432.33.656.384.235.053.533.08.896.08.384 0 .741-.064 1.072-.192.267-.096.485-.144.656-.144.203 0 .357.064.464.192.107.117.16.272.16.464 0 .267-.155.485-.464.656a3.86 3.86 0 0 1-1.072.384 5.41 5.41 0 0 1-.96.112c-.501 0-.987-.09-1.456-.272a3.1 3.1 0 0 1-1.168-.768 3.38 3.38 0 0 1-.608-1.072 4.096 4.096 0 0 1-.224-1.36Zm3.488-2.16c-.235 0-.469.048-.704.144a1.444 1.444 0 0 0-.576.368 2.998 2.998 0 0 0-.4.496 1.326 1.326 0 0 0-.128.496c.267.085.821.128 1.664.128.459 0 .811-.07 1.056-.208.256-.139.384-.32.384-.544 0-.224-.139-.427-.416-.608a1.582 1.582 0 0 0-.88-.272Zm14.169-4.464c0 .107-.027.4-.08.88a35.939 35.939 0 0 0-.176 3.568c0 1.056.016 1.861.048 2.416.032.555.112.981.24 1.28.128.288.325.432.592.432.512 0 .768.17.768.512 0 .224-.112.416-.336.576a1.3 1.3 0 0 1-.736.224 1.86 1.86 0 0 1-.896-.224 1.58 1.58 0 0 1-.656-.688c-.224.33-.549.597-.976.8a2.89 2.89 0 0 1-1.216.288c-.608 0-1.147-.128-1.616-.384a2.766 2.766 0 0 1-1.088-1.04 2.915 2.915 0 0 1-.384-1.472c0-.512.059-1.003.176-1.472.128-.48.299-.875.512-1.184a2.998 2.998 0 0 1 1.152-.96c.491-.245.971-.368 1.44-.368.288 0 .56.059.816.176.256.107.48.24.672.4 0-.715-.005-1.163-.016-1.344v-.336c0-.992.064-1.717.192-2.176.117-.448.4-.672.848-.672.245 0 .427.053.544.16.117.107.176.31.176.608Zm-4.928 7.136c0 .49.139.885.416 1.184.288.299.629.448 1.024.448.565 0 .981-.176 1.248-.528.277-.352.416-.805.416-1.36l-.016-1.584c-.416-.459-.848-.688-1.296-.688-.309 0-.603.08-.88.24a1.61 1.61 0 0 0-.64.688c-.181.352-.272.885-.272 1.6Zm11.58-4.064c.704 0 1.056.464 1.056 1.392 0 .117-.011.379-.032.784a26.4 26.4 0 0 0-.032 1.104c0 .747.101 1.35.304 1.808.075.15.208.267.4.352.203.085.373.128.512.128.213 0 .389-.027.528-.08a1.21 1.21 0 0 0 .384-.24c.128-.107.251-.224.368-.352a1.54 1.54 0 0 0 .384-.768c.064-.299.101-.693.112-1.184 0-.31.016-.608.048-.896.064-.47.096-.907.096-1.312a.88.88 0 0 1 .176-.56c.128-.16.309-.24.544-.24.117 0 .256.043.416.128.171.075.283.16.336.256.075.128.112.304.112.528 0 .139-.016.267-.048.384-.053.16-.08.363-.08.608 0 .128.011.341.032.64.032.224.048.453.048.688 0 .715.053 1.243.16 1.584.117.363.277.683.48.96.213.224.357.39.432.496.075.096.112.181.112.256 0 .128-.064.25-.192.368a.588.588 0 0 1-.4.176c-.395 0-.741-.133-1.04-.4a2.517 2.517 0 0 1-.64-1.056c-.117.139-.272.31-.464.512a4.389 4.389 0 0 1-.544.496c-.416.299-.949.448-1.6.448-.267 0-.56-.08-.88-.24a3.418 3.418 0 0 1-.848-.624 2.202 2.202 0 0 1-.528-.848 3.832 3.832 0 0 1-.096-.256c-.043-.15-.064-.373-.064-.672l-.016-2.56c0-.15-.037-.384-.112-.704a1.855 1.855 0 0 1-.096-.48.61.61 0 0 1 .176-.448.705.705 0 0 1 .496-.176Zm13.358 4.464c0 .405.059.72.176.944.128.213.288.32.48.32.107 0 .208-.005.304-.016.096-.021.192-.032.288-.032.107 0 .198.053.272.16a.547.547 0 0 1 .128.352c0 .256-.122.459-.368.608-.234.139-.554.208-.96.208-.288 0-.581-.085-.88-.256-.288-.181-.528-.459-.72-.832-.192-.384-.288-.859-.288-1.424 0-1.216.022-2.245.064-3.088.054-1.003.08-2.267.08-3.792 0-.48.027-.816.08-1.008a.672.672 0 0 1 .304-.336.998.998 0 0 1 .88-.048.431.431 0 0 1 .256.256c.043.128.07.256.08.384a3 3 0 0 1 .032.512c0 .437-.016.859-.048 1.264-.021.49-.032.848-.032 1.072a107.967 107.967 0 0 0-.128 4.752Zm6.132-1.136c0-.384.069-.741.208-1.072.138-.341.341-.693.608-1.056.266-.363.634-.645 1.104-.848a3.67 3.67 0 0 1 1.536-.32c.426 0 .837.09 1.232.272.405.17.768.384 1.088.64.042.075.117.213.224.416.106.192.181.368.224.528.053.16.08.325.08.496 0 .715-.262 1.195-.784 1.44-.523.235-1.184.352-1.984.352s-1.451-.053-1.952-.16c.021.203.074.405.16.608.085.203.186.357.304.464.213.203.421.336.624.4.213.053.496.08.848.08.533 0 .949-.101 1.248-.304.277-.181.49-.272.64-.272.202 0 .357.064.464.192.106.117.16.272.16.464 0 .405-.262.736-.784.992-.512.256-1.094.384-1.744.384-.512 0-1.019-.09-1.52-.272-.502-.181-.902-.437-1.2-.768a6.225 6.225 0 0 1-.544-1.248 4.54 4.54 0 0 1-.24-1.408Zm3.52-1.984c-.235 0-.48.043-.736.128a1.198 1.198 0 0 0-.576.352 2.695 2.695 0 0 0-.384.496 1.58 1.58 0 0 0-.144.56c.117 0 .229.005.336.016.106.01.208.021.304.032.469.043.821.064 1.056.064.469 0 .826-.07 1.072-.208.256-.139.384-.325.384-.56 0-.224-.144-.427-.432-.608a1.584 1.584 0 0 0-.88-.272Z"/><path stroke="#495E4C" stroke-linecap="round" stroke-linejoin="round" stroke-width=".6" d="M291.001 207.197s-103.562-1.623-147.486.364c-31.424 1.42-125.922.311-125.922.311s1.79-60.695-.226-91.455c-1.298-19.617-.194-78.606-.194-78.606s100.595-.08 132.931-1.258c53.508-1.979 140.477.583 140.477.583s2.191 42.193.166 67.314c-2.046 25.624.254 102.747.254 102.747Z"/><path stroke="#495E4C" stroke-linecap="round" stroke-linejoin="round" stroke-width=".6" d="M24.83 57.86s31.689-1.106 68.035-.169c36.347.937 91.615.142 121.115-.757 29.499-.9 65.181-1.24 65.181-1.24M24.875 76.505S254.996 73.89 279.17 73.83"/><path stroke="#495E4C" stroke-linecap="round" stroke-linejoin="round" stroke-width=".6" d="M54.195 56.25s3.476 113.146.334 135.371m31.358-135.45s-.854 124.56.329 133.286M119.034 56.09s1.221 24.531 1.584 46.23c.362 21.699-1.258 86.028.23 93.204m33.077-138.488s-1.587 74.576-.789 100.116c.798 25.539 1.134 39.336 1.134 39.336m30.183-140.56s3.159 88.652 2.883 107.666c-.277 19.015.073 29.629.073 29.629m30.188-138.668s-.055 52.297 1.855 66.826c1.91 14.528-.66 74.973-.66 74.973M250.2 54.474s1.316 26.746 1.573 41.685c.257 14.94-.355 91.198 1.709 96.926"/><path fill="#fff" stroke="#495E4C" stroke-linecap="round" stroke-linejoin="round" d="M24.914 92.336s47.83-.88 78.142-.193c0 0-.056 7.154.025 9.962 0 0-70.558-.336-78.142.193 0 0 .56-8.175-.025-9.962Zm160.7-.733.026 10.33s59.685-.657 66.07-1.693l-.143-9.962s-44.768-.348-65.953 1.325Z"/><path fill="#5CCD6A" stroke="#495E4C" stroke-linecap="round" stroke-linejoin="round" d="m85.485 104.957 67.955-.168-.402 9.518s-28.626.645-44.037 1.006c-15.412.361-22.966.819-22.966.819l-.55-11.175Zm167.698-3.223.297 7.153s21.142-1.343 24.251-1.08l-.017-7.154s-18.713-.212-24.531 1.081Z"/><path fill="#fff" stroke="#495E4C" stroke-linecap="round" stroke-linejoin="round" d="M153.497 127.535s58.059-1.331 65.961-3.701l.036 14.204s-56.732.34-66.569 1.94c0 .026-.597-9.612.572-12.443Z"/><path stroke="#92E3A9" stroke-linecap="round" stroke-linejoin="round" d="M157.494 127.435s-5.53 7.535-4.388 8.494c1.141.959 6.748-8.171 8.468-8.414 1.719-.243-5.974 12.553-5.238 13.003.736.45 10.469-13.526 12.784-13.532 2.315-.005-5.114 12.164-3.645 12.102 1.47-.062 8.32-11.881 10.818-12.119 2.499-.239-5.762 11.926-3.843 11.869 1.918-.056 9.581-12.981 11.17-12.294 1.589.687-7.873 11.26-5.357 12.119 2.515.859 8.909-11.314 11.987-11.935 3.078-.621-7.095 11.09-4.117 11.392 2.977.303 7.407-12.201 9.732-11.213 2.325.989-4.243 7.939-3.272 8.402.972.462 4.051-8.365 7.153-8.411 3.101-.047-3.655 7.937-2.918 8.897.737.96 3.882-2.359 3.882-2.359"/><path stroke="#5CCD6A" stroke-linecap="round" stroke-linejoin="round" d="M27.817 92.29s-2.456 5.171-1.868 5.409c.589.237 2.927-5.115 5.221-4.868 2.294.246-4.137 9.372-2.637 9.323 1.499-.049 6.589-10.457 8.155-9.905 1.567.551-3.756 8.686-2.74 9.246 1.015.559 6.083-9.849 7.687-9.278 1.603.57-4.484 8.882-2.918 8.878 1.565-.003 6.813-9.055 8.407-9.06 1.595-.003-4.919 7.896-3.322 8.938 1.598 1.042 5.503-9.963 7.835-8.948 2.333 1.014-3.47 8.402-1.726 9.191 1.743.79 6.223-9.835 7.68-9.27 1.456.564-4.312 10.056-3.313 10.06 1 .004 7.411-10.91 8.869-10.094 1.457.817-5.355 10.092-4.047 10.089 1.308-.004 8.116-11.216 9.859-10.665 1.743.551-4.484 8.695-2.917 9.201 1.566.506 5.365-5.76 6.093-5.76.728-.003-2.536 5.752-1.625 5.749.912-.002 4.386-9.605 6.123-8.64 1.737.964-2.02 6.332-1.145 6.588.876.256 6.377-6.918 7.975-5.895 1.597 1.022-6.187 9.454-3.718 9.448 2.47-.006 6.665-9.333 8.702-9.209 2.036.124-4.052 8.313-2.45 8.438 1.603.125 4.778-9.205 6.52-8.7 1.744.506-2.451 7.031-1.29 7.409 1.163.378 3.615-6.523 5.652-6.4 2.036.125-3.762 6.654-1.292 6.899 2.47.246 3.326-7.284 5.797-7.039 2.47.246-3.107 6.923-1.76 7.798 1.347.874 3.417-3.334 3.417-3.334"/><path stroke="#495E4C" stroke-linecap="round" stroke-linejoin="round" d="m25.85 108.042 3.385-1.3a7.43 7.43 0 0 1-.67 2.856c.49-.099.935-.325 1.277-.648.343-.323.567-.729.645-1.165l-.372 1.047 3.167-.008a.64.64 0 0 1 .021-.463.756.756 0 0 1 .337-.358c-.337.266-.13.808.275.988a2.19 2.19 0 0 0 1.337-.004 14.133 14.133 0 0 0 3.195-1.118c-.08.321-.03.656.145.946.174.291.46.517.807.64a5.156 5.156 0 0 0 2.161.24l9.502-.288m-26.021 4.454s1.305-1.488 2.474-1.297c1.169.191.438 1.826.872 2.083.434.257 1.16-3.405 1.884-2.09.458.808 1.901 2.094 1.901 2.094s1.591-1.483 2.026-1.2c.434.283 1.308-.003 1.308-.003l13.523-.033m18.659-6.742s-10.851 31.36 80.614 27.738m-.005-2.247 2.329 2.5-2.319 1.277"/><path fill="#fff" d="M93.638 135.566c-7.563-3.048-21.265-.942-31.423 4.701-10.158 5.642-12.207 24.041 25.034 18.583 37.242-5.457 13.642-20.493.597-20.461"/><path stroke="#92E3A9" stroke-linecap="round" stroke-linejoin="round" d="M93.638 135.566c-7.563-3.048-21.265-.942-31.423 4.701-10.158 5.642-12.207 24.041 25.034 18.583 37.242-5.457 13.642-20.493.597-20.461"/><path stroke="#92E3A9" stroke-linecap="round" stroke-linejoin="round" d="M64.117 145.601s2.274-1.82 3.258-1.945c.985-.125-1.855 1.677.005 1.937 1.86.26 1.469-.649 3.276-.983 1.807-.334 2.37 1.44 2.37 1.44s2.938-.878 4.649-1.302c1.711-.424.586 2.038 2.943 1.284 2.357-.755 1.289-1.902 5.002-1.304 3.713.598 10.914.193 14.148-.035M67.43 151.01c.732-1.564-.18-1.865 1.857-1.076 2.038.789 3.202 1.858 4.075 1.061a2.71 2.71 0 0 1 1.358-.717 2.955 2.955 0 0 1 1.58.103c.868.321-1.167.836.868.321a8.639 8.639 0 0 0 3.2-1.506s-.511 1.086 1.637 2.056c2.149.969 3.672-1.042 3.672-1.042 3.276-.118 6.556-.081 9.827.111"/><path fill="#495E4C" d="m87.712 239.726 7.757-7.502-.005-1.936 5.927-4.78s7.252 2.184 10.725 9.929l-6.279 4.677-2.403.277-9.268 5.834s-6.443-1.947-6.454-6.499Z"/><path stroke="#fff" stroke-linecap="round" stroke-linejoin="round" stroke-width=".6" d="M101.63 226.954s2.67 6.927 9.524 8.324m-14.45-2.947s2.425 5.579 7.552 7.355" opacity=".3"/><path fill="#333A2E" d="M36.001 60.916c.15 0 .33.101.544.304.224.192.336.357.336.496 0 .65-.021 1.541-.064 2.672-.01.277-.021.613-.032 1.008-.01.384-.016.832-.016 1.344 0 1.621.096 2.816.288 3.584-.01.256-.112.443-.304.56-.192.107-.384.16-.576.16-.426 0-.71-.15-.848-.448-.128-.299-.192-.725-.192-1.28 0-2.059.021-3.952.064-5.68-1.227 1.365-2.181 2.512-2.864 3.44l-.288.192c-.181.16-.33.24-.448.24-.277 0-.506-.07-.688-.208a2.352 2.352 0 0 1-.528-.608l-.768-1.088a43.646 43.646 0 0 1-1.168-1.696c0 .981.048 2.315.144 4 .075.97.112 1.701.112 2.192 0 .256-.064.475-.192.656-.128.17-.33.256-.608.256-.277 0-.507-.053-.688-.16a.565.565 0 0 1-.272-.48c.01-.181.016-.48.016-.896 0-.832-.026-1.845-.08-3.04l-.032-.864-.032-1.12c-.01-.33-.021-.715-.032-1.152a65.2 65.2 0 0 1-.016-1.456c0-.64.347-.96 1.04-.96.213 0 .427.053.64.16.224.107.39.261.496.464.085.373.4.992.944 1.856a69.114 69.114 0 0 0 1.6 2.432c.47-.597.854-1.045 1.152-1.344a13.99 13.99 0 0 0 1.264-1.456c.341-.448.71-.987 1.104-1.616.096-.128.235-.235.416-.32.181-.096.373-.144.576-.144Zm9.378 4.976c.086.15.155.368.208.656.054.277.08.528.08.752 0 .416-.09 1.008-.272 1.776-.736 1.344-1.824 2.016-3.264 2.016-.533 0-1.077-.176-1.632-.528-.554-.352-.938-.757-1.152-1.216-.288-.917-.432-1.499-.432-1.744 0-.427.091-.88.272-1.36.192-.48.432-.896.72-1.248.182-.245.507-.453.976-.624.47-.181.896-.272 1.28-.272.747 0 1.382.144 1.904.432.523.277.96.73 1.312 1.36Zm-1.392 2.576c.054-.139.08-.496.08-1.072 0-.31-.058-.613-.176-.912a2.04 2.04 0 0 0-.48-.768.73.73 0 0 0-.176-.096 1.691 1.691 0 0 0-.4-.144 1.774 1.774 0 0 0-.56-.08c-.597 0-1.034.24-1.312.72a3.203 3.203 0 0 0-.416 1.632c0 .107.027.31.08.608.064.299.118.485.16.56.032.075.112.181.24.32.139.128.304.245.496.352.203.096.411.144.624.144.48 0 .864-.112 1.152-.336a2.46 2.46 0 0 0 .688-.928ZM58.848 62.7c0-.459.336-.688 1.008-.688.288 0 .837.01 1.648.032a46.41 46.41 0 0 0 2.032.064c.373 0 .826-.021 1.36-.064.362-.021.592-.032.688-.032.587.021 1.082.128 1.488.32a.97.97 0 0 1 .288.192c.075.075.112.197.112.368a.893.893 0 0 1-.224.608c-.15.16-.33.24-.544.24-.235 0-.576-.032-1.024-.096a5.681 5.681 0 0 0-1.04-.112 9.73 9.73 0 0 0-.656.016c-.032.352-.048 1.195-.048 2.528 0 1.59.048 3.2.144 4.832l.032.464c0 .437-.25.656-.752.656-.395 0-.661-.09-.8-.272-.139-.192-.208-.48-.208-.864 0-.757-.021-1.701-.064-2.832a50.6 50.6 0 0 1-.064-2c0-.267.032-1.083.096-2.448l-1.872.016c-.598 0-1.014-.053-1.248-.16-.235-.117-.352-.373-.352-.768Zm8.18 3.936a.362.362 0 0 1-.24-.096.382.382 0 0 1-.096-.256c0-.245.107-.475.32-.688.064-.032.192-.085.384-.16s.363-.112.512-.112c.406 0 .736.112.992.336.256.213.384.523.384.928 0 .117-.021.368-.064.752a11.74 11.74 0 0 0-.064 1.04c0 .747.102 1.35.304 1.808.075.15.192.267.352.352a.94.94 0 0 0 .432.128c.31 0 .56-.053.752-.16.192-.107.4-.277.624-.512.224-.235.368-.501.432-.8.075-.299.128-.71.16-1.232.022-.341.043-.592.064-.752.054-.512.08-.95.08-1.312 0-.235.064-.427.192-.576a.64.64 0 0 1 .528-.24.94.94 0 0 1 .432.128c.171.075.283.165.336.272.064.107.096.283.096.528 0 .128-.016.25-.048.368a3.594 3.594 0 0 0-.112.96l.016.832c0 .757.054 1.317.16 1.68.054.17.128.347.224.528.096.17.187.315.272.432.214.235.352.4.416.496.064.085.096.17.096.256 0 .128-.064.25-.192.368a.56.56 0 0 1-.384.16c-.394 0-.736-.133-1.024-.4a2.391 2.391 0 0 1-.64-1.04 8.944 8.944 0 0 1-1.008 1.008c-.213.15-.474.261-.784.336a4.57 4.57 0 0 1-.928.096c-.416 0-.837-.17-1.264-.512-.426-.341-.714-.736-.864-1.184a4.255 4.255 0 0 1-.096-.256c-.042-.15-.064-.373-.064-.672 0-.395.022-.89.064-1.488.032-.384.048-.736.048-1.056a.303.303 0 0 0-.112-.24.307.307 0 0 0-.224-.096.942.942 0 0 0-.224.032 1.79 1.79 0 0 1-.24.016Z"/><path fill="#000" fill-opacity=".7" d="m175.064 19.11 3.087-3.114 7.188-.017a16.7 16.7 0 0 0 5.411-2.08s-2.74-2.44-6.04-2.516l-6.203.016-16.573-2.6-92.264 7.465a9.62 9.62 0 0 0-.526 5.118c.294 1.718 1.052 3.35 2.211 4.756l103.709-7.029Zm41.528 6.67 2.487-1.873 8.04-.097c.51-2.286.564-4.632.159-6.934l-21.999-6.648c-5.637 3.107-3.313 15.588-3.313 15.588l14.626-.037Z" opacity=".2"/><path fill="#5CCD6A" stroke="#495E4C" stroke-linecap="round" stroke-linejoin="round" stroke-width=".5" d="M184.296 4.192s3.864-.436 6.073 1.134c0 0-.281 2.002-6.094 2.527l.021-3.661Z"/><path fill="#495E4C" d="M177.135 3.312 172.107.316 69.546 7.82c-4.49 6.416 1.148 12.761 1.148 12.761l103.208-7.802 3.616-3.128 7.156-1.096c.439-.79.659-1.66.64-2.538.056-.963-.289-1.91-.969-2.665l-7.21-.04Z"/><path fill="#92E3A9" d="m103.417 6.193 45.735-3.406c.094.19.135.395.119.6a1.18 1.18 0 0 1-.207.583 1.4 1.4 0 0 1-.489.433 1.61 1.61 0 0 1-.661.189l-42.876 3.334a1.682 1.682 0 0 1-.608-.057 1.53 1.53 0 0 1-.529-.27 1.329 1.329 0 0 1-.358-.435 1.156 1.156 0 0 1-.125-.526l-.001-.445Z"/><path stroke="#fff" stroke-linecap="round" stroke-linejoin="round" stroke-width=".6" d="M172.023 1.71s3.308 3.22.994 9.683m4.517-7.217c.582 1.3.735 2.719.443 4.093m-107.649.756s3.498 2.677 1.187 10.327" opacity=".3"/><path fill="#fff" d="M72.289 8.51s1.103.127 1.556 4.98l98.185-8.24c-.23-1.548-.929-3.014-2.024-4.244L72.289 8.51Zm106.199-4.659c.5.706.771 1.517.785 2.348l5.423-.478a5.193 5.193 0 0 0-.681-1.884l-5.527.014Z" opacity=".3"/><path fill="#5CCD6A" d="m225.193 20.664-11.185-2.458-1.96.922-7.583-2.351s-1.229-6.647 4.899-13.002l7.658 2.654 1.415 1.733 10.212 4.423s1.102 5.918-3.456 8.08Z"/><path stroke="#495E4C" stroke-linecap="round" stroke-linejoin="round" stroke-width=".6" d="m225.193 20.664-11.185-2.458-1.96.922-7.583-2.351s-1.229-6.647 4.899-13.002l7.658 2.654 1.415 1.733 10.212 4.423s1.102 5.918-3.456 8.08Z"/><path stroke="#495E4C" stroke-linecap="round" stroke-linejoin="round" stroke-width=".6" d="M205.83 15.928s5.697-5.347 3.867-11.308m3.831 12.58s4.457-4.53 3.821-9.326"/><path fill="#fff" d="M232.438 249.559s-5.948-46-10-55.753c-4.051-9.752-9.526-42.123-9.526-42.123s12.375-.903 16.123-.944c3.748-.042 8.584-3.204 8.584-3.204-.41.646-1.345.255-2.045-3.695-.47-2.646-5.051-3.435-5.051-3.435s-10.986.75-20.256-.325a13.008 13.008 0 0 1-6.902.017c-3.376-1.069-4.062-2.223-2.214-3.797 0 0-2.631-3.002 6.325-7.311 0 0-5.972-4.692-3.069-7.74 2.903-3.048 9.752-6.113 9.752-6.113s.281-2.299 1.544-2.896 8.136-3.087 11.908-5.395c3.772-2.308 5.419-2.144 12.4-2.329 6.982-.185 15.504-1.743 18.704-.472 2.487.988 3.65 4.878 3.65 4.878 2.324.64 2.568 3.978 2.717 4.797.693 3.659 5.529 18.82 7.667 21.449 2.138 2.629 3.406 7.229 3.03 9.619-.376 2.39-1.347 5.168-2.305 10.052-.958 4.883-4.209 21.716-5.814 26.576-1.605 4.859-2.488 13.287-1.611 17.371l22.556 39.296"/><path fill="#92E3A9" d="M260.287 124.816s-4.631 2.471-4.627 4.034c0 0-8.805 5.916-9.802 12.859 0 0-4.877 4.364-5.945 6.342-1.068 1.978-5.722 4.308-5.722 4.308a39.674 39.674 0 0 0-3.962-.12 55.14 55.14 0 0 1-6.618-1.275c2.205-.128 4.233-.23 5.401-.239 3.109-.008 6.962-2.212 8.188-2.958-.47.001-1.127-.991-1.649-3.947-.469-2.639-5.05-3.435-5.05-3.435s-10.986.75-20.256-.318a13.639 13.639 0 0 1-4.696.438 3.433 3.433 0 0 0-.24-1.509 3.796 3.796 0 0 0-.884-1.31s4.25-2.496 3.135-4.411c-.531-.915-2.436-1.479-4.297-1.817a23.443 23.443 0 0 1 4.191-2.483s-5.972-4.692-3.069-7.74c2.903-3.048 9.774-6.099 9.774-6.099s.281-2.293 1.544-2.896c0 0-.726 3.546 4.851 3.216 5.578-.33 13.604-3.262 13.604-3.262s15.141.331 18.208-1.724c0 0 3.681 2.748 6.372 3.213 2.691.465 1.549 11.133 1.549 11.133Zm15.478 19.99c-.384 2.384-1.347 5.169-2.305 10.052-.959 4.884-4.21 21.723-5.815 26.576-1.605 4.853-2.488 13.287-1.61 17.372l2.068 4.308c-4.478-6.936-4.148-16.054-3.794-18.45.427-2.939 2.906-13.804 5.097-19.427 2.191-5.622 2.361-17.373 2.36-17.78-.001-.407-1.155 2.585-2.33 5.9-1.176 3.315-5.496 12.662-5.496 12.662-.152-1.937 1.635-13.272 1.963-14.564.328-1.292 2.967-9.983 3.438-12.437.472-2.455-1.747-5.161-2.303-7.097-.556-1.935-2.753-10.568-3.348-16.513-.239-3.232-1.161-6.396-2.72-9.33a11.65 11.65 0 0 1 1.403 2.902c2.324.64 2.568 3.971 2.717 4.791.692 3.659 5.529 18.819 7.667 21.455 2.138 2.635 3.384 7.197 3.008 9.58Zm-42.726 106.339c-2.43-16.496-7.285-47.895-10.319-56.5 2.085 2.216 4.461 5.8 6.139 12.711 3.378 13.911 4.415 20.036 4.571 26.421.142 4.08.058 11.602-.391 17.368Z" opacity=".4"/><path stroke="#495E4C" stroke-linecap="round" stroke-linejoin="round" stroke-width=".6" d="M232.438 249.559s-5.948-46-10-55.753c-4.051-9.752-9.526-42.123-9.526-42.123s12.375-.903 16.123-.944c3.748-.042 8.584-3.204 8.584-3.204-.41.646-1.345.255-2.045-3.695-.47-2.646-5.051-3.435-5.051-3.435s-10.986.75-20.256-.325a13.008 13.008 0 0 1-6.902.017c-3.376-1.069-4.062-2.223-2.214-3.797 0 0-2.631-3.002 6.325-7.311 0 0-5.972-4.692-3.069-7.74 2.903-3.048 9.752-6.113 9.752-6.113s.281-2.299 1.544-2.896 8.136-3.087 11.908-5.395c3.772-2.308 5.419-2.144 12.4-2.329 6.982-.185 15.504-1.743 18.704-.472 2.487.988 3.65 4.878 3.65 4.878 2.324.64 2.568 3.978 2.717 4.797.693 3.659 5.529 18.82 7.667 21.449 2.138 2.629 3.406 7.229 3.03 9.619-.376 2.39-1.347 5.168-2.305 10.052-.958 4.883-4.209 21.716-5.814 26.576-1.605 4.859-2.488 13.287-1.611 17.371l22.556 39.296"/><path stroke="#495E4C" stroke-linecap="round" stroke-linejoin="round" stroke-width=".6" d="M201.115 136.3s1.938 2.3 8.624 1.341c6.686-.959 14.682-6.848 14.682-6.848l4.795-1.793s6.109.578 8.334-.363"/><path stroke="#495E4C" stroke-linecap="round" stroke-linejoin="round" stroke-width=".6" d="M234.134 129.155s3.993 3.735 7.192 4.579"/><path stroke="#495E4C" stroke-linecap="round" stroke-linejoin="round" stroke-width=".5" d="M237.582 147.535c2.708-1.537 6.284-5.827 9.576-6.151"/><path stroke="#495E4C" stroke-linecap="round" stroke-linejoin="round" stroke-width=".6" d="M237.011 142.345c1.459-4.272 5.858-8.615 5.858-8.615a19.95 19.95 0 0 1 2.702-4.009c1.09-1.42 2.749-2.427 4.646-2.82 0 0-3.875-9.565-2.741-11.492m-16.989 24.996s2.989-.84 3.668-2.592m-4.353-.983s-.177 2.725-4.835 3.588M229.202 129s2.312-1.362 3.087-2.733m-18.13-11.131s-.825 2.049 2.646 2.886c3.471.837 12.773-.116 16.64-2.934 0 0 .949-2.384.659-3.914"/><path stroke="#495E4C" stroke-linecap="round" stroke-linejoin="round" stroke-width=".6" d="M232.924 115.445s11.369-.384 12.236-.386c.867-.002 4.354-1.624 5.026-3.331m.016 15.173s2.56.769 4.33.429m-9.958 14.996s-.421-3.776 2.564-9.129m15.213-24.256c1.556 5.265 3.973 22.588 5.583 25.864 1.611 3.275 1.805 4.392.651 7.461-1.154 3.07-3.01 10.48-3.01 10.48m.43 46.06c-1.265-3.49-2.048-8.085-1.576-10.21"/><path fill="#495E4C" d="M192.134 124.836s-3.218.538-4.302 2.071c0 0 .952 1.288 4.839.93 3.887-.358-.537-3.001-.537-3.001Z"/><path fill="#5CCD6A" d="m203.594 119.468 90.879-12.072 1.196 14.247-91.278 8.18-4.267-1.675-6.982.172c-.651-.514-1.076-1.213-1.203-1.974a2.973 2.973 0 0 1 .51-2.195l7.184-1.374 3.961-3.309Z"/><path fill="#495E4C" d="m219.229 120.179 37.471-4.767a3.198 3.198 0 0 1 1.129.06c.368.086.713.237 1.013.443.3.206.55.463.735.755.185.293.3.616.34.949l.075.645c.078.647-.136 1.295-.597 1.805-.461.509-1.131.839-1.866.919l-37.539 4.102a3.197 3.197 0 0 1-1.116-.075 3 3 0 0 1-.995-.451 2.586 2.586 0 0 1-.718-.754 2.26 2.26 0 0 1-.329-.939c-.068-.633.143-1.264.589-1.765.445-.501 1.092-.832 1.808-.927Z"/><path fill="#000" fill-opacity=".7" d="m295.669 121.643-91.278 8.186-4.267-1.681-6.982.172a3.29 3.29 0 0 1-.884-1.05l7.349-.238 3.234.251 12.706-.968 3.703-6.136s3.263-.37 5.887 2.536c2.623 2.905 4.078 2.527 4.078 2.527l62.524-5.901.733-.647s-2.533-5.017-.022-9.123c.629-1.028 1.356-1.443 2.091-1.439l1.128 13.511Z" opacity=".3"/><path stroke="#495E4C" stroke-linecap="round" stroke-linejoin="round" stroke-width=".6" d="m203.594 119.468 90.879-12.072 1.196 14.247-91.278 8.18-4.267-1.675-6.982.172c-.651-.514-1.076-1.213-1.203-1.974a2.973 2.973 0 0 1 .51-2.195l7.184-1.374 3.961-3.309Z"/><path fill="#5CCD6A" d="M294.473 107.397c6.297-.455 7.684 13.662 1.196 14.246-6.209.557-7.589-13.791-1.196-14.246Z"/><path fill="#000" fill-opacity=".7" d="M295.669 121.643c-1.697.152-3.037-.813-3.952-2.302l.733-.647s-2.533-5.017-.022-9.123c.629-1.028 1.356-1.443 2.091-1.438 2.204-.006 4.463 3.733 4.372 5.754l.956.204c.354 3.544-.915 7.292-4.178 7.552Z" opacity=".3"/><path stroke="#495E4C" stroke-linecap="round" stroke-linejoin="round" stroke-width=".6" d="M294.473 107.397c6.297-.455 7.684 13.662 1.196 14.246-6.209.557-7.589-13.791-1.196-14.246Zm-90.879 12.072s-1.796 1.993-1.301 5.762c.171 1.678.901 3.275 2.098 4.591m-4.758-7.044a6.197 6.197 0 0 0-.368 2.729c.084.921.376 1.819.859 2.641"/><path stroke="#495E4C" stroke-linecap="round" stroke-linejoin="round" stroke-width=".6" d="M291.686 122.001c-6.216.558-7.448-13.165-1.122-14.085"/><path stroke="#495E4C" stroke-linecap="round" stroke-linejoin="round" stroke-width=".6" d="M294.6 108.287c4.982-.393 6.085 11.813.949 12.31-4.938.484-6.005-11.91-.949-12.31Z"/><path stroke="#495E4C" stroke-linecap="round" stroke-linejoin="round" stroke-width=".6" d="M294.617 109.159s2.604.839 3.077 4.989c.473 4.151-2.192 5.435-2.192 5.435"/><path fill="#fff" d="M237.594 152.222s-6.614.352-7.35.018c-.736-.334-4.868-7.142-5.065-9.265-.196-2.124-.602-8.941-.811-13.202-.209-4.26-.211-10.898-9.321-9.461-4.07.656-4.745 4.034-6.079 11.637-1.334 7.602-.072 9.62-1.018 19.326-.946 9.706.225 13.558 2.567 18.44 2.341 4.881 3.232 17.308 9.447 21.889 6.214 4.582 8.669 13.428 8.669 13.428"/><path fill="#92E3A9" d="M221.32 127.837c-1.667.36-8.083.666-8.497 2.546-.415 1.88 3.395 2.755 4.979 4.436-.059 0-6.615.016-8.078 2.829-1.463 2.812 1.235 8.835 1.243 12.154.008 3.318-3.268 9.97-.738 13.412 2.212 3.003 4.272 9.926 3.223 16.507-1.12-3.935-1.894-7.743-2.965-10.006-2.327-4.85-3.498-8.721-2.552-18.408.947-9.687-.323-11.73 1.018-19.333.957-5.458 1.574-8.746 3.363-10.403 2.094-.405 4.46-.566 5.88.321 3.04 1.833 4.814 5.58 3.124 5.945Z" opacity=".4"/><path stroke="#495E4C" stroke-linecap="round" stroke-linejoin="round" stroke-width=".6" d="M237.594 152.222s-6.614.352-7.35.018c-.736-.334-4.868-7.142-5.065-9.265-.196-2.124-.602-8.941-.811-13.202-.209-4.26-.211-10.898-9.321-9.461-4.07.656-4.745 4.034-6.079 11.637-1.334 7.602-.072 9.62-1.018 19.326-.946 9.706.225 13.558 2.567 18.44 2.341 4.881 3.232 17.308 9.447 21.889 6.214 4.582 8.669 13.428 8.669 13.428"/><path stroke="#495E4C" stroke-linecap="round" stroke-linejoin="round" stroke-width=".6" d="M225.165 142.975s-.626-.173-1.001-3.491a5.637 5.637 0 0 0-1.133-2.726 6.664 6.664 0 0 0-2.443-1.952m-8.526.021s-2.703.517-3.768 3.844"/><path fill="#333A2E" d="M103.201 60.78c.064-.224.16-.405.288-.544.128-.15.267-.224.416-.224.363 0 .624.07.784.208.16.139.24.379.24.72 0 .096-.074.368-.224.816a71.357 71.357 0 0 0-1.088 3.76c-.096.341-.176.64-.24.896-.053.256-.101.47-.144.64-.256 1.099-.48 1.925-.672 2.48a.78.78 0 0 1-.336.384 1.07 1.07 0 0 1-.512.128c-.181 0-.362-.037-.544-.112a.97.97 0 0 1-.368-.288c-.33-.65-.741-1.536-1.232-2.656a34.006 34.006 0 0 1-1.12-2.96 98.96 98.96 0 0 0-1.776 4.848c-.032.096-.07.203-.112.32-.032.107-.07.219-.112.336a.94.94 0 0 1-.32.384.868.868 0 0 1-.464.128 1.45 1.45 0 0 1-.56-.112c-.181-.085-.304-.181-.368-.288-.138-.235-.288-.597-.448-1.088-.15-.49-.352-1.179-.608-2.064l-.4-1.36a31.792 31.792 0 0 1-.72-2.72c-.203-.928-.304-1.483-.304-1.664 0-.224.112-.4.336-.528.224-.139.448-.208.672-.208a.77.77 0 0 1 .4.128c.139.075.23.208.272.4.374 1.995.923 4.31 1.648 6.944.278-.661.582-1.467.912-2.416.341-.95.667-1.872.976-2.768l.16-.48a.57.57 0 0 1 .32-.368c.181-.096.363-.144.544-.144.235 0 .427.059.576.176.15.117.246.245.288.384.01.043.224.677.64 1.904a37.938 37.938 0 0 0 1.488 3.712c.214-.63.47-1.637.768-3.024l.24-1.056a82.15 82.15 0 0 1 .704-2.624Zm2.277 5.856c0-.405.074-.81.224-1.216a4.56 4.56 0 0 1 .592-1.136c.245-.341.634-.619 1.168-.832.533-.224 1.008-.336 1.424-.336.426 0 .858.059 1.296.176.448.117.757.299.928.544.394.555.592 1.099.592 1.632 0 .288-.064.533-.192.736a3.602 3.602 0 0 1-.512.656c-.182.192-.47.32-.864.384a6.996 6.996 0 0 1-1.152.096 7.62 7.62 0 0 1-.896-.064 14.424 14.424 0 0 1-1.024-.192c.021.213.074.421.16.624.085.203.186.357.304.464.213.203.432.33.656.384.234.053.533.08.896.08.384 0 .741-.064 1.072-.192.266-.096.485-.144.656-.144.202 0 .357.064.464.192.106.117.16.272.16.464 0 .267-.155.485-.464.656a3.86 3.86 0 0 1-1.072.384 5.41 5.41 0 0 1-.96.112c-.502 0-.987-.09-1.456-.272a3.092 3.092 0 0 1-1.168-.768 3.38 3.38 0 0 1-.608-1.072 4.07 4.07 0 0 1-.224-1.36Zm3.488-2.16c-.235 0-.47.048-.704.144a1.444 1.444 0 0 0-.576.368 2.946 2.946 0 0 0-.4.496 1.326 1.326 0 0 0-.128.496c.266.085.821.128 1.664.128.458 0 .81-.07 1.056-.208.256-.139.384-.32.384-.544 0-.224-.139-.427-.416-.608a1.584 1.584 0 0 0-.88-.272Zm17.421-2.776c0-.459.336-.688 1.008-.688.288 0 .837.01 1.648.032a45.92 45.92 0 0 0 2.032.064c.373 0 .827-.021 1.36-.064.363-.021.592-.032.688-.032.587.021 1.083.128 1.488.32a.977.977 0 0 1 .288.192c.075.075.112.197.112.368a.894.894 0 0 1-.224.608.717.717 0 0 1-.544.24c-.235 0-.576-.032-1.024-.096a5.68 5.68 0 0 0-1.04-.112 9.73 9.73 0 0 0-.656.016c-.032.352-.048 1.195-.048 2.528 0 1.59.048 3.2.144 4.832l.032.464c0 .437-.251.656-.752.656-.395 0-.661-.09-.8-.272-.139-.192-.208-.48-.208-.864 0-.757-.021-1.701-.064-2.832a50.007 50.007 0 0 1-.064-2c0-.267.032-1.083.096-2.448l-1.872.016c-.597 0-1.013-.053-1.248-.16-.235-.117-.352-.373-.352-.768Zm11.577-.816a37.494 37.494 0 0 1-.048 1.808 27.786 27.786 0 0 0-.048 1.632c0 .405.016.827.048 1.264.33-.48.688-.832 1.072-1.056.384-.224.848-.336 1.392-.336.394 0 .762.176 1.104.528.341.352.56.763.656 1.232.032.416.048.923.048 1.52 0 .384.021.885.064 1.504.021.235.08.453.176.656.106.203.256.304.448.304.096 0 .17-.005.224-.016a1.15 1.15 0 0 1 .176-.016c.149 0 .25.037.304.112a.478.478 0 0 1 .096.32c0 .256-.128.448-.384.576-.256.128-.491.192-.704.192-.768 0-1.296-.32-1.584-.96-.16-.363-.262-.832-.304-1.408a28.445 28.445 0 0 1-.064-2.048c0-.768-.262-1.152-.784-1.152-.288 0-.582.155-.88.464-.288.299-.528.699-.72 1.2a4.178 4.178 0 0 0-.288 1.536l.016 1.664c0 .235-.091.41-.272.528a1.02 1.02 0 0 1-.512.16c-.235 0-.448-.07-.64-.208-.192-.15-.288-.315-.288-.496.074-.8.112-2.139.112-4.016 0-.341-.027-1.605-.08-3.792l-.048-1.472c0-.235.106-.437.32-.608.213-.181.453-.272.72-.272.234 0 .405.053.512.16.106.107.16.272.16.496Zm25.785 9.568a.681.681 0 0 1-.288.416c-.149.107-.363.16-.64.16-.235 0-.421-.064-.56-.192a.64.64 0 0 1-.208-.4c.064-.448.096-1.12.096-2.016 0-.533-.032-1.355-.096-2.464a39.353 39.353 0 0 1-.112-2.784c0-.437.021-.885.064-1.344 0-.15.085-.31.256-.48.181-.17.427-.277.736-.32 1.013-.107 2.256-.16 3.728-.16h.512c.384 0 .757.07 1.12.208.373.139.56.379.56.72 0 .224-.053.4-.16.528-.107.128-.304.192-.592.192-.139 0-.299-.01-.48-.032a18.176 18.176 0 0 1-.384-.048 6.481 6.481 0 0 0-.944-.096c-1.237 0-2.171.085-2.8.256 0 .352.011.923.032 1.712l.016 1.024c.555 0 1.051-.021 1.488-.064.437-.053.688-.085.752-.096.555-.064.923-.096 1.104-.096.256 0 .469.059.64.176.181.107.272.277.272.512 0 .533-.373.8-1.12.8a6.18 6.18 0 0 0-.48.016c-.139.01-.256.021-.352.032a8.723 8.723 0 0 1-.912.064c-.491 0-.907.016-1.248.048 0 .395.016.81.048 1.248 0 .139.005.352.016.64.021.288.032.55.032.784 0 .203-.005.39-.016.56-.011.17-.037.336-.08.496Zm8.319-.064c0 .181-.07.341-.208.48a.697.697 0 0 1-.512.208c-.32 0-.555-.059-.704-.176-.15-.128-.224-.357-.224-.688 0-.395-.011-.912-.032-1.552a33.292 33.292 0 0 1-.032-1.344c0-.17.01-.395.032-.672.021-.256.032-.448.032-.576a.872.872 0 0 0-.24-.496.645.645 0 0 0-.496-.208.29.29 0 0 1-.24-.128.516.516 0 0 1-.096-.288.63.63 0 0 1 .288-.56c.202-.128.442-.192.72-.192.576 0 .976.341 1.2 1.024.277-.32.592-.576.944-.768.362-.203.709-.304 1.04-.304.394 0 .752.107 1.072.32.33.213.496.501.496.864 0 .203-.091.41-.272.624-.171.213-.347.32-.528.32a.505.505 0 0 1-.256-.064 3.776 3.776 0 0 1-.24-.224 1.433 1.433 0 0 0-.272-.224.43.43 0 0 0-.256-.08c-.171 0-.331.027-.48.08-.15.053-.251.117-.304.192a4.354 4.354 0 0 0-.384.72 2.06 2.06 0 0 0-.112.688c0 .181-.006.325-.016.432l-.016.912c0 .139.005.293.016.464.01.17.021.299.032.384.032.288.048.565.048.832Zm27.604-3.256c0 .501-.117.933-.352 1.296-.224.352-.597.677-1.12.976a4.13 4.13 0 0 1-1.232.48c-.469.107-.944.16-1.424.16-.491 0-1.099-.16-1.824-.48-.523-.256-.939-.56-1.248-.912-.299-.352-.448-.736-.448-1.152 0-.288.064-.496.192-.624.128-.139.336-.208.624-.208.149 0 .304.064.464.192.16.117.256.235.288.352.149.437.411.773.784 1.008.373.224.837.336 1.392.336.64 0 1.173-.117 1.6-.352.437-.235.656-.55.656-.944 0-.384-.235-.725-.704-1.024a4.716 4.716 0 0 0-1.44-.624 10.582 10.582 0 0 1-1.872-.688c-.565-.277-.987-.619-1.264-1.024a2.233 2.233 0 0 1-.416-1.28c0-.416.144-.837.432-1.264.288-.437.629-.752 1.024-.944.213-.107.576-.219 1.088-.336.523-.128.901-.192 1.136-.192.309 0 .651.037 1.024.112.373.075.677.181.912.32.469.267.816.507 1.04.72.224.213.336.48.336.8a.706.706 0 0 1-.224.512c-.139.15-.384.224-.736.224a.39.39 0 0 1-.256-.112 3.473 3.473 0 0 1-.32-.336c-.171-.224-.336-.373-.496-.448a6.662 6.662 0 0 0-.704-.176 3.864 3.864 0 0 0-.8-.096c-.256 0-.523.053-.8.16a1.89 1.89 0 0 0-.704.464.95.95 0 0 0-.272.672c0 .213.096.4.288.56.203.15.443.272.72.368.32.128.667.24 1.04.336.491.15.891.288 1.2.416.32.117.629.267.928.448.523.31.901.63 1.136.96.235.32.352.768.352 1.344Zm8.776 2.128c0 .235-.128.432-.384.592-.245.16-.474.24-.688.24-.405 0-.73-.048-.976-.144-.234-.107-.453-.299-.656-.576-.277.245-.656.432-1.136.56a5.62 5.62 0 0 1-1.328.176c-.661 0-1.205-.176-1.632-.528-.426-.363-.64-.89-.64-1.584 0-.299.08-.57.24-.816.16-.256.379-.48.656-.672.31-.203.662-.357 1.056-.464a4.306 4.306 0 0 1 1.232-.176c.224 0 .491.043.8.128.31.085.55.176.72.272v-.256c0-.576-.138-.97-.416-1.184-.277-.224-.725-.336-1.344-.336-.181 0-.362.037-.544.112-.17.075-.368.176-.592.304-.298.16-.581.24-.848.24-.096 0-.186-.064-.272-.192a.73.73 0 0 1-.128-.368c0-.31.144-.576.432-.8.299-.224.651-.39 1.056-.496a3.967 3.967 0 0 1 1.088-.176c.32 0 .688.064 1.104.192.416.117.758.283 1.024.496.32.277.566.603.736.976.182.363.272.763.272 1.2 0 .139-.01.347-.032.624a11.24 11.24 0 0 0-.032.768c0 .096-.01.24-.032.432a6.66 6.66 0 0 0-.032.56c0 .128.048.24.144.336a.49.49 0 0 0 .336.128l.448-.016a.32.32 0 0 1 .272.128.518.518 0 0 1 .096.32Zm-5.152-.416c.459 0 .843-.048 1.152-.144.31-.096.683-.272 1.12-.528a3.78 3.78 0 0 0 .08-.72c-.586-.277-1.072-.416-1.456-.416-.437 0-.826.08-1.168.24-.341.16-.512.443-.512.848 0 .203.086.373.256.512a.831.831 0 0 0 .528.208Zm29.126-.712c0 .501-.117.933-.352 1.296-.224.352-.597.677-1.12.976a4.13 4.13 0 0 1-1.232.48c-.469.107-.944.16-1.424.16-.491 0-1.099-.16-1.824-.48-.523-.256-.939-.56-1.248-.912-.299-.352-.448-.736-.448-1.152 0-.288.064-.496.192-.624.128-.139.336-.208.624-.208.149 0 .304.064.464.192.16.117.256.235.288.352.149.437.411.773.784 1.008.373.224.837.336 1.392.336.64 0 1.173-.117 1.6-.352.437-.235.656-.55.656-.944 0-.384-.235-.725-.704-1.024a4.716 4.716 0 0 0-1.44-.624 10.582 10.582 0 0 1-1.872-.688c-.565-.277-.987-.619-1.264-1.024a2.233 2.233 0 0 1-.416-1.28c0-.416.144-.837.432-1.264.288-.437.629-.752 1.024-.944.213-.107.576-.219 1.088-.336.523-.128.901-.192 1.136-.192.309 0 .651.037 1.024.112.373.075.677.181.912.32.469.267.816.507 1.04.72.224.213.336.48.336.8a.706.706 0 0 1-.224.512c-.139.15-.384.224-.736.224a.39.39 0 0 1-.256-.112 3.473 3.473 0 0 1-.32-.336c-.171-.224-.336-.373-.496-.448a6.662 6.662 0 0 0-.704-.176 3.864 3.864 0 0 0-.8-.096c-.256 0-.523.053-.8.16a1.89 1.89 0 0 0-.704.464.95.95 0 0 0-.272.672c0 .213.096.4.288.56.203.15.443.272.72.368.32.128.667.24 1.04.336.491.15.891.288 1.2.416.32.117.629.267.928.448.523.31.901.63 1.136.96.235.32.352.768.352 1.344Zm1.192-2.496a.364.364 0 0 1-.24-.096.382.382 0 0 1-.096-.256c0-.245.107-.475.32-.688.064-.032.192-.085.384-.16s.363-.112.512-.112c.406 0 .736.112.992.336.256.213.384.523.384.928 0 .117-.021.368-.064.752-.042.448-.064.795-.064 1.04 0 .747.102 1.35.304 1.808.075.15.192.267.352.352a.94.94 0 0 0 .432.128c.31 0 .56-.053.752-.16.192-.107.4-.277.624-.512.224-.235.368-.501.432-.8.075-.299.128-.71.16-1.232.022-.341.043-.592.064-.752.054-.512.08-.95.08-1.312 0-.235.064-.427.192-.576a.64.64 0 0 1 .528-.24.94.94 0 0 1 .432.128c.171.075.283.165.336.272.064.107.096.283.096.528 0 .128-.016.25-.048.368a3.622 3.622 0 0 0-.112.96l.016.832c0 .757.054 1.317.16 1.68.054.17.128.347.224.528.096.17.187.315.272.432.214.235.352.4.416.496.064.085.096.17.096.256 0 .128-.064.25-.192.368a.559.559 0 0 1-.384.16c-.394 0-.736-.133-1.024-.4a2.395 2.395 0 0 1-.64-1.04 8.83 8.83 0 0 1-1.008 1.008c-.213.15-.474.261-.784.336a4.562 4.562 0 0 1-.928.096c-.416 0-.837-.17-1.264-.512-.426-.341-.714-.736-.864-1.184a5.737 5.737 0 0 1-.096-.256c-.042-.15-.064-.373-.064-.672 0-.395.022-.89.064-1.488.032-.384.048-.736.048-1.056a.302.302 0 0 0-.112-.24.306.306 0 0 0-.224-.096.946.946 0 0 0-.224.032 1.68 1.68 0 0 1-.24.016Z"/></g><defs><clipPath id="clip0_9021_6"><path fill="#fff" d="M0 0h300v250H0z" transform="rotate(-.142 300 .37)"/></clipPath></defs></svg>