<svg xmlns="http://www.w3.org/2000/svg" fill="none" viewBox="0 0 300 250"><g clip-path="url(#clip0_86_2353)" opacity=".5"><path fill="#D0FFD4" d="M239.014 240.794c.314-4.288-.347-8.597-1.913-12.476-1.565-3.879-3.978-7.185-6.985-9.571s-6.498-3.764-10.105-3.989c-3.608-.225-7.2.71-10.4 2.708-1.547-4.926-3.133-9.939-5.868-14.059-2.734-4.121-6.869-7.282-11.279-7.088v44.475h46.55Z"/><path fill="#E0E0E0" d="M167.968 133.76H71.53l-18.018-30.484-18.889 31.347-22.193-.426L36.348 95.81l107.53.534 24.09 37.416Z"/><path fill="#F5F5F5" d="M119.741 134.197v106.859h-96.3V134.197h11.036l19.035-30.921 18.075 30.455 48.154.466Z"/><path fill="#E0E0E0" d="M83.607 194.729h22.526v46.327H83.607v-46.327Zm-48.984-1.309h35.483v26.188H34.623V193.42Z"/><path fill="#EBEBEB" d="M59.453 193.42h.814v26.431h-.814V193.42Zm-14.755-.001h.813v26.432h-.813v-26.432Z"/><path fill="#EBEBEB" d="M45.105 206.945H59.86v.97H45.105v-.97Z"/><path fill="#E0E0E0" d="M34.623 141.013h35.483v26.189H34.623v-26.189Z"/><path fill="#EBEBEB" d="M59.453 141.003h.814v26.431h-.814v-26.431Zm-14.755 0h.813v26.431h-.813v-26.431Z"/><path fill="#EBEBEB" d="M45.105 154.539H59.86v.969H45.105v-.969Z"/><path fill="#E0E0E0" d="M85.959 141.246h22.38v25.248h-22.38v-25.248Zm33.774-7.049h39.087v106.849h-39.087V134.197Z"/><path fill="#EBEBEB" d="M96.742 141.246h.814v25.248h-.814v-25.248Z"/><path fill="#EBEBEB" d="M85.959 154.005h22.38v.97h-22.38v-.97Z"/><path fill="#E0E0E0" d="M53.56 129.329c-2.62 0-4.744-2.531-4.744-5.653 0-3.121 2.124-5.652 4.744-5.652 2.62 0 4.745 2.531 4.745 5.652 0 3.122-2.124 5.653-4.745 5.653Z"/><path fill="#F5F5F5" d="m87.407 116.744-5.99-8.804V86.774H93.96v30.135l-6.552-.165Z"/><path fill="#EBEBEB" d="M87.408 116.744v-29.97h-5.99v21.166l5.99 8.804ZM80.58 83.661h14.779v3.113h-14.78V83.66Z"/><path fill="#F5F5F5" d="M119.74 180.941h72.723v60.115H119.74v-60.115Z"/><path fill="#E0E0E0" d="M146.93 180.941h45.533v60.115H146.93v-60.115Z"/><path fill="#F5F5F5" d="M153.709 200.323h29.778v40.626h-29.778v-40.626Z"/><path fill="#EBEBEB" d="M123.745 200.159h19.182v5.817h-19.182v-5.817Zm44.223-66.398v3.093H71.587v-3.122l96.381.029Zm-96.381 3.092L53.56 106.708l-.048-3.432L71.53 133.76l.056 3.093Zm-58.693-2.656h21.582v1.997H12.894v-1.997Z"/><path fill="#E0E0E0" d="M91.29 187.622h7.967v3.606h-7.968v-3.606Z"/><path fill="#71D281" d="M263.11 45.683c-7.386-11.019-18.116-16.155-29.318-16.155 0 0-27.428 0-35.55 26.65-3 9.82-2.333 20.485 1.3 30.05a56.686 56.686 0 0 0 5.126 10.342c7.083 11.094 29.124 41.423 29.124 41.423h4.793c6.139-9.275 21.641-40.096 26.281-49.964 5.826-12.4 6.72-29.688-1.756-42.346Zm-24.742 49.299c-4.634 0-9.165-1.49-13.019-4.285-3.853-2.794-6.857-6.766-8.631-11.413a27.45 27.45 0 0 1-1.334-14.693c.904-4.934 3.135-9.465 6.413-13.022 3.277-3.557 7.452-5.98 11.998-6.96 4.545-.981 9.257-.477 13.538 1.448 4.282 1.925 7.941 5.185 10.516 9.368 2.574 4.182 3.948 9.1 3.947 14.13-.001 6.743-2.469 13.21-6.863 17.978-4.393 4.768-10.351 7.448-16.565 7.449Z"/><path fill="#8EEE9E" d="M267.932 45.893c-7.382-11.02-18.115-16.156-29.317-16.156 0 0-27.428 0-35.551 26.65-2.999 9.821-2.333 20.485 1.304 30.05a56.526 56.526 0 0 0 5.123 10.342c7.082 11.102 29.124 41.42 29.124 41.42s25.468-38.023 31.074-49.96c5.826-12.408 6.723-29.689-1.757-42.346ZM238.391 95.19c-4.634 0-9.164-1.491-13.017-4.286-3.854-2.794-6.857-6.766-8.63-11.413A27.448 27.448 0 0 1 215.41 64.8c.904-4.933 3.136-9.464 6.413-13.02 3.277-3.557 7.452-5.98 11.997-6.96 4.545-.982 9.257-.478 13.538 1.447 4.282 1.925 7.941 5.184 10.516 9.366 2.575 4.182 3.949 9.099 3.949 14.128a27.123 27.123 0 0 1-1.737 9.762c-1.169 3.097-2.894 5.91-5.075 8.276-2.18 2.367-4.772 4.24-7.626 5.508a21.665 21.665 0 0 1-8.994 1.885Z"/><path fill="#71D281" d="M238.368 44.124c-4.842 0-9.565 1.628-13.52 4.66-3.954 3.032-6.946 7.32-8.564 12.273 1.809-4.335 4.877-7.908 8.734-10.173 3.857-2.265 8.291-3.096 12.625-2.368 4.333.729 8.328 2.977 11.373 6.402 3.045 3.425 4.973 7.838 5.489 12.565.517 4.726-.407 9.506-2.63 13.608-2.223 4.103-5.623 7.303-9.68 9.11a18.601 18.601 0 0 1-12.785.902c-4.238-1.223-7.99-3.92-10.683-7.675 2.215 3.69 5.275 6.694 8.882 8.715 3.606 2.022 7.634 2.991 11.69 2.814 4.055-.176 7.999-1.494 11.444-3.822 3.445-2.329 6.274-5.589 8.209-9.461 1.935-3.872 2.91-8.224 2.83-12.628-.081-4.404-1.214-8.71-3.29-12.496-2.075-3.785-5.021-6.921-8.548-9.1-3.528-2.178-7.517-3.324-11.576-3.326Z"/></g><defs><clipPath id="clip0_86_2353"><path fill="#fff" d="M0 0h300v250H0z"/></clipPath></defs></svg>