<svg xmlns="http://www.w3.org/2000/svg" fill="none" viewBox="0 0 373 345"><g clip-path="url(#clip0_9035_222)" opacity=".5"><path fill="#5CCD6A" d="m292.781 102.514 46.234 17.194a20.542 20.542 0 0 1 5.491 3.053c1.632 1.276 2.997 2.765 4.014 4.379 1.017 1.613 1.666 3.32 1.909 5.02.243 1.7.075 3.358-.493 4.879l-20.369 54.477c-1.078 2.873-3.526 5.094-6.857 6.219-3.331 1.126-7.301 1.075-11.123-.143-1.281-.41-2.613-.424-3.725-.038s-1.92 1.142-2.259 2.115L264.853 315.7c-1.333 3.8-4.564 6.713-8.988 8.104-4.424 1.392-9.681 1.148-14.624-.677l-176.72-65.334a6.85 6.85 0 0 1-1.817-1.004 5.79 5.79 0 0 1-1.334-1.442 4.31 4.31 0 0 1-.645-1.656 3.288 3.288 0 0 1 .143-1.616l72.892-200.5c.358-.983 1.196-1.74 2.34-2.112 1.144-.372 2.505-.33 3.8.116l152.881 52.935Z"/><path fill="#000" d="m62.58 248.397-1.387 3.794 188.166 61.474 77.125-198.805s-46.493-12.837-47.334-13.181c-.841-.343-216.57 146.718-216.57 146.718Z" opacity=".3"/><path fill="#EBEBEB" d="m264.106 78.44 52.791 18.604-78.212 206.76-188.238-59.56L106.74 29.782 264.106 78.44Z"/><path fill="#495E4C" d="m264.784 78.716-2.823-.849-8.21-2.508-31.494-9.703-115.568-35.734.216-.09c-15.024 57.48-34.556 132.15-56.112 214.545l-.185-.27 42.375 13.429 146.72 46.481-.273.1c34.199-90.406 62.29-164.563 78.272-206.745l.082.135-39.445-13.981-10.149-3.605c-2.269-.808-3.416-1.234-3.416-1.234s1.162.39 3.437 1.184l10.167 3.56 39.477 13.877.118.048-.038.094c-15.946 42.222-43.946 116.416-78.125 206.797l-.068.166-.208-.085L92.88 257.917l-42.375-13.429-.235-.096.076-.189c21.59-82.373 41.157-157.028 56.23-214.496l.057-.138.172.07 115.523 35.844 31.471 9.786 8.198 2.562c1.831.613 2.787.885 2.787.885Z"/><path fill="#fff" d="M99.585 18.932 40.543 235.053l199.694 64.72 56.089-217.157L99.585 18.932Z"/><path fill="#495E4C" d="M99.573 18.962 297.2 82.779l.193.079-.062.152c-15.701 60.981-35.045 136.108-55.92 217.218l-.077.188-.239-.098-1.423-.454-199.074-64.586-.212-.086.068-.167c34.992-127.941 58.71-214.54 59.118-216.064-.428 1.575-23.969 88.238-58.716 216.237l-.168-.246 199.12 64.578 1.42.462-.303.113c20.932-81.145 40.297-156.247 56.026-217.217l.155.224-197.534-64.15Z"/><path fill="#E0E0E0" d="M181.04 245.639c1.839-4.464 5.446-8.085 10.365-10.406 4.918-2.32 10.928-3.236 17.267-2.631 6.34.605 12.726 2.703 18.35 6.03 5.624 3.327 10.234 7.732 13.246 12.659 3.012 4.926 4.292 10.153 3.677 15.019-.615 4.867-3.097 9.153-7.132 12.318-4.035 3.166-9.441 5.067-15.536 5.464-6.095.397-12.603-.728-18.703-3.233-8.173-3.362-15.03-8.959-19.067-15.562-4.037-6.603-4.924-13.672-2.467-19.658Zm61.111 25.078c1.807-4.381 1.799-9.393-.025-14.403-1.824-5.009-5.382-9.79-10.223-13.739-4.841-3.948-10.748-6.886-16.974-8.443-6.226-1.557-12.491-1.662-18.003-.302-5.513 1.36-10.024 4.124-12.964 7.942-2.941 3.818-4.177 8.519-3.554 13.508.623 4.989 3.077 10.043 7.053 14.521 3.977 4.478 9.295 8.181 15.284 10.638 8.029 3.288 16.687 4.112 24.074 2.289 7.387-1.823 12.901-6.142 15.332-12.011Z"/><path fill="#E0E0E0" d="M185.522 247.454c1.606-3.891 4.752-7.048 9.042-9.071 4.29-2.022 9.53-2.82 15.059-2.292 5.528.529 11.096 2.359 16 5.26s8.924 6.742 11.55 11.038c2.627 4.296 3.743 8.854 3.207 13.098-.535 4.243-2.699 7.981-6.216 10.742-3.518 2.76-8.232 4.419-13.546 4.767-5.314.347-10.989-.632-16.309-2.815-7.131-2.933-13.114-7.815-16.636-13.576-3.522-5.761-4.296-11.929-2.151-17.151Zm49.83 20.454c1.369-3.318 1.363-7.115-.019-10.909-1.382-3.794-4.077-7.416-7.744-10.407-3.667-2.99-8.141-5.216-12.857-6.394-4.716-1.179-9.461-1.259-13.636-.228-4.176 1.03-7.592 3.124-9.819 6.016-2.227 2.892-3.163 6.453-2.691 10.232.473 3.779 2.332 7.607 5.345 10.999 3.012 3.392 7.041 6.195 11.577 8.057 6.077 2.48 12.626 3.095 18.212 1.712 5.586-1.384 9.755-4.654 11.593-9.094l.039.016Z"/><path fill="#E0E0E0" d="M192.914 250.821c.926-2.265 2.571-4.199 4.799-5.645l3.006 2.757c-1.784 1.162-3.102 2.714-3.847 4.53-.855 2.074-.939 4.42-.244 6.797.696 2.377 2.146 4.699 4.201 6.726 2.056 2.028 4.642 3.688 7.492 4.809 2.85 1.121 5.862 1.663 8.724 1.57l1.056 3.321c-3.576.117-7.338-.56-10.899-1.962-3.561-1.401-6.791-3.475-9.357-6.009-2.567-2.534-4.377-5.435-5.244-8.405-.866-2.969-.758-5.9.313-8.489Zm14.141-9.269c4.483.111 9.123 1.424 13.203 3.737 4.081 2.313 7.375 5.497 9.375 9.062 2 3.565 2.596 7.311 1.694 10.663-.902 3.351-3.25 6.121-6.683 7.882l-2.728-2.931c2.748-1.41 4.628-3.627 5.349-6.31.722-2.683.245-5.682-1.357-8.536-1.602-2.853-4.24-5.402-7.507-7.253-3.266-1.851-6.98-2.901-10.569-2.988l-.777-3.326Z"/><path fill="#495E4C" d="M285.068 139.826c-.041.101-40.672-13.232-90.804-29.753-50.132-16.52-90.745-30.04-90.713-30.146.031-.106 40.672 13.231 90.817 29.749 50.145 16.518 90.735 30.037 90.7 30.15Zm-95.121-40.744c-.042.101-18.813-5.994-41.954-13.628-23.14-7.635-41.87-13.916-41.848-14.025.021-.11 18.813 5.993 41.953 13.628 23.14 7.634 41.867 13.922 41.849 14.025Zm92.452 49.482c-.041.101-40.682-13.236-90.804-29.753s-90.744-30.04-90.713-30.146c.032-.106 40.672 13.232 90.815 29.757 50.142 16.525 90.749 30 90.702 30.142Zm-2.639 8.666c-.044.109-40.682-13.236-90.807-29.746-50.125-16.509-90.744-30.04-90.71-30.153.035-.113 40.672 13.232 90.814 29.757 50.143 16.525 90.735 30.037 90.703 30.142Zm-2.657 8.709c-.041.101-40.682-13.236-90.804-29.753s-90.744-30.041-90.722-30.125c.023-.083 40.672 13.232 90.818 29.75 50.145 16.518 90.734 30.037 90.708 30.128Zm-2.654 8.701c-.041.102-40.682-13.235-90.814-29.756-50.132-16.521-90.734-30.037-90.712-30.147.021-.109 40.672 13.232 90.816 29.75 50.145 16.518 90.732 30.044 90.71 30.153Zm-2.664 8.698c-.044.109-40.672-13.231-90.807-29.745-50.135-16.514-90.744-30.041-90.7-30.15.045-.108 40.673 13.232 90.814 29.757 50.142 16.525 90.725 30.033 90.693 30.138Zm-2.656 8.71c-.041.101-40.158-13.022-89.585-29.348-49.427-16.326-89.554-29.648-89.523-29.753.032-.106 40.158 13.022 89.638 29.36 49.479 16.339 89.505 29.628 89.47 29.741Zm-74.608-11.645c-.042.101-24.243-7.874-54.055-17.853-29.812-9.979-53.997-18.108-53.966-18.213.032-.106 24.233 7.869 54.07 17.816s53.975 18.133 53.951 18.25Zm-56.909 57.663c-.041.101-14.754-4.767-32.888-10.898-18.133-6.13-32.801-11.166-32.777-11.283.025-.117 14.755 4.767 32.888 10.898 18.134 6.13 32.812 11.17 32.777 11.283Zm-30.788-3.237c-.045.108-8.319-2.553-18.48-6.019-10.161-3.465-18.403-6.316-18.382-6.426.022-.109 8.313 2.593 18.487 6.03 10.173 3.436 18.406 6.309 18.375 6.415Z"/><path fill="#5CCD6A" d="M128.732 174.887c-.044.109-9.792-2.985-21.82-6.909-12.029-3.924-21.75-7.194-21.716-7.307.034-.112 9.794 2.979 21.82 6.91s21.748 7.201 21.716 7.306Z"/><path fill="#000" d="m52.472 199.277 20.33 5.135 15.588-7.476-33.634-5.143-2.284 7.484Z" opacity=".3"/><path fill="#5CCD6A" d="m24.951 170.35 52.773 17.405 10.666 9.181-13.179 4.091-53.81-17.179 3.55-13.498Z"/><path fill="#495E4C" d="m194.19 200.541.161.117c.156.114.298.24.423.375.506.53.922 1.102 1.235 1.696 1.16 2.293 1.844 4.646 2.02 6.952.429 3.673-.152 7.199-1.704 10.332a12.117 12.117 0 0 1-1.885 2.61 17.763 17.763 0 0 1-2.766 2.251c-2.207 1.467-4.812 2.545-7.696 3.186-3.161.725-6.598.927-10.134.593-3.849-.35-7.739-1.438-11.343-3.171-3.942-1.979-7.391-4.65-10.01-7.753-2.62-3.103-4.322-6.533-4.941-9.956-.324-1.83-.27-3.624.16-5.309.393-1.747 1.307-3.31 2.674-4.57 1.348-1.352 3.318-2.209 5.613-2.439 1.188-.085 2.447.07 3.673.45 1.225.38 2.383.975 3.376 1.735 2.035 1.532 3.48 3.483 4.084 5.514.584 2.031.617 4.045.097 5.896-.969 3.788-3.171 7.113-6.411 9.677-3.219 2.586-7.427 4.29-12.21 4.942-4.674.589-9.75.071-14.671-1.496-4.766-1.467-9.201-3.927-12.79-7.092-3.389-3.074-5.784-6.695-6.893-10.421-1.112-3.537-.99-7.04.351-10.099.621-1.483 1.615-2.796 2.932-3.872 1.256-1.061 2.905-1.783 4.793-2.099a8.732 8.732 0 0 1 2.925.04 10.24 10.24 0 0 1 2.919.995c1.743.971 3.136 2.334 3.942 3.858.788 1.447 1.127 2.954.984 4.373a7.588 7.588 0 0 1-1.479 3.622c-1.555 1.949-3.61 3.572-6.066 4.79a35.208 35.208 0 0 1-6.913 2.796 46.416 46.416 0 0 1-6.712 1.399c-1.957.24-3.961.37-5.999.389a50.203 50.203 0 0 1-8.6-.647 40.465 40.465 0 0 1-3.023-.568s.264.032.77.121c.506.088 1.262.245 2.253.362 2.883.426 5.748.617 8.551.569a54.623 54.623 0 0 0 5.949-.435 45.762 45.762 0 0 0 6.643-1.428 35.429 35.429 0 0 0 6.861-2.724c2.409-1.216 4.426-2.825 5.956-4.751a7.39 7.39 0 0 0 1.45-3.548c.135-1.363-.197-2.81-.964-4.197-.771-1.444-2.094-2.736-3.746-3.659a9.579 9.579 0 0 0-2.744-.924 8.19 8.19 0 0 0-2.743-.025c-1.817.309-3.404 1.006-4.614 2.028-1.271 1.045-2.23 2.319-2.827 3.756-1.298 3.008-1.402 6.447-.299 9.917 1.105 3.643 3.455 7.179 6.77 10.185 3.525 3.089 7.867 5.493 12.531 6.935 4.833 1.534 9.816 2.04 14.406 1.464 4.693-.652 8.815-2.338 11.96-4.893 3.178-2.523 5.344-5.789 6.307-9.508.494-1.797.464-3.746-.09-5.715-.578-1.929-1.946-3.781-3.872-5.241a10.744 10.744 0 0 0-3.186-1.639 9.695 9.695 0 0 0-3.41-.413c-2.187.221-4.065 1.038-5.348 2.329-1.33 1.216-2.217 2.731-2.593 4.425-.446 1.629-.521 3.37-.221 5.149.606 3.355 2.27 6.718 4.832 9.762 2.561 3.044 5.933 5.668 9.791 7.619 3.538 1.704 7.356 2.78 11.138 3.138 3.489.334 6.882.144 10.005-.561 4.17-.923 7.726-2.768 10.326-5.358a11.254 11.254 0 0 0 1.859-2.545c1.577-3.101 2.191-6.6 1.798-10.251-.153-2.288-.8-4.624-1.912-6.907a7.984 7.984 0 0 0-1.166-1.694c-.323-.284-.555-.421-.537-.439Z"/><path fill="#455A64" d="M243.048 102.28s.05-.123.081-.381c.03-.258.148-.624.264-1.092.245-.965.609-2.38 1.07-4.21l4.051-15.771.114.165-102.107-32.088.293-.117c-1.931 7.34-3.792 14.508-5.628 21.406l-.188-.272 72.809 23.037 21.434 6.81 5.776 1.844 1.498.485.512.209-.496-.143-1.48-.452-5.739-1.778-21.411-6.683-72.99-22.933-.237-.097.074-.181c1.748-6.892 3.687-14.069 5.609-21.413l.077-.188.238.097 102.035 32.185.147.06-.045.108c-1.816 6.77-3.246 12.127-4.233 15.798-.494 1.81-.871 3.202-1.134 4.159-.125.464-.225.812-.295 1.063-.07.25-.099.373-.099.373Z"/><path fill="#78C081" d="m148.468 65.51 2.342-8.833 5.413 1.784c1.302.43 2.189.973 2.661 1.632.474.65.577 1.48.31 2.49-.268 1.01-.761 1.648-1.478 1.914-.715.259-1.723.173-3.025-.256l-3.553-1.17-.81 3.053-1.86-.613Zm3.052-3.879 3.444 1.136c.687.226 1.22.278 1.598.156.38-.13.637-.449.771-.953.136-.514.075-.936-.182-1.268-.248-.329-.72-.608-1.417-.838l-3.445-1.135-.769 2.902Zm10.209 8.374c-1.046-.344-1.773-.757-2.18-1.24-.405-.49-.515-1.084-.33-1.782.192-.724.595-1.15 1.208-1.276.626-.132 1.544 0 2.753.4l2.569.846c.117-.528.038-.966-.238-1.313-.263-.352-.753-.647-1.471-.883-.584-.193-1.057-.261-1.417-.206a1.102 1.102 0 0 0-.828.536l-1.737-.573c.35-.735.87-1.18 1.558-1.338.691-.166 1.631-.053 2.82.34 1.333.439 2.237.98 2.714 1.621.486.645.599 1.46.338 2.445l-1.024 3.861-1.753-.578.198-.744c-.747.376-1.807.337-3.18-.115Zm-.759-2.5c-.143.538.36.997 1.508 1.375.79.26 1.416.339 1.878.235.462-.104.812-.391 1.048-.862l.06-.227-2.107-.695c-1.435-.473-2.231-.415-2.387.174Zm7.67 2.432 1.737.573c.057.668.701 1.205 1.931 1.61 1.23.406 1.905.386 2.023-.06.105-.395-.548-.917-1.96-1.565-1.225-.55-2.059-1.063-2.501-1.538-.43-.48-.563-1.032-.398-1.655.176-.664.579-1.067 1.207-1.208.638-.137 1.547-.011 2.726.378 1.199.395 2.056.865 2.569 1.41.513.544.737 1.212.672 2.005l-1.737-.573c-.028-.357-.194-.658-.496-.904-.291-.252-.748-.48-1.374-.686-1.127-.372-1.747-.348-1.859.073-.055.21.064.433.359.667.307.23.803.502 1.488.82 1.301.602 2.168 1.135 2.603 1.599.447.458.589.995.426 1.609-.181.681-.604 1.1-1.269 1.255-.666.156-1.619.03-2.86-.38-1.209-.398-2.076-.871-2.6-1.42-.513-.544-.742-1.214-.687-2.01Zm12.136 6.347c-1.394-.46-2.338-1.063-2.831-1.811-.493-.748-.582-1.715-.267-2.901.314-1.187.861-1.944 1.639-2.273.779-.329 1.865-.264 3.259.196 1.241.409 2.119.923 2.635 1.541.516.618.727 1.401.631 2.349l-1.737-.573c.003-.475-.144-.866-.441-1.175-.298-.308-.769-.569-1.415-.782-.8-.263-1.422-.29-1.868-.08-.444.201-.76.66-.95 1.375-.19.715-.149 1.295.123 1.742.274.438.811.789 1.611 1.052.635.21 1.153.275 1.553.197.412-.084.732-.322.958-.714l1.738.573c-.37.848-.928 1.377-1.675 1.589-.735.206-1.723.104-2.963-.305Zm8.33 2.746c-1.046-.344-1.773-.758-2.18-1.24-.405-.49-.515-1.084-.33-1.783.192-.723.595-1.149 1.208-1.276.626-.132 1.544.001 2.753.4l2.568.847c.118-.529.039-.966-.237-1.313-.263-.353-.753-.647-1.471-.883-.584-.193-1.057-.262-1.417-.207a1.101 1.101 0 0 0-.828.537l-1.738-.573c.351-.735.871-1.181 1.559-1.338.691-.166 1.631-.053 2.82.339 1.333.44 2.237.98 2.714 1.622.486.645.599 1.46.338 2.444l-1.024 3.862-1.753-.578.198-.745c-.747.376-1.807.338-3.18-.115Zm-.759-2.5c-.143.538.36.997 1.508 1.375.79.26 1.416.338 1.878.235.462-.104.811-.391 1.048-.862l.06-.228-2.107-.694c-1.435-.473-2.231-.415-2.387.174Zm7.527 4.608 2.51-9.465 1.738.573-2.51 9.465-1.738-.573Zm9.55-6.458 1.968.649 2.004 8.524 5.839-5.939 1.968.649-7.171 7.242-2.122-.7-2.486-10.425Zm10.684 9.56c.312-1.178.862-1.93 1.651-2.255.791-.334 1.904-.265 3.339.209 1.436.473 2.4 1.083 2.892 1.831.493.748.582 1.715.268 2.901a5.129 5.129 0 0 1-.148.432l-6.32-2.083c-.095.609.007 1.109.304 1.5.308.394.826.711 1.554.951 1.077.355 1.848.284 2.314-.212l1.814.599c-.417.731-1.001 1.147-1.752 1.247-.751.1-1.66-.026-2.726-.377-1.435-.473-2.404-1.085-2.907-1.837-.504-.751-.598-1.72-.283-2.906Zm1.982-.033 4.567 1.506c.05-.57-.079-1.028-.388-1.377-.306-.357-.803-.649-1.49-.875-.687-.227-1.251-.285-1.693-.174-.431.114-.764.42-.996.92Zm8.703-.013 1.738.573-.207.783c.722-.412 1.724-.406 3.005.016 1.138.375 1.906.885 2.304 1.528.411.639.48 1.47.208 2.497l-.991 3.736-1.738-.573.991-3.736c.147-.555.085-1.014-.186-1.378-.262-.36-.746-.658-1.453-.89-.8-.264-1.421-.296-1.865-.094-.433.205-.746.669-.938 1.392l-.87 3.281-1.738-.572 1.74-6.563Zm12.159 4.008 2.322.766-.355 1.338-2.322-.766-.749 2.827c-.098.37-.062.675.109.914.17.24.502.44.994.602l1.045.345-.354 1.338-1.092-.36c-1.077-.355-1.814-.79-2.212-1.306-.386-.52-.477-1.168-.271-1.942l.793-2.99-1.261-.416.354-1.338 1.261.416.382-1.44 1.737.574-.381 1.438Z"/></g><defs><clipPath id="clip0_9035_222"><path fill="#fff" d="M0 0h300v250H0z" transform="rotate(22.217 47.264 240.72)"/></clipPath></defs></svg>